<svg xmlns="http://www.w3.org/2000/svg" width="678.884" height="81.185" viewBox="0 0 678.884 81.185"><defs><style>.a{fill:#315f72;}</style></defs><g transform="translate(1011.456 -1439.14) rotate(87)"><path class="a" d="M1461,411.327c1.338,11.656.821,23.722.719,35.415-.437,50.267-3.367,100.535-6.543,150.689-3.725,58.846-10.134,117.457-16.548,176.06-6.347,57.995-12.983,116.024-16.714,174.261-1.513,23.623-2.573,47.314-2.2,70.99.282,18.053,1.15,36.424,5.113,54.1.768,3.425,1.681,6.812,2.778,10.147.366,1.114,4.208.012,3.863-1.035-5.169-15.716-6.615-32.613-7.415-49.044-1.106-22.729-.463-45.535.692-68.248,2.931-57.686,9.361-115.175,15.624-172.574,6.37-58.382,13.154-116.764,17.33-175.355,3.8-53.289,6.8-106.755,7.742-160.18.2-11.334.3-22.679.02-34.013-.068-2.732-.155-5.463-.305-8.192-.047-.859.2-2.864-.249-3.636a1.4,1.4,0,0,1-.041-.417c-.115-1-4.006-.2-3.864,1.035Z"/><path class="a" d="M1432.329,1083.14l8.389-35.65c.421-1.79-3.521-1.3-3.905.332l-8.388,35.65c-.421,1.791,3.521,1.3,3.9-.332Z"/><path class="a" d="M1430.976,1084.248l-23.918-27.735c-1.089-1.262-4.772.245-3.548,1.665l23.919,27.734c1.088,1.263,4.772-.244,3.547-1.664Z"/></g></svg>