<svg width="83" height="680" viewBox="0 0 83 680" fill="none" xmlns="http://www.w3.org/2000/svg">
<g clip-path="url(#clip0)">
<path d="M42.2343 1.87914C44.1805 13.4491 44.2957 25.5257 44.8058 37.208C47.0002 87.429 46.705 137.781 46.1582 188.033C45.5181 246.993 42.1854 305.859 38.8472 364.718C35.5441 422.965 31.9541 481.262 31.2761 539.615C31.0015 563.284 31.1829 586.998 32.7945 610.622C34.021 628.636 35.8493 646.936 40.7319 664.381C41.6781 667.761 42.7671 671.095 44.0371 674.368C44.4609 675.462 48.24 674.16 47.8407 673.133C41.8563 657.709 39.5279 640.911 37.8691 624.544C35.5751 601.904 35.0236 579.096 34.9883 556.353C34.8962 498.593 38.3087 440.846 41.5591 383.198C44.8649 324.563 48.5841 265.906 49.6879 207.176C50.6938 153.762 50.8915 100.212 49.0362 46.8107C48.6427 35.4818 48.1489 24.1471 47.2761 12.8433C47.0652 10.1186 46.8353 7.3959 46.5427 4.67849C46.4508 3.82312 46.5925 1.80796 46.1037 1.06052C46.0622 0.926353 46.041 0.786704 46.041 0.646243C45.8738 -0.346368 42.03 0.656149 42.2364 1.88202L42.2343 1.87914Z" fill="#315F72"/>
<path d="M48.7628 674.272L55.2745 638.232C55.6013 636.422 51.6903 637.118 51.3922 638.768L44.8816 674.808C44.5549 676.618 48.4657 675.922 48.7587 674.272L48.7628 674.272Z" fill="#315F72"/>
<path d="M47.4695 675.449L22.1328 649.004C20.9792 647.801 17.3801 649.498 18.6768 650.852L44.0144 677.297C45.1671 678.501 48.7671 676.803 47.4695 675.449V675.449Z" fill="#315F72"/>
</g>
<defs>
<clipPath id="clip0">
<rect width="678.884" height="81.185" fill="white" transform="translate(0.849487 679.035) rotate(-90)"/>
</clipPath>
</defs>
</svg>
