<svg width="83" height="680" viewBox="0 0 83 680" fill="none" xmlns="http://www.w3.org/2000/svg">
<g clip-path="url(#clip0)">
<path d="M40.6504 1.87992C38.7042 13.4499 38.589 25.5264 38.0789 37.2087C35.8845 87.4297 36.1797 137.782 36.7265 188.034C37.3667 246.993 40.7034 305.859 44.0376 364.717C47.3397 422.965 50.9296 481.262 51.6086 539.613C51.8821 563.284 51.7048 586.997 50.0913 610.621C48.8648 628.635 47.0365 646.935 42.1539 664.38C41.2078 667.757 40.1188 671.092 38.8488 674.364C38.425 675.458 34.6459 674.156 35.0462 673.13C41.0297 657.705 43.358 640.906 45.0169 624.54C47.3109 601.9 47.8623 579.091 47.8976 556.349C47.9897 498.589 44.5773 440.842 41.3269 383.194C38.021 324.56 34.3018 265.902 33.198 207.173C32.1921 153.758 31.9944 100.209 33.8498 46.8076C34.2432 35.4786 34.7371 24.1439 35.6099 12.8401C35.8208 10.1154 36.0506 7.3927 36.3432 4.67529C36.4351 3.81993 36.2934 1.80477 36.7822 1.05732C36.8237 0.923158 36.8449 0.783508 36.8449 0.643047C37.0121 -0.349564 40.8559 0.652953 40.6495 1.87883L40.6504 1.87992Z" fill="#315F72"/>
<path d="M34.1212 674.271L27.6094 638.231C27.2827 636.421 31.1936 637.117 31.4917 638.766L38.0024 674.807C38.3291 676.617 34.4182 675.921 34.1252 674.271L34.1212 674.271Z" fill="#315F72"/>
<path d="M35.4143 675.448L60.7511 649.003C61.9047 647.799 65.5037 649.497 64.2071 650.851L38.8694 677.295C37.7168 678.5 34.1167 676.802 35.4143 675.448Z" fill="#315F72"/>
</g>
<defs>
<clipPath id="clip0">
<rect width="678.883" height="81.184" fill="white" transform="translate(82.0335 0.150391) rotate(90)"/>
</clipPath>
</defs>
</svg>
