<svg xmlns="http://www.w3.org/2000/svg" width="678.883" height="81.184" viewBox="0 0 678.883 81.184"><defs><style>.a{fill:#315f72;}</style></defs><g transform="translate(678.883 19.057) rotate(93)"><path class="a" d="M41.362,672.123c1.338-11.656.821-23.722.719-35.415-.437-50.267-3.367-100.535-6.543-150.689C31.813,427.174,25.4,368.563,18.99,309.96,12.644,251.965,6.008,193.936,2.276,135.7.764,112.076-.3,88.386.075,64.71c.282-18.053,1.15-36.424,5.113-54.1C5.956,7.188,6.869,3.8,7.966.466,8.332-.648,12.174.454,11.828,1.5,6.66,17.217,5.214,34.114,4.414,50.545c-1.106,22.729-.463,45.535.692,68.248,2.931,57.686,9.361,115.175,15.624,172.574C27.1,349.748,33.884,408.13,38.06,466.721c3.8,53.289,6.8,106.755,7.742,160.18.2,11.334.3,22.679.02,34.013-.068,2.732-.155,5.463-.305,8.192-.047.859.2,2.864-.249,3.636a1.4,1.4,0,0,0-.041.417c-.115,1-4.006.2-3.864-1.035Z" transform="translate(16.373 2.934)"/><path class="a" d="M3.935,1.468l8.389,35.65c.421,1.79-3.521,1.3-3.905-.332L.031,1.136c-.421-1.791,3.521-1.3,3.9.332Z" transform="translate(25.13 1.778)"/><path class="a" d="M27.712,2.138,3.794,29.873C2.705,31.135-.978,29.628.246,28.208L24.165.474c1.088-1.263,4.772.244,3.547,1.664Z" transform="translate(0 0)"/></g></svg>