<svg xmlns="http://www.w3.org/2000/svg" width="2823.531" height="2967.204" viewBox="0 0 2823.531 2967.204">
  <g id="Group_758" data-name="Group 758" transform="translate(2178.043 -697.538)" opacity="0.056">
    <g id="Group_112" data-name="Group 112" transform="translate(-2178.042 697.538)">
      <g id="Artwork_4" data-name="Artwork 4" transform="translate(0 0)">
        <path id="Artwork_4-2" data-name="Artwork 4" d="M2729.742,875.7c-52.9-143.2-123.136-287.315-215.26-409.538S2308.344,258.2,2187.944,174.284c-238.975-166-513.522-216.17-796.278-138.641-38.309,10.033-75.706,22.8-113.1,37.4-297.35,46.518-586.492,171.477-803.575,356.636C272.5,602.976,108.317,837.389,33.523,1094.6-23.94,1294.357-2.962,1503.231,61.8,1698.423A1888.971,1888.971,0,0,0,107.4,1975.7a794.448,794.448,0,0,0,198.841,367.581c112.19,115.838,222.557,232.588,361.2,317.414a1289.747,1289.747,0,0,0,371.232,153.235c168.742,107.629,356.638,173.3,568.249,147.762,150.5-18.242,295.526-72.969,426.871-150.5,279.108-152.323,511.7-417.748,628.449-704.15C2843.757,1724.874,2880.241,1283.412,2729.742,875.7ZM1578.65,23.785c298.263-28.275,548.182,114.926,768.915,301,115.839,97.6,208.875,225.292,279.108,364.845-150.5-267.249-383.089-485.244-675.879-576.455-176.038-54.727-369.407-71.145-561.864-53.815A1096.382,1096.382,0,0,1,1578.65,23.785ZM1881.473,2738.23l-20.979,7.3a1112.775,1112.775,0,0,1-211.611,43.781,995.077,995.077,0,0,0,125.872-55.639,1111.881,1111.881,0,0,0,232.59-61.112,1159.409,1159.409,0,0,1-124.96,65.673Zm116.751-17.33a728.786,728.786,0,0,1-199.754,80.266l61.112-23.715,31.924-13.682a1057.319,1057.319,0,0,0,106.718-42.869Zm-505.313,74.793-64.76-3.648-11.858-1.824a8.209,8.209,0,0,0-6.385-4.561l-86.651-16.418a1309.8,1309.8,0,0,0,291.877-47.43,1027.03,1027.03,0,0,0,231.678-57.463l-70.234,41.957a1156.518,1156.518,0,0,1-140.466,13.682c-17.33.912-17.33,27.364,0,27.364l66.585-4.56-10.033,4.56a746.137,746.137,0,0,1-199.754,48.342Zm87.563,30.1q-47.429,7.3-94.86,10.034l-44.694-2.736h-4.561a608.857,608.857,0,0,0,70.233-6.385c23.715-3.649,50.166,0,74.793-.913ZM1108,2711.78l-13.682-4.561c-34.661-19.154-68.409-39.221-101.245-61.112l29.188,10.946c29.188,19.154,57.463,37.4,86.651,54.727ZM839.835,2594.116l-47.43-27.363-56.551-39.221h-1.824L693.9,2481.927h0c19.154,11.858,38.309,23.715,58.376,33.749C780.547,2542.126,809.735,2568.577,839.835,2594.116ZM552.518,2336.9l-41.045-37.4A1469.512,1469.512,0,0,1,415.7,2150.83l37.4,46.518a1182.186,1182.186,0,0,0,78.442,108.542ZM382.864,2149.918a1411.039,1411.039,0,0,1-108.542-210.7q26.451,45.6,55.639,88.474t46.518,100.332Zm-97.6-334.745a1157.417,1157.417,0,0,1-21.891-122.223c4.561,16.418,10.033,33.748,15.506,50.166q10.033,57.464,24.627,113.1ZM272.5,1318.984a1271.462,1271.462,0,0,1,10.033-129.52,1083.6,1083.6,0,0,1,82.091-157.8,1266,1266,0,0,0-78.442,252.655c-4.561,10.945-9.121,21.891-13.682,33.748Zm-18.242-133.168-7.3,19.155c.912-6.385.912-12.77,1.824-18.242,2.736-20.979,7.3-41.957,10.945-62.936l5.473-10.945C261.552,1136.562,257.9,1161.189,254.255,1185.816ZM1626.992,302.891a865.186,865.186,0,0,0-93.948-30.1l44.694,1.824a916.658,916.658,0,0,1,95.772,11.857c26.451,5.473,52.9,11.858,78.442,19.154a1000.592,1000.592,0,0,1,179.687,91.211,1107.312,1107.312,0,0,0-304.647-93.948Zm-677.7,93.035a1716.6,1716.6,0,0,0-338.4,246.27c25.539-37.4,53.815-73.881,82.091-109.453A1375.492,1375.492,0,0,1,949.289,395.927ZM756.832,458.863q29.188-31.924,60.2-61.112a1268.749,1268.749,0,0,1,174.215-78.442l31.012-10.033a838.236,838.236,0,0,1,155.972-27.363,1723.905,1723.905,0,0,0-421.4,176.95ZM695.72,495.347q-63.848,41.045-124.048,87.563a1247.754,1247.754,0,0,1,97.6-93.036l37.4-26.451L746.8,437.884c-17.33,18.242-34.66,37.4-51.079,57.463ZM632.784,574.7c-29.188,40.133-56.551,81.178-82.091,124.047A2002.094,2002.094,0,0,0,353.677,928.6l-14.594,20.979a934.911,934.911,0,0,1,47.43-107.629c15.506-29.187,31.924-58.375,50.166-86.651A1161.123,1161.123,0,0,1,570.76,623.954C590.827,607.537,611.805,591.119,632.784,574.7ZM511.472,768.068l-13.682,25.539q-29.188,41.045-55.639,84.827l-31.924,39.221A1131.011,1131.011,0,0,0,299.861,1088.22q6.385-29.188,14.594-58.375A1823.325,1823.325,0,0,1,511.473,768.068ZM299.861,910.358a1095.442,1095.442,0,0,0-125.872,332.921c1.824-30.1,3.648-59.287,8.209-89.387A940.4,940.4,0,0,1,213.21,1045.35V1041.7l1.824-5.473a1267.824,1267.824,0,0,1,92.124-142.29Zm-53.815,502.574c-1.824,7.3-2.736,15.506-3.648,22.8a1155.646,1155.646,0,0,1-3.648-123.135l7.3-24.627C244.222,1329.93,244.222,1370.974,246.046,1412.932Zm-27.363-204.313a967.147,967.147,0,0,0-7.3,103.069,1139.252,1139.252,0,0,0-28.276,140.465l-1.824-16.418a932.178,932.178,0,0,1,10.033-154.147q11.858-36.484,27.364-72.057Zm-37.4,553.652a1080.093,1080.093,0,0,0,19.154,108.541,1005.141,1005.141,0,0,1-63.848-187.895,1065.312,1065.312,0,0,1-.912-115.838c5.473,29.187,11.857,58.375,19.154,86.65s16.418,72.969,26.451,109.454Zm18.242-211.61a1087.208,1087.208,0,0,1,14.594-129.52A1244.027,1244.027,0,0,0,230.54,1553.4a941.289,941.289,0,0,0,7.3,136.817,1381.849,1381.849,0,0,1-37.4-138.641Zm113.1,620.236a1224.966,1224.966,0,0,0,155.06,226.2q11.857,25.538,25.539,50.166a1276.966,1276.966,0,0,1-275.459-416.835,1631.764,1631.764,0,0,0,94.86,140.465Zm131.345,112.19,9.121,8.209c15.506,19.154,31.012,38.309,47.43,56.551l-51.991-51.078Zm454.234,323.8c24.627,17.33,50.167,34.66,75.706,51.99l-22.8-10.033q-44.694-31.011-87.563-65.672l10.033,5.473Zm88.475,93.948a989.684,989.684,0,0,1-106.718-36.484l-24.627-18.242,11.858-6.385a1302.954,1302.954,0,0,0,119.487,62.024Zm419.574,22.8h10.033l35.572,2.737a1188.54,1188.54,0,0,1-228.029,11.857,859.211,859.211,0,0,1-104.893-49.254l-9.122-5.473a1117.364,1117.364,0,0,0,296.438,41.045Zm444.2-31.923,92.124-56.551a1233.178,1233.178,0,0,0,320.153-158.708l20.979-12.769-22.8,22.8q-40.133,35.573-83,69.321a1016.121,1016.121,0,0,1-327.45,136.817Zm408.629-244.446a1168.488,1168.488,0,0,1-103.07,64.76c-21.89,10.945-44.694,20.978-66.585,31.012a1593.5,1593.5,0,0,0,195.194-144.114,1094.548,1094.548,0,0,0,180.6-199.752,1194.934,1194.934,0,0,1-94.86,156.883,1118.319,1118.319,0,0,1-111.278,92.124Zm16.418-77.53,22.8-25.539a1248.643,1248.643,0,0,0,200.666-321.063A1200.253,1200.253,0,0,0,2573.77,1877.2q-11.857,59.287-29.187,116.75a1205.816,1205.816,0,0,1-268.163,376.7Zm289.141-545.443a1225.882,1225.882,0,0,0,29.188-176.95c.913-6.385,2.737-11.858,3.649-18.242,0,37.4-.912,75.705-4.56,113.1s-16.418,55.639-27.364,83ZM2116.8,2488.312a1014.343,1014.343,0,0,1-112.191,78.442c-23.715,12.77-47.43,24.627-72.057,35.573l-32.836,10.033A1216.76,1216.76,0,0,0,2326.586,2269.4,1333.489,1333.489,0,0,1,2116.8,2488.312Zm20.979-1965.6a1318.909,1318.909,0,0,0-136.818-113.1l36.485,21.891A1215.851,1215.851,0,0,1,2280.98,639.461a2629.486,2629.486,0,0,1,180.6,261.776L2478,937.721l16.418,40.133-2.736-4.56a1176.623,1176.623,0,0,0-353.9-450.583Zm316.5,163.268,2.736,4.561c22.8,41.045,42.87,83.914,61.112,127.7Q2488.03,749.826,2454.282,685.978Zm24.627,114.014-31.924-47.43A1484.933,1484.933,0,0,0,2014.642,341.2,862.875,862.875,0,0,0,1738.27,200.735c-86.651-24.627-187.9-32.836-286.4-31.012,228.029-30.1,457.883-1.824,650.339,124.047a1254.208,1254.208,0,0,1,152.324,136.817,1464.872,1464.872,0,0,1,170.566,259.04q28.731,53.358,54.727,109.453Zm-1182.1-622.06-26.451,7.3a1150.184,1150.184,0,0,0-226.2,56.551L975.74,263.671l20.067-14.594,70.233-33.748c258.129-106.717,537.237-156.883,804.487-52.9C1682.631,115,1485.614,134.151,1296.805,177.932ZM1536.692,76.688a1216.772,1216.772,0,0,0-368.5,67.5q51.078-25.539,103.069-46.518a1650.941,1650.941,0,0,1,265.426-20.979ZM63.623,1446.68a1306.156,1306.156,0,0,0-6.385,157.8C17.1,1443.031,7.984,1275.2,52.677,1112.847,121.086,864.752,276.146,639.461,465.867,468.9S910.98,176.108,1175.494,116.821a1360.886,1360.886,0,0,0-142.29,79.354,2365.13,2365.13,0,0,0-322.89,173.3A1411.042,1411.042,0,0,0,410.228,620.306,1243.205,1243.205,0,0,0,73.656,1307.126a978.713,978.713,0,0,0-10.033,139.553Zm57.463,8.209q-4.561,28.276-8.209,57.463a987.821,987.821,0,0,1,7.3-185.159,1009.741,1009.741,0,0,0,.912,127.7ZM84.6,1684.741c-.912-10.945-1.824-21.891-1.824-32.836a948.586,948.586,0,0,0,20.979,98.508q-9.121-23.715-17.33-48.342C85.514,1695.686,84.6,1690.214,84.6,1684.741Zm385.826,784.416c-106.718-107.629-216.172-207.049-282.756-345.69-47.43-100.332-74.794-217.083-91.212-331.1q19.154,46.517,40.133,91.211C194.968,2117.994,329.961,2332.341,506,2497.433l38.309,34.66,10.033,14.594q-43.782-37.4-84.827-77.53ZM759.568,2656.14q-39.221-22.8-76.618-49.254a1309.777,1309.777,0,0,1-135.906-107.629c-9.121-14.594-18.242-30.1-27.363-45.606A1090.9,1090.9,0,0,0,781.46,2652.492Zm-225.293-226.2c-20.979-21.89-41.045-43.781-59.288-67.5l-8.209-18.242a1606.212,1606.212,0,0,0,184.248,155.971c22.8,22.8,45.606,44.693,69.321,65.672l64.76,54.727a1000.587,1000.587,0,0,1-250.832-190.632Zm253.569,242.622,20.067-5.473q38.309,19.155,79.354,35.572l54.727,43.781a1316.122,1316.122,0,0,1-154.148-73.881ZM980.3,2733.67a976.741,976.741,0,0,0,106.718,23.715,1090.967,1090.967,0,0,0,114.927,48.342,941.357,941.357,0,0,1-116.751-11.858Q1032.291,2766.506,980.3,2733.67Zm462.443,207.962c-122.224-9.121-238.975-52.9-347.517-114.926,127.7,64.76,264.514,108.541,404.98,115.838h31.012A808.06,808.06,0,0,1,1442.744,2941.631Zm1159.3-766.174a1670.084,1670.084,0,0,1-346.6,442.375,1487.833,1487.833,0,0,1-124.048,100.332c-241.711,167.829-531.764,249.919-819.081,167.829a1155.792,1155.792,0,0,1-111.278-39.22,1231.392,1231.392,0,0,0,284.581,17.33,765.276,765.276,0,0,0,282.756-14.594c151.412-37.4,286.405-124.047,407.717-219.819q64.76-51.078,124.048-106.717a1512.278,1512.278,0,0,0,330.186-406.8C2621.2,2136.237,2612.078,2155.391,2602.045,2175.457Zm20.979-560.037a1213.049,1213.049,0,0,0-10.033-133.169,1212.16,1212.16,0,0,0-9.121-188.807q18.242,57.463,31.012,115.838A972.341,972.341,0,0,1,2623.024,1615.421Zm9.122,96.684q-7.3,48.342-19.155,94.859c1.824-14.594,3.649-30.1,5.473-44.693s9.121-33.748,13.682-51.078Zm70.233,169.653a1111.92,1111.92,0,0,1-70.233,164.18,1173.91,1173.91,0,0,0,80.266-231.676c-3.648,21.891-6.385,43.781-10.945,66.584Zm-25.54-80.266a1124.566,1124.566,0,0,0,10.946-158.708c.912-26.451,1.824-51.99,1.824-78.441a1083.6,1083.6,0,0,1-10.033,220.731,124.344,124.344,0,0,0-3.65,15.506Zm79.354-200.665c-1.824,33.748-5.473,67.5-10.033,101.244a1210.269,1210.269,0,0,0-7.3-138.641c-2.736-161.444-42.869-325.624-107.63-479.771a1782.245,1782.245,0,0,0-54.727-187.9c109.454,217.994,190.632,466.089,178.774,705.062Zm4.561-249.007C2708.763,1094.6,2591.1,810.938,2417.8,575.613a1092.7,1092.7,0,0,0-212.523-239.885c-91.211-90.3-197.929-164.18-321.065-208.874a817.25,817.25,0,0,0-120.4-33.748c33.748,5.473,66.585,10.945,98.509,19.154C2388.61,235.4,2743.424,760.772,2789.942,1281.588a1353.557,1353.557,0,0,1-13.682,346.6,1017,1017,0,0,0-16.418-276.37Z" transform="translate(0)" fill="#e4a84b"/>
      </g>
    </g>
  </g>
</svg>
