<svg xmlns="http://www.w3.org/2000/svg" width="1921.732" height="2019.517" viewBox="0 0 1921.732 2019.517"><defs><style>.a{opacity:0.056;}.b{fill:#de9ba8;}</style></defs><g class="a" transform="translate(2178.043 -697.538)"><g transform="translate(-2178.042 697.538)"><g transform="translate(0 0)"><path class="b" d="M1857.9,596.011c-36.007-97.465-83.808-195.55-146.509-278.737s-140.3-141.541-222.246-198.654C1326.494,5.635,1139.634-28.509,947.186,24.259a697.977,697.977,0,0,0-76.979,25.453C667.826,81.372,471.033,166.421,323.283,292.442,185.465,410.393,73.722,569.938,22.816,745c-39.11,135.954-24.832,278.116,19.245,410.966A1285.657,1285.657,0,0,0,73.1,1344.69a540.712,540.712,0,0,0,135.334,250.18c76.358,78.841,151.475,158.3,245.836,216.036A877.819,877.819,0,0,0,706.937,1915.2c114.848,73.253,242.732,117.951,386.758,100.569,102.432-12.416,201.139-49.664,290.534-102.431,189.965-103.673,348.268-284.324,427.731-479.254C1935.5,1173.971,1960.33,873.506,1857.9,596.011ZM1074.45,16.188c203-19.245,373.1,78.22,523.334,204.862,78.841,66.425,142.163,153.336,189.964,248.318-102.432-181.893-260.735-330.263-460.012-392.342C1207.922,39.779,1076.312,28.6,945.323,40.4A746.211,746.211,0,0,1,1074.45,16.189Zm206.105,1847.486-14.279,4.966a757.369,757.369,0,0,1-144.025,29.8,677.258,677.258,0,0,0,85.67-37.869,756.759,756.759,0,0,0,158.3-41.593,789.081,789.081,0,0,1-85.05,44.7Zm79.462-11.795a496.018,496.018,0,0,1-135.955,54.63l41.593-16.141,21.728-9.312a719.583,719.583,0,0,0,72.633-29.177Zm-343.922,50.905-44.077-2.483-8.07-1.242a5.587,5.587,0,0,0-4.345-3.1l-58.976-11.174a891.467,891.467,0,0,0,198.656-32.282,699.014,699.014,0,0,0,157.683-39.11l-47.8,28.557a787.136,787.136,0,0,1-95.6,9.312c-11.8.621-11.8,18.624,0,18.624l45.318-3.1-6.829,3.1a507.83,507.83,0,0,1-135.955,32.9Zm59.6,20.486q-32.281,4.967-64.563,6.829l-30.419-1.862h-3.1a414.388,414.388,0,0,0,47.8-4.346c16.141-2.483,34.144,0,50.905-.621Zm-321.574-77.6-9.312-3.1c-23.59-13.037-46.56-26.694-68.909-41.594l19.866,7.45c19.866,13.036,39.11,25.452,58.976,37.248ZM571.6,1765.588l-32.282-18.624-38.49-26.694H499.59l-27.315-31.04h0c13.037,8.071,26.074,16.141,39.731,22.97C531.25,1730.2,551.116,1748.206,571.6,1765.588ZM376.051,1590.524l-27.936-25.453a1000.16,1000.16,0,0,1-65.184-101.19l25.453,31.661a804.625,804.625,0,0,0,53.389,73.875ZM260.582,1463.261a960.373,960.373,0,0,1-73.875-143.4q18,31.039,37.869,60.217t31.661,68.287ZM194.157,1235.43a787.748,787.748,0,0,1-14.9-83.186c3.1,11.174,6.829,22.969,10.554,34.143q6.829,39.111,16.762,76.979Zm-8.691-337.712a865.373,865.373,0,0,1,6.829-88.153,737.509,737.509,0,0,1,55.872-107.4,861.657,861.657,0,0,0-53.389,171.96c-3.1,7.449-6.208,14.9-9.312,22.969Zm-12.416-90.636-4.966,13.037c.621-4.346.621-8.691,1.242-12.416,1.862-14.278,4.966-28.557,7.45-42.835l3.725-7.45C178.016,773.558,175.533,790.32,173.049,807.081Zm934.3-600.929a588.87,588.87,0,0,0-63.943-20.486l30.419,1.242a623.883,623.883,0,0,1,65.184,8.07c18,3.725,36.006,8.07,53.389,13.037a681.018,681.018,0,0,1,122.3,62.08,753.654,753.654,0,0,0-207.347-63.942ZM646.1,269.473A1168.338,1168.338,0,0,0,415.782,437.087c17.382-25.453,36.627-50.284,55.872-74.5A936.179,936.179,0,0,1,646.1,269.473ZM515.11,312.308q19.866-21.728,40.973-41.593a863.526,863.526,0,0,1,118.573-53.389l21.107-6.829a570.512,570.512,0,0,1,106.157-18.624A1173.314,1173.314,0,0,0,515.11,312.308Zm-41.594,24.832q-43.456,27.936-84.429,59.6a849.231,849.231,0,0,1,66.426-63.321l25.453-18,27.315-17.382c-11.8,12.416-23.59,25.453-34.765,39.11Zm-42.835,54.009c-19.866,27.315-38.49,55.251-55.872,84.428a1362.65,1362.65,0,0,0-134.092,156.44L230.784,646.3a636.312,636.312,0,0,1,32.282-73.254c10.554-19.865,21.728-39.731,34.144-58.975a790.273,790.273,0,0,1,91.258-89.395C402.124,413.5,416.4,402.323,430.681,391.149ZM348.115,522.757,338.8,540.139q-19.866,27.936-37.869,57.734l-21.728,26.694a769.783,769.783,0,0,0-75.117,116.089q4.346-19.865,9.933-39.731A1240.978,1240.978,0,0,1,348.115,522.757ZM204.089,619.6a745.57,745.57,0,0,0-85.67,226.59c1.242-20.486,2.483-40.352,5.587-60.838a640.04,640.04,0,0,1,21.107-73.875V709l1.242-3.725a862.891,862.891,0,0,1,62.7-96.844ZM167.462,961.659a134.442,134.442,0,0,0-2.483,15.52,786.55,786.55,0,0,1-2.483-83.807l4.966-16.761C166.221,905.167,166.221,933.1,167.462,961.659ZM148.838,822.6a658.25,658.25,0,0,0-4.966,70.15,775.386,775.386,0,0,0-19.245,95.6l-1.242-11.174a634.452,634.452,0,0,1,6.829-104.914q8.07-24.831,18.624-49.043Zm-25.453,376.823a735.119,735.119,0,0,0,13.037,73.874,684.107,684.107,0,0,1-43.456-127.883,725.062,725.062,0,0,1-.621-78.841c3.725,19.865,8.07,39.731,13.037,58.975s11.174,49.664,18,74.5ZM135.8,1055.4a739.967,739.967,0,0,1,9.933-88.153,846.7,846.7,0,0,0,11.174,90.016,640.649,640.649,0,0,0,4.966,93.119,940.491,940.491,0,0,1-25.453-94.361Zm76.979,422.14A833.729,833.729,0,0,0,318.317,1631.5q8.07,17.382,17.382,34.144a869.118,869.118,0,0,1-187.481-283.7,1110.589,1110.589,0,0,0,64.563,95.6Zm89.4,76.358,6.208,5.587c10.554,13.037,21.107,26.073,32.282,38.489l-35.386-34.764Zm309.158,220.382c16.762,11.8,34.144,23.59,51.526,35.385l-15.52-6.829q-30.419-21.107-59.6-44.7l6.829,3.725Zm60.218,63.942a673.58,673.58,0,0,1-72.633-24.832l-16.762-12.416,8.07-4.346a886.754,886.754,0,0,0,81.325,42.214Zm285.568,15.52h6.829l24.211,1.863a808.945,808.945,0,0,1-155.2,8.07,584.8,584.8,0,0,1-71.392-33.523l-6.208-3.725a760.491,760.491,0,0,0,201.76,27.936Zm302.329-21.727,62.7-38.49a839.325,839.325,0,0,0,217.9-108.018l14.278-8.691-15.52,15.52q-27.315,24.211-56.493,47.181a691.587,691.587,0,0,1-222.867,93.119Zm278.118-166.373a795.273,795.273,0,0,1-70.15,44.077c-14.9,7.449-30.419,14.278-45.318,21.107a1084.572,1084.572,0,0,0,132.851-98.086,744.97,744.97,0,0,0,122.918-135.954,813.3,813.3,0,0,1-64.563,106.777,761.134,761.134,0,0,1-75.737,62.7Zm11.174-52.768,15.52-17.382a849.841,849.841,0,0,0,136.576-218.52,816.917,816.917,0,0,0,50.906-99.327q-8.07,40.352-19.865,79.462a820.7,820.7,0,0,1-182.515,256.388Zm196.793-371.235A834.362,834.362,0,0,0,1765.4,1121.2c.621-4.346,1.862-8.07,2.483-12.416,0,25.453-.621,51.526-3.1,76.979s-11.175,37.869-18.624,56.492Zm-304.812,451.939a690.38,690.38,0,0,1-76.359,53.388c-16.141,8.691-32.281,16.762-49.043,24.211L1292.971,1778A828.145,828.145,0,0,0,1583.5,1544.585,907.6,907.6,0,0,1,1440.721,1693.576ZM1455,355.763a897.66,897.66,0,0,0-93.12-76.979l24.832,14.9a827.52,827.52,0,0,1,165.753,141.541,1789.657,1789.657,0,0,1,122.918,178.168l11.174,24.832,11.174,27.315-1.862-3.1A800.828,800.828,0,0,0,1455,355.763Zm215.417,111.122,1.862,3.1a859.3,859.3,0,0,1,41.594,86.911Q1693.386,510.341,1670.417,466.886Zm16.762,77.6L1665.451,512.2a1010.666,1010.666,0,0,0-294.259-279.979,587.285,587.285,0,0,0-188.1-95.6c-58.976-16.761-127.885-22.349-194.931-21.107,155.2-20.486,311.641-1.242,442.63,84.428a853.626,853.626,0,0,1,103.674,93.119,997.017,997.017,0,0,1,116.09,176.306q19.555,36.316,37.248,74.5ZM882.623,121.1l-18,4.966a782.832,782.832,0,0,0-153.958,38.489l-46.56,14.9,13.658-9.933,47.8-22.969c175.686-72.633,365.651-106.777,547.545-36.006C1145.221,78.268,1011.128,91.3,882.623,121.1Zm163.27-68.908a828.152,828.152,0,0,0-250.8,45.939q34.764-17.382,70.15-31.66a1123.654,1123.654,0,0,1,180.653-14.278ZM43.3,984.629a888.984,888.984,0,0,0-4.346,107.4c-27.315-109.881-33.523-224.107-3.1-334.608,46.56-168.856,152.1-322.193,281.222-438.281S620.025,119.861,800.057,79.51a926.239,926.239,0,0,0-96.844,54.009A1609.74,1609.74,0,0,0,483.449,251.47,960.374,960.374,0,0,0,279.206,422.188,846.141,846.141,0,0,0,50.131,889.647,666.125,666.125,0,0,0,43.3,984.628Zm39.11,5.587q-3.1,19.245-5.587,39.11A672.322,672.322,0,0,1,81.792,903.3a687.24,687.24,0,0,0,.621,86.911Zm-24.832,156.44c-.621-7.449-1.242-14.9-1.242-22.349a645.626,645.626,0,0,0,14.278,67.046q-6.208-16.141-11.8-32.9A84.825,84.825,0,0,1,57.581,1146.656Zm262.6,533.884c-72.634-73.254-147.129-140.92-192.448-235.281-32.282-68.287-50.906-147.749-62.08-225.348q13.037,31.66,27.315,62.079c39.731,159.544,131.609,305.431,251.424,417.8l26.074,23.59,6.829,9.933q-29.8-25.452-57.734-52.768ZM516.972,1807.8q-26.694-15.52-52.147-33.523a891.473,891.473,0,0,1-92.5-73.253c-6.208-9.933-12.416-20.486-18.624-31.04a742.476,742.476,0,0,0,178.17,135.333ZM363.635,1653.845c-14.278-14.9-27.936-29.8-40.352-45.939L317.7,1595.49a1093.218,1093.218,0,0,0,125.4,106.156c15.52,15.52,31.04,30.419,47.181,44.7l44.077,37.248a681.019,681.019,0,0,1-170.72-129.747Zm172.582,165.132,13.658-3.725q26.074,13.037,54.01,24.211l37.248,29.8a895.781,895.781,0,0,1-104.915-50.284Zm130.989,41.593a664.776,664.776,0,0,0,72.634,16.141,742.552,742.552,0,0,0,78.221,32.9,640.728,640.728,0,0,1-79.462-8.071Q702.591,1882.919,667.206,1860.57Zm314.745,141.541c-83.187-6.208-162.649-36.006-236.524-78.22,86.912,44.076,180.032,73.875,275.635,78.841h21.107A549.933,549.933,0,0,1,981.951,2002.111Zm789.036-521.468a1136.688,1136.688,0,0,1-235.9,301.086,1012.648,1012.648,0,0,1-84.429,68.287c-164.512,114.226-361.926,170.1-557.478,114.226a786.689,786.689,0,0,1-75.737-26.694,838.109,838.109,0,0,0,193.689,11.795,520.858,520.858,0,0,0,192.447-9.933c103.053-25.452,194.931-84.428,277.5-149.612q44.077-34.764,84.429-72.633a1029.285,1029.285,0,0,0,224.729-276.875C1784.023,1453.95,1777.815,1466.986,1770.986,1480.644Zm14.278-381.168a825.59,825.59,0,0,0-6.829-90.636,825.015,825.015,0,0,0-6.208-128.5q12.416,39.11,21.107,78.841A661.78,661.78,0,0,1,1785.265,1099.476Zm6.208,65.8q-4.967,32.9-13.037,64.562c1.242-9.933,2.483-20.486,3.725-30.419s6.208-22.969,9.312-34.765Zm47.8,115.468a756.771,756.771,0,0,1-47.8,111.743,798.974,798.974,0,0,0,54.63-157.682c-2.483,14.9-4.345,29.8-7.449,45.318Zm-17.383-54.63a765.424,765.424,0,0,0,7.45-108.019c.621-18,1.242-35.385,1.242-53.388a737.5,737.5,0,0,1-6.829,150.232,84.674,84.674,0,0,0-2.484,10.553Zm54.01-136.575c-1.241,22.969-3.725,45.939-6.829,68.908a823.7,823.7,0,0,0-4.966-94.361c-1.862-109.881-29.177-221.623-73.254-326.538A1212.992,1212.992,0,0,0,1753.6,609.669c74.5,148.37,129.746,317.226,121.676,479.874Zm3.1-169.477C1843.62,745,1763.537,551.935,1645.585,391.769A743.708,743.708,0,0,0,1500.939,228.5c-62.08-61.459-134.713-111.743-218.521-142.162a556.237,556.237,0,0,0-81.946-22.969c22.97,3.725,45.318,7.45,67.046,13.037,358.2,83.807,599.692,441.385,631.353,795.859a921.255,921.255,0,0,1-9.312,235.9,692.179,692.179,0,0,0-11.175-188.1Z" transform="translate(0)"/></g></g></g></svg>