<svg xmlns="http://www.w3.org/2000/svg" width="40" height="40"><path data-name="Path 200" d="M19.999 3.556a61.324 61.324 0 0 1 8 .222 10.307 10.307 0 0 1 3.778.667 7.8 7.8 0 0 1 3.778 3.778A10.307 10.307 0 0 1 36.221 12c0 2 .222 2.667.222 8a61.323 61.323 0 0 1-.222 8 10.307 10.307 0 0 1-.667 3.778 7.8 7.8 0 0 1-3.778 3.778 10.307 10.307 0 0 1-3.777.666c-2 0-2.667.222-8 .222a61.323 61.323 0 0 1-8-.222 10.307 10.307 0 0 1-3.778-.667 7.8 7.8 0 0 1-3.778-3.778A10.307 10.307 0 0 1 3.777 28c0-2-.222-2.667-.222-8a61.324 61.324 0 0 1 .222-8 10.307 10.307 0 0 1 .667-3.778A7.981 7.981 0 0 1 5.999 6a3.757 3.757 0 0 1 2.222-1.556 10.307 10.307 0 0 1 3.778-.666 61.324 61.324 0 0 1 8-.222m0-3.556a65.66 65.66 0 0 0-8.222.222 13.719 13.719 0 0 0-4.889.889 8.7 8.7 0 0 0-3.556 2.222A8.7 8.7 0 0 0 1.11 6.889a10.125 10.125 0 0 0-.889 4.889A65.66 65.66 0 0 0-.001 20a65.66 65.66 0 0 0 .222 8.222 13.719 13.719 0 0 0 .889 4.889 8.7 8.7 0 0 0 2.222 3.556 8.7 8.7 0 0 0 3.556 2.222 13.719 13.719 0 0 0 4.889.889 65.661 65.661 0 0 0 8.222.222 65.661 65.661 0 0 0 8.222-.222 13.719 13.719 0 0 0 4.889-.889 9.323 9.323 0 0 0 5.778-5.778 13.719 13.719 0 0 0 .889-4.889c0-2.222.222-2.889.222-8.222a65.661 65.661 0 0 0-.222-8.222 13.719 13.719 0 0 0-.889-4.889 8.7 8.7 0 0 0-2.222-3.556 8.7 8.7 0 0 0-3.556-2.222 13.719 13.719 0 0 0-4.889-.889A65.66 65.66 0 0 0 19.999 0m0 9.778A10.058 10.058 0 0 0 9.777 20 10.222 10.222 0 1 0 19.999 9.778m0 16.889A6.548 6.548 0 0 1 13.332 20a6.548 6.548 0 0 1 6.667-6.667A6.548 6.548 0 0 1 26.666 20a6.548 6.548 0 0 1-6.667 6.667M30.666 6.889a2.444 2.444 0 1 0 2.444 2.444 2.466 2.466 0 0 0-2.444-2.444" fill="#fff" fill-rule="evenodd"/></svg>