<svg xmlns="http://www.w3.org/2000/svg" width="217.178" height="228.29" viewBox="0 0 217.178 228.29"><defs><style>.a{fill:#e4a84b;}.b{fill:#fff;}</style></defs><g transform="translate(-274.463 -143.663)"><g transform="translate(274.463 143.663)"><path class="a" d="M484.454,211.038c-4.059-10.994-9.445-22.135-16.562-31.484-6.847-9-15.856-16.019-25.092-22.431-18.433-12.809-39.573-16.676-61.3-10.74-2.961.81-5.865,1.777-8.714,2.861-22.916,3.6-45.145,13.25-61.8,27.5-15.6,13.346-28.214,31.344-33.945,51.18-4.432,15.334-2.781,31.437,2.148,46.44a145.2,145.2,0,0,0,3.477,21.3,61.1,61.1,0,0,0,15.315,28.279c8.65,8.921,17.106,17.885,27.761,24.416a99.313,99.313,0,0,0,28.556,11.8c12.961,8.308,27.42,13.346,43.732,11.365a85.5,85.5,0,0,0,32.859-11.582c21.455-11.7,39.333-32.121,48.332-54.186C493.171,276.394,496.012,242.369,484.454,211.038ZM395.883,145.5c22.96-2.171,42.176,8.845,59.191,23.137,8.94,7.509,16.044,17.332,21.489,28.068-11.582-20.554-29.474-37.348-51.964-44.367a112.19,112.19,0,0,0-43.217-4.129A84.308,84.308,0,0,1,395.883,145.5Zm23.325,208.861c-.53.2-1.077.383-1.615.575A85.531,85.531,0,0,1,401.34,358.3,76.513,76.513,0,0,0,411,354.009a85.649,85.649,0,0,0,17.923-4.7A89.169,89.169,0,0,1,419.208,354.359Zm8.95-1.348A56,56,0,0,1,412.8,359.2c1.575-.557,3.147-1.144,4.7-1.8.825-.348,1.641-.716,2.46-1.087A81.013,81.013,0,0,0,428.158,353.011Zm-38.876,5.756c-1.672-.044-3.345-.122-5.016-.257q-.474-.069-.945-.142a.644.644,0,0,0-.5-.354c-2.257-.371-4.489-.81-6.7-1.276a100.783,100.783,0,0,0,22.488-3.631,79.022,79.022,0,0,0,17.821-4.4q-2.68,1.675-5.432,3.2a88.739,88.739,0,0,1-10.794,1.036c-1.329.044-1.335,2.119,0,2.076,1.724-.057,3.432-.175,5.141-.327-.259.111-.5.246-.759.352A57.446,57.446,0,0,1,389.282,358.767Zm6.763,2.284q-3.624.533-7.275.767c-1.156-.05-2.3-.116-3.446-.217-.11-.019-.214-.05-.32-.071,1.79-.087,3.587-.245,5.385-.5C392.277,361.1,394.164,361.125,396.045,361.051Zm-36.316-8.788c-.348-.118-.683-.253-1.031-.374-2.664-1.448-5.267-3.026-7.819-4.684q1.121.447,2.257.861C355.269,349.569,357.461,350.982,359.729,352.264Zm-20.722-9.037c-1.238-.672-2.457-1.374-3.67-2.088-1.474-.975-2.935-1.973-4.361-3.021-.044-.031-.087-.063-.126-.1-1.04-1.143-2.063-2.287-3.046-3.435a.367.367,0,0,0-.032-.042c1.466.921,2.962,1.8,4.5,2.615C334.438,339.273,336.693,341.291,339.007,343.227ZM316.94,323.468q-1.591-1.41-3.129-2.886a112.817,112.817,0,0,1-7.354-11.471q1.387,1.815,2.847,3.56A90.934,90.934,0,0,0,315.327,321C315.859,321.824,316.389,322.653,316.94,323.468Zm-13.05-14.388a108.582,108.582,0,0,1-8.358-16.222q2.026,3.494,4.3,6.788,1.649,3.922,3.61,7.709C303.586,307.931,303.746,308.505,303.89,309.079Zm-7.54-25.8a89.235,89.235,0,0,1-1.675-9.38c.374,1.289.777,2.57,1.2,3.847q.742,4.413,1.879,8.672C297.273,285.373,296.8,284.329,296.35,283.277Zm-.965-38.18a97.912,97.912,0,0,1,.747-9.976,83.327,83.327,0,0,1,6.32-12.169,97.333,97.333,0,0,0-6.025,19.432C296.06,243.283,295.708,244.187,295.385,245.1ZM294,234.868c-.2.493-.378.992-.571,1.487.059-.478.1-.955.171-1.433.232-1.641.537-3.251.873-4.851.144-.276.289-.552.439-.825C294.559,231.107,294.244,232.978,294,234.868ZM399.607,166.98c-2.387-.879-4.795-1.671-7.22-2.349,1.143.032,2.287.073,3.435.156a70.127,70.127,0,0,1,7.375.928c2.047.4,4.061.9,6.057,1.454a76.892,76.892,0,0,1,13.8,6.986A85.154,85.154,0,0,0,399.607,166.98Zm-52.168,7.112a132.09,132.09,0,0,0-26.064,18.941c1.982-2.9,4.119-5.7,6.346-8.432A105.968,105.968,0,0,1,347.439,174.091Zm-14.805,4.858q2.251-2.434,4.629-4.737a97.347,97.347,0,0,1,13.409-5.994c.795-.252,1.583-.513,2.391-.738a64.6,64.6,0,0,1,11.987-2.108A132.693,132.693,0,0,0,332.633,178.949Zm-4.732,2.84q-4.925,3.13-9.57,6.768a95.881,95.881,0,0,1,7.538-7.209c.953-.686,1.916-1.36,2.884-2.013,1.033-.7,2.082-1.363,3.138-2.016C330.535,178.782,329.187,180.256,327.9,181.789Zm-4.792,6.11c-2.256,3.071-4.333,6.27-6.3,9.534A154.128,154.128,0,0,0,301.682,215.1c-.4.541-.77,1.1-1.156,1.642a72.091,72.091,0,0,1,3.644-8.315c1.176-2.274,2.489-4.48,3.874-6.643A89.452,89.452,0,0,1,318.3,191.7C319.856,190.389,321.47,189.131,323.11,187.9Zm-9.353,14.866c-.353.658-.7,1.321-1.039,1.985q-2.278,3.181-4.307,6.556-1.271,1.5-2.476,3.036a87.059,87.059,0,0,0-8.492,13.151q.49-2.262,1.1-4.482A140.224,140.224,0,0,1,313.756,202.765ZM297.489,213.69a84.279,84.279,0,0,0-9.673,25.627c.126-2.291.312-4.583.641-6.86a72.3,72.3,0,0,1,2.371-8.327c.039-.088.069-.174.1-.264.05-.133.1-.266.154-.4a97.541,97.541,0,0,1,6.964-11.008C297.858,212.868,297.671,213.279,297.489,213.69Zm-4.119,38.7c-.125.592-.182,1.193-.282,1.788a89.043,89.043,0,0,1-.277-9.493c.179-.637.349-1.281.545-1.919C293.217,245.959,293.214,249.171,293.37,252.386Zm-2.111-15.7q-.456,3.944-.545,7.914a87.638,87.638,0,0,0-2.23,10.786c-.054-.412-.118-.827-.172-1.239a71.764,71.764,0,0,1,.77-11.883Q290.056,239.457,291.258,236.682Zm-2.876,42.608c.369,2.8.858,5.587,1.484,8.351a77.339,77.339,0,0,1-4.91-14.44,81.992,81.992,0,0,1-.093-8.926c.417,2.248.907,4.484,1.5,6.7C286.931,273.764,287.609,276.537,288.383,279.29Zm1.426-16.257a83.828,83.828,0,0,1,1.1-9.959,95.818,95.818,0,0,0,1.274,10.176,72.213,72.213,0,0,0,.561,10.545A106.478,106.478,0,0,1,289.808,263.033Zm8.663,47.658a94.292,94.292,0,0,0,11.921,17.378q.914,1.974,1.942,3.891a98.27,98.27,0,0,1-21.2-32.081A125.59,125.59,0,0,0,298.471,310.691Zm10.1,8.633c.227.2.446.415.675.618,1.188,1.489,2.42,2.929,3.674,4.342-1.348-1.283-2.677-2.589-3.966-3.938C308.825,320,308.689,319.666,308.568,319.324Zm34.937,24.942c1.895,1.363,3.853,2.679,5.832,3.969-.571-.251-1.159-.484-1.729-.738q-3.465-2.369-6.755-5.045c.263.146.526.3.791.44C342.263,343.354,342.883,343.818,343.505,344.266Zm6.788,7.225a76.187,76.187,0,0,1-8.206-2.782c-.639-.466-1.286-.921-1.913-1.4.3-.153.6-.317.906-.481Q345.579,349.372,350.294,351.49Zm32.287,1.756c.264,0,.525-.008.787-.011.913.082,1.824.165,2.737.227a91.536,91.536,0,0,1-17.555.931,65.677,65.677,0,0,1-8.065-3.807c-.225-.125-.447-.257-.669-.388A85.96,85.96,0,0,0,382.581,353.247Zm34.192-2.44c2.359-1.4,4.715-2.856,7.086-4.343A94.921,94.921,0,0,0,448.527,334.2c.535-.328,1.065-.654,1.593-.994-.564.615-1.188,1.176-1.77,1.775q-3.09,2.763-6.352,5.316A78.22,78.22,0,0,1,416.772,350.806ZM448.233,332a89.973,89.973,0,0,1-7.916,5c-1.682.854-3.408,1.623-5.14,2.38a122.665,122.665,0,0,0,15.018-11.077,84.283,84.283,0,0,0,13.87-15.394,91.9,91.9,0,0,1-7.264,12.044A86.033,86.033,0,0,1,448.233,332Zm1.292-5.937c.6-.656,1.2-1.3,1.787-1.986a96.066,96.066,0,0,0,15.449-24.731,92.454,92.454,0,0,0,5.776-11.221c-.591,3.039-1.337,6.041-2.218,9A92.739,92.739,0,0,1,449.525,326.066ZM471.8,284.1a94.58,94.58,0,0,0,2.214-13.644c.085-.471.193-.946.272-1.421.033,2.9-.09,5.8-.326,8.694Q473.014,280.949,471.8,284.1Zm-34.535,51a77.781,77.781,0,0,1-8.655,6.021c-1.813.972-3.664,1.876-5.541,2.733-.839.263-1.685.506-2.531.751a93.607,93.607,0,0,0,32.865-26.353A102.486,102.486,0,0,1,437.269,335.093Zm1.617-151.247a101.256,101.256,0,0,0-10.557-8.705c.941.537,1.869,1.1,2.79,1.667A93.5,93.5,0,0,1,449.9,192.831a202.018,202.018,0,0,1,13.9,20.108c.437.939.878,1.879,1.286,2.83.446,1.027.858,2.065,1.272,3.1-.067-.12-.136-.236-.2-.355A90.51,90.51,0,0,0,438.886,183.847Zm24.357,12.559c.069.11.142.216.211.328,1.736,3.172,3.278,6.464,4.706,9.819Q465.861,201.373,463.243,196.405Zm1.918,8.748q-1.2-1.839-2.452-3.619A114.253,114.253,0,0,0,429.464,169.9a66.382,66.382,0,0,0-21.308-10.829c-6.693-1.93-14.476-2.535-22.056-2.361,17.558-2.3,35.2-.122,50.058,9.522a96.362,96.362,0,0,1,11.727,10.495,112.7,112.7,0,0,1,13.132,19.937C462.474,199.437,463.846,202.277,465.161,205.154Zm-90.993-47.807c-.689.162-1.37.365-2.059.534a88.492,88.492,0,0,0-17.431,4.357c-1.764.5-3.508,1.061-5.237,1.653.5-.375,1.021-.738,1.536-1.1q2.681-1.352,5.412-2.57c19.863-8.2,41.319-12.068,61.873-4.092C403.884,152.475,388.721,153.961,374.168,157.346Zm18.481-7.763a93.629,93.629,0,0,0-28.317,5.2q3.907-1.957,7.963-3.55A126.992,126.992,0,0,1,392.648,149.583ZM279.313,254.938a100.541,100.541,0,0,0-.484,12.147c-3.137-12.4-3.8-25.34-.367-37.8,5.246-19.08,17.168-36.445,31.8-49.561,14.8-13.265,34.211-22.555,54.592-27.063a104.646,104.646,0,0,0-10.978,6.124,181.966,181.966,0,0,0-24.867,13.334A108.6,108.6,0,0,0,305.995,191.4a95.664,95.664,0,0,0-25.948,52.846A75.246,75.246,0,0,0,279.313,254.938Zm4.42.66q-.38,2.189-.639,4.407a76.052,76.052,0,0,1,.564-14.233A77.722,77.722,0,0,0,283.734,255.6Zm-2.828,17.655c-.07-.85-.107-1.7-.159-2.551a72.856,72.856,0,0,0,1.6,7.566q-.693-1.839-1.317-3.7C280.993,274.126,280.941,273.686,280.906,273.253Zm29.661,60.371C302.331,325.369,293.9,317.7,288.825,307c-3.673-7.743-5.785-16.714-7-25.476q1.444,3.561,3.1,7c4.483,18.057,14.892,34.541,28.4,47.227.959.9,1.939,1.776,2.93,2.642.263.378.531.755.8,1.126Q313.693,336.743,310.567,333.623Zm22.276,14.385q-3-1.779-5.89-3.769a100.69,100.69,0,0,1-10.484-8.318c-.732-1.151-1.435-2.315-2.093-3.5a84.01,84.01,0,0,0,20.12,15.326A14.687,14.687,0,0,1,332.843,348.008Zm-17.293-17.4c-1.606-1.671-3.127-3.4-4.589-5.169-.2-.46-.434-.905-.62-1.372a123.494,123.494,0,0,0,14.18,11.967c1.731,1.734,3.493,3.435,5.332,5.056,1.6,1.413,3.259,2.8,4.948,4.185A76.981,76.981,0,0,1,315.55,330.613Zm19.462,18.632c.5-.117,1.007-.251,1.522-.417,1.977.991,4,1.906,6.07,2.722,1.383,1.148,2.783,2.27,4.2,3.354A101.367,101.367,0,0,1,335.011,349.245Zm14.837,4.733a75.083,75.083,0,0,0,8.229,1.807,83.754,83.754,0,0,0,8.849,3.742,72.117,72.117,0,0,1-8.965-.907C355.207,357.193,352.5,355.638,349.849,353.978Zm35.576,16.03c-9.387-.73-18.38-4.062-26.727-8.866,9.826,4.979,20.332,8.378,31.146,8.935.784.042,1.566.036,2.351.05A62.032,62.032,0,0,1,385.424,370.009Zm89.184-58.972a128.453,128.453,0,0,1-26.644,34.051,114.59,114.59,0,0,1-9.536,7.717c-18.6,12.878-40.94,19.246-63.031,12.878a88.9,88.9,0,0,1-8.591-2.989,94.735,94.735,0,0,0,21.858,1.325,58.9,58.9,0,0,0,21.773-1.1c11.639-2.859,22.039-9.543,31.343-16.887q4.961-3.912,9.512-8.2a116.358,116.358,0,0,0,25.454-31.387C476.074,307.984,475.37,309.513,474.609,311.036Zm1.586-43.1a93.2,93.2,0,0,0-.793-10.265,93.114,93.114,0,0,0-.7-14.527q1.4,4.4,2.393,8.894A74.792,74.792,0,0,1,476.2,267.937Zm.691,7.406q-.594,3.711-1.5,7.327c.15-1.147.31-2.291.414-3.443C476.2,277.939,476.556,276.646,476.886,275.343Zm5.377,13.034a85.471,85.471,0,0,1-5.411,12.612A90.314,90.314,0,0,0,483,283.144C482.814,284.891,482.574,286.635,482.263,288.377Zm-1.982-6.163a86.423,86.423,0,0,0,.827-12.189c.1-2.011.142-4.016.138-6.023a83.273,83.273,0,0,1-.749,17.013C480.439,281.42,480.351,281.813,480.281,282.214Zm6.116-15.407c-.133,2.611-.414,5.208-.8,7.788a93.46,93.46,0,0,0-.543-10.658c-.193-12.448-3.314-25.077-8.263-36.919a137.194,137.194,0,0,0-4.246-14.442C481.084,229.362,487.322,248.42,486.4,266.807Zm.357-19.137a156.017,156.017,0,0,0-26.359-59.726,84.048,84.048,0,0,0-16.351-18.439,67.969,67.969,0,0,0-24.677-16.061,62.879,62.879,0,0,0-9.263-2.564c2.563.4,5.107.87,7.606,1.452,40.5,9.451,67.763,49.921,71.4,89.97a104.088,104.088,0,0,1-1.062,26.651A78.209,78.209,0,0,0,486.754,247.671Z" transform="translate(-274.463 -143.663)"/></g><g transform="translate(309.283 198.182)"><path class="b" d="M430.829,251.791c8.691-9.032,17.574-18.258,26.45-27.492.612-.637,1.054-1.663,1.782-1.917,1.569-.549,2.5-3.266,4.92-1.035s.214,3.913-.712,4.91c-8.025,8.633-16.288,17.046-24.494,25.511-1.124,1.16-2.325,2.246-3.727,3.594.464.747,1.214,1.415,1.249,2.119.078,1.535.316,3.568-.345,4.634s-3.526-.44-4.391-1.438c-9.36-10.809-25.6-11.093-34.678-.2-5.424,6.51-11.086,12.61-18.787,16.479a13.911,13.911,0,0,0-2.406,2.059c4.076,4.389,9.064,4.6,14.013,3.467,7.731-1.774,12.553-7.206,15.708-14.191.423-.936-.429-2.417-.066-3.42.435-1.2,1.411-2.835,2.394-3.024.89-.171,2.361,1.158,3.119,2.168,1.34,1.787,2.109,4.014,3.506,5.743,10.45,12.948,18.588,26.843,18.72,44.153a17.432,17.432,0,0,0,.12,1.758c.009.086.2.152.314.227,6.346-6,10.317-20.565,7.34-27.648-.575.475-1.03,1.144-1.6,1.26-1.263.259-3.127.795-3.739.193-.733-.721-.714-2.558-.5-3.826.732-4.412,1.573-8.817,2.624-13.163.349-1.442-.233-3.864,2.217-4.044s3.231,2.364,3.326,3.658c.283,3.882-.2,7.819-.4,11.971l2.645.638c9.9-11.739,19.6-23.2,29.234-34.711.82-.979,1.039-2.509,1.939-3.36a6.072,6.072,0,0,1,3.647-1.82,3.8,3.8,0,0,1,2.926,2.091c.273.878-.646,2.366-1.4,3.289C471.128,263.4,460.3,276.23,449.834,289.344a19.328,19.328,0,0,0-3.377,8.777,47.509,47.509,0,0,1-8.656,21.451c-.7.938-1.414,2.163-2.4,2.541-5.569,2.145-7.147,7.273-9.535,11.92-.757,1.474-2.586,2.384-3.885,3.6a10.538,10.538,0,0,0-1.9,2.075c-2.622,4.3-5.4,8.3-11.046,8.947-.649.074-1.246,1.409-1.7,2.248-2.83,5.217-6.185,9.47-13.127,7.883a3.429,3.429,0,0,0-1.967.635c-6.458,3.406-12.51.136-12.992-7.2a50.477,50.477,0,0,1,.449-7.07c-2.687.969-5.753,3.148-8.387,2.712-2.452-.406-4.443-3.6-6.263-6-6.3-1.311-9.507-5.843-7.5-12.646,1.513-5.124.51-8.693-3.8-12.073-6.02-4.72-7.974-11.549-5.887-18.695,3.258-11.158.617-20.561-6.621-29.135q-8.838-10.466-17.634-20.967c-.569-.675-1.529-1.211-1.73-1.965a25.146,25.146,0,0,1-.443-4.361c1.557.152,3.852-.305,4.561.55,8.719,10.532,17.534,21.014,25.632,32.019,5.049,6.862,4.293,14.975,2.326,22.974-1.945,7.906-.345,12.391,5.419,16.323,1.535-2.664,3.137-5.281,4.536-8,.3-.583-.28-1.558-.2-2.328.142-1.434-1.474-2.392.715-4.274s2.936.116,3.936.829C380.165,308.535,385,320.7,386.068,334.6c.333,4.347-.481,8.777-.683,13.173-.122,2.646-1.2,5.586,2.326,7.993a32.848,32.848,0,0,0,2.1-4.283,56.892,56.892,0,0,0-1.727-39.711c-.331-.818-1.071-1.662-.982-2.418.192-1.615-1.133-3.564,1.244-4.767s3.376,1.261,3.942,2.433a60.67,60.67,0,0,1,4.868,39.563c-.384,1.867-.824,3.721-1.194,5.59-.049.245.164.541.717,2.183,2.154-2.277,4.317-3.85,5.521-5.968,3.758-6.615,3.455-13.965,2.5-21.127a152.668,152.668,0,0,0-4.005-18.474c-.493-1.881-2.424-3.346-3.175-5.212-.593-1.473-3-3.149-.536-4.92s3.8.267,4.833,1.283c4.61,4.535,6.33,10.577,7.225,16.728,1.159,7.968,1.821,16.007,2.717,24.192,3.583-1.71,4.232-5.441,4.506-9.171a63.485,63.485,0,0,0-7.15-35c-1.047-1.982-2.616-4.186.188-5.677,2.7-1.435,3.925.924,4.987,2.916a65.855,65.855,0,0,1,8.209,33.64c10.411-12.233,1.858-37.424-12.648-53.364-3.4,3.214-6.5,6.851-10.263,9.556-7.412,5.323-15.577,6.857-24.108,2.556-3.05-1.538-6.635-3.633-5.8-7.435.6-2.744,3.085-5.408,5.357-7.386,4.6-4,9.624-7.518,15.167-11.764-2.428-1.6-3.7-2.489-5.017-3.3a104.332,104.332,0,0,1-33.331-32.374c-.643-.984-1.66-1.978-1.727-3.017a5.04,5.04,0,0,1,1.2-3.664c.509-.471,2.416.071,3.345.686.906.6,1.375,1.866,2.022,2.85A101.9,101.9,0,0,0,389.2,252.26c2.826,1.726,4.976,2.354,7.941-.42,6.689-6.256,14.868-6.435,23.214-4.028C423.59,248.746,426.674,250.193,430.829,251.791Zm-65.056,82.135c2.8-1.1,10.923-7.218,12.925-9.01s-1.591-6.957-2.772-5.528c-3.139,1.91-5.767,5.418-9.236,6.616C362.363,327.5,362.972,335.025,365.773,333.926Zm-2.642-12.452c2.053,2.435,10.192-7.818,10.444-7.111s-2.022-6.433-4.519-6.693S362.453,318.646,363.131,321.474Zm9.058,19.982c2.095,1.571,9.951-7.071,7.782-9.67C378.376,329.876,368.368,335.386,372.189,341.456Z" transform="translate(-321.433 -217.206)"/></g></g></svg>