<svg xmlns="http://www.w3.org/2000/svg" xmlns:xlink="http://www.w3.org/1999/xlink" width="224.982" height="359.144" viewBox="0 0 224.982 359.144">
  <defs>
    <clipPath id="clip-path">
      <rect width="224.983" height="359.144" fill="none"/>
    </clipPath>
  </defs>
  <g id="Component" clip-path="url(#clip-path)">
    <g id="Group_498" data-name="Group 498" transform="matrix(0.998, 0.07, -0.07, 0.998, 6.501, 250.893)">
      <path id="Path_1118" data-name="Path 1118" d="M447.165-338.774a10.362,10.362,0,0,1-2.9,6,10.373,10.373,0,0,1-6.418,2.053,8.761,8.761,0,0,1-2.686-.378v2.35c.046.84.046,1.679.046,2.351v.042a21,21,0,0,0,.042,2.347,10.511,10.511,0,0,1-.378,4.7l-.172.588-.668.081h-.294a4.743,4.743,0,0,1-.839-.081.716.716,0,0,0-.294-.042h-.042l-.923-.084v-.882a172.738,172.738,0,0,1-.084-20.808l.046-.839c.122-2.431.206-5.033.248-7.51l.046-.63v-.416l.206-.21c1.091-1.343,3.48-1.469,5.663-1.469a9.874,9.874,0,0,1,8.979,6.04A12.455,12.455,0,0,1,447.165-338.774Zm-3.568-3.148v-.042c-.252-2.431-1.175-4.53-2.431-5.369a5.64,5.64,0,0,0-3.144-.672c-.549,0-1.095,0-1.682.042H436.3a2.633,2.633,0,0,0-.549.042h-.039c.039,3.19-.129,6.17-.336,8.895-.126,1.469-.168,2.893-.252,4.4a11.453,11.453,0,0,0,3.19.462,4.906,4.906,0,0,0,3.774-1.469C443.265-336.847,443.853-339.32,443.6-341.922Z" transform="translate(-402.375 361.093)" fill="#87c0bd"/>
      <path id="Path_1119" data-name="Path 1119" d="M453.88-319.981v.881l-.759.168a1.759,1.759,0,0,1-.756.126,2.209,2.209,0,0,1-2.011-1.175,6.264,6.264,0,0,1-.546-1.553l-.042-.126-.126-.588c-.42-1.469-.923-3.354-1.469-5.495l-.126-.5c-.336-1.424-.71-2.893-1.091-4.236a4.2,4.2,0,0,0-.626.294c-.213.084-.42.168-.63.252a14.314,14.314,0,0,1-4.781,1.385c-.087,1.508,0,3.438.08,5.285v1c.088,1.553.168,3.022.126,4.155v.462l-.378.294a1.422,1.422,0,0,1-1,.378,2.247,2.247,0,0,1-1.095-.336l-.294-.126-.542-.168-.126-.63v-.042a197.921,197.921,0,0,1-.84-23.91v-.042c.042-1.721.042-3.61.042-5.411v-.714l.63-.252a15.912,15.912,0,0,1,5.663-1.007,11.189,11.189,0,0,1,6.086,1.511,8.542,8.542,0,0,1,3.186,3.816,10.8,10.8,0,0,1,1.046,5.033,10.01,10.01,0,0,1-.882,4.155,7.072,7.072,0,0,1-2.183,2.641c.381,1.259.633,2.518.882,3.694.046.21.088.458.129.672l.588,2.641c.21.882.5,1.8.714,2.434A29.751,29.751,0,0,1,453.88-319.981ZM440.792-334.2a19.638,19.638,0,0,0,5.537-2.011,6.249,6.249,0,0,0,3.27-4.617,6.42,6.42,0,0,0-1.343-5.327,6.617,6.617,0,0,0-5.075-1.973,10.287,10.287,0,0,0-2.515.294c0,1.343,0,2.854-.042,4.488C440.579-340.537,440.537-337.1,440.792-334.2Z" transform="translate(-388.523 361.093)" fill="#87c0bd"/>
      <path id="Path_1120" data-name="Path 1120" d="M461.357-320.4l-.206.8a2.325,2.325,0,0,1-2.434,1.553,8.76,8.76,0,0,1-1.511-.168v-.042a10.306,10.306,0,0,0-1.133-.084,33.916,33.916,0,0,0-3.778.21h-.039c-.336,0-.671.042-1.007.042-1.091.084-2.221.164-3.354.164a14.2,14.2,0,0,1-4.155-.5l-.588-.21-.126-.671v-.042c-.122-4.323,0-9.021.168-13.55.046-.462.046-.923.046-1.385l.038-.336c.21-5.411.381-10.486.126-15.058v-.8l.714-.21c2.182-.923,5.537-.965,8.765-1.007,1.221,0,2.308-.042,3.4-.084h.336c.171,0,.336-.042.546-.042a11.1,11.1,0,0,1,1.217-.084,2.7,2.7,0,0,1,2.057.713,1.613,1.613,0,0,1,.458,1.385v.332l-.252.255a3.334,3.334,0,0,1-2.767,1.046.932.932,0,0,1-.378-.042h-.756l-2.1.084a47.377,47.377,0,0,0-7.132.465c0,3.438-.042,7.3-.122,11.284,1.256.084,2.6.126,4.11.126,1.088,0,2.057-.042,2.977-.088l1.217-.122a1.379,1.379,0,0,1,.42-.084,7.855,7.855,0,0,1,1.343-.171,2.934,2.934,0,0,1,2.644,1.385l.294.672-.462.588a4.7,4.7,0,0,1-3.064.965c-.042,0-.126.042-.168.042h-.084a5.075,5.075,0,0,0-.8.042c-1.889.168-4.11.294-6.586.294-.588,0-1.214,0-1.8-.042l-.213,2.812c-.248,3.145-.462,5.663-.5,8.556.5.042,1.046.042,1.633.042,1.007,0,2.057-.042,3.064-.126.336-.042.672-.042.965-.084,1.175-.084,2.644-.252,3.945-.252a8.018,8.018,0,0,1,4.488.965Z" transform="translate(-373.171 360.374)" fill="#87c0bd"/>
      <path id="Path_1121" data-name="Path 1121" d="M468.474-338.774a10.339,10.339,0,0,1-2.893,6,10.384,10.384,0,0,1-6.422,2.053,8.724,8.724,0,0,1-2.683-.378v2.35c.046.84.046,1.679.046,2.351v.042a21.886,21.886,0,0,0,.038,2.347,10.461,10.461,0,0,1-.378,4.7l-.168.588-.668.081h-.294a4.82,4.82,0,0,1-.843-.081.707.707,0,0,0-.294-.042h-.038l-.923-.084v-.882a171.924,171.924,0,0,1-.084-20.808l.042-.839c.122-2.431.21-5.033.252-7.51l.042-.63v-.416l.21-.21c1.088-1.343,3.48-1.469,5.663-1.469a9.869,9.869,0,0,1,8.975,6.04A12.456,12.456,0,0,1,468.474-338.774Zm-3.564-3.148v-.042c-.252-2.431-1.175-4.53-2.431-5.369a5.657,5.657,0,0,0-3.148-.672c-.546,0-1.091,0-1.679.042h-.042a2.586,2.586,0,0,0-.546.042h-.042c.042,3.19-.126,6.17-.336,8.895-.126,1.469-.164,2.893-.252,4.4a11.471,11.471,0,0,0,3.19.462,4.9,4.9,0,0,0,3.774-1.469C464.574-336.847,465.162-339.32,464.91-341.922Z" transform="translate(-349.144 361.093)" fill="#87c0bd"/>
      <path id="Path_1122" data-name="Path 1122" d="M476.623-312.622l-.126.378-.378.336h-.126a2.132,2.132,0,0,1-.92.21,4.7,4.7,0,0,1-.8-.084h-.042l-.038-.042h-.255l-.672-.084-.21-.63c-1.424-4.407-2.683-8.727-3.774-13.13H468.4a24.612,24.612,0,0,0-3.774.336c-.378,1.259-.8,2.725-1.259,4.488l-.168.462c-.462,1.8-1.008,3.694-1.6,5.411l-.126.336c-.248.881-.756,2.518-2.267,2.518A2.175,2.175,0,0,1,458-312.5l-.462-.294v-.546a5.687,5.687,0,0,1,.672-2.6l.042-.084a8.416,8.416,0,0,0,.42-1.217c.8-2.809,1.549-5.659,2.225-8.471v-.042c.122-.378.206-.756.29-1.133,1.133-4.32,2.309-8.811,3.858-13.214a17.043,17.043,0,0,1,1.557-3.61l.038-.122.168-.168h.042a1.837,1.837,0,0,1,1.175-.42c.839,0,1.511.546,2.015,1.591a15.522,15.522,0,0,1,.755,2.518v.126c.5,2.224.881,4.781,1.217,7.216.164,1.3.378,2.938.588,4.236.039,0,.039.042.039.042a2.662,2.662,0,0,1,.8.671v.042l.122.252v.21a1.473,1.473,0,0,1-.462,1.217c.8,3.27,1.763,6.586,2.854,9.941h.042v.042a.165.165,0,0,0,.042.129c.042.122.084.248.126.374A5.371,5.371,0,0,1,476.623-312.622ZM464-344.924l-.546-.378.084-.671v-.042a13.137,13.137,0,0,1,2.225-4.068,19.835,19.835,0,0,1,3.48-3.736l.588-.5.546.378.336.084a2.065,2.065,0,0,1,1.508,1.427v.42l-.08.168a3.712,3.712,0,0,1-1.3,1.637l-.755.714c-.42.542-.8,1.256-1.217,1.927-.881,1.553-1.8,3.148-3.4,3.148A2.479,2.479,0,0,1,464-344.924Zm2.9,15.9c.542-.042,1.088-.084,1.633-.084-.252-2.225-.546-4.53-.923-6.751-.378,1.214-.755,2.473-1.091,3.69a5.6,5.6,0,0,0-.206.8c-.087.21-.126.462-.213.671-.168.588-.332,1.175-.5,1.759a.533.533,0,0,1,.252-.042h.042C466.218-328.985,466.553-329.027,466.893-329.027Z" transform="translate(-336.811 354.322)" fill="#87c0bd"/>
      <path id="Path_1123" data-name="Path 1123" d="M480.664-319.981v.881l-.759.168a1.767,1.767,0,0,1-.756.126,2.212,2.212,0,0,1-2.011-1.175,6.256,6.256,0,0,1-.546-1.553l-.042-.126-.126-.588c-.42-1.469-.923-3.354-1.469-5.495l-.126-.5c-.336-1.424-.71-2.893-1.088-4.236a4.082,4.082,0,0,0-.63.294l-.63.252a14.313,14.313,0,0,1-4.781,1.385c-.084,1.508,0,3.438.08,5.285v1c.088,1.553.168,3.022.13,4.155v.462l-.378.294a1.436,1.436,0,0,1-1.007.378,2.233,2.233,0,0,1-1.091-.336l-.294-.126-.545-.168-.126-.63v-.042a197.921,197.921,0,0,1-.84-23.91v-.042c.046-1.721.046-3.61.046-5.411v-.714l.626-.252a15.926,15.926,0,0,1,5.663-1.007,11.189,11.189,0,0,1,6.086,1.511,8.542,8.542,0,0,1,3.186,3.816,10.8,10.8,0,0,1,1.049,5.033,10.066,10.066,0,0,1-.882,4.155,7.139,7.139,0,0,1-2.183,2.641c.378,1.259.63,2.518.882,3.694.042.21.084.458.126.672l.588,2.641c.21.882.5,1.8.714,2.434A29.4,29.4,0,0,1,480.664-319.981ZM467.576-334.2a19.64,19.64,0,0,0,5.537-2.011,6.249,6.249,0,0,0,3.27-4.617,6.419,6.419,0,0,0-1.34-5.327,6.631,6.631,0,0,0-5.079-1.973,10.288,10.288,0,0,0-2.515.294c0,1.343,0,2.854-.042,4.488C467.363-340.537,467.324-337.1,467.576-334.2Z" transform="translate(-321.625 361.093)" fill="#87c0bd"/>
      <path id="Path_1124" data-name="Path 1124" d="M489.069-350.112l-.122.458v.045a70.965,70.965,0,0,1-2.56,7.59l-.084.294c-.5,1.3-.965,2.476-1.343,3.568a11.63,11.63,0,0,1-.584,1.466c-.042.129-.088.21-.129.339h-.038v.038a7.22,7.22,0,0,0-.882,2.644,28.833,28.833,0,0,0-.294,4.655l-.088,2.434c-.038.672-.038,1.343-.038,1.973a13.835,13.835,0,0,1-.675,5.285l-.29.671h-.63a2.174,2.174,0,0,1-1.8-.713,2.969,2.969,0,0,1-.5-2.309v-.672c.042-.546.042-1.133.042-1.8,0-1.3,0-2.809.126-4.236a12.963,12.963,0,0,1,.168-1.759v-.129a14.623,14.623,0,0,0,.126-4.026c-.084-.168-.462-.63-.626-.881l-.088-.126-.542-.588c-.839-1.13-1.721-2.641-2.518-3.984l-.168-.294-1.091-1.763a29.521,29.521,0,0,0-2.6-3.732l-.675-.756a6.511,6.511,0,0,1-2.057-3.48v-1.049l.969-.084h.374c1.682,0,2.77,1.427,3.484,2.389l.378.462c1.679,2.183,3.316,4.572,4.823,6.922.336.462.672.965,1.007,1.469v.042l.63.923a44.334,44.334,0,0,0,1.591-4.739l.087-.21a35.226,35.226,0,0,1,2.938-7.342l.08-.294.42-.21h.042a1.849,1.849,0,0,1,.672-.084,3.046,3.046,0,0,1,2.141,1.175h.039Z" transform="translate(-307.917 360.853)" fill="#87c0bd"/>
      <path id="Path_1125" data-name="Path 1125" d="M442.958-336.444l-.08.794a64.641,64.641,0,0,1-3.144,10.909c-.088.294-.213.588-.294.882-.507,1.385-1.008,2.851-1.431,4.362h-.038c-.294.839-.588,1.8-.881,2.728-.087.252-.168.462-.255.71l-1.424,4.407c-.126.5-.252,1.091-.378,1.637a14.749,14.749,0,0,1-.588,2.473v.042l-.042.126c-.672,1.763-1.427,3.442-2.6,3.774l-.08.084h-.336c-1.469,0-2.225-1.634-2.644-2.893a26.813,26.813,0,0,1-.839-3.27,2.178,2.178,0,0,0-.084-.549l-.168-.836c-1.34-5.289-2.183-10.364-3.022-15.271l-.794-4.613c-.087-.294-.168-.672-.294-1.091a6.672,6.672,0,0,1-.5-2.938l.084-1,1.007.084a3.389,3.389,0,0,1,2.938,2.263,12.518,12.518,0,0,1,.668,3.19v.126l.126,1.214c.756,5.289,2.057,10.784,3.232,15.607v.042c.122.671.294,1.3.416,1.931a7.252,7.252,0,0,0,.294-.923c.045-.168.126-.336.168-.5.21-.714.42-1.469.672-2.225l1.721-5.579c.378-1.133.756-2.347,1.133-3.48.5-1.637,1.049-3.358,1.553-5.033.21-.63.374-1.3.542-1.931.042-.168.088-.336.126-.5l.042-.084a18.309,18.309,0,0,1,1.682-4.655,1.278,1.278,0,0,1,1.172-1.091h.168a1.98,1.98,0,0,1,1.427.63l.039.042.045.084.042.042Z" transform="translate(-423.018 396.251)" fill="#87c0bd"/>
      <path id="Path_1126" data-name="Path 1126" d="M457-322.849c0,.087-.042.336-.042.336v.045c-.042.416-.08.836-.08,1.172v.042a42.1,42.1,0,0,1-1.514,9.608,11.973,11.973,0,0,1-3.312,5.7,10.39,10.39,0,0,1-6.167,2.011h-.42a11.936,11.936,0,0,1-4.907-1,10.563,10.563,0,0,1-3.694-2.812,18.009,18.009,0,0,1-3.9-8.975v-.042a24.123,24.123,0,0,1,.458-8.181,24.9,24.9,0,0,1,2.732-7.006,12.456,12.456,0,0,1,3.393-3.564,9.762,9.762,0,0,1,5.5-1.889h.462a12.9,12.9,0,0,1,3.61.462,8.255,8.255,0,0,1,3.144,1.549h.084l.164.171a14.574,14.574,0,0,1,2.518,3.144,14.909,14.909,0,0,1,1.8,3.9A17.335,17.335,0,0,1,457-322.849Zm-4.029-4.613v-.042c-.626-2.557-2.725-5.369-4.488-6.083a5.267,5.267,0,0,0-2.053-.378,9.636,9.636,0,0,0-4.071.965c-2.431,1.679-4.362,5.243-5.2,9.608-.8,4.572-.21,9.017,1.6,12.165a7.9,7.9,0,0,0,6.625,3.774,10.952,10.952,0,0,0,2.018-.21c1.8-.462,3.144-2.015,4.11-4.781a37.264,37.264,0,0,0,1.3-8.811v-.042l.168-1.969a12.067,12.067,0,0,0,0-4.113Z" transform="translate(-398.61 396.581)" fill="#87c0bd"/>
      <path id="Path_1127" data-name="Path 1127" d="M457.975-309.947c.5,1.008-.214,2.183-1.137,3.484l-.374.546-.339.462a10.95,10.95,0,0,1-5.953,2.015,6.033,6.033,0,0,1-2.977-.714c-1.976-.923-4.155-4.323-5.037-5.957l-.084-.213a22.807,22.807,0,0,1-1.469-7,35.28,35.28,0,0,1,.5-7.8,24.743,24.743,0,0,1,2.473-7.384,12.016,12.016,0,0,1,4.155-4.572l.126-.084.168-.042a9.926,9.926,0,0,1,2.057-.168,12.01,12.01,0,0,1,5.2,1.217,5.584,5.584,0,0,1,3.106,3.4,1.121,1.121,0,0,1-.168.671,1.994,1.994,0,0,1-.588.546,3.785,3.785,0,0,1-.927.126,2.834,2.834,0,0,1-2.137-1.049l-.08-.042v-.042a3.16,3.16,0,0,0-.549-.462l-.126-.084a4.209,4.209,0,0,0-2.431-.8,3.329,3.329,0,0,0-2.854,1.553l-.21.21c-1.931,1.679-3.354,5.2-3.9,9.4a25.353,25.353,0,0,0,1.133,11.7,12.456,12.456,0,0,0,3.816,3.774,3.15,3.15,0,0,0,1.007.168,7.594,7.594,0,0,0,2.431-.5,1.3,1.3,0,0,1,.336-.084,4.718,4.718,0,0,1,.546-.21l.252-.5c.714-1.3,1.3-2.434,2.392-2.434A1.638,1.638,0,0,1,457.975-309.947Z" transform="translate(-379.187 396.641)" fill="#87c0bd"/>
      <path id="Path_1128" data-name="Path 1128" d="M454.082-338.476l-.546.881a17.678,17.678,0,0,1-4.743,5.831l-.038.042-.63.462-.714-.294a2.423,2.423,0,0,1-1.385-1.343v-.042a45.8,45.8,0,0,0-3.144-3.522,1.934,1.934,0,0,1-.672-1.469v-.252l.084-.084a2.809,2.809,0,0,1,1.343-1.679l.168-.084h.038l.756-.462,1.095.881v.084l.584.63.042.042.462.5c.5.546.965,1.049,1.469,1.633a11.854,11.854,0,0,0,.836-1.214l.423-.63a2.945,2.945,0,0,1,2.182-1.385h.126a1.766,1.766,0,0,1,1.549.756Z" transform="translate(-375.081 388.868)" fill="#87c0bd"/>
      <path id="Path_1129" data-name="Path 1129" d="M465.177-305.383a2.388,2.388,0,0,1-.507.671l-.126.039a2.963,2.963,0,0,1-.923.213c-.294,0-1.8-.252-1.8-.252l-.21-.588c-1.427-4.449-2.683-8.727-3.778-13.13h-.882a24.687,24.687,0,0,0-3.774.336c-.374,1.256-.8,2.683-1.256,4.446l-.168.5c-.465,1.8-1.007,3.652-1.595,5.369l-.126.378c-.255.882-.755,2.515-2.266,2.515a2.236,2.236,0,0,1-1.217-.416.768.768,0,0,1-.29-.336,1.279,1.279,0,0,1-.168-.462,5.82,5.82,0,0,1,.668-2.644l.042-.084a8.118,8.118,0,0,0,.42-1.172c.8-2.812,1.553-5.666,2.225-8.517.126-.378.206-.755.294-1.133,1.133-4.362,2.308-8.853,3.858-13.214a16.717,16.717,0,0,1,1.549-3.652l.045-.122.168-.126.042-.046a2.134,2.134,0,0,1,1.175-.416c.839,0,1.508.546,2.011,1.637a11.792,11.792,0,0,1,.755,2.473v.168c.5,2.225.881,4.781,1.217,7.216.168,1.259.378,2.9.588,4.236h.042a2.374,2.374,0,0,1,.8.714l.126.462a1.542,1.542,0,0,1-.462,1.259c.794,3.232,1.763,6.586,2.851,9.9l.042.045a.294.294,0,0,0,.046.164,2.315,2.315,0,0,1,.122.378C465.051-307.692,465.551-306.223,465.177-305.383Zm-9.738-16.446c.549,0,1.095-.039,1.637-.039-.248-2.266-.542-4.575-.92-6.8-.378,1.217-.756,2.476-1.091,3.694a7.566,7.566,0,0,0-.21.8c-.084.252-.126.462-.21.71-.168.549-.336,1.133-.5,1.721a.532.532,0,0,0,.252-.042h.042A8.017,8.017,0,0,0,455.439-321.829Z" transform="translate(-365.402 397.03)" fill="#87c0bd"/>
      <path id="Path_1130" data-name="Path 1130" d="M472.282-305.437l-.755.374a2.547,2.547,0,0,1-1.133.21c-1.843,0-2.77-1.8-3.358-2.977a.58.58,0,0,0-.122-.168v-.042l-.252-.5A87.462,87.462,0,0,1,460.5-321.8a18.278,18.278,0,0,0-2.141,1.847c-.672.63-1.3,1.175-1.885,1.679.039,1.046.164,2.183.248,3.354l.084.8a36.2,36.2,0,0,1,.126,8.265l-.084.794-.836.087h-.381a1.854,1.854,0,0,1-.458.042,2.71,2.71,0,0,1-.755-.084l-.294-.084-.255-.252a3.938,3.938,0,0,1-.588-2.476v-.8c-.08-1.549-.206-3.186-.374-4.865,0-.252-.046-.462-.046-.714a83.037,83.037,0,0,1-.458-10.028v-.038a89.48,89.48,0,0,0-.252-11.371v-.084a1.376,1.376,0,0,1,1.466-1.424,4.074,4.074,0,0,1,1.175.248c.045.045.045.045.087.045a.319.319,0,0,1,.206.084l.339.08.206.507.042.042c.755,2.683.713,6.247.63,9.9v3.186c2.77-2.137,5.495-4.571,8.685-7.464l.042-.045a3.53,3.53,0,0,0,.42-.416l.042-.084.038-.042c.675-.756,1.556-1.763,2.812-1.763a2.356,2.356,0,0,1,1.637.672l.378.294v.462a2.957,2.957,0,0,1-1.508,2.347H468.8l-.042.045a.528.528,0,0,0-.252.164l-.042.042a32.275,32.275,0,0,0-2.431,2.225,4.175,4.175,0,0,1-.462.42c-.633.63-1.3,1.259-1.973,1.847l.839,2.137.042.084a60.056,60.056,0,0,0,3.19,7.552c.5.881,1,1.763,1.508,2.6.255.42.5.839.755,1.3a17.858,17.858,0,0,1,2.141,4.4h.042Z" transform="translate(-350.266 397.21)" fill="#87c0bd"/>
      <path id="Path_1131" data-name="Path 1131" d="M477.043-298.222l-.126.374-.378.339h-.126a2.133,2.133,0,0,1-.92.21,5.063,5.063,0,0,1-.8-.084h-.042l-.038-.042h-.255l-.672-.084-.21-.633c-1.424-4.4-2.683-8.723-3.774-13.127h-.881a24.61,24.61,0,0,0-3.774.336c-.378,1.259-.8,2.725-1.259,4.488l-.168.462c-.462,1.8-1.007,3.69-1.595,5.411l-.126.336c-.248.881-.756,2.518-2.266,2.518a2.2,2.2,0,0,1-1.214-.378l-.462-.294v-.546a5.684,5.684,0,0,1,.671-2.6l.042-.084a8.268,8.268,0,0,0,.42-1.217c.8-2.809,1.549-5.663,2.225-8.471v-.042c.122-.378.206-.756.29-1.133,1.133-4.32,2.309-8.811,3.858-13.214a16.939,16.939,0,0,1,1.557-3.606l.038-.126.168-.168h.042a1.838,1.838,0,0,1,1.175-.42c.84,0,1.511.542,2.015,1.592a15.5,15.5,0,0,1,.755,2.518v.126c.5,2.225.882,4.781,1.217,7.216.164,1.3.378,2.935.588,4.236.038,0,.038.042.038.042a2.705,2.705,0,0,1,.8.671v.042l.122.252v.21a1.473,1.473,0,0,1-.462,1.217c.8,3.27,1.763,6.586,2.851,9.941h.045v.042a.154.154,0,0,0,.042.126l.126.378A5.37,5.37,0,0,1,477.043-298.222Zm-12.627-32.3-.546-.378.084-.672v-.042a13.192,13.192,0,0,1,2.221-4.068,19.963,19.963,0,0,1,3.484-3.736l.588-.5.546.378.332.084a2.064,2.064,0,0,1,1.511,1.427v.42l-.081.168a3.681,3.681,0,0,1-1.3,1.633l-.756.717c-.42.542-.8,1.256-1.217,1.927-.881,1.553-1.8,3.148-3.4,3.148A2.476,2.476,0,0,1,464.417-330.524Zm2.9,15.9c.542-.042,1.088-.084,1.633-.084-.252-2.225-.546-4.53-.923-6.754-.378,1.217-.756,2.476-1.091,3.694a5.566,5.566,0,0,0-.206.8c-.087.21-.126.462-.213.671l-.5,1.759a.525.525,0,0,1,.252-.042h.042C466.638-314.585,466.973-314.627,467.313-314.627Z" transform="translate(-335.762 390.289)" fill="#87c0bd"/>
      <path id="Path_1132" data-name="Path 1132" d="M483.386-336.444l-.08.794a64.647,64.647,0,0,1-3.148,10.909c-.084.294-.21.588-.294.882-.5,1.385-1.007,2.851-1.427,4.362H478.4c-.294.839-.588,1.8-.882,2.728-.084.252-.164.462-.252.71l-1.423,4.407c-.126.5-.252,1.091-.378,1.637a15.478,15.478,0,0,1-.588,2.473v.042l-.042.126c-.672,1.763-1.427,3.442-2.6,3.774l-.084.084h-.332c-1.469,0-2.225-1.634-2.644-2.893a26.16,26.16,0,0,1-.839-3.27,2.178,2.178,0,0,0-.084-.549l-.171-.836c-1.34-5.289-2.179-10.364-3.019-15.271l-.8-4.613c-.084-.294-.164-.672-.294-1.091a6.673,6.673,0,0,1-.5-2.938l.081-1,1.007.084a3.381,3.381,0,0,1,2.938,2.263,12.526,12.526,0,0,1,.672,3.19v.126l.126,1.214c.755,5.289,2.057,10.784,3.232,15.607v.042c.122.671.294,1.3.416,1.931a7.832,7.832,0,0,0,.294-.923c.042-.168.126-.336.168-.5.21-.714.42-1.469.672-2.225l1.721-5.579c.378-1.133.756-2.347,1.13-3.48.5-1.637,1.049-3.358,1.557-5.033.206-.63.374-1.3.542-1.931l.126-.5.042-.084a18.438,18.438,0,0,1,1.679-4.655,1.284,1.284,0,0,1,1.172-1.091h.171a1.963,1.963,0,0,1,1.424.63l.042.042.045.084.042.042Z" transform="translate(-322.042 396.251)" fill="#87c0bd"/>
      <path id="Path_1133" data-name="Path 1133" d="M488.479-305.383a2.343,2.343,0,0,1-.5.671l-.126.039a2.986,2.986,0,0,1-.923.213c-.294,0-1.8-.252-1.8-.252l-.206-.588c-1.427-4.449-2.686-8.727-3.777-13.13h-.881a24.691,24.691,0,0,0-3.774.336c-.378,1.256-.8,2.683-1.259,4.446l-.164.5c-.465,1.8-1.011,3.652-1.6,5.369l-.126.378c-.252.882-.755,2.515-2.263,2.515a2.236,2.236,0,0,1-1.217-.416.789.789,0,0,1-.294-.336,1.28,1.28,0,0,1-.168-.462,5.865,5.865,0,0,1,.672-2.644l.038-.084a7.731,7.731,0,0,0,.423-1.172c.8-2.812,1.553-5.666,2.221-8.517a10.4,10.4,0,0,0,.294-1.133c1.137-4.362,2.308-8.853,3.861-13.214a16.724,16.724,0,0,1,1.55-3.652l.046-.122.168-.126.038-.046a2.144,2.144,0,0,1,1.175-.416c.843,0,1.511.546,2.015,1.637a11.566,11.566,0,0,1,.752,2.473v.168c.507,2.225.882,4.781,1.221,7.216.168,1.259.374,2.9.588,4.236h.042a2.4,2.4,0,0,1,.794.714l.126.462a1.539,1.539,0,0,1-.458,1.259c.794,3.232,1.759,6.586,2.851,9.9l.042.045a.313.313,0,0,0,.042.164,1.948,1.948,0,0,1,.126.378C488.353-307.692,488.857-306.223,488.479-305.383Zm-9.734-16.446c.546,0,1.095-.039,1.637-.039-.248-2.266-.542-4.575-.924-6.8-.374,1.217-.756,2.476-1.088,3.694a7.634,7.634,0,0,0-.213.8c-.081.252-.122.462-.206.71-.168.549-.336,1.133-.5,1.721a.511.511,0,0,0,.248-.042h.046A8.045,8.045,0,0,0,478.745-321.829Z" transform="translate(-307.198 397.03)" fill="#87c0bd"/>
      <path id="Path_1134" data-name="Path 1134" d="M496.752-305.108l-.588.336a3.159,3.159,0,0,1-1.34.378c-1.553,0-2.266-1.511-2.686-2.434-.042-.042-.042-.126-.08-.168l-.046-.126v-.084c-.63-1.3-1.175-2.725-1.8-4.239l-.126-.374a54.132,54.132,0,0,0-2.976-6.8c-.5-.923-1.007-1.8-1.511-2.686-1.637-3.061-3.228-5.957-4.7-8.349-.336,5.5-.92,15.733-1.091,20.892-.042,1.091-.122,1.973-.168,2.56,0,.294-.042.5-.042.588v.755l-.714.21a4.943,4.943,0,0,1-1.511.252,2.181,2.181,0,0,1-.92-.168h-.042l-.588-.294v-.672c.126-4.11.336-8.727.63-13.676.294-4.488.462-8.391.588-11.871l.168-4.239v-.756l.752-.248h.126a3.064,3.064,0,0,1,.672-.084c2.14,0,3.651,2.1,4.445,3.228v.042c.675,1.175,1.3,2.309,1.931,3.4a129.675,129.675,0,0,1,7.384,14.264c-.084-1.633-.252-3.48-.378-5.243-.126-1.511-.21-2.9-.294-4.152-.042-.839-.08-1.679-.126-2.476-.168-3.186-.336-6.166-.336-8.727v-.588l.5-.29a2.53,2.53,0,0,1,1.217-.336,2.364,2.364,0,0,1,1.679.71l.206.21.088.378v.046c.168,2.515.294,5.243.42,8.1.08,1.885.168,3.816.248,5.7.087,1.721.168,3.484.255,5.159.126,4.029.294,7.8.672,11.2Z" transform="translate(-291.13 396.88)" fill="#87c0bd"/>
      <path id="Path_1135" data-name="Path 1135" d="M493.271-299.52l-.126.336c-.458,1.259-1.843,1.3-2.767,1.343h-.038a1.176,1.176,0,0,0-.381.042h-.294l-1.214.336c-.129.042-.255.042-.381.084a6.77,6.77,0,0,1-1.843.294,3.009,3.009,0,0,1-2.183-.839l-.378-.378.084-.546a1.624,1.624,0,0,1,1.259-1.343,2.462,2.462,0,0,1,.965-.168.526.526,0,0,1,.252-.042h.252c.042-1.637,0-3.48-.084-5.663v-.042c0-.294-.042-.63-.042-.923a91.007,91.007,0,0,1,.126-10.15,81.807,81.807,0,0,0,.126-8.475h-.042a10.313,10.313,0,0,1-1.175.084,4.829,4.829,0,0,1-1.385-.168,1.993,1.993,0,0,1-1.343-1.633l-.081-.672.588-.381a13.476,13.476,0,0,1,4.9-.92,13.611,13.611,0,0,1,1.389-.084,3.715,3.715,0,0,1,1.8.378,1.965,1.965,0,0,1,1.133,1.633l.126.336-.252.336a2,2,0,0,1-1.889.882h-.168c.084,3.19,0,6.334-.084,9.65v1.595c-.08,4.362-.168,8.849.042,13.463h.084a8.217,8.217,0,0,1,.969-.084,1.8,1.8,0,0,1,1.969,1.427Zm-8.849-31.588-.546-.378.084-.714v-.042a13.147,13.147,0,0,1,2.225-4.026,19.976,19.976,0,0,1,3.48-3.774l.588-.5.546.378.336.126a1.985,1.985,0,0,1,1.511,1.424v.378l-.087.21a3.932,3.932,0,0,1-1.3,1.637l-.756.714c-.42.542-.8,1.217-1.214,1.885-.881,1.553-1.808,3.148-3.4,3.148A2.754,2.754,0,0,1,484.421-331.108Z" transform="translate(-274.256 388.733)" fill="#87c0bd"/>
    </g>
    <g id="Group_524" data-name="Group 524" transform="translate(-312.708 -1337.922)">
      <g id="Group_524-2" data-name="Group 524">
        <path id="Path_1418" data-name="Path 1418" d="M371.506,1357.311c.058.326.045.187,0,0Z" fill="#87c0bd"/>
        <path id="Path_1419" data-name="Path 1419" d="M377.766,1386.806a22.826,22.826,0,0,0,16.448,4.245c13.615-1.941,19.557-16.077,16.6-28.339a2.4,2.4,0,0,0-.518-1,2.272,2.272,0,0,0,.214-1.884c-4.406-13.587-27.118-17.328-35.377-5.808a7.925,7.925,0,0,0-4.878-2.4c-6.728-.757-13.953,4.353-16.8,10.194-5.674,11.643,4.889,26.242-4.051,36.91-1.2,1.432.547,3.532,1.845,4.022C363.724,1407.458,376.659,1399.283,377.766,1386.806Zm16.462-.749c-8.269,2.028-16.424-2.735-20-9.936a2.548,2.548,0,0,0,.833.016c6.194-.98,12.773-2.076,18.534-4.62a96.211,96.211,0,0,0,12.594-6.992C407.678,1373.358,403.659,1383.744,394.228,1386.057ZM356.4,1398.962c3.678-7.178,2.137-16.515,1.039-24.093-.652-4.508-.157-9,2.792-12.7a14.963,14.963,0,0,1,8.312-5.183,4.262,4.262,0,0,1,2.837,0,.688.688,0,0,1,.13.319c-.014-.077-.031-.175-.053-.308.29,1.756,2.462,2.952,4.03,2.889,1.322.527,2.918.361,3.577-1.114-.39.874.252-.389.439-.654a13.039,13.039,0,0,1,1.928-2.234c3.125-2.812,7.376-3.675,11.47-3.408,4.37.285,9.44,2.242,11.63,6.3a100.2,100.2,0,0,1-13.828,7.9c-5.388,2.38-11.443,3.428-17.232,4.344a2.888,2.888,0,0,0-.841.27,17.312,17.312,0,0,1-.23-1.738c-.213-2.721-5.365-4.01-5.114-.805A24.062,24.062,0,0,0,372,1381.142C373.427,1390.939,365.937,1399.924,356.4,1398.962Z" fill="#87c0bd"/>
        <path id="Path_1420" data-name="Path 1420" d="M501.505,1547.6c-7.131-1.6-14.9-.3-21.561-.711l.231-17.813a1.906,1.906,0,0,0-.087-.568c2.837-.808,5.387-2.209,6.785-4.906,2.235-4.311,1.019-9.544-.12-13.976-2.324-9.046-4.1-18.227-6.608-27.24-2.866-10.3-6.322-28.971-19.28-30.858a17.334,17.334,0,0,0-5.195.035,18.25,18.25,0,0,0,7.523-15.938c-.786-7.318-4.4-15.035-10.559-19.276-9.243-6.361-24.793-4.436-30.895,5.464-3.888,6.307-3.1,13.023-.124,19.514,4.616,10.072,14.459,15.421,25.209,13.755-4.356,2.725-8.262,6.491-11.811,9.737-2.18,1.994-4.347,4-6.561,5.957a23.668,23.668,0,0,0-2.611,2.238c-.044.053-.077.091-.118.138a24.8,24.8,0,0,0-4.72-4.176,2.369,2.369,0,0,0,.286-.6c1.907-6.01,3.129-13.048,1.775-19.279-1.27-5.841-4.538-11.328-8.126-16.125,1.125-9.43,1.9-18.7-3.6-26.966-5.3-7.959-15.182-14.771-25.147-12.114-9.75,2.6-14.991,13.583-17.04,22.61a46.184,46.184,0,0,0,1.311,25.077,1.272,1.272,0,0,0-1.18,1.178c-.96,6.144-1.692,12.157-2.162,18.361-.521,6.878-.936,13.767-1.147,20.661-.176,5.777-.86,12.323,1.6,17.743a10.02,10.02,0,0,0,6.564,5.889,9.541,9.541,0,0,0,2.735.251q.32,22.008.638,44.017c.063,4.335-.493,8.929,1.2,13.019,3.894,9.392,14.835,10.257,23.578,7.347a1.682,1.682,0,0,0,1.123-1.664q-.513-31.267-1.025-62.535c.4-.008.811-.007,1.216-.021,4.882-.164,9.885-.351,13.038-4.644a15.925,15.925,0,0,0,2.676-6.514,25.185,25.185,0,0,0,11.3,3.076c5.972-.044,11.627-3.064,16.5-6.588,1.622,3.846,4.541,7.29,5.563,11.435.283,1.147.624,2.017-.168,2.545-.651.434-4.116-.093-4.881-.1-4.292-.04-8.584-.009-12.876.035-7.645.079-15.973,1.411-18.436,10.095-2.262,7.979,1.875,17.54,4.5,24.954,2.828,7.987,6.116,15.813,9.628,23.521,1.319,2.893,2.392,6.044,5.164,7.9,6.374,4.269,13.542-1.763,16.192-7.52,4.964-10.781-.787-23.047-6.333-33.517,2.822-.065,5.649-.081,8.479-.091.068,7.457.241,14.916.366,22.372.044,2.635.3,5.376.149,8.016a7.289,7.289,0,0,0-.3,1.6,6.8,6.8,0,0,0,.7,3.175c1.786,3.58,6.211,4.838,9.862,5.321,6.33.839,13.021.215,19.375.017q14.65-.456,29.289-1.3a1.8,1.8,0,0,0,1.594-1.233C519.361,1558.666,510.328,1549.582,501.505,1547.6Zm-76.329-114.631c-.692-9.991,9.994-15.492,18.752-14.392,7.821.981,12.287,8.788,13.07,16.073.5,7.957-5.28,13.919-12.985,14.891C433.842,1450.829,425.869,1442.974,425.176,1432.974Zm.2,40.574c-.611.647-.413.166,0,0Zm-45.808-66.906c2.733-4.236,6.817-8.1,12.168-8.061,6.347.041,11.784,4.6,15.071,9.687,3.315,5.123,3.391,9.9,3.073,15.85-.181,3.387-1.547,7.642.222,10.643,3.081,5.225,6.985,9.89,7.679,16.18a36.831,36.831,0,0,1-1.735,14.218,58.016,58.016,0,0,0-10.359-7.143,2.1,2.1,0,0,0,1.4-1.987c.225-3.236.454-7.443-1.342-10.3-2.415-3.844-7.769-5.621-11.67-7.364-5.528-2.472-8.249-4.277-8.62-10.607-.15-2.549-.188-5.6.737-8.03,1.106-2.907-4.407-5.443-5.632-2.226-2.046,5.378-1.349,13.665,1.623,18.513,2.523,4.115,7.18,5.647,11.381,7.53,3.035,1.36,7.059,2.351,7.667,6a20.545,20.545,0,0,1,.161,4.236,44.507,44.507,0,0,1-11.1-.081c-7.491-1.04-11.681-5.321-14.2-12.347C372.091,1430.2,373.074,1416.707,379.57,1406.642Zm14.245,63.941c-1.028-.883-.2-.577,0,0Zm.012.416a.677.677,0,0,1-.1.193A1,1,0,0,0,393.827,1471Zm-8.822,94.115a10.868,10.868,0,0,1-2.555-4.949c-.063-.25-.105-.405-.131-.5.018.028.03-.005.008-.248-.49-5.207-.154-10.629-.23-15.855q-.273-18.822-.546-37.644a2.007,2.007,0,0,0-.084-.524c5.408.016,10.832.372,16.253.466q.495,30.235.991,60.47C394.446,1567.51,388.011,1568.083,385.005,1565.114Zm24.723-64.078c-4.443,1.8-10.954.928-15.608.9-5.073-.033-10.138-.294-15.209-.376a32.143,32.143,0,0,1-3.831.135c-5.258-.784-4.9-9.152-4.888-12.943.02-7.453.438-14.913.941-22.346.481-7.1,1.034-12.74,1.952-19.092a30.821,30.821,0,0,0,2.1,3.206c4.3,5.707,10.9,8.092,17.774,8.7a14.275,14.275,0,0,0-2.087,3.656c-.81,2-2.225,5.72-1.657,7.967.649,2.567,4.616,5.057,6.434,6.679a138.887,138.887,0,0,0,16.8,13.125c.892.577,1.814,1.161,2.759,1.735C414.776,1495.87,413.064,1499.683,409.728,1501.036Zm31.963,22.334c-1.139-2.224-5.018-1.316-3.666,1.324q3.111,6.075,5.955,12.288c2.754,6.017,6.193,12.536,5.362,19.344-.579,4.74-8.1,18.533-13.2,10.348-2.607-4.189-4.284-9.349-6.172-13.885a192.968,192.968,0,0,1-8.45-23.786c-1.737-6.442-2.955-14.424,3.867-18.269a13.936,13.936,0,0,1,6.359-1.665c6.394-.3,12.876-.18,19.274-.059,5.015.094,7.2-1.448,5.775-6.746-1.293-4.819-5.066-8.852-6.3-13.539-.011-.043-.032-.08-.046-.122l.13-.1a99.78,99.78,0,0,0,8.022-7.362c1.243-1.258,2.479-3.081,3.979-4.048,2.246-1.448-1.22-4.8-3.293-3.463-2.819,1.817-5.129,5.274-7.589,7.559-4.669,4.338-9.893,8.676-15.895,11-5.767,2.238-11.541.857-16.926-1.936a2.994,2.994,0,0,0-1.1-.593c-4.91-2.741-9.467-6.552-13.36-9.713-3.512-2.853-6.647-6.24-10.193-9.022-.116-.091-.213-.17-.3-.246.171-.727.148-1.833.266-2.369.735-3.345,2.282-8.092,6.378-8.189,3.356-.079,6.642,3.1,9.121,4.991,2.943,2.244,5.849,4.545,8.632,6.985,1.86,1.631,3.748,4.108,5.966,5.272,2.454,1.288,4.006-.17,5.893-1.765,6.82-5.764,12.917-13.533,20.975-17.607,6.352-3.212,12.926-3.622,16.944,3.227,2.782,4.741,4.36,10.391,5.954,15.615,3.107,10.178,5.446,20.539,7.787,30.911.6,2.665,1.495,5.269,1.638,8.02.437,8.464-6.507,9.246-13.357,9.876-8.918.821-17.922.456-26.872.7C442.712,1525.333,442.186,1524.337,441.691,1523.37Zm28.07,43.565c-2.993-.011-10.279.546-10.975-3.519a22.567,22.567,0,0,1,.282-2.925c.047-3.408-.114-6.834-.171-10.242-.11-6.618-.268-13.238-.322-19.857,4.686-.048,9.367-.185,14.019-.676.936-.1,1.927-.2,2.938-.326q-.123,9.5-.247,19.006a2.818,2.818,0,0,0,2.394,2.466c5.3.756,10.394-.175,15.747-.01,4.353.135,9.836.425,13.492,3.083a11.043,11.043,0,0,1,3.981,11.5q-11.289.625-22.588,1.046C482.134,1566.712,475.943,1566.958,469.761,1566.935Z" fill="#87c0bd"/>
      </g>
      <path id="Path_1421" data-name="Path 1421" d="M455.433,1389.749c-10.873-6.354-25.718-16.055-28.169-29.531-2.731-15.013,18.386-26.8,27.854-13.3.949,1.353,3.744.328,4.425-.82,3.8-6.41,14.718-6.107,20.337-2.907,9.117,5.193,9.636,16.194,4.839,24.528-6.482,11.265-18.24,17.822-28.943,24.482-2.721,1.692,1.287,2.925,3.054,1.825,13.389-8.33,36.231-21.009,33.713-39.936-1.341-10.076-10.2-16.111-19.948-16.15-6.187-.024-14.129,2.075-17.533,7.813l4.426-.82c-8.507-12.134-28.676-7.128-35.173,4.425-10.19,18.119,14.414,35.335,27.41,42.929,1.582.925,5.854-1.284,3.708-2.539Z" fill="#87c0bd"/>
    </g>
  </g>
</svg>
