<svg xmlns="http://www.w3.org/2000/svg" width="122.574" height="97.683" viewBox="0 0 122.574 97.683">
  <path id="Path_204" data-name="Path 204" d="M34.766-2.208q0-10.8,6.81-16.907T59.187-25.22q13.15,0,21.368,8.219T88.773,7.654q0,15.5-4.461,26.769a71.179,71.179,0,0,1-10.8,19.02A61.739,61.739,0,0,1,60.126,65.888a59.966,59.966,0,0,1-12.21,6.575L36.175,56.5A47.4,47.4,0,0,0,53.081,42.407q6.105-8.453,6.105-22.073a22.29,22.29,0,0,1-5.166.47q-8.923,0-14.089-6.34T34.766-2.208Zm-68.566,0q0-10.8,6.81-16.907T-9.379-25.22Q3.77-25.22,11.989-17T20.207,7.654q0,15.5-4.461,26.769a71.179,71.179,0,0,1-10.8,19.02A61.738,61.738,0,0,1-8.44,65.888a59.966,59.966,0,0,1-12.21,6.575L-32.391,56.5A47.4,47.4,0,0,0-15.484,42.407q6.105-8.453,6.105-22.073a22.29,22.29,0,0,1-5.166.47q-8.923,0-14.089-6.34T-33.8-2.208Z" transform="translate(88.774 72.463) rotate(180)" fill="#315f72"/>
</svg>
