<svg xmlns="http://www.w3.org/2000/svg" width="217.361" height="228.478" viewBox="0 0 217.361 228.478"><defs><style>.a{fill:#87c0bd;}.b{fill:#fff;}</style></defs><g transform="translate(-274.463 -143.664)"><path class="a" d="M484.631,211.094c-4.062-11-9.453-22.154-16.575-31.51-6.853-9.006-15.87-16.031-25.113-22.449-18.449-12.819-39.606-16.69-61.348-10.749-2.963.812-5.869,1.778-8.721,2.864-22.936,3.6-45.182,13.261-61.855,27.522-15.614,13.357-28.237,31.371-33.974,51.222-4.436,15.347-2.783,31.463,2.15,46.479a145.419,145.419,0,0,0,3.48,21.32A61.138,61.138,0,0,0,298,324.1c8.657,8.929,17.12,17.9,27.784,24.436a99.367,99.367,0,0,0,28.579,11.806c12.973,8.315,27.444,13.357,43.768,11.374A85.571,85.571,0,0,0,431.02,360.12c21.472-11.713,39.366-32.147,48.372-54.231C493.354,276.5,496.2,242.451,484.631,211.094ZM395.985,145.5c22.979-2.173,42.211,8.852,59.24,23.155,8.946,7.515,16.058,17.347,21.507,28.091-11.591-20.57-29.5-37.378-52.008-44.4a112.271,112.271,0,0,0-43.254-4.133A84.471,84.471,0,0,1,395.985,145.5ZM419.33,354.533c-.53.2-1.078.384-1.617.575a85.526,85.526,0,0,1-16.267,3.371,76.54,76.54,0,0,0,9.668-4.3,85.654,85.654,0,0,0,17.938-4.7A89.074,89.074,0,0,1,419.33,354.533Zm8.958-1.348a56.038,56.038,0,0,1-15.368,6.2c1.577-.558,3.15-1.145,4.7-1.8.826-.348,1.642-.716,2.462-1.087A81.2,81.2,0,0,0,428.288,353.185Zm-38.909,5.76c-1.674-.043-3.348-.122-5.02-.257-.317-.046-.632-.093-.946-.142a.645.645,0,0,0-.505-.354c-2.258-.371-4.492-.81-6.707-1.278a100.919,100.919,0,0,0,22.507-3.633,79.167,79.167,0,0,0,17.836-4.4q-2.682,1.676-5.437,3.2a88.682,88.682,0,0,1-10.8,1.037c-1.331.044-1.337,2.12,0,2.078,1.725-.057,3.434-.176,5.145-.328-.26.112-.5.246-.76.353A57.48,57.48,0,0,1,389.379,358.945Zm6.768,2.286q-3.626.534-7.281.768c-1.156-.05-2.305-.116-3.448-.217-.111-.02-.214-.051-.321-.071,1.79-.087,3.59-.246,5.389-.5C392.377,361.284,394.265,361.305,396.147,361.231ZM359.8,352.437c-.349-.118-.684-.254-1.032-.374-2.666-1.449-5.271-3.029-7.826-4.688q1.122.448,2.259.862C355.337,349.739,357.531,351.153,359.8,352.437Zm-20.739-9.045c-1.239-.672-2.46-1.375-3.673-2.089-1.476-.976-2.937-1.975-4.365-3.023-.044-.031-.088-.063-.126-.1-1.04-1.144-2.064-2.289-3.049-3.437a.451.451,0,0,0-.032-.042c1.467.923,2.964,1.8,4.508,2.618C334.488,339.435,336.746,341.455,339.061,343.392Zm-22.085-19.775q-1.594-1.411-3.132-2.888a112.87,112.87,0,0,1-7.361-11.48q1.388,1.816,2.85,3.563a90.863,90.863,0,0,0,6.027,8.331C315.894,321.971,316.425,322.8,316.977,323.617Zm-13.062-14.4a108.845,108.845,0,0,1-8.365-16.235q2.028,3.5,4.308,6.793,1.65,3.925,3.614,7.715C303.611,308.067,303.77,308.642,303.915,309.217Zm-7.546-25.823a89.11,89.11,0,0,1-1.676-9.388c.373,1.29.777,2.572,1.2,3.85q.742,4.417,1.88,8.679C297.293,285.491,296.821,284.446,296.369,283.393Zm-.965-38.211a97.777,97.777,0,0,1,.746-9.984,83.4,83.4,0,0,1,6.327-12.179,97.379,97.379,0,0,0-6.031,19.448C296.079,243.366,295.726,244.27,295.4,245.182Zm-1.386-10.238c-.2.493-.378.993-.571,1.488.059-.479.1-.956.171-1.434.232-1.642.537-3.254.874-4.855.144-.276.289-.553.439-.826C294.576,231.179,294.26,233.053,294.018,234.944ZM399.712,167c-2.389-.88-4.8-1.672-7.225-2.35,1.144.032,2.289.073,3.437.156a70.554,70.554,0,0,1,7.382.929c2.049.4,4.065.9,6.062,1.455a77.028,77.028,0,0,1,13.812,6.992A85.253,85.253,0,0,0,399.712,167ZM347.5,174.118a132.2,132.2,0,0,0-26.086,18.957c1.984-2.9,4.123-5.708,6.352-8.439A105.984,105.984,0,0,1,347.5,174.118Zm-14.818,4.861q2.253-2.435,4.633-4.741a97.386,97.386,0,0,1,13.42-6c.8-.253,1.585-.513,2.393-.738a64.59,64.59,0,0,1,12-2.11A132.774,132.774,0,0,0,332.682,178.979Zm-4.736,2.842q-4.93,3.133-9.578,6.774a95.831,95.831,0,0,1,7.544-7.215c.953-.686,1.918-1.361,2.886-2.014,1.034-.7,2.083-1.364,3.141-2.018C330.583,178.812,329.233,180.287,327.947,181.821Zm-4.8,6.115c-2.258,3.073-4.337,6.276-6.309,9.543A154.14,154.14,0,0,0,301.7,215.165c-.4.541-.771,1.1-1.157,1.643a72.146,72.146,0,0,1,3.647-8.322c1.177-2.276,2.491-4.483,3.877-6.648a89.531,89.531,0,0,1,10.26-10.1C319.894,190.428,321.51,189.17,323.151,187.936Zm-9.361,14.878c-.353.658-.7,1.322-1.04,1.986q-2.279,3.185-4.311,6.562-1.272,1.5-2.477,3.038a87.049,87.049,0,0,0-8.5,13.163q.491-2.265,1.1-4.486A140.437,140.437,0,0,1,313.79,202.814Zm-16.281,10.935a84.355,84.355,0,0,0-9.682,25.647c.126-2.293.312-4.587.642-6.866a72.4,72.4,0,0,1,2.373-8.334c.039-.088.069-.174.1-.263.051-.134.1-.266.155-.4a97.606,97.606,0,0,1,6.969-11.016C297.878,212.926,297.69,213.337,297.508,213.749Zm-4.123,38.727c-.125.593-.181,1.194-.282,1.79a89.311,89.311,0,0,1-.277-9.5c.18-.637.35-1.282.545-1.921C293.233,246.044,293.23,249.259,293.385,252.476Zm-2.112-15.717q-.457,3.947-.546,7.921a87.714,87.714,0,0,0-2.232,10.8c-.053-.413-.118-.827-.171-1.241a71.74,71.74,0,0,1,.77-11.892Q290.07,239.537,291.273,236.759ZM288.394,279.4c.37,2.8.858,5.591,1.486,8.358a77.462,77.462,0,0,1-4.915-14.452,82.059,82.059,0,0,1-.093-8.933c.418,2.25.908,4.487,1.506,6.7C286.942,273.872,287.62,276.648,288.394,279.4Zm1.427-16.271a83.707,83.707,0,0,1,1.1-9.966,96.106,96.106,0,0,0,1.275,10.184,72.478,72.478,0,0,0,.562,10.553A106.358,106.358,0,0,1,289.822,263.132Zm8.67,47.7a94.3,94.3,0,0,0,11.93,17.392q.915,1.977,1.944,3.894a98.338,98.338,0,0,1-21.219-32.107A125.357,125.357,0,0,0,298.492,310.83Zm10.1,8.639c.227.206.446.416.675.62,1.189,1.49,2.422,2.931,3.677,4.346-1.348-1.284-2.678-2.592-3.969-3.941C308.854,320.148,308.718,319.812,308.6,319.469Zm34.967,24.963c1.9,1.364,3.856,2.681,5.837,3.972-.571-.251-1.16-.484-1.73-.739q-3.467-2.37-6.761-5.049c.264.146.528.3.792.44C342.32,343.519,342.94,343.984,343.564,344.432Zm6.793,7.231a76.513,76.513,0,0,1-8.213-2.784c-.64-.467-1.287-.922-1.914-1.4.3-.154.6-.317.907-.481Q345.64,349.543,350.357,351.663Zm32.315,1.757c.263,0,.525-.008.788-.011.913.082,1.825.166,2.739.228a91.673,91.673,0,0,1-17.57.932,65.688,65.688,0,0,1-8.072-3.811c-.226-.125-.448-.257-.67-.387A86.062,86.062,0,0,0,382.672,353.42Zm34.22-2.442c2.362-1.4,4.719-2.858,7.093-4.346a95.028,95.028,0,0,0,24.69-12.27c.535-.327,1.065-.654,1.594-.994-.565.615-1.189,1.177-1.772,1.775q-3.093,2.766-6.357,5.32A78.286,78.286,0,0,1,416.892,350.977ZM448.38,332.16a90.239,90.239,0,0,1-7.923,5.009c-1.683.855-3.41,1.623-5.144,2.382a122.822,122.822,0,0,0,15.029-11.087,84.349,84.349,0,0,0,13.882-15.406,92.054,92.054,0,0,1-7.27,12.054A86.382,86.382,0,0,1,448.38,332.16Zm1.292-5.942c.6-.657,1.2-1.3,1.789-1.988a96.088,96.088,0,0,0,15.462-24.751,92.424,92.424,0,0,0,5.78-11.231c-.591,3.041-1.338,6.046-2.219,9.01A92.84,92.84,0,0,1,449.672,326.217Zm22.3-42a94.654,94.654,0,0,0,2.216-13.655c.085-.472.194-.947.272-1.422.033,2.905-.091,5.809-.326,8.7Q473.181,281.063,471.97,284.214Zm-34.563,51.038a78.08,78.08,0,0,1-8.662,6.026c-1.815.972-3.667,1.877-5.546,2.735-.84.264-1.686.507-2.533.752a93.709,93.709,0,0,0,32.892-26.374A102.659,102.659,0,0,1,437.406,335.252Zm1.618-151.371a101.26,101.26,0,0,0-10.567-8.713c.942.537,1.87,1.1,2.793,1.668a93.6,93.6,0,0,1,18.8,16.036A202.267,202.267,0,0,1,463.959,213c.438.94.879,1.88,1.288,2.833.446,1.028.858,2.066,1.272,3.107-.066-.12-.136-.237-.2-.356A90.587,90.587,0,0,0,439.024,183.881ZM463.4,196.45c.068.11.142.216.211.327,1.738,3.175,3.281,6.47,4.71,9.827Q466.023,201.421,463.4,196.45Zm1.919,8.755q-1.2-1.841-2.455-3.622A114.354,114.354,0,0,0,429.6,169.92a66.454,66.454,0,0,0-21.326-10.838c-6.7-1.932-14.489-2.537-22.074-2.363,17.573-2.305,35.226-.122,50.1,9.53a96.385,96.385,0,0,1,11.737,10.5,112.759,112.759,0,0,1,13.143,19.953C462.632,199.483,464.006,202.326,465.322,205.2Zm-91.07-47.846c-.69.162-1.371.365-2.061.533a88.57,88.57,0,0,0-17.446,4.361c-1.765.5-3.511,1.061-5.241,1.654.505-.375,1.022-.738,1.538-1.1q2.682-1.354,5.415-2.572c19.88-8.206,41.354-12.078,61.926-4.1C403.993,152.483,388.817,153.97,374.252,157.359Zm18.5-7.77a93.709,93.709,0,0,0-28.341,5.2q3.911-1.959,7.97-3.553A127.089,127.089,0,0,1,392.748,149.589ZM279.318,255.031a100.478,100.478,0,0,0-.485,12.157c-3.139-12.413-3.8-25.361-.367-37.835,5.251-19.1,17.183-36.474,31.831-49.6,14.817-13.276,34.24-22.574,54.637-27.086a104.771,104.771,0,0,0-10.986,6.129,182.089,182.089,0,0,0-24.889,13.346,108.667,108.667,0,0,0-23.037,19.3,95.748,95.748,0,0,0-25.97,52.89A75.311,75.311,0,0,0,279.318,255.031Zm4.424.66q-.382,2.191-.64,4.411a76.052,76.052,0,0,1,.565-14.245A77.509,77.509,0,0,0,283.742,255.691Zm-2.831,17.669c-.071-.851-.108-1.7-.16-2.553a73.055,73.055,0,0,0,1.606,7.572q-.695-1.84-1.319-3.7C281,274.234,280.946,273.794,280.912,273.36ZM310.6,333.78c-8.243-8.261-16.68-15.936-21.762-26.646-3.676-7.75-5.79-16.728-7.008-25.5q1.446,3.564,3.1,7.009c4.487,18.072,14.9,34.569,28.429,47.265.959.9,1.941,1.778,2.932,2.645.263.378.532.755.8,1.126Q313.727,336.9,310.6,333.78Zm22.294,14.4q-3-1.781-5.895-3.771a100.811,100.811,0,0,1-10.494-8.325c-.733-1.152-1.436-2.317-2.1-3.5a84.086,84.086,0,0,0,20.137,15.34A14.861,14.861,0,0,1,332.892,348.177Zm-17.308-17.409c-1.607-1.672-3.129-3.4-4.593-5.173-.2-.46-.434-.907-.621-1.374A123.6,123.6,0,0,0,324.563,336.2c1.732,1.735,3.5,3.437,5.336,5.059,1.6,1.415,3.262,2.805,4.952,4.189A77.063,77.063,0,0,1,315.584,330.768Zm19.478,18.647c.5-.117,1.008-.251,1.523-.418,1.979.993,4.005,1.908,6.075,2.725q2.077,1.723,4.205,3.356A101.213,101.213,0,0,1,335.062,349.415Zm14.85,4.737a75.181,75.181,0,0,0,8.235,1.81A84.271,84.271,0,0,0,367,359.707a72.327,72.327,0,0,1-8.972-.908C355.275,357.37,352.568,355.813,349.912,354.152ZM385.518,370.2c-9.4-.731-18.4-4.064-26.749-8.873,9.834,4.983,20.349,8.385,31.173,8.943.784.042,1.568.036,2.353.05A61.884,61.884,0,0,1,385.518,370.2Zm89.259-59.021a128.554,128.554,0,0,1-26.665,34.079,114.67,114.67,0,0,1-9.544,7.724c-18.617,12.888-40.974,19.261-63.083,12.888a88.972,88.972,0,0,1-8.6-2.991,94.735,94.735,0,0,0,21.878,1.327,58.963,58.963,0,0,0,21.79-1.1c11.648-2.862,22.057-9.551,31.369-16.9,3.31-2.609,6.493-5.337,9.52-8.207a116.477,116.477,0,0,0,25.476-31.413C476.244,308.12,475.539,309.651,474.777,311.175Zm1.588-43.135a93.1,93.1,0,0,0-.794-10.274,93.1,93.1,0,0,0-.7-14.539q1.4,4.4,2.395,8.9A74.8,74.8,0,0,1,476.365,268.04Zm.691,7.412q-.594,3.714-1.5,7.333c.15-1.148.31-2.293.415-3.446C476.368,278.051,476.726,276.757,477.056,275.452Zm5.381,13.045a85.581,85.581,0,0,1-5.415,12.623,90.342,90.342,0,0,0,6.155-17.86C482.99,285.009,482.749,286.753,482.438,288.5Zm-1.982-6.168a86.6,86.6,0,0,0,.826-12.2c.1-2.013.142-4.02.138-6.028a83.383,83.383,0,0,1-.749,17.027C480.612,281.534,480.524,281.927,480.455,282.329Zm6.12-15.42c-.132,2.613-.414,5.212-.8,7.795a93.516,93.516,0,0,0-.544-10.667c-.193-12.459-3.317-25.1-8.27-36.949a137.064,137.064,0,0,0-4.249-14.454C481.258,229.434,487.5,248.507,486.575,266.91Zm.358-19.152a156.141,156.141,0,0,0-26.381-59.774,84.082,84.082,0,0,0-16.364-18.454,68.035,68.035,0,0,0-24.7-16.075,63.072,63.072,0,0,0-9.271-2.565c2.566.4,5.11.87,7.612,1.453,40.54,9.458,67.821,49.961,71.461,90.045a104.167,104.167,0,0,1-1.062,26.673A78.277,78.277,0,0,0,486.932,247.757Z" transform="translate(0)"/><g transform="translate(313.654 205.434)"><path class="b" d="M465.736,315.972a18.3,18.3,0,0,0-4.471-10.894c-3.15-3.524-7.761-5.134-11.124-8.384a8.466,8.466,0,0,1-2.057-3.213q1.676.284,3.359.519c2.506.346,5.755,1.056,8.175-.01,7.109-3.132,3.994-15.823-4.027-14.2a1.519,1.519,0,0,0-.393.142c-.012,0-.022,0-.034.01-2.9,1.123-5.55,3.664-7.917,6.137.027-1.235.081-2.451.081-3.595v-7.111c4.2-.936,7.856-4.015,8.087-9.108.156-3.433,0-6.91,0-10.346,0-3.216.417-6.732-.07-9.928-1.135-7.451-9.314-6.58-14.851-6.58H394c-.076,0-.151.01-.226.016a3.71,3.71,0,0,0-.373,0,12.082,12.082,0,0,0-1.267.166,1.474,1.474,0,0,0-.415-.229q-15.128-5.361-30.271-10.681c-5.595-1.957-10.738-3.319-15.231,1.675-2.266,2.519-3.094,5.365-4.205,8.487l-5.148,14.454a3.469,3.469,0,0,0-.168,1.758c-.772,3.672-.509,7.712,1.364,10.817l-8.921,25.842c-2.158,6.252-2.653,13.155-.314,19.455,4.822,12.988,22.519,20.17,35.288,15.329,6.668-2.528,11.818-8.424,14.266-15.037,3.437-9.29,6.477-18.744,9.705-28.11a14.391,14.391,0,0,0,4.926-3.588l-.668,22.944c-.113,3.846-.814,5.9.309,9.656,1.765,5.91,6.938,8.77,11.944,11.6,9.055,5.121,18.462,9.56,27.706,14.311,8.181,4.205,17.013,5,24.676-.795C464.086,332.119,466.441,324.6,465.736,315.972Zm-34.51-20.922c-1.071-5.18,4.187-3.837,7.328-3.391.867.123,1.732.261,2.6.4-.631.6-1.264,1.2-1.908,1.787C436.747,296.118,433.334,299.734,431.226,295.05Zm24.566-10.855c3.728-.628,6.58,4.821,2.212,5.82-1.417.323-3.273-.121-4.691-.3-1.3-.161-2.606-.355-3.9-.57A21.333,21.333,0,0,1,455.792,284.194Zm-7.658-12.081a5.844,5.844,0,0,1-2.216.86c-.751-.585-1.57-.771-1.855-.027a7.037,7.037,0,0,1-5.034-5.662h11.82A6.2,6.2,0,0,1,448.134,272.113Zm-52.328.957a1.817,1.817,0,0,0-1.516-.591.791.791,0,0,0-.778.165c-.175-.073-.35-.14-.527-.233a6.638,6.638,0,0,1-.823-.513,1.394,1.394,0,0,0-.938-1.163l-.375-.135a7.525,7.525,0,0,1-1.345-3.317H401.37C400.991,270.329,398.686,272.941,395.806,273.071Zm32.281-30.921c5.642,0,11.309-.156,16.95,0,7.155.2,5.913,7.659,5.913,12.847,0,2.678.064,5.368.052,8.052h-61.66c.013-.881.034-1.761.034-2.631v-10c0-2.319-.145-5.2,1.266-6.884a2.325,2.325,0,0,0,1.508-1.067,5.307,5.307,0,0,1,1.419-.316Zm6.308,25.134c-.845,7.633-10.624,6.942-11.881,0Zm-16.51,0c-.845,7.633-10.625,6.942-11.881,0Zm-72.577-27.264c1.559-4.377,3.327-10.16,9.431-8.844,6.874,1.482,13.738,4.723,20.36,7.062q5.961,2.106,11.92,4.216a10.612,10.612,0,0,0-2.11,6.83v14.325a21.606,21.606,0,0,0,.5,5.023l-27.03-9.774a2.355,2.355,0,0,0-.309-.112l-17.212-6.223Zm-.226,26.029c-4.3-1.065-6.372-5.3-5.907-9.37l15.313,5.537v0C352.354,265.162,348.855,266.984,345.083,266.048Zm13.667-2.292,13.826,5c-2.051,3.127-5.505,5.412-9.383,3.883C359.447,271.161,358.341,267.37,358.751,263.756Zm17.318,42.154c-1.745,5.053-3.538,9.558-7.787,13.176-10.228,8.71-29.419,3.693-35.119-8.19-2.572-5.361-2.321-11.769-.525-17.036,2.817-8.261,5.69-16.5,8.543-24.751a10.433,10.433,0,0,0,1.189.668c4.471,2.133,8.824.516,11.989-2.571.59,4.22,2.988,8.052,7.353,9.639a11.556,11.556,0,0,0,11.47-2.262c.618,4.084,2.962,7.751,7.3,9.176a10.4,10.4,0,0,0,3.061.511Zm5.514-26.451c-3.653-1.654-4.869-5.424-4.492-9.072l12.255,4.432a1.625,1.625,0,0,0,1.054.016c.322.143.661.277,1.022.4.113.037.227.059.34.093C389.667,278.861,385.786,281.362,381.582,279.459Zm78.832,47.7a19.687,19.687,0,0,1-25.526,8.522c-8.205-3.533-16.185-8-24.067-12.185-4.164-2.214-9.147-4.3-12.677-7.511-3.436-3.122-2.568-6.622-2.453-10.556q.432-14.842.864-29.683a10.977,10.977,0,0,0,6.892-3.523c3.886,4.7,12.3,4.53,16.493-.022,3.881,4.725,12.324,4.558,16.519-.009a10.245,10.245,0,0,0,7.469,3.476,117.431,117.431,0,0,0,.025,12.634,64.377,64.377,0,0,0-9.222-1.174c-5.3-.209-9,3.841-7.8,9.191a2.059,2.059,0,0,0,.175.483c0,.006,0,.013.005.019,2.032,5.089,7.285,5.891,11.394,2.854a60.154,60.154,0,0,0,6.572-5.812c1.775,4.61,5.6,7.434,9.924,10.265,3.788,2.478,6.6,5,7.264,9.646C462.914,318.267,462.664,323.137,460.414,327.156Z" transform="translate(-327.285 -226.919)"/><path class="b" d="M381.1,299.689a1.8,1.8,0,0,0-.806-.453,1.9,1.9,0,0,0-.761-.186c-3.96-.852-8.641.065-12.661.719a62.222,62.222,0,0,0-7.518-7.408c-4.14-3.261-9.1-1.211-11.146,3.417a3.043,3.043,0,0,0-.172.5c0,.013-.01.023-.013.036-1.406,5.188,1.717,8.94,6.875,8.9a72.606,72.606,0,0,0,10.045-.962c1.351,1.479,2.73,2.935,4.15,4.346,1.879,1.865,4.094,4.419,6.821,4.924C383.776,314.976,387.391,303.693,381.1,299.689Zm-29.373-3.056c2.088-4.15,6.967.541,10.155,4.116C357,301.479,350.576,301.8,351.732,296.633Zm24.7,12.417a13.477,13.477,0,0,1-3.283-2.754c-.965-.911-1.905-1.85-2.827-2.808,2.81-.481,5.8-.838,8.162-.171C381.709,304.856,379.9,310.521,376.428,309.051Z" transform="translate(-332.551 -243.396)"/></g></g></svg>