<svg xmlns="http://www.w3.org/2000/svg" width="217.492" height="228.62" viewBox="0 0 217.492 228.62"><defs><style>.a{fill:#de9ba8;}.b{fill:#fff;}</style></defs><g transform="translate(-274.463 -143.663)"><g transform="translate(274.463 143.663)"><path class="a" d="M484.757,211.136c-4.065-11.01-9.459-22.167-16.585-31.53-6.857-9.013-15.88-16.042-25.129-22.463-18.459-12.827-39.63-16.7-61.384-10.755-2.964.811-5.873,1.78-8.727,2.865-22.949,3.6-45.21,13.27-61.893,27.54-15.624,13.365-28.254,31.389-33.994,51.254-4.439,15.356-2.785,31.482,2.151,46.508a145.316,145.316,0,0,0,3.482,21.333,61.19,61.19,0,0,0,15.337,28.32c8.663,8.934,17.13,17.911,27.8,24.451a99.442,99.442,0,0,0,28.6,11.813c12.98,8.32,27.459,13.365,43.795,11.381a85.617,85.617,0,0,0,32.906-11.6c21.486-11.72,39.39-32.167,48.4-54.265C493.486,276.586,496.332,242.512,484.757,211.136Zm-88.7-65.635c22.993-2.174,42.237,8.858,59.276,23.17,8.952,7.52,16.067,17.357,21.52,28.109-11.6-20.584-29.516-37.4-52.039-44.431a112.352,112.352,0,0,0-43.279-4.135A84.444,84.444,0,0,1,396.058,145.5Zm23.359,209.163c-.53.2-1.079.384-1.618.575a85.659,85.659,0,0,1-16.277,3.373,76.677,76.677,0,0,0,9.674-4.3,85.8,85.8,0,0,0,17.949-4.7A89.245,89.245,0,0,1,419.417,354.664Zm8.964-1.35a56.105,56.105,0,0,1-15.377,6.2c1.578-.558,3.151-1.146,4.707-1.8.826-.349,1.642-.717,2.463-1.088A81.219,81.219,0,0,0,428.381,353.314Zm-38.932,5.765c-1.676-.044-3.35-.122-5.024-.257q-.474-.069-.947-.143a.645.645,0,0,0-.506-.355c-2.26-.371-4.494-.811-6.71-1.278a100.883,100.883,0,0,0,22.52-3.636,79.133,79.133,0,0,0,17.847-4.4q-2.684,1.677-5.44,3.2a88.864,88.864,0,0,1-10.81,1.037c-1.331.045-1.337,2.122,0,2.079,1.726-.057,3.436-.175,5.148-.327-.259.111-.5.246-.76.353A57.528,57.528,0,0,1,389.449,359.079Zm6.772,2.287q-3.629.533-7.286.768c-1.157-.05-2.307-.116-3.451-.218-.11-.019-.215-.05-.321-.071,1.792-.087,3.592-.246,5.393-.5C392.448,361.419,394.337,361.44,396.221,361.366Zm-36.369-8.8c-.349-.118-.684-.253-1.033-.374-2.667-1.45-5.275-3.03-7.831-4.69q1.122.448,2.261.862C355.386,349.867,357.581,351.282,359.852,352.566Zm-20.752-9.05c-1.24-.673-2.461-1.376-3.676-2.091-1.477-.976-2.939-1.976-4.367-3.025-.044-.031-.088-.063-.126-.1-1.041-1.145-2.066-2.29-3.05-3.44a.371.371,0,0,0-.032-.042c1.468.923,2.966,1.8,4.511,2.618C334.524,339.557,336.783,341.577,339.1,343.516ZM317,323.728c-1.062-.941-2.11-1.9-3.134-2.89a112.973,112.973,0,0,1-7.364-11.487q1.389,1.817,2.851,3.565a91.063,91.063,0,0,0,6.032,8.336C315.919,322.082,316.45,322.912,317,323.728Zm-13.069-14.409a108.74,108.74,0,0,1-8.37-16.245q2.029,3.5,4.31,6.8,1.651,3.928,3.615,7.72C303.628,308.169,303.788,308.744,303.933,309.319Zm-7.551-25.839a89.36,89.36,0,0,1-1.678-9.394c.374,1.291.778,2.574,1.2,3.852q.743,4.42,1.882,8.685C297.306,285.578,296.834,284.533,296.382,283.479Zm-.967-38.235a98.055,98.055,0,0,1,.748-9.99,83.45,83.45,0,0,1,6.33-12.186,97.476,97.476,0,0,0-6.034,19.46C296.092,243.427,295.739,244.332,295.415,245.245ZM294.029,235c-.2.494-.379.993-.572,1.489.059-.479.1-.956.171-1.435.232-1.643.537-3.256.875-4.858.144-.277.29-.553.44-.826C294.588,231.233,294.271,233.107,294.029,235Zm105.758-67.987c-2.391-.88-4.8-1.673-7.23-2.352,1.145.032,2.29.073,3.439.157a70.233,70.233,0,0,1,7.386.929c2.05.4,4.067.9,6.066,1.456a77,77,0,0,1,13.82,7A85.277,85.277,0,0,0,399.788,167.014Zm-52.244,7.122a132.282,132.282,0,0,0-26.1,18.968c1.985-2.9,4.125-5.711,6.356-8.444A106.093,106.093,0,0,1,347.544,174.135ZM332.717,179q2.254-2.438,4.636-4.744a97.489,97.489,0,0,1,13.428-6c.8-.252,1.586-.514,2.394-.739a64.689,64.689,0,0,1,12-2.111A132.884,132.884,0,0,0,332.717,179Zm-4.739,2.844q-4.932,3.135-9.584,6.777a96.029,96.029,0,0,1,7.549-7.22c.954-.687,1.919-1.362,2.888-2.016,1.034-.7,2.085-1.365,3.143-2.019C330.616,178.833,329.266,180.309,327.979,181.845Zm-4.8,6.119c-2.259,3.075-4.339,6.279-6.313,9.548a154.289,154.289,0,0,0-15.145,17.7c-.4.542-.771,1.1-1.157,1.644a72.194,72.194,0,0,1,3.65-8.327c1.178-2.278,2.493-4.486,3.88-6.653a89.58,89.58,0,0,1,10.266-10.107C319.921,190.456,321.538,189.2,323.18,187.963Zm-9.367,14.887c-.353.659-.7,1.323-1.041,1.987q-2.282,3.186-4.313,6.565-1.273,1.5-2.48,3.04a87.183,87.183,0,0,0-8.5,13.17q.491-2.265,1.1-4.489A140.426,140.426,0,0,1,313.813,202.851Zm-16.291,10.941a84.4,84.4,0,0,0-9.687,25.664c.126-2.295.313-4.59.642-6.87a72.378,72.378,0,0,1,2.375-8.339c.039-.088.069-.174.1-.264.051-.134.1-.267.155-.4a97.486,97.486,0,0,1,6.973-11.023C297.892,212.968,297.7,213.38,297.522,213.791ZM293.4,252.543c-.125.593-.182,1.195-.282,1.791a89.164,89.164,0,0,1-.278-9.506c.179-.638.35-1.283.546-1.922C293.244,246.107,293.241,249.324,293.4,252.543Zm-2.114-15.727q-.457,3.95-.546,7.926a87.758,87.758,0,0,0-2.233,10.8c-.054-.413-.118-.828-.172-1.241a71.869,71.869,0,0,1,.771-11.9Q290.079,239.6,291.283,236.816Zm-2.88,42.67c.37,2.8.859,5.595,1.486,8.363a77.509,77.509,0,0,1-4.918-14.461,82.129,82.129,0,0,1-.093-8.938c.417,2.252.909,4.49,1.507,6.706C286.949,273.952,287.628,276.73,288.4,279.486Zm1.428-16.281a83.784,83.784,0,0,1,1.1-9.973,96.16,96.16,0,0,0,1.275,10.191,72.418,72.418,0,0,0,.562,10.56A106.626,106.626,0,0,1,289.83,263.205Zm8.675,47.727a94.425,94.425,0,0,0,11.938,17.4q.915,1.977,1.945,3.9a98.412,98.412,0,0,1-21.233-32.127A125.762,125.762,0,0,0,298.506,310.933Zm10.111,8.645c.227.2.446.416.676.619,1.19,1.491,2.423,2.933,3.679,4.348-1.35-1.284-2.681-2.593-3.972-3.944C308.875,320.258,308.739,319.921,308.617,319.578ZM343.6,344.556c1.9,1.365,3.858,2.683,5.841,3.975-.572-.251-1.16-.485-1.732-.739q-3.47-2.372-6.765-5.053c.264.146.527.3.792.441C342.361,343.643,342.981,344.108,343.6,344.556Zm6.8,7.235a76.3,76.3,0,0,1-8.218-2.786c-.64-.467-1.288-.923-1.915-1.4.3-.154.6-.317.907-.482Q345.682,349.669,350.4,351.791Zm32.334,1.759c.264,0,.526-.008.788-.011.914.082,1.826.166,2.741.227a91.662,91.662,0,0,1-17.58.932,65.777,65.777,0,0,1-8.077-3.813c-.226-.125-.448-.257-.67-.388A86.084,86.084,0,0,0,382.737,353.55Zm34.24-2.444c2.363-1.4,4.722-2.86,7.1-4.349a95.06,95.06,0,0,0,24.7-12.277c.536-.328,1.067-.655,1.6-1-.565.615-1.189,1.178-1.772,1.777q-3.095,2.767-6.361,5.324A78.329,78.329,0,0,1,416.977,351.106Zm31.507-18.83a90.112,90.112,0,0,1-7.927,5.012c-1.684.855-3.413,1.625-5.148,2.384a122.848,122.848,0,0,0,15.039-11.093,84.4,84.4,0,0,0,13.89-15.416,92.1,92.1,0,0,1-7.274,12.062A86.259,86.259,0,0,1,448.484,332.276Zm1.294-5.946c.6-.658,1.2-1.3,1.79-1.989a96.186,96.186,0,0,0,15.471-24.767,92.588,92.588,0,0,0,5.784-11.238c-.592,3.043-1.339,6.05-2.221,9.016A92.873,92.873,0,0,1,449.778,326.33ZM472.089,284.3a94.715,94.715,0,0,0,2.217-13.664c.085-.472.195-.947.272-1.423.033,2.907-.091,5.813-.327,8.707Q473.3,281.148,472.089,284.3ZM437.5,335.37a77.883,77.883,0,0,1-8.667,6.03c-1.815.973-3.67,1.879-5.549,2.737-.84.264-1.687.506-2.535.752A93.742,93.742,0,0,0,453.665,318.5,102.63,102.63,0,0,1,437.5,335.37ZM439.123,183.9a101.5,101.5,0,0,0-10.572-8.718c.942.538,1.872,1.1,2.794,1.67a93.658,93.658,0,0,1,18.81,16.045,202.32,202.32,0,0,1,13.918,20.138c.438.941.879,1.881,1.288,2.834.447,1.029.86,2.068,1.274,3.108-.067-.12-.137-.237-.2-.356A90.642,90.642,0,0,0,439.123,183.9Zm24.393,12.577c.068.111.142.216.211.328,1.739,3.177,3.283,6.473,4.713,9.833Q466.137,201.457,463.516,196.482Zm1.921,8.761q-1.2-1.842-2.456-3.624a114.418,114.418,0,0,0-33.292-31.682,66.477,66.477,0,0,0-21.339-10.845c-6.7-1.933-14.5-2.539-22.087-2.365,17.583-2.307,35.247-.123,50.129,9.535a96.5,96.5,0,0,1,11.744,10.51,112.862,112.862,0,0,1,13.151,19.966C462.746,199.517,464.12,202.362,465.437,205.243Zm-91.125-47.876c-.69.162-1.372.366-2.063.535a88.631,88.631,0,0,0-17.456,4.363c-1.766.506-3.513,1.062-5.244,1.656.506-.376,1.022-.739,1.539-1.1q2.684-1.354,5.419-2.574c19.892-8.211,41.378-12.085,61.963-4.1C404.071,152.488,388.886,153.976,374.312,157.366Zm18.507-7.774a93.763,93.763,0,0,0-28.358,5.2q3.913-1.96,7.975-3.555A127.176,127.176,0,0,1,392.819,149.592ZM279.321,255.1a100.689,100.689,0,0,0-.486,12.164c-3.141-12.42-3.8-25.377-.367-37.859,5.253-19.108,17.193-36.5,31.85-49.633,14.826-13.284,34.26-22.587,54.671-27.1a104.8,104.8,0,0,0-10.994,6.133,182.225,182.225,0,0,0-24.9,13.354,108.736,108.736,0,0,0-23.051,19.312,95.8,95.8,0,0,0-25.986,52.923A75.247,75.247,0,0,0,279.321,255.1Zm4.427.661q-.382,2.193-.641,4.414a76.163,76.163,0,0,1,.565-14.253A77.7,77.7,0,0,0,283.748,255.76Zm-2.833,17.68c-.071-.852-.108-1.7-.159-2.555a72.951,72.951,0,0,0,1.607,7.577q-.694-1.842-1.319-3.708C281,274.315,280.95,273.874,280.915,273.44Zm29.7,60.458c-8.247-8.266-16.69-15.947-21.774-26.663-3.679-7.754-5.794-16.738-7.013-25.512q1.446,3.566,3.1,7.013c4.49,18.083,14.914,34.59,28.446,47.3.96.9,1.941,1.779,2.934,2.646.264.379.532.757.8,1.128Q313.75,337.023,310.619,333.9ZM332.927,348.3q-3-1.782-5.9-3.774a100.777,100.777,0,0,1-10.5-8.33c-.733-1.152-1.437-2.318-2.1-3.5a84.131,84.131,0,0,0,20.149,15.348A14.675,14.675,0,0,1,332.927,348.3Zm-17.318-17.42c-1.608-1.673-3.131-3.407-4.6-5.176-.2-.46-.434-.906-.621-1.374a123.672,123.672,0,0,0,14.2,11.984c1.733,1.736,3.5,3.44,5.339,5.063,1.6,1.415,3.264,2.806,4.955,4.191A77.091,77.091,0,0,1,315.609,330.883Zm19.49,18.659c.5-.117,1.008-.252,1.524-.418,1.98.993,4.007,1.909,6.079,2.726,1.385,1.149,2.787,2.273,4.208,3.359A101.519,101.519,0,0,1,335.1,349.543Zm14.859,4.74a75.181,75.181,0,0,0,8.24,1.81,84.016,84.016,0,0,0,8.862,3.748,72.261,72.261,0,0,1-8.978-.908C355.323,357.5,352.616,355.945,349.958,354.283Zm35.628,16.054c-9.4-.731-18.407-4.068-26.766-8.878,9.84,4.986,20.361,8.39,31.191,8.948.785.042,1.569.036,2.355.05A62.111,62.111,0,0,1,385.585,370.336ZM474.9,311.279a128.637,128.637,0,0,1-26.681,34.1,114.88,114.88,0,0,1-9.55,7.728c-18.629,12.9-41,19.273-63.122,12.9a89.027,89.027,0,0,1-8.6-2.993,94.876,94.876,0,0,0,21.891,1.327,58.983,58.983,0,0,0,21.8-1.1c11.655-2.863,22.07-9.557,31.388-16.912,3.312-2.612,6.5-5.341,9.525-8.213a116.525,116.525,0,0,0,25.491-31.432C476.365,308.222,475.66,309.753,474.9,311.279Zm1.589-43.161a93.328,93.328,0,0,0-.794-10.28,93.155,93.155,0,0,0-.7-14.548q1.4,4.408,2.4,8.907A74.9,74.9,0,0,1,476.486,268.117Zm.692,7.417q-.595,3.716-1.5,7.337c.15-1.148.31-2.295.415-3.448C476.489,278.134,476.848,276.839,477.178,275.534Zm5.384,13.053a85.519,85.519,0,0,1-5.419,12.63,90.354,90.354,0,0,0,6.16-17.871C483.114,285.1,482.875,286.842,482.563,288.586Zm-1.984-6.172a86.544,86.544,0,0,0,.828-12.207c.1-2.014.142-4.022.138-6.032a83.45,83.45,0,0,1-.749,17.038C480.736,281.619,480.648,282.013,480.578,282.415Zm6.125-15.429c-.133,2.615-.415,5.215-.8,7.8a93.408,93.408,0,0,0-.544-10.673c-.193-12.466-3.319-25.113-8.275-36.973a137.384,137.384,0,0,0-4.252-14.463C481.382,229.486,487.63,248.572,486.7,266.986Zm.357-19.164a156.242,156.242,0,0,0-26.4-59.812,84.168,84.168,0,0,0-16.375-18.466,68.067,68.067,0,0,0-24.712-16.084,62.967,62.967,0,0,0-9.276-2.567c2.567.4,5.114.872,7.617,1.454,40.564,9.465,67.861,49.993,71.5,90.1a104.237,104.237,0,0,1-1.063,26.69A78.324,78.324,0,0,0,487.06,247.821Z" transform="translate(-274.463 -143.663)"/></g><g transform="translate(303.48 192.474)"><path class="b" d="M460.115,248.788a70.166,70.166,0,0,0-17.26-21.29,4.929,4.929,0,0,0-.5-.418,73.171,73.171,0,0,0-22.278-12.7c-14.03-4.891-31.29-7.114-45.642-2.253-11.06,3.745-20.563,12.376-28.512,20.678a59.584,59.584,0,0,0-14.609,27.759c-4.164-.889-8.593-.4-11.942,2.439-5.624,4.763-6.744,12.936-5.187,19.769,1.57,6.893,5.771,13.5,13.234,14.633a18.553,18.553,0,0,0,7.469-.5c2.471,8.495,7.753,15.727,13.445,22.543,4.566,5.466,9.827,10.681,15.962,14.373a58.612,58.612,0,0,0,17.124,6.421c28.45,6.572,66.546-2.238,78.935-31.485a48.043,48.043,0,0,0,3.85-19.82,17.344,17.344,0,0,0,10.3-.874c7.1-3.005,14-10.864,14.332-18.729C489.473,254.258,473.5,242.206,460.115,248.788ZM413.279,217.92a62.332,62.332,0,0,1,22.675,10.9c-8.434,5.744-21.06,6.175-28.293-1.71-2.378-2.592-7.115-.934-5.211,2.8l6.111,11.971c-8.127,1.419-18.695-.457-25.133-5.1-5.5-3.964-9.949-9.956-12.953-16.07.513-.3,1.031-.584,1.558-.857C384.661,213.292,399.9,214.634,413.279,217.92Zm69.39,50.569c-.44,5.716-5.819,11.4-10.773,13.957-2.249,1.159-7.206,2.247-9.062-.007-1.267-1.539-5.688-1.788-5.211,1.121a40.947,40.947,0,0,1-1.206,16.8c-3.582,13.449-13.422,23.208-25.739,29.189a74.248,74.248,0,0,1-43.288,6.281,67.061,67.061,0,0,1-16.786-4.607c-5.733-2.487-10.54-6.779-14.764-11.3-7.448-7.971-14.082-16.936-15.945-27.311-.3-1.649-2.982-3.242-4.554-2.433a15.761,15.761,0,0,1-5.5,1.659c-4.971.51-7.53-2.531-9.056-7.059-1.719-5.1-1.69-11.42,1.826-15.809a8.754,8.754,0,0,1,7.839-3.021c.04,3.111,5.6,5.452,6.007,2.033.017-.146.041-.291.06-.437a2.447,2.447,0,0,0,.814-4.622,58.516,58.516,0,0,1,9.363-20.861c3.66-5.114,8.484-9.259,13.18-13.4,1.782-1.571,3.613-3.113,5.52-4.551,3.808,7.238,9.544,14.14,16.358,18.446,8.99,5.681,22.838,7.6,33.136,4.526,1.792-.535,1.827-2.591,1.126-3.964q-1.473-2.883-2.945-5.768a30.282,30.282,0,0,0,28.412-3.86c1.333,1.255,2.622,2.56,3.853,3.922a69.819,69.819,0,0,1,8.256,11.2q1.124,1.894,2.113,3.862c.187.371.36.749.538,1.125-.019-.041-.04-.087-.061-.133.814,1.8,3.249,3.443,5.133,2.008,3.75-2.856,9.327-4.093,13.6-1.771C479.937,256.422,483.1,262.88,482.669,268.489Z" transform="translate(-313.549 -209.41)"/><path class="b" d="M403.421,291.341Z" transform="translate(-336.702 -230.516)"/><path class="b" d="M384.708,294.185a21.982,21.982,0,0,1,4.926-5.817c1.454-1.148,3.019-2.042,4.941-1.485a11.917,11.917,0,0,1,1.653.878,3.552,3.552,0,0,1,.519.568c-.062-.08-.211-.273-.494-.648,1.18,1.56,3.218,2.952,5.267,2.145a2.982,2.982,0,0,0,1.28-4.509c-3.237-4.278-9.082-6.807-14.386-5.16-4.467,1.388-8.079,5.6-10.451,9.477C375.716,293.31,382.469,297.848,384.708,294.185Z" transform="translate(-330.027 -227.504)"/><path class="b" d="M448.43,284.413c.454-1.483,3-2.944,5.005-3.335,1.6-.311,3.817-.416,5.192.65.458.355,1.054,1.571.739.781,1.243,3.12,7.485,3.35,5.957-.486-3.483-8.736-20-9.653-22.954-.006C441.384,285.232,447.346,287.949,448.43,284.413Z" transform="translate(-346.707 -226.338)"/><path class="b" d="M447.286,305.085c-8.625,6.458-19.345,11.958-30.06,13.533-10.934,1.608-23.379-1.486-32.733-7.386a3.141,3.141,0,0,0-2.117-.526c-1.243-.085-2.287.514-2.125,2.1.486,4.714,2.388,9.366,4.336,13.627a83.465,83.465,0,0,0,7.493,13.587,4.568,4.568,0,0,0,2.259,2.915,27.608,27.608,0,0,0,9.32,7.448c17.007,7.89,35.637-8.183,42.438-22.671a72.837,72.837,0,0,0,6.073-19.333C452.548,305.987,449.456,303.461,447.286,305.085Zm-42.339,40.482a17.43,17.43,0,0,1-4.748-3.546c4.255-2.335,9.9-4.3,14.371-3.9,3.427.3,6.623,2.882,8.687,5.573a34.87,34.87,0,0,1-4.378,1.936C414.385,347.257,409.357,347.741,404.947,345.567Zm23.506-5.229c-3.327-4.16-8.026-7.583-13.22-8.519-6.2-1.117-13.649,1.253-19.443,4.4-1.054-1.681-2.016-3.4-2.938-5.013a66.71,66.71,0,0,1-5.91-13.039c9.433,4.659,20.594,7.063,30.8,5.88,9.412-1.091,18.858-5.018,27.138-10.131C442.041,324.166,436.727,333.933,428.453,340.338Z" transform="translate(-330.728 -233.924)"/></g></g></svg>