<svg xmlns="http://www.w3.org/2000/svg" xmlns:xlink="http://www.w3.org/1999/xlink" width="237.434" height="383.208" viewBox="0 0 237.434 383.208">
  <defs>
    <clipPath id="clip-path">
      <rect width="237.434" height="383.207" fill="none"/>
    </clipPath>
  </defs>
  <g id="Component" clip-path="url(#clip-path)">
    <g id="Group_363" data-name="Group 363" transform="matrix(0.998, -0.07, 0.07, 0.998, 0.156, 257.457)">
      <path id="Path_1157" data-name="Path 1157" d="M696.519-340.491a8.976,8.976,0,0,1-2.509,5.2,9,9,0,0,1-5.563,1.779,7.557,7.557,0,0,1-2.324-.327v2.036c.039.727.039,1.454.039,2.036v.036a18.96,18.96,0,0,0,.033,2.033,9.062,9.062,0,0,1-.327,4.072l-.146.509-.579.07h-.255a4.176,4.176,0,0,1-.73-.07.612.612,0,0,0-.254-.036h-.033l-.8-.073v-.764A149.045,149.045,0,0,1,683-342.018l.036-.727c.106-2.106.182-4.36.218-6.506l.036-.545v-.361l.182-.182c.943-1.164,3.015-1.273,4.906-1.273a8.549,8.549,0,0,1,7.775,5.233A10.815,10.815,0,0,1,696.519-340.491Zm-3.091-2.727v-.036c-.218-2.106-1.018-3.924-2.106-4.651a4.9,4.9,0,0,0-2.727-.582c-.473,0-.945,0-1.454.036H687.1a2.238,2.238,0,0,0-.472.036H686.6c.036,2.763-.109,5.345-.291,7.705-.109,1.273-.142,2.506-.218,3.815a9.937,9.937,0,0,0,2.764.4,4.246,4.246,0,0,0,3.269-1.273C693.138-338.821,693.647-340.963,693.429-343.218Z" transform="translate(-669.146 361.55)" fill="#e4a84b"/>
      <path id="Path_1158" data-name="Path 1158" d="M703.076-324.21v.764l-.654.146a1.538,1.538,0,0,1-.655.109,1.917,1.917,0,0,1-1.742-1.018,5.446,5.446,0,0,1-.476-1.345l-.033-.109-.112-.509c-.363-1.273-.8-2.906-1.27-4.76l-.112-.436c-.288-1.233-.615-2.506-.942-3.669a3.671,3.671,0,0,0-.545.254l-.542.218a12.437,12.437,0,0,1-4.145,1.2c-.073,1.306,0,2.979.073,4.578v.87c.073,1.345.146,2.618.109,3.6v.4l-.327.254a1.24,1.24,0,0,1-.873.327,1.934,1.934,0,0,1-.945-.291l-.255-.109-.47-.145-.109-.545v-.036a172.089,172.089,0,0,1-.73-20.714v-.036c.039-1.491.039-3.127.039-4.687v-.618l.545-.218a13.786,13.786,0,0,1,4.906-.873,9.681,9.681,0,0,1,5.269,1.309,7.4,7.4,0,0,1,2.76,3.306,9.317,9.317,0,0,1,.909,4.36,8.718,8.718,0,0,1-.764,3.6,6.127,6.127,0,0,1-1.891,2.288c.327,1.091.549,2.182.764,3.2.039.182.073.4.109.582l.509,2.288c.185.764.439,1.564.618,2.109A25.169,25.169,0,0,1,703.076-324.21Zm-11.338-12.32a17.016,17.016,0,0,0,4.8-1.742,5.417,5.417,0,0,0,2.836-4,5.561,5.561,0,0,0-1.163-4.615,5.742,5.742,0,0,0-4.4-1.709,8.94,8.94,0,0,0-2.182.255c0,1.164,0,2.473-.036,3.888C691.555-342.018,691.519-339.036,691.737-336.53Z" transform="translate(-657.888 361.55)" fill="#e4a84b"/>
      <path id="Path_1159" data-name="Path 1159" d="M710.378-324.607l-.182.691a2.01,2.01,0,0,1-2.106,1.345,7.621,7.621,0,0,1-1.312-.145v-.036a8.878,8.878,0,0,0-.979-.073,29.226,29.226,0,0,0-3.27.182h-.039c-.288,0-.579.036-.873.036-.942.073-1.924.142-2.906.142a12.275,12.275,0,0,1-3.6-.433l-.509-.182-.109-.582v-.036c-.112-3.745,0-7.815.142-11.738.039-.4.039-.8.039-1.2l.036-.291c.179-4.687.327-9.084.109-13.044v-.691l.618-.182c1.888-.8,4.8-.836,7.593-.873,1.057,0,2-.036,2.945-.073h.288c.149,0,.294-.036.476-.036a9.564,9.564,0,0,1,1.052-.073,2.34,2.34,0,0,1,1.781.618,1.4,1.4,0,0,1,.4,1.2v.288l-.218.221a2.888,2.888,0,0,1-2.4.906.831.831,0,0,1-.33-.036h-.655l-1.815.073a41.016,41.016,0,0,0-6.178.4c0,2.979-.036,6.321-.106,9.775,1.088.073,2.251.109,3.557.109.945,0,1.782-.036,2.582-.076l1.054-.106a1.2,1.2,0,0,1,.364-.073,6.765,6.765,0,0,1,1.164-.149,2.54,2.54,0,0,1,2.288,1.2l.254.582-.4.509a4.074,4.074,0,0,1-2.654.836c-.036,0-.112.036-.145.036h-.076a4.38,4.38,0,0,0-.688.036c-1.636.145-3.56.255-5.706.255-.509,0-1.055,0-1.563-.036l-.182,2.436c-.218,2.724-.4,4.906-.436,7.412.436.036.909.036,1.418.036.873,0,1.782-.036,2.654-.109.291-.036.579-.036.833-.073,1.018-.073,2.291-.218,3.415-.218a6.95,6.95,0,0,1,3.891.836Z" transform="translate(-645.411 360.965)" fill="#e4a84b"/>
      <path id="Path_1160" data-name="Path 1160" d="M718.748-324.21v.764l-.657.146a1.525,1.525,0,0,1-.652.109,1.925,1.925,0,0,1-1.745-1.018,5.426,5.426,0,0,1-.473-1.345l-.036-.109-.109-.509c-.364-1.273-.8-2.906-1.273-4.76l-.109-.436c-.288-1.233-.615-2.506-.942-3.669a3.676,3.676,0,0,0-.545.254c-.179.073-.364.145-.545.218a12.4,12.4,0,0,1-4.142,1.2c-.073,1.306,0,2.979.073,4.578v.87c.073,1.345.146,2.618.109,3.6v.4l-.327.254a1.239,1.239,0,0,1-.873.327,1.935,1.935,0,0,1-.945-.291l-.255-.109-.47-.145-.112-.545v-.036a172.061,172.061,0,0,1-.727-20.714v-.036c.039-1.491.039-3.127.039-4.687v-.618l.545-.218a13.786,13.786,0,0,1,4.906-.873,9.682,9.682,0,0,1,5.269,1.309,7.4,7.4,0,0,1,2.76,3.306,9.318,9.318,0,0,1,.909,4.36,8.72,8.72,0,0,1-.764,3.6,6.13,6.13,0,0,1-1.891,2.288c.327,1.091.548,2.182.763,3.2.039.182.073.4.109.582l.509,2.288c.185.764.436,1.564.618,2.109A25.494,25.494,0,0,1,718.748-324.21ZM707.41-336.53a17.014,17.014,0,0,0,4.8-1.742,5.418,5.418,0,0,0,2.836-4,5.562,5.562,0,0,0-1.164-4.615,5.741,5.741,0,0,0-4.4-1.709,8.923,8.923,0,0,0-2.182.255c0,1.164,0,2.473-.036,3.888C707.228-342.018,707.192-339.036,707.41-336.53Z" transform="translate(-626.074 361.55)" fill="#e4a84b"/>
      <path id="Path_1161" data-name="Path 1161" d="M731.037-340.271a22.427,22.427,0,0,1-.688,5.233c-1.273,5.6-3.054,9.12-5.418,10.72H724.9a8.792,8.792,0,0,1-4.688,1.418,9.145,9.145,0,0,1-5.56-2,11.831,11.831,0,0,1-3.524-4.506v-.036a20.1,20.1,0,0,1-1.418-8.43,19.546,19.546,0,0,1,2-8.178v-.036a10.35,10.35,0,0,1,6.724-5.56h.073c.036-.036.112-.036.221-.036a.323.323,0,0,1,.179.036,8.448,8.448,0,0,1,.873-.073,9.971,9.971,0,0,1,2.651.327,11.122,11.122,0,0,1,4.4,2.473,13.156,13.156,0,0,1,3.236,4.033A10.477,10.477,0,0,1,731.037-340.271Zm-12.572,14.39a3.921,3.921,0,0,0,.688.036,7.8,7.8,0,0,0,4.324-1.561c2.076-1.963,2.982-5.381,3.527-8.142l.036-.073a24.826,24.826,0,0,0,.764-5.56c-.182-2.327-1.891-4.251-2.945-5.378l-.036-.073a5.71,5.71,0,0,0-4.542-1.96,9.086,9.086,0,0,0-1.345.106,7.736,7.736,0,0,0-4.288,4.181,18.6,18.6,0,0,0-.545,13.59,9.8,9.8,0,0,0,1.927,2.982A5.429,5.429,0,0,0,718.465-325.882Z" transform="translate(-614.477 361.33)" fill="#e4a84b"/>
      <path id="Path_1162" data-name="Path 1162" d="M734.379-335.839v.036a24.1,24.1,0,0,1-2.43,6.906,10.873,10.873,0,0,1-3.818,4.106,10.9,10.9,0,0,1-5.891,1.745,10.276,10.276,0,0,1-4.1-.873l-.509-.255v-.509c-.439-6.106-.255-12.793-.073-18.68.073-2.506.142-4.906.182-7.23v-.364l.255-.255a2.169,2.169,0,0,1,.582-.436l.109-.036h.433a1.938,1.938,0,0,1,.873.4.14.14,0,0,1,.076.036l.07.036.036.036c0,.036.039.036.109.036a43.854,43.854,0,0,1,5.96,1.851,13.337,13.337,0,0,1,5.015,3.345,10.313,10.313,0,0,1,2.545,4.433A14.121,14.121,0,0,1,734.379-335.839Zm-5.16,4.906a13.967,13.967,0,0,0,1.858-5.706A10.312,10.312,0,0,0,729-343.8c-1.636-1.815-4.072-3.015-7.887-3.888l-.218,5.415a137.546,137.546,0,0,0,.036,15.917,7.473,7.473,0,0,0,1.527.145,6.759,6.759,0,0,0,2.8-.545A9.226,9.226,0,0,0,729.219-330.933Z" transform="translate(-598.911 361.403)" fill="#e4a84b"/>
      <path id="Path_1163" data-name="Path 1163" d="M727.646-345.494c-.182,4.724-.364,10.066-.145,15.481v.036a1.77,1.77,0,0,0,.036.436v.506a12.927,12.927,0,0,1-.146,4.763l-.109.4-.436.145a2.643,2.643,0,0,1-1.018.218,1.3,1.3,0,0,1-.979-.364,1.9,1.9,0,0,1-.548-1.927v-.036a.741.741,0,0,0,.039-.291c-.073-1.818-.109-3.706-.146-5.524v-1.888c-.039-.548-.039-1.091-.039-1.636,0-1.091-.033-2.218-.07-3.27V-341.1a66.422,66.422,0,0,1,.324-9.339v-.073l.112-.255h.033a1.6,1.6,0,0,1,1.457-.764,2.17,2.17,0,0,1,1.633.691v.033l.182.255v.255Z" transform="translate(-585.297 361.72)" fill="#e4a84b"/>
      <path id="Path_1164" data-name="Path 1164" d="M741.516-328.014c.433.876-.185,1.891-.982,3.018l-.327.473-.291.4a9.48,9.48,0,0,1-5.16,1.742,5.193,5.193,0,0,1-2.579-.615c-1.712-.8-3.6-3.745-4.363-5.16l-.073-.182a19.8,19.8,0,0,1-1.273-6.069,30.392,30.392,0,0,1,.439-6.76,21.267,21.267,0,0,1,2.142-6.4,10.4,10.4,0,0,1,3.6-3.96l.109-.073.145-.036a8.6,8.6,0,0,1,1.782-.145,10.383,10.383,0,0,1,4.506,1.054,4.844,4.844,0,0,1,2.691,2.942.97.97,0,0,1-.145.582,1.725,1.725,0,0,1-.509.473,3.285,3.285,0,0,1-.8.109,2.455,2.455,0,0,1-1.851-.909l-.07-.036v-.036a2.738,2.738,0,0,0-.476-.4l-.109-.073a3.646,3.646,0,0,0-2.106-.691,2.879,2.879,0,0,0-2.469,1.345l-.185.182c-1.673,1.454-2.906,4.509-3.379,8.142a21.962,21.962,0,0,0,.982,10.139,10.791,10.791,0,0,0,3.306,3.269,2.729,2.729,0,0,0,.873.145,6.578,6.578,0,0,0,2.106-.436,1.153,1.153,0,0,1,.291-.073,4.285,4.285,0,0,1,.473-.182l.218-.436c.621-1.124,1.13-2.106,2.072-2.106A1.417,1.417,0,0,1,741.516-328.014Z" transform="translate(-580.483 361.208)" fill="#e4a84b"/>
      <path id="Path_1165" data-name="Path 1165" d="M738.362-353.146l-.473.764a15.346,15.346,0,0,1-4.106,5.051l-.036.036-.545.4-.618-.255a2.085,2.085,0,0,1-1.2-1.164v-.036a40.392,40.392,0,0,0-2.727-3.051,1.67,1.67,0,0,1-.582-1.273v-.218l.073-.073a2.432,2.432,0,0,1,1.164-1.454l.145-.073h.036l.651-.4.945.764v.073l.509.545.039.036.4.436c.436.473.836.909,1.273,1.415a10.412,10.412,0,0,0,.727-1.051l.364-.545a2.552,2.552,0,0,1,1.891-1.2h.109a1.526,1.526,0,0,1,1.342.654Z" transform="translate(-577.147 354.891)" fill="#e4a84b"/>
      <path id="Path_1166" data-name="Path 1166" d="M753.692-340.271a22.444,22.444,0,0,1-.688,5.233c-1.273,5.6-3.054,9.12-5.415,10.72h-.039a8.792,8.792,0,0,1-4.687,1.418,9.15,9.15,0,0,1-5.56-2,11.831,11.831,0,0,1-3.524-4.506v-.036a20.1,20.1,0,0,1-1.418-8.43,19.5,19.5,0,0,1,2-8.178v-.036a10.345,10.345,0,0,1,6.721-5.56h.076c.033-.036.109-.036.218-.036a.338.338,0,0,1,.182.036,8.312,8.312,0,0,1,.873-.073,9.995,9.995,0,0,1,2.651.327,11.164,11.164,0,0,1,4.4,2.473,13.1,13.1,0,0,1,3.233,4.033A10.477,10.477,0,0,1,753.692-340.271Zm-12.572,14.39a3.921,3.921,0,0,0,.688.036,7.786,7.786,0,0,0,4.324-1.561c2.072-1.963,2.984-5.381,3.527-8.142l.036-.073a24.808,24.808,0,0,0,.764-5.56c-.182-2.327-1.891-4.251-2.945-5.378l-.033-.073a5.711,5.711,0,0,0-4.542-1.96,9.131,9.131,0,0,0-1.349.106A7.736,7.736,0,0,0,737.3-344.3a18.623,18.623,0,0,0-.545,13.59,9.79,9.79,0,0,0,1.927,2.982A5.428,5.428,0,0,0,741.12-325.882Z" transform="translate(-568.485 361.33)" fill="#e4a84b"/>
      <path id="Path_1167" data-name="Path 1167" d="M757.6-350.99l-.07.688a56.02,56.02,0,0,1-2.727,9.451c-.073.255-.182.509-.255.764-.436,1.2-.873,2.472-1.236,3.778h-.036c-.255.727-.509,1.564-.764,2.364-.073.218-.142.4-.218.618l-1.233,3.815c-.109.436-.218.945-.33,1.418a12.994,12.994,0,0,1-.506,2.142v.036l-.036.109c-.585,1.527-1.236,2.982-2.254,3.273l-.073.073h-.288c-1.273,0-1.927-1.418-2.291-2.509a23.271,23.271,0,0,1-.73-2.833,1.842,1.842,0,0,0-.07-.473l-.148-.727c-1.161-4.578-1.888-8.978-2.615-13.229l-.691-4c-.073-.255-.145-.582-.254-.945a5.781,5.781,0,0,1-.433-2.545l.07-.87.873.073a2.929,2.929,0,0,1,2.545,1.96,10.969,10.969,0,0,1,.582,2.763v.109l.109,1.055c.654,4.578,1.782,9.339,2.8,13.517v.036c.106.582.255,1.127.361,1.673a6.78,6.78,0,0,0,.254-.8c.036-.146.109-.291.146-.436.182-.618.364-1.273.582-1.924l1.491-4.836c.324-.979.654-2.033.979-3.015.436-1.418.909-2.909,1.348-4.36.179-.546.324-1.127.47-1.673l.109-.436.036-.073a15.977,15.977,0,0,1,1.455-4.033,1.113,1.113,0,0,1,1.015-.945h.149a1.7,1.7,0,0,1,1.233.545l.036.036.039.073.033.036Z" transform="translate(-552.283 360.892)" fill="#e4a84b"/>
      <path id="Path_1168" data-name="Path 1168" d="M692.023-326.094a8.941,8.941,0,0,1-2.509,5.2,8.981,8.981,0,0,1-5.56,1.779,7.556,7.556,0,0,1-2.324-.327v2.036c.036.727.036,1.454.036,2.036v.036a18.961,18.961,0,0,0,.036,2.033,9.088,9.088,0,0,1-.324,4.069l-.149.509-.582.073h-.255a3.851,3.851,0,0,1-.727-.073.67.67,0,0,0-.255-.033h-.033l-.8-.073v-.764a149.631,149.631,0,0,1-.076-18.026l.039-.727c.106-2.106.182-4.36.215-6.506l.039-.545v-.361l.182-.185c.942-1.161,3.015-1.27,4.906-1.27a8.549,8.549,0,0,1,7.775,5.233A10.779,10.779,0,0,1,692.023-326.094Zm-3.088-2.724v-.036c-.218-2.106-1.018-3.924-2.106-4.651a4.9,4.9,0,0,0-2.727-.582c-.473,0-.945,0-1.454.036h-.036a2.24,2.24,0,0,0-.473.036H682.1c.036,2.764-.109,5.342-.291,7.705-.109,1.273-.146,2.506-.218,3.815a9.939,9.939,0,0,0,2.763.4,4.246,4.246,0,0,0,3.27-1.273C688.645-324.421,689.154-326.563,688.936-328.818Z" transform="translate(-678.267 390.783)" fill="#e4a84b"/>
      <path id="Path_1169" data-name="Path 1169" d="M698.583-309.81v.761l-.658.145a1.517,1.517,0,0,1-.651.109,1.919,1.919,0,0,1-1.745-1.015,5.427,5.427,0,0,1-.473-1.345l-.036-.109-.109-.509c-.364-1.273-.8-2.906-1.273-4.76l-.109-.436c-.288-1.236-.615-2.506-.942-3.669a3.677,3.677,0,0,0-.545.255l-.545.218a12.54,12.54,0,0,1-4.142,1.2c-.073,1.306,0,2.979.073,4.578v.87c.073,1.345.142,2.618.109,3.6v.4l-.33.254a1.239,1.239,0,0,1-.87.327,1.905,1.905,0,0,1-.945-.294l-.255-.106-.473-.145-.109-.545v-.036a172.085,172.085,0,0,1-.727-20.714v-.039c.039-1.488.039-3.124.039-4.684v-.621l.545-.215a13.789,13.789,0,0,1,4.906-.873,9.682,9.682,0,0,1,5.269,1.309,7.4,7.4,0,0,1,2.76,3.306,9.315,9.315,0,0,1,.909,4.36,8.7,8.7,0,0,1-.763,3.6,6.138,6.138,0,0,1-1.891,2.291c.327,1.091.548,2.182.764,3.2.039.182.073.4.109.579l.509,2.291c.182.764.436,1.56.618,2.109A25.465,25.465,0,0,1,698.583-309.81Zm-11.339-12.32a16.94,16.94,0,0,0,4.8-1.745,5.408,5.408,0,0,0,2.836-4,5.562,5.562,0,0,0-1.163-4.615,5.741,5.741,0,0,0-4.4-1.709,8.92,8.92,0,0,0-2.182.255c0,1.164,0,2.472-.036,3.888C687.063-327.618,687.027-324.639,687.245-322.13Z" transform="translate(-667.01 390.783)" fill="#e4a84b"/>
      <path id="Path_1170" data-name="Path 1170" d="M705.886-310.207l-.182.691a2.01,2.01,0,0,1-2.106,1.345,7.3,7.3,0,0,1-1.312-.148v-.033a8.186,8.186,0,0,0-.979-.073,28.577,28.577,0,0,0-3.272.182H698c-.291,0-.579.033-.873.033-.945.073-1.924.145-2.906.145a12.414,12.414,0,0,1-3.6-.433l-.506-.182-.112-.582v-.036c-.106-3.745,0-7.815.145-11.739.039-.4.039-.8.039-1.2l.036-.291c.179-4.687.327-9.084.109-13.044v-.691l.618-.182c1.888-.8,4.8-.836,7.593-.873,1.055,0,2-.036,2.942-.073h.291c.149,0,.294-.036.473-.036a9.669,9.669,0,0,1,1.054-.073,2.337,2.337,0,0,1,1.782.618,1.408,1.408,0,0,1,.4,1.2v.288l-.221.221a2.888,2.888,0,0,1-2.4.906.814.814,0,0,1-.327-.036h-.655l-1.815.073a41.049,41.049,0,0,0-6.178.4c0,2.982-.036,6.324-.109,9.775,1.091.073,2.254.112,3.56.112.946,0,1.782-.039,2.582-.073l1.051-.109a1.214,1.214,0,0,1,.367-.073,6.73,6.73,0,0,1,1.161-.148,2.541,2.541,0,0,1,2.291,1.2l.255.582-.4.509a4.063,4.063,0,0,1-2.654.836c-.033,0-.109.036-.143.036h-.076a4.372,4.372,0,0,0-.688.036c-1.636.145-3.56.255-5.706.255-.509,0-1.055,0-1.564-.036l-.182,2.433c-.218,2.727-.4,4.909-.436,7.415.436.036.909.036,1.418.036.872,0,1.782-.036,2.654-.109.288-.036.579-.036.833-.073,1.018-.073,2.291-.218,3.418-.218a6.946,6.946,0,0,1,3.888.836Z" transform="translate(-654.532 390.198)" fill="#e4a84b"/>
      <path id="Path_1171" data-name="Path 1171" d="M712.93-321.439v.036A24.029,24.029,0,0,1,710.5-314.5a10.844,10.844,0,0,1-3.815,4.106,10.9,10.9,0,0,1-5.89,1.742,10.274,10.274,0,0,1-4.1-.87l-.509-.255v-.509c-.439-6.106-.254-12.793-.076-18.68.076-2.506.145-4.906.185-7.23v-.364l.255-.255a2.154,2.154,0,0,1,.579-.436l.109-.036h.436a1.936,1.936,0,0,1,.872.4.127.127,0,0,1,.073.036l.073.036.036.036c0,.033.036.033.109.033a43.878,43.878,0,0,1,5.96,1.854,13.339,13.339,0,0,1,5.015,3.345,10.313,10.313,0,0,1,2.545,4.433A14.126,14.126,0,0,1,712.93-321.439Zm-5.16,4.906a13.911,13.911,0,0,0,1.854-5.706,10.3,10.3,0,0,0-2.07-7.16c-1.636-1.815-4.072-3.015-7.887-3.888l-.218,5.415a136.878,136.878,0,0,0,.036,15.917,7.453,7.453,0,0,0,1.527.145,6.733,6.733,0,0,0,2.8-.545A9.245,9.245,0,0,0,707.77-316.533Z" transform="translate(-642.454 390.637)" fill="#e4a84b"/>
      <path id="Path_1172" data-name="Path 1172" d="M719.135-312.051a8.064,8.064,0,0,1-3.891,3.018,14.118,14.118,0,0,1-5.306,1.018,9.989,9.989,0,0,1-5.193-1.309c-1.348-.764-2.621-3.2-2.909-4.872-.112-.579-.367-2.07.582-2.906l.036-.036.255-.182H703c.076,0,.146-.036.255-.036A1.819,1.819,0,0,1,705-316.193v.036a4.2,4.2,0,0,1,.182,1.491v.364l.036.073v.073a5.044,5.044,0,0,0,1.164,2.142c1.018.727,2.8.727,3.887.727h.146a6.394,6.394,0,0,0,6.033-3.6,5.417,5.417,0,0,0-1.127-5.887c-1.054-1.091-3.16-1.491-4.869-1.854h-.036a1.6,1.6,0,0,1-.364-.073c-1.815-.4-3.527-.8-4.651-1.854a7.79,7.79,0,0,1-2.179-5.742,7.347,7.347,0,0,1,2.615-5.088,8.256,8.256,0,0,1,5.342-2,8.249,8.249,0,0,1,4.036,1.088,7.026,7.026,0,0,1,1.451,1.091,2.108,2.108,0,0,1,.654,2.291l-.291.727-.691-.182a6.928,6.928,0,0,1-2.651-1.091h-.039l-.036-.036a3.717,3.717,0,0,0-2.106-.763,5.277,5.277,0,0,0-1.163.145,4.288,4.288,0,0,0-2.4,1.782,5.866,5.866,0,0,0-1.2,3.051v.036a2.84,2.84,0,0,0,1.891,3.091v.036a6.519,6.519,0,0,0,2.215.4h.036a8.355,8.355,0,0,1,1.527.215,10.646,10.646,0,0,1,7.342,5.745A8.163,8.163,0,0,1,719.135-312.051Z" transform="translate(-630.657 390.442)" fill="#e4a84b"/>
      <path id="Path_1173" data-name="Path 1173" d="M713.484-338.746l-.476.764a15.346,15.346,0,0,1-4.106,5.051l-.037.036-.545.4-.618-.255a2.094,2.094,0,0,1-1.2-1.164v-.036A39.744,39.744,0,0,0,703.779-337a1.685,1.685,0,0,1-.582-1.273v-.218l.073-.073a2.444,2.444,0,0,1,1.163-1.454l.146-.073h.036l.655-.4.942.764v.073l.509.545.039.036.4.436c.433.473.833.909,1.273,1.415a10.248,10.248,0,0,0,.724-1.051l.364-.545a2.551,2.551,0,0,1,1.891-1.2h.109a1.527,1.527,0,0,1,1.342.655Z" transform="translate(-627.657 384.124)" fill="#e4a84b"/>
      <path id="Path_1174" data-name="Path 1174" d="M725.921-309.677l-.655.324a2.206,2.206,0,0,1-.982.182c-1.6,0-2.4-1.561-2.909-2.579a.5.5,0,0,0-.106-.145v-.036l-.218-.436a75.742,75.742,0,0,1-5.342-11.484,15.826,15.826,0,0,0-1.854,1.6c-.582.545-1.124,1.018-1.633,1.454.033.906.142,1.891.215,2.906l.073.691a31.361,31.361,0,0,1,.109,7.16l-.073.688-.724.076h-.33a1.593,1.593,0,0,1-.4.036,2.349,2.349,0,0,1-.655-.073l-.254-.073-.221-.218a3.427,3.427,0,0,1-.506-2.145v-.691c-.073-1.342-.182-2.76-.327-4.215,0-.218-.039-.4-.039-.618a71.9,71.9,0,0,1-.4-8.687v-.033a77.518,77.518,0,0,0-.218-9.851v-.073a1.192,1.192,0,0,1,1.27-1.233,3.528,3.528,0,0,1,1.018.215c.039.039.039.039.076.039a.276.276,0,0,1,.179.073l.294.07.179.439.037.036c.654,2.324.618,5.412.545,8.575v2.76c2.4-1.851,4.76-3.96,7.523-6.466l.037-.039a3.055,3.055,0,0,0,.363-.361l.037-.073.033-.036a3.506,3.506,0,0,1,2.436-1.527,2.041,2.041,0,0,1,1.418.582l.327.255v.4a2.561,2.561,0,0,1-1.306,2.033H722.9l-.036.039a.458.458,0,0,0-.218.142l-.036.036a27.91,27.91,0,0,0-2.106,1.927,3.639,3.639,0,0,1-.4.364c-.545.545-1.127,1.091-1.709,1.6l.727,1.851.036.073a52.049,52.049,0,0,0,2.763,6.542c.433.764.87,1.527,1.306,2.254.221.364.436.727.655,1.127a15.472,15.472,0,0,1,1.854,3.815h.036Z" transform="translate(-616.939 390.904)" fill="#e4a84b"/>
      <path id="Path_1175" data-name="Path 1175" d="M735.963-325.874a22.293,22.293,0,0,1-.691,5.236c-1.273,5.6-3.051,9.121-5.415,10.72h-.036a8.787,8.787,0,0,1-4.688,1.415,9.141,9.141,0,0,1-5.56-2,11.833,11.833,0,0,1-3.524-4.506v-.036a20.107,20.107,0,0,1-1.418-8.433,19.542,19.542,0,0,1,2-8.175v-.036a10.342,10.342,0,0,1,6.724-5.56h.073c.036-.036.109-.036.218-.036a.329.329,0,0,1,.182.036,8.439,8.439,0,0,1,.873-.073,9.969,9.969,0,0,1,2.651.327,11.1,11.1,0,0,1,4.4,2.47,13.194,13.194,0,0,1,3.236,4.036A10.514,10.514,0,0,1,735.963-325.874Zm-12.575,14.393a3.96,3.96,0,0,0,.691.036,7.8,7.8,0,0,0,4.324-1.561c2.073-1.963,2.982-5.381,3.527-8.142l.036-.073a24.623,24.623,0,0,0,.761-5.56c-.179-2.327-1.891-4.251-2.942-5.378l-.037-.073a5.713,5.713,0,0,0-4.542-1.963,9.117,9.117,0,0,0-1.345.109,7.73,7.73,0,0,0-4.288,4.179,18.6,18.6,0,0,0-.545,13.593,9.749,9.749,0,0,0,1.927,2.979A5.412,5.412,0,0,0,723.388-311.481Z" transform="translate(-604.477 390.563)" fill="#e4a84b"/>
      <path id="Path_1176" data-name="Path 1176" d="M737.7-310.379l-.691.618a3.388,3.388,0,0,1-2.291.691,8.85,8.85,0,0,1-1.382-.109c-.364-.036-.764-.073-1.055-.073h-.688a48.187,48.187,0,0,1-7.815-.764l-.618-.182-.073-.582a107.753,107.753,0,0,1-.255-13.735v-1.018c.076-3.491.145-7.124-.073-10.466a1.188,1.188,0,0,1,.218-.873,1.21,1.21,0,0,1,1.018-.436,3.114,3.114,0,0,1,.579.073.143.143,0,0,0,.112.036,1.718,1.718,0,0,1,.182.036h.469l.255.436.039.033a8.8,8.8,0,0,1,.545,4.109v.036a10.215,10.215,0,0,0-.036,1.054c0,.509.036,1.018.073,1.524,0,.221.033.473.033.691a15.216,15.216,0,0,1,.109,2.909,93.676,93.676,0,0,0-.179,13.808l1.088.109c.763.109,1.563.182,2.327.255h.036a4.872,4.872,0,0,0,.761.036c.476,0,1.018-.036,1.527-.073h.039a5.112,5.112,0,0,0,.724-.036h.694a4.963,4.963,0,0,1,3.7,1.2Z" transform="translate(-587.99 390.588)" fill="#e4a84b"/>
      <path id="Path_1177" data-name="Path 1177" d="M744.478-303.8l-.109.324-.324.294h-.112a1.837,1.837,0,0,1-.8.182,4.426,4.426,0,0,1-.694-.073h-.033l-.036-.036h-.218l-.585-.073-.179-.548c-1.236-3.815-2.327-7.557-3.27-11.372h-.764a21.356,21.356,0,0,0-3.272.291c-.327,1.091-.691,2.36-1.091,3.888l-.145.4c-.4,1.56-.873,3.2-1.382,4.688l-.109.291c-.215.764-.655,2.182-1.96,2.182a1.92,1.92,0,0,1-1.055-.327l-.4-.255v-.473a4.891,4.891,0,0,1,.585-2.254l.033-.073a7.191,7.191,0,0,0,.364-1.055c.691-2.433,1.345-4.906,1.927-7.339v-.036a9.757,9.757,0,0,0,.251-.982c.982-3.742,2-7.633,3.345-11.448a14.656,14.656,0,0,1,1.345-3.124l.036-.109.145-.145h.033a1.6,1.6,0,0,1,1.018-.364c.727,0,1.309.47,1.745,1.379a13.443,13.443,0,0,1,.655,2.182v.109c.436,1.927.763,4.142,1.054,6.251.146,1.127.327,2.542.509,3.669a.036.036,0,0,1,.036.036,2.341,2.341,0,0,1,.691.582v.036l.106.218v.182a1.276,1.276,0,0,1-.4,1.054c.694,2.833,1.527,5.706,2.472,8.612h.036V-307a.134.134,0,0,0,.036.109c.036.109.076.218.109.327A4.653,4.653,0,0,1,744.478-303.8ZM733.54-331.78l-.47-.327.07-.582v-.036a11.445,11.445,0,0,1,1.927-3.524,17.19,17.19,0,0,1,3.015-3.236l.509-.436.473.327.291.073a1.789,1.789,0,0,1,1.306,1.236v.364l-.07.146a3.188,3.188,0,0,1-1.127,1.415l-.655.621c-.364.47-.688,1.088-1.054,1.67-.764,1.345-1.561,2.727-2.942,2.727A2.153,2.153,0,0,1,733.54-331.78Zm2.509,13.772c.47-.036.942-.073,1.418-.073-.221-1.927-.476-3.924-.8-5.851-.324,1.054-.654,2.145-.942,3.2a4.853,4.853,0,0,0-.182.691c-.073.182-.109.4-.185.582l-.433,1.524a.459.459,0,0,1,.218-.036h.037C735.467-317.972,735.754-318.009,736.048-318.009Z" transform="translate(-577.427 385.279)" fill="#e4a84b"/>
      <path id="Path_1178" data-name="Path 1178" d="M751.481-309.677l-.655.324a2.214,2.214,0,0,1-.982.182c-1.6,0-2.4-1.561-2.909-2.579a.566.566,0,0,0-.106-.145v-.036l-.221-.436a76.032,76.032,0,0,1-5.339-11.484,16.131,16.131,0,0,0-1.858,1.6c-.579.545-1.124,1.018-1.633,1.454.036.906.146,1.891.215,2.906l.076.691a31.706,31.706,0,0,1,.109,7.16l-.073.688-.73.076h-.324a1.629,1.629,0,0,1-.4.036,2.37,2.37,0,0,1-.654-.073l-.255-.073-.218-.218a3.41,3.41,0,0,1-.509-2.145v-.691c-.07-1.342-.179-2.76-.324-4.215,0-.218-.039-.4-.039-.618a72.517,72.517,0,0,1-.4-8.687v-.033a76.931,76.931,0,0,0-.215-9.851v-.073a1.192,1.192,0,0,1,1.27-1.233,3.526,3.526,0,0,1,1.018.215c.036.039.036.039.073.039a.277.277,0,0,1,.182.073l.291.07.182.439.036.036c.655,2.324.618,5.412.542,8.575v2.76c2.4-1.851,4.763-3.96,7.527-6.466l.033-.039a2.845,2.845,0,0,0,.367-.361l.033-.073.036-.036a3.494,3.494,0,0,1,2.436-1.527,2.04,2.04,0,0,1,1.418.582l.327.255v.4a2.556,2.556,0,0,1-1.309,2.033h-.036l-.036.039a.459.459,0,0,0-.218.142l-.036.036a27.876,27.876,0,0,0-2.106,1.927,3.673,3.673,0,0,1-.4.364c-.549.545-1.127,1.091-1.712,1.6l.73,1.851.033.073a52.967,52.967,0,0,0,2.763,6.542c.436.764.87,1.527,1.309,2.254.215.364.436.727.654,1.127A15.363,15.363,0,0,1,751.3-310.4h.036Z" transform="translate(-565.05 390.904)" fill="#e4a84b"/>
      <path id="Path_1179" data-name="Path 1179" d="M761.523-325.874a22.444,22.444,0,0,1-.688,5.236c-1.273,5.6-3.054,9.121-5.415,10.72h-.039a8.779,8.779,0,0,1-4.687,1.415,9.148,9.148,0,0,1-5.56-2,11.831,11.831,0,0,1-3.524-4.506v-.036a20.106,20.106,0,0,1-1.418-8.433,19.544,19.544,0,0,1,2-8.175v-.036a10.337,10.337,0,0,1,6.721-5.56h.076c.033-.036.109-.036.218-.036a.338.338,0,0,1,.182.036,8.316,8.316,0,0,1,.873-.073,10,10,0,0,1,2.651.327,11.119,11.119,0,0,1,4.4,2.47,13.141,13.141,0,0,1,3.233,4.036A10.473,10.473,0,0,1,761.523-325.874Zm-12.572,14.393a3.939,3.939,0,0,0,.691.036,7.784,7.784,0,0,0,4.321-1.561c2.076-1.963,2.985-5.381,3.527-8.142l.036-.073a24.807,24.807,0,0,0,.764-5.56c-.182-2.327-1.891-4.251-2.945-5.378l-.033-.073a5.713,5.713,0,0,0-4.542-1.963,9.189,9.189,0,0,0-1.349.109,7.739,7.739,0,0,0-4.287,4.179,18.6,18.6,0,0,0-.542,13.593,9.677,9.677,0,0,0,1.924,2.979A5.417,5.417,0,0,0,748.951-311.481Z" transform="translate(-552.588 390.563)" fill="#e4a84b"/>
      <path id="Path_1180" data-name="Path 1180" d="M765.43-336.59l-.07.688a55.99,55.99,0,0,1-2.727,9.451c-.073.255-.182.509-.255.764-.436,1.2-.873,2.47-1.236,3.779h-.036c-.254.727-.509,1.563-.764,2.363-.073.218-.142.4-.218.615l-1.233,3.818c-.109.436-.218.945-.327,1.418a13.392,13.392,0,0,1-.509,2.142v.036l-.036.109c-.585,1.527-1.236,2.982-2.254,3.269l-.073.073H755.4c-1.273,0-1.927-1.415-2.291-2.506a23.251,23.251,0,0,1-.73-2.833,1.9,1.9,0,0,0-.07-.476l-.149-.724c-1.16-4.582-1.888-8.978-2.615-13.229l-.691-4c-.073-.255-.142-.582-.255-.945a5.777,5.777,0,0,1-.433-2.545l.07-.87.873.073a2.929,2.929,0,0,1,2.545,1.96,10.849,10.849,0,0,1,.582,2.764v.109l.109,1.051c.655,4.581,1.782,9.342,2.8,13.52v.036c.106.582.255,1.127.361,1.673a6.748,6.748,0,0,0,.254-.8c.036-.145.109-.291.146-.436.182-.618.364-1.273.582-1.927L757.982-323c.327-.982.655-2.033.979-3.015.437-1.418.909-2.909,1.349-4.36.179-.545.324-1.127.47-1.673l.109-.436.036-.073a15.985,15.985,0,0,1,1.454-4.033,1.113,1.113,0,0,1,1.015-.945h.149a1.7,1.7,0,0,1,1.233.545l.036.036.039.073.033.036Z" transform="translate(-536.388 390.125)" fill="#e4a84b"/>
      <path id="Path_1181" data-name="Path 1181" d="M699.815-295.24a2.088,2.088,0,0,1-.436.582l-.112.033a2.57,2.57,0,0,1-.8.182c-.255,0-1.564-.215-1.564-.215l-.179-.509c-1.239-3.854-2.327-7.56-3.276-11.375h-.761a21.011,21.011,0,0,0-3.272.291c-.324,1.088-.688,2.324-1.088,3.851l-.146.436c-.4,1.563-.873,3.16-1.382,4.651l-.109.327c-.218.764-.655,2.179-1.961,2.179a1.946,1.946,0,0,1-1.055-.361.663.663,0,0,1-.254-.291,1.109,1.109,0,0,1-.145-.4,5.08,5.08,0,0,1,.579-2.291l.036-.073a6.3,6.3,0,0,0,.364-1.018c.694-2.433,1.348-4.906,1.927-7.375a9.017,9.017,0,0,0,.255-.982c.982-3.779,2-7.669,3.345-11.448a14.13,14.13,0,0,1,1.342-3.163l.039-.106.142-.109.036-.039a1.857,1.857,0,0,1,1.018-.361q1.091,0,1.742,1.418a10.04,10.04,0,0,1,.655,2.142v.146c.439,1.927.763,4.142,1.057,6.251.145,1.091.324,2.509.509,3.669h.033a2.057,2.057,0,0,1,.691.618l.109.4a1.326,1.326,0,0,1-.4,1.091c.691,2.8,1.527,5.706,2.473,8.575l.033.036a.258.258,0,0,0,.039.145,1.534,1.534,0,0,1,.106.327C699.706-297.24,700.142-295.967,699.815-295.24Zm-8.433-14.247c.473,0,.945-.036,1.418-.036-.218-1.964-.473-3.96-.8-5.884-.324,1.051-.655,2.142-.945,3.2-.073.255-.142.47-.182.691-.073.218-.106.4-.182.615-.145.476-.288.982-.433,1.491a.449.449,0,0,0,.215-.036h.039A7,7,0,0,0,691.383-309.488Z" transform="translate(-668.096 419.991)" fill="#e4a84b"/>
      <path id="Path_1182" data-name="Path 1182" d="M710.024-297.651a8.032,8.032,0,0,1-3.887,3.015,14.082,14.082,0,0,1-5.306,1.018,10,10,0,0,1-5.2-1.306c-1.345-.764-2.618-3.2-2.909-4.872-.109-.582-.364-2.069.585-2.906l.033-.036.254-.182h.291c.073,0,.145-.036.255-.036a1.822,1.822,0,0,1,1.745,1.164v.036a4.2,4.2,0,0,1,.182,1.491v.364l.033.073v.073a5.109,5.109,0,0,0,1.164,2.142c1.018.727,2.8.727,3.888.727h.145a6.391,6.391,0,0,0,6.033-3.6,5.416,5.416,0,0,0-1.127-5.89c-1.052-1.088-3.16-1.488-4.866-1.851H701.3a1.616,1.616,0,0,1-.361-.073c-1.818-.4-3.527-.8-4.651-1.854a7.8,7.8,0,0,1-2.182-5.742,7.372,7.372,0,0,1,2.615-5.088,8.269,8.269,0,0,1,5.342-2,8.24,8.24,0,0,1,4.036,1.088,6.839,6.839,0,0,1,1.454,1.091,2.108,2.108,0,0,1,.654,2.291l-.291.727-.694-.182a6.955,6.955,0,0,1-2.651-1.091h-.036l-.036-.036a3.715,3.715,0,0,0-2.106-.764,5.281,5.281,0,0,0-1.164.145,4.289,4.289,0,0,0-2.4,1.782,5.871,5.871,0,0,0-1.2,3.051v.036a2.847,2.847,0,0,0,1.891,3.091v.036a6.627,6.627,0,0,0,2.218.4h.033a8.273,8.273,0,0,1,1.527.215,10.63,10.63,0,0,1,7.342,5.742A8.168,8.168,0,0,1,710.024-297.651Z" transform="translate(-649.148 419.675)" fill="#e4a84b"/>
      <path id="Path_1183" data-name="Path 1183" d="M704.374-324.346l-.473.764a15.418,15.418,0,0,1-4.109,5.051l-.033.036-.545.4-.618-.255a2.1,2.1,0,0,1-1.2-1.164v-.036a40.334,40.334,0,0,0-2.724-3.051,1.68,1.68,0,0,1-.582-1.273v-.218l.073-.073a2.434,2.434,0,0,1,1.163-1.454l.146-.073h.033l.654-.4.946.764v.073l.509.545.037.036.4.436c.437.473.836.909,1.273,1.415a10.277,10.277,0,0,0,.724-1.051l.364-.545a2.558,2.558,0,0,1,1.894-1.2h.109a1.53,1.53,0,0,1,1.342.655Z" transform="translate(-646.145 413.357)" fill="#e4a84b"/>
      <path id="Path_1184" data-name="Path 1184" d="M716.813-295.28l-.654.327a2.215,2.215,0,0,1-.982.182c-1.6,0-2.4-1.56-2.909-2.579a.564.564,0,0,0-.106-.145v-.036l-.221-.436a76.174,76.174,0,0,1-5.339-11.484,16.113,16.113,0,0,0-1.857,1.6c-.579.546-1.124,1.015-1.633,1.454.036.906.145,1.888.218,2.906l.073.691a31.727,31.727,0,0,1,.109,7.16l-.073.688-.73.076h-.324a1.772,1.772,0,0,1-.4.033,2.468,2.468,0,0,1-.654-.07l-.255-.073-.218-.221a3.4,3.4,0,0,1-.509-2.142v-.691c-.07-1.345-.179-2.76-.324-4.215,0-.218-.039-.4-.039-.618a72.5,72.5,0,0,1-.4-8.687v-.033a76.954,76.954,0,0,0-.215-9.851v-.073a1.192,1.192,0,0,1,1.27-1.233,3.424,3.424,0,0,1,1.018.218c.036.036.036.036.073.036a.294.294,0,0,1,.182.07l.291.073.182.436.036.039c.655,2.324.618,5.412.542,8.575v2.76c2.4-1.851,4.763-3.96,7.527-6.466l.037-.039a3.354,3.354,0,0,0,.363-.361l.033-.073.036-.036a3.494,3.494,0,0,1,2.436-1.527,2.041,2.041,0,0,1,1.418.582l.327.254v.4a2.561,2.561,0,0,1-1.309,2.033H713.8l-.036.036a.463.463,0,0,0-.218.146l-.037.039a27.241,27.241,0,0,0-2.106,1.924,3.611,3.611,0,0,1-.4.364c-.548.545-1.127,1.091-1.712,1.6l.73,1.851.033.073a52.966,52.966,0,0,0,2.764,6.542c.436.764.87,1.527,1.309,2.254.215.361.436.727.655,1.124A15.446,15.446,0,0,1,716.628-296h.037Z" transform="translate(-635.429 420.138)" fill="#e4a84b"/>
      <path id="Path_1185" data-name="Path 1185" d="M726.855-311.474a22.394,22.394,0,0,1-.688,5.233c-1.272,5.6-3.054,9.124-5.415,10.724h-.039a8.78,8.78,0,0,1-4.688,1.415,9.148,9.148,0,0,1-5.56-2,11.834,11.834,0,0,1-3.524-4.506v-.036a20.146,20.146,0,0,1-1.418-8.433,19.543,19.543,0,0,1,2-8.175v-.039a10.355,10.355,0,0,1,6.721-5.56h.076c.033-.033.109-.033.218-.033a.364.364,0,0,1,.182.033c.288-.033.651-.07.873-.07a10.086,10.086,0,0,1,2.651.324,11.2,11.2,0,0,1,4.4,2.473,13.164,13.164,0,0,1,3.233,4.033A10.5,10.5,0,0,1,726.855-311.474Zm-12.572,14.393a3.942,3.942,0,0,0,.691.036,7.761,7.761,0,0,0,4.321-1.563c2.076-1.961,2.985-5.378,3.527-8.139l.036-.073a24.822,24.822,0,0,0,.764-5.56c-.182-2.327-1.891-4.251-2.945-5.378l-.033-.073a5.713,5.713,0,0,0-4.542-1.964,9.176,9.176,0,0,0-1.348.109,7.74,7.74,0,0,0-4.288,4.178,18.6,18.6,0,0,0-.542,13.593,9.723,9.723,0,0,0,1.924,2.982A5.429,5.429,0,0,0,714.283-297.082Z" transform="translate(-622.966 419.796)" fill="#e4a84b"/>
      <path id="Path_1186" data-name="Path 1186" d="M728.587-295.979l-.688.618a3.4,3.4,0,0,1-2.291.691,8.823,8.823,0,0,1-1.382-.112c-.364-.033-.764-.07-1.055-.07h-.691a48.585,48.585,0,0,1-7.815-.764l-.618-.182-.07-.582a107.789,107.789,0,0,1-.255-13.738v-1.015c.073-3.491.145-7.124-.076-10.469a1.186,1.186,0,0,1,.221-.87,1.2,1.2,0,0,1,1.018-.436,2.939,2.939,0,0,1,.579.073.145.145,0,0,0,.109.033,1.534,1.534,0,0,1,.185.039h.47l.255.436.039.033a8.8,8.8,0,0,1,.542,4.109v.036c-.033.364-.033.691-.033,1.054,0,.509.033,1.018.07,1.524,0,.218.036.473.036.691a15.467,15.467,0,0,1,.109,2.909,93.716,93.716,0,0,0-.182,13.808l1.091.109c.763.109,1.56.182,2.324.255h.039a4.822,4.822,0,0,0,.761.036c.472,0,1.018-.036,1.527-.073h.039a5.087,5.087,0,0,0,.724-.036h.691a4.969,4.969,0,0,1,3.706,1.2Z" transform="translate(-606.478 419.821)" fill="#e4a84b"/>
      <path id="Path_1187" data-name="Path 1187" d="M735.37-289.4l-.109.327-.327.294h-.109a1.85,1.85,0,0,1-.8.182,4.359,4.359,0,0,1-.691-.073H733.3l-.037-.039h-.218l-.582-.07-.182-.548c-1.236-3.815-2.324-7.557-3.27-11.375h-.763a21.349,21.349,0,0,0-3.27.294c-.327,1.088-.691,2.361-1.091,3.888l-.145.4c-.4,1.56-.873,3.2-1.382,4.688l-.109.291c-.218.763-.655,2.179-1.964,2.179a1.906,1.906,0,0,1-1.051-.324l-.4-.255v-.473a4.925,4.925,0,0,1,.579-2.254l.039-.073a7.253,7.253,0,0,0,.364-1.055c.691-2.433,1.342-4.906,1.924-7.339v-.036a9.741,9.741,0,0,0,.254-.982c.982-3.745,2-7.633,3.342-11.448a14.753,14.753,0,0,1,1.348-3.127l.033-.106.145-.145h.036a1.6,1.6,0,0,1,1.018-.364c.727,0,1.306.47,1.745,1.379a13.423,13.423,0,0,1,.654,2.182v.109c.433,1.927.764,4.142,1.051,6.251.146,1.127.33,2.542.509,3.669a.036.036,0,0,1,.036.036,2.347,2.347,0,0,1,.694.582v.036l.106.218v.182a1.284,1.284,0,0,1-.4,1.054c.691,2.833,1.527,5.706,2.469,8.611h.039v.036a.134.134,0,0,0,.036.109l.109.327A4.645,4.645,0,0,1,735.37-289.4Zm-10.941-27.98-.47-.327.073-.582v-.036a11.472,11.472,0,0,1,1.924-3.527,17.364,17.364,0,0,1,3.015-3.233l.509-.436.476.327.288.073a1.793,1.793,0,0,1,1.309,1.236v.364l-.07.145a3.191,3.191,0,0,1-1.127,1.415l-.655.618c-.364.473-.691,1.091-1.055,1.673-.764,1.345-1.563,2.727-2.945,2.727A2.161,2.161,0,0,1,724.428-317.38Zm2.512,13.772c.47-.036.942-.073,1.415-.073-.218-1.927-.473-3.924-.8-5.851-.33,1.054-.657,2.145-.948,3.2a4.724,4.724,0,0,0-.179.691c-.076.182-.112.4-.185.579l-.436,1.527a.472.472,0,0,1,.221-.036h.033C726.356-303.572,726.646-303.608,726.94-303.608Z" transform="translate(-595.917 414.512)" fill="#e4a84b"/>
      <path id="Path_1188" data-name="Path 1188" d="M742.373-295.28l-.654.327a2.207,2.207,0,0,1-.982.182c-1.6,0-2.4-1.56-2.909-2.579a.451.451,0,0,0-.106-.145v-.036l-.218-.436a75.905,75.905,0,0,1-5.342-11.484,16.336,16.336,0,0,0-1.854,1.6c-.582.546-1.124,1.015-1.633,1.454.033.906.146,1.888.215,2.906l.073.691a31.543,31.543,0,0,1,.112,7.16l-.076.688-.727.076h-.324a1.77,1.77,0,0,1-.4.033,2.456,2.456,0,0,1-.655-.07l-.255-.073-.218-.221a3.4,3.4,0,0,1-.509-2.142v-.691c-.073-1.345-.182-2.76-.327-4.215,0-.218-.036-.4-.036-.618a71.893,71.893,0,0,1-.4-8.687v-.033a76.954,76.954,0,0,0-.218-9.851v-.073a1.192,1.192,0,0,1,1.27-1.233,3.424,3.424,0,0,1,1.018.218c.039.036.039.036.076.036a.284.284,0,0,1,.179.07l.294.073.182.436.033.039c.654,2.324.618,5.412.546,8.575v2.76c2.4-1.851,4.76-3.96,7.523-6.466l.036-.039a3.358,3.358,0,0,0,.364-.361l.036-.073.036-.036a3.494,3.494,0,0,1,2.433-1.527,2.035,2.035,0,0,1,1.418.582l.33.254v.4a2.576,2.576,0,0,1-1.309,2.033h-.039l-.036.036a.48.48,0,0,0-.218.146l-.036.039a27.77,27.77,0,0,0-2.106,1.924,3.621,3.621,0,0,1-.4.364c-.546.545-1.127,1.091-1.709,1.6l.727,1.851.036.073a52.52,52.52,0,0,0,2.763,6.542c.433.764.87,1.527,1.309,2.254.215.361.433.727.651,1.124A15.545,15.545,0,0,1,742.191-296h.033Z" transform="translate(-583.54 420.138)" fill="#e4a84b"/>
      <path id="Path_1189" data-name="Path 1189" d="M752.415-311.474a22.248,22.248,0,0,1-.691,5.233c-1.27,5.6-3.051,9.124-5.415,10.724h-.036a8.787,8.787,0,0,1-4.688,1.415,9.142,9.142,0,0,1-5.56-2,11.832,11.832,0,0,1-3.524-4.506v-.036a20.1,20.1,0,0,1-1.418-8.433,19.544,19.544,0,0,1,2-8.175v-.039a10.359,10.359,0,0,1,6.724-5.56h.073c.036-.033.109-.033.221-.033a.348.348,0,0,1,.179.033c.291-.033.654-.07.873-.07a10.073,10.073,0,0,1,2.651.324,11.181,11.181,0,0,1,4.4,2.473,13.224,13.224,0,0,1,3.236,4.033A10.5,10.5,0,0,1,752.415-311.474Zm-12.572,14.393a3.9,3.9,0,0,0,.688.036,7.772,7.772,0,0,0,4.324-1.563c2.07-1.961,2.982-5.378,3.527-8.139l.036-.073a24.826,24.826,0,0,0,.764-5.56c-.182-2.327-1.891-4.251-2.945-5.378l-.036-.073a5.713,5.713,0,0,0-4.542-1.964,9.109,9.109,0,0,0-1.345.109,7.731,7.731,0,0,0-4.288,4.178,18.619,18.619,0,0,0-.545,13.593,9.8,9.8,0,0,0,1.927,2.982A5.429,5.429,0,0,0,739.843-297.082Z" transform="translate(-571.078 419.796)" fill="#e4a84b"/>
      <path id="Path_1190" data-name="Path 1190" d="M756.325-322.19l-.073.688a56.019,56.019,0,0,1-2.724,9.451c-.076.255-.185.509-.255.764-.439,1.2-.873,2.47-1.236,3.779H752c-.254.727-.509,1.563-.764,2.363-.073.218-.145.4-.218.615l-1.233,3.818c-.112.436-.221.945-.33,1.415a12.713,12.713,0,0,1-.509,2.145v.036l-.037.109c-.582,1.527-1.236,2.982-2.254,3.269l-.07.073H746.3c-1.273,0-1.927-1.415-2.291-2.506a23.967,23.967,0,0,1-.727-2.833,2.042,2.042,0,0,0-.07-.476l-.149-.724c-1.16-4.582-1.888-8.978-2.615-13.229l-.691-4c-.073-.254-.146-.582-.254-.945a5.779,5.779,0,0,1-.436-2.545l.073-.87.873.073a2.933,2.933,0,0,1,2.545,1.961,10.847,10.847,0,0,1,.579,2.763v.109l.109,1.051c.655,4.582,1.782,9.342,2.8,13.52v.036c.106.582.254,1.127.36,1.673a6.274,6.274,0,0,0,.255-.8c.039-.145.109-.291.145-.436.185-.618.363-1.273.585-1.927l1.491-4.833c.324-.982.654-2.033.979-3.015.436-1.418.909-2.909,1.346-4.36.182-.548.327-1.127.473-1.673.033-.145.073-.291.109-.436l.033-.073a15.856,15.856,0,0,1,1.457-4.033,1.11,1.11,0,0,1,1.015-.945h.149a1.706,1.706,0,0,1,1.233.545l.037.036.036.073.036.036Z" transform="translate(-554.877 419.358)" fill="#e4a84b"/>
    </g>
    <g id="Group_521" data-name="Group 521" transform="translate(-97.448 -1343.332)">
      <path id="Path_1402" data-name="Path 1402" d="M206.09,1457.217c1.908-6.627,2.052-15.185-2.37-20.857-3.139-4.026-8.456-5.882-13.521-5.635-3.457-6.341-13.618-9.327-19.9-8.815-6.476.527-11.719,4.569-16.7,8.358-3.756,2.858-9.93,8.292-15.027,5.952-1.36-.624-3.842.061-3.562,1.978a17.844,17.844,0,0,0,7.017,11.848,1.679,1.679,0,0,0-.836.755c-1.8,3.228-.987,8.8-.465,12.215,1.114,7.275,4.432,14.1,10.342,18.659,14.069,10.854,40.952,8.426,49.424-8.414a28.433,28.433,0,0,0,3.15-13.568,2.215,2.215,0,0,0-.3-1.007A2.237,2.237,0,0,0,206.09,1457.217ZM160.022,1433c5.439-4.056,10.979-7.109,17.93-4.965,2.24.691,5.058,1.775,6.575,3.689.413.521,1.029,1.939.979,1.532.2,1.632,1.909,3.5,3.744,3.129,4.223-.847,8.877-.069,10.915,4.136,1.6,3.293,1.645,7.406,1,11.165-3.823-2.771-7.517-6.142-9.483-10.28a2.969,2.969,0,0,0-.885-1.089c-.714-1.817-3.218-3.245-4.746-1.787-6.046,5.769-14.62,9.552-22.774,10.874-7.3,1.182-18.243.232-21.584-7.276C148.445,1442.321,155.041,1436.713,160.022,1433Zm35.774,37.952c-5.247,9.949-16.558,12.908-27.115,12.3-10.215-.583-18.9-5.391-22.045-15.487a32.039,32.039,0,0,1-1.382-9.566c0-1.036.057-2.065.144-3.1.037-.431.548-2.048.161-1.355a1.979,1.979,0,0,0,.217-1.38,29.225,29.225,0,0,0,11.6,2.834,47.756,47.756,0,0,0,30.381-10.09c2.942,4.831,7.838,8.82,12.5,11.97a1.592,1.592,0,0,0-1.583,1.831A24.568,24.568,0,0,1,195.8,1470.949Z" fill="#e4a84b"/>
      <path id="Path_1403" data-name="Path 1403" d="M183.495,1499.487c-14.758-.4-29.862-1.09-44.573.364a24.876,24.876,0,0,0-15.149,7.041c-8.733,8.614-9.263,21.8-8.859,33.3.361,10.3,1.493,21.173,4.73,31.032.9,2.737,6.154,2.936,5.055-.412-2.417-7.361-3.478-15.3-4.113-22.98-.975-11.793-2.1-26.968,6.532-36.439a21.053,21.053,0,0,1,14.013-6.76c8.328-.739,16.765-.626,25.117-.586q9.38.047,18.759.284C188.491,1504.421,186.329,1499.562,183.495,1499.487Z" fill="#e4a84b"/>
      <path id="Path_1404" data-name="Path 1404" d="M139.086,1532.893q-2.93,17.765-5.857,35.53c-.468,2.841,4.706,5.148,5.215,2.06l5.857-35.529C144.769,1532.112,139.6,1529.805,139.086,1532.893Z" fill="#e4a84b"/>
      <path id="Path_1405" data-name="Path 1405" d="M213.045,1553.168c-11.9-1.264-31.584.072-36.293,14-1,2.953,4.526,5.481,5.628,2.224,3.249-9.613,18.428-11.8,27.488-11.278,7.736.448,18.239,1.472,24.426,6.8a8.461,8.461,0,0,1,2.4,3.363c.135.319.044,1.789.189.848-.472,3.068,5.115,5.554,5.628,2.224C244.571,1557.946,221.478,1554.065,213.045,1553.168Z" fill="#e4a84b"/>
      <path id="Path_1406" data-name="Path 1406" d="M267.227,1541.663c.246,9.887,1.277,19.806,1.952,29.673.213,3.112,6.092,4.587,5.841.919-.676-9.867-1.706-19.786-1.952-29.673C272.99,1539.452,267.135,1537.973,267.227,1541.663Z" fill="#e4a84b"/>
      <path id="Path_1407" data-name="Path 1407" d="M278.626,1514.238c2.086-.851,4.614-1.645,6.2-3,1.881-1.6,3.082-4.67,4.383-6.75,1.123-1.8-.467-3.558-1.989-4.336-1.625-.831-4.948-2.526-5.458-4.406-.426-1.573.767-4.585,1.045-6.15a112.177,112.177,0,0,0,2.137-20.718c-.159-14.7-7.268-26.417-22.422-29.132a41.906,41.906,0,0,0-7.7-.6,18.684,18.684,0,0,0-2.238.054.728.728,0,0,1,.615.815c.014-.267-.277-.534-.751-.8-.08.013-.165.019-.242.036-1.828.423-.762-.167.142-.094-2.309-1.193-8.567-2.225-9.254-2.3-14.472-1.546-29.417,7.112-34.347,20.823-3.8,10.555-4.463,22.842-3.714,33.982a3.069,3.069,0,0,0,1.136,2.094,25.081,25.081,0,0,0-7.359,2.5c-5,2.581-8.757,6.872-13.719,9.471a18.366,18.366,0,0,1-5.009,1.894c-.423.08-2.558.156-1.588.225a2.14,2.14,0,0,0-2.6,2.02c-.528,5.1,5.694,7.816,9.718,8.354a19.866,19.866,0,0,0,2.2.159,1.814,1.814,0,0,0-1.645,2.177c.061.772-.528,4.041-.641,5.682a33.811,33.811,0,0,0,.675,10.028c2.045,8.735,9.059,14.279,17.908,15.09,9.273.85,19.518-1.851,23.979-10.713a24.593,24.593,0,0,0,2.444-8.813c1.218,1.578,4.071,2.249,4.755-.005a38.858,38.858,0,0,0,.6-21.521c-.095-.37-.208-.73-.336-1.081a2.2,2.2,0,0,0,1.277.217c12.131-1.645,26.26-.062,36.9,6.179a31.7,31.7,0,0,1,10.88,10.329c3.161,5.009,3.867,10.133,4.1,15.944a153.733,153.733,0,0,1-1.249,25.505c-.307,2.409,4.085,4.354,4.417,1.746a148.617,148.617,0,0,0,1.221-29.113A33.641,33.641,0,0,0,278.626,1514.238Zm-96.406-1.68c12.274-2.1,20.26-18.83,34.15-13.414a32.6,32.6,0,0,1,8.639,5.43c1.914,1.57,4.424,2.57,5.369,4.889a23.282,23.282,0,0,1,1.552,9.372,16.445,16.445,0,0,0-9.512-7.509c-3.963-1.138-7.22.29-10.586,2.311-3.415,2.051-6.476,3.311-9.888,3.168,2.008-2.115,3.563-4.711,3.037-7.505.132-1.914-2.814-3.773-4.577-2.657a1.54,1.54,0,0,0-.79.763,16.688,16.688,0,0,1-10.381,5.974C187.885,1513.547,184.022,1513.739,182.22,1512.558Zm42.234,13.281c1.749,12.8-8.029,21.12-20.546,20.1-7.772-.635-11.8-5.707-12.4-13.187-.305-3.773.938-7.568.647-11.241-.135-1.713-1.944-2.931-3.54-3.114a20.353,20.353,0,0,0,5.053-.734,3.652,3.652,0,0,0,2.086,2.507c7.427,2.988,13.369,1.524,19.972-2.44,6.708-4.028,11.433.833,13.328,6.917C227.164,1523.22,224.088,1523.163,224.454,1525.839Zm11.076-20.545a1.614,1.614,0,0,0-1.482,1.078c-2.478-3.562-6.632-6.085-10.256-8.415a26.321,26.321,0,0,0-12.78-4.465,2.617,2.617,0,0,0,.086-.869,93.708,93.708,0,0,1,1.757-26.211c1.282-5.807,3.295-12.08,7.944-16.083,6.258-5.386,15.1-8.993,23.432-7.85,3.539.486,5.454,2.248,8.434,2.473,3.368.254,6.64-.319,10.069.3,16.845,3.027,17.2,20.072,15.429,33.935-.628,4.922-2.675,10.489-2.45,15.464.171,3.785,3.367,6.587,6.668,8.636q-.228.363-.455.728a18.587,18.587,0,0,0-1.141,1.826c-.063.132-.36.555-.541.851a1.327,1.327,0,0,1-.217.1,20.8,20.8,0,0,0-2.281,1.074l-3.319,1.561a2.258,2.258,0,0,0-1.323,1.477C261.843,1505.175,247.785,1503.632,235.53,1505.294Z" fill="#e4a84b"/>
      <path id="Path_1408" data-name="Path 1408" d="M252.588,1439.2a1.41,1.41,0,0,0-.236-.038c.037.019.065.039.1.058Z" fill="#e4a84b"/>
      <path id="Path_1409" data-name="Path 1409" d="M271.465,1478.482a2.27,2.27,0,0,0-.058-.26c.78.095,1.562.175,2.341.226,3.5.226,2.792-4.427-.174-4.619-7.515-.486-15.566-2.965-19.6-9.8a2.76,2.76,0,0,0-.8-.856,9.317,9.317,0,0,0,.42-4.14c-.408-3.113-6.407-4.6-5.927-.932.633,4.832-4.616,8.623-8.34,10.387a29.89,29.89,0,0,1-20.049,1.654c-3.9-1.158-4.9,3.9-1.327,4.961a35.324,35.324,0,0,0,4.383.992,34.07,34.07,0,0,0,2.061,12.484c2.965,7.983,9.356,12.349,17.37,14.661,7.985,2.3,16.59,1.209,22.523-4.988C269.122,1493.2,272.236,1485.568,271.465,1478.482Zm-9.44,14.325c-5.523,7.288-14,8.352-22.2,5.257-9.3-3.514-12.877-12.076-12.512-21.5a34.211,34.211,0,0,0,16.641-3.7,22.52,22.52,0,0,0,6.845-5.481c3.784,5.2,9.505,8.366,15.683,9.935a2.389,2.389,0,0,0,0,.387A22.133,22.133,0,0,1,262.025,1492.807Z" fill="#e4a84b"/>
      <path id="Path_1410" data-name="Path 1410" d="M314.255,1410.08c-5.158-11.068-15.436-19.495-24.983-26.642-17.5-13.1-38.719-26-60.929-28.776a109.687,109.687,0,0,0-11.688-.747,2.056,2.056,0,0,0,.422-1.262,9.046,9.046,0,0,0-8.729-9.313c-5.1-.2-8.771,3.492-9.03,8.485a2.342,2.342,0,0,0,.788,1.832c-14.909-1.665-31.315,3.87-44.414,10.3-14.126,6.937-26.729,16.668-38.371,27.181-6.228,5.623-12.708,11.753-17.078,19-1.212,2.011-3.016,4.92-2.773,7.434a2.957,2.957,0,0,0,3.719,2.509,78.369,78.369,0,0,1,18.235-4.145c9.757-1,19.547,1.607,28.6,5.148a10.25,10.25,0,0,0,3.018.98c.067.005.133,0,.2.005a3.867,3.867,0,0,0,.751-.059c2.631-.489,5.461-2.358,8.069-3.141,5.779-1.735,11.964-2.509,17.832-.773a24.547,24.547,0,0,1,5.858,2.574c.43.262,2.436,1.728,1.931,1.295a2.823,2.823,0,0,0,3.461.584c5.375-3.426,12.278-5.018,18.542-5.384,4.281-.25,12.307.055,15.735,3.231.3,2.739,5.141,4.61,5.951,1.461l.008-.037c10.749-6.48,24.432-5.766,35.312.2.8.44,2.123.883,2.93.135,10.687-9.895,33.875-9.771,45.094-.916,1.071.845,3.135.733,3.548-.78C317.179,1417.1,315.642,1413.057,314.255,1410.08Zm-109.622-57.719a8.764,8.764,0,0,1,.479-1.668,4.062,4.062,0,0,1,3.454-2.52c2.422-.2,3.307,1.5,3.246,3.652a2.494,2.494,0,0,0,1.083,2.046c-2.93-.015-5.819-.01-8.679-.07a2.152,2.152,0,0,0,.36-1.1C204.556,1352.8,204.513,1352.891,204.633,1352.361Zm-84.5,58.914a78.793,78.793,0,0,0-16.219,2.875c.007-.014.013-.029.02-.043,3.528-6.477,9.1-11.954,14.415-16.943,18.833-17.689,41.245-33.675,67.236-38.092.349-.059.705-.116,1.059-.174-19.665,13.03-36.853,33.6-38.271,57.812C139.476,1413.29,129.687,1410.639,120.135,1411.275Zm48.063,1.364a47.565,47.565,0,0,0-14.914,3.451c2.123-23.8,20.5-43.639,40.118-55.651a1.554,1.554,0,0,0,.368-2.415,36.638,36.638,0,0,1,6.572.08c.642.034,1.279.046,1.919.071a72.425,72.425,0,0,0-4.088,7.353,131.178,131.178,0,0,0-7.743,17.188c-3.889,10.885-4.96,23.185-4.041,34.706A30.79,30.79,0,0,0,168.2,1412.639Zm22.285,3.628c-.65-10.7.47-21.859,4.066-31.923a124.885,124.885,0,0,1,7.62-16.825c1.487-2.781,2.942-6.022,5.025-8.429a1.4,1.4,0,0,0,.346-.779c.246,0,.492.008.737.01a3.35,3.35,0,0,0,.819,1.483c2.219,2.459,3.676,6.086,5.151,9.007a149.672,149.672,0,0,1,7.425,17.084,57.635,57.635,0,0,1,2.577,30.068c-3.95-2.336-9.136-3.142-13.262-3.321A47.324,47.324,0,0,0,190.483,1416.267Zm40.123-.6a62.871,62.871,0,0,0-3.133-30.244,161.9,161.9,0,0,0-7.78-17.933,64.927,64.927,0,0,0-5.029-9.109c1.3.012,2.6.026,3.909.056,1.684.038,3.342.14,4.989.275a2.277,2.277,0,0,0,1.031,1.844,135.413,135.413,0,0,1,25.633,24.911c6.749,8.566,13.488,20.049,13.55,31.511C253.262,1412.185,241.2,1411.218,230.606,1415.666Zm58.362-5.024c-6.707.008-14.695,1.268-20.862,4.861-.753-10.885-6.88-21.867-13.1-30.091a140.425,140.425,0,0,0-25.851-26.059,85.2,85.2,0,0,1,15.6,3.915,143.373,143.373,0,0,1,30.408,15.372c11.64,7.565,24.185,16.217,32.054,27.919a29.074,29.074,0,0,1,4.211,8.889C304.727,1411.792,296.219,1410.634,288.968,1410.642Z" fill="#e4a84b"/>
      <path id="Path_1411" data-name="Path 1411" d="M204.576,1352.7a.341.341,0,0,0,.007-.049C204.582,1352.671,204.577,1352.685,204.576,1352.7Z" fill="#e4a84b"/>
    </g>
  </g>
</svg>
