<svg xmlns="http://www.w3.org/2000/svg" xmlns:xlink="http://www.w3.org/1999/xlink" width="312.27" height="385.496" viewBox="0 0 312.27 385.496">
  <defs>
    <clipPath id="clip-path">
      <rect width="312.27" height="385.496" fill="none"/>
    </clipPath>
  </defs>
  <g id="Component" clip-path="url(#clip-path)">
    <g id="Group_362" data-name="Group 362" transform="matrix(0.996, -0.087, 0.087, 0.996, 61.466, 295.196)">
      <path id="Path_1136" data-name="Path 1136" d="M563-339.36a9.867,9.867,0,0,1-2.761,5.725,9.91,9.91,0,0,1-6.129,1.959,8.32,8.32,0,0,1-2.56-.361v2.243c.04.8.04,1.6.04,2.243v.04a20.938,20.938,0,0,0,.04,2.24,9.985,9.985,0,0,1-.36,4.486l-.16.561-.638.077h-.28a4.605,4.605,0,0,1-.8-.077.682.682,0,0,0-.28-.04h-.037l-.881-.08v-.841a164.8,164.8,0,0,1-.083-19.858l.043-.8c.117-2.32.2-4.8.237-7.167l.043-.6v-.4l.2-.2c1.038-1.282,3.321-1.4,5.4-1.4a9.418,9.418,0,0,1,8.565,5.765A11.885,11.885,0,0,1,563-339.36Zm-3.4-3v-.04c-.24-2.32-1.122-4.323-2.32-5.124a5.4,5.4,0,0,0-3-.641c-.521,0-1.042,0-1.6.04h-.04a2.47,2.47,0,0,0-.521.04h-.04c.04,3.044-.12,5.888-.32,8.489-.12,1.4-.16,2.761-.24,4.2a10.948,10.948,0,0,0,3.044.441,4.678,4.678,0,0,0,3.6-1.4C559.281-337.521,559.841-339.881,559.6-342.365Z" transform="translate(-547.848 362.56)" fill="#de9ba8"/>
      <path id="Path_1137" data-name="Path 1137" d="M569.666-321.425v.841l-.724.16a1.672,1.672,0,0,1-.718.12,2.12,2.12,0,0,1-1.923-1.122,5.983,5.983,0,0,1-.521-1.482l-.037-.12-.123-.561c-.4-1.4-.878-3.2-1.4-5.244l-.12-.481c-.317-1.359-.678-2.761-1.038-4.042a4.032,4.032,0,0,0-.6.28c-.2.08-.4.16-.6.24a13.662,13.662,0,0,1-4.563,1.322c-.08,1.439,0,3.281.08,5.044v.958c.08,1.482.16,2.884.12,3.966v.441l-.361.28a1.365,1.365,0,0,1-.961.361,2.131,2.131,0,0,1-1.042-.32l-.28-.12-.518-.16-.123-.6v-.04a189.586,189.586,0,0,1-.8-22.819v-.04c.043-1.642.043-3.445.043-5.164v-.681l.6-.24a15.188,15.188,0,0,1,5.4-.961,10.664,10.664,0,0,1,5.8,1.442,8.152,8.152,0,0,1,3.041,3.642,10.26,10.26,0,0,1,1,4.8,9.606,9.606,0,0,1-.841,3.966,6.752,6.752,0,0,1-2.083,2.52c.361,1.2.6,2.4.841,3.525.043.2.08.437.12.641l.561,2.52c.2.841.484,1.722.681,2.323A28.046,28.046,0,0,1,569.666-321.425ZM557.175-335a18.744,18.744,0,0,0,5.284-1.919,5.969,5.969,0,0,0,3.124-4.406,6.126,6.126,0,0,0-1.282-5.084,6.325,6.325,0,0,0-4.843-1.883,9.828,9.828,0,0,0-2.4.28c0,1.282,0,2.724-.04,4.283C556.974-341.043,556.934-337.758,557.175-335Z" transform="translate(-534.883 362.56)" fill="#de9ba8"/>
      <path id="Path_1138" data-name="Path 1138" d="M577.086-321.833l-.2.761a2.215,2.215,0,0,1-2.32,1.482,8.4,8.4,0,0,1-1.445-.16v-.04a9.767,9.767,0,0,0-1.078-.08,32.193,32.193,0,0,0-3.6.2H568.4c-.321,0-.638.04-.961.04-1.041.08-2.12.157-3.2.157a13.523,13.523,0,0,1-3.962-.477l-.561-.2-.123-.641v-.04c-.12-4.126,0-8.609.16-12.932.043-.441.043-.881.043-1.322l.04-.321c.2-5.164.36-10.007.12-14.37v-.761l.681-.2c2.08-.881,5.284-.921,8.365-.961,1.162,0,2.2-.04,3.241-.08h.321c.163,0,.324-.04.521-.04a10.651,10.651,0,0,1,1.162-.08,2.578,2.578,0,0,1,1.963.681,1.54,1.54,0,0,1,.441,1.322v.317l-.24.244a3.189,3.189,0,0,1-2.64,1,.915.915,0,0,1-.364-.04h-.721l-2,.08a45.182,45.182,0,0,0-6.806.444c0,3.281-.04,6.963-.12,10.769,1.2.08,2.484.12,3.922.12,1.042,0,1.963-.04,2.844-.084l1.158-.117a1.335,1.335,0,0,1,.4-.08,7.412,7.412,0,0,1,1.278-.164,2.8,2.8,0,0,1,2.523,1.322l.281.641-.441.561a4.476,4.476,0,0,1-2.924.921c-.037,0-.12.04-.157.04h-.083a4.821,4.821,0,0,0-.758.04c-1.8.16-3.922.28-6.285.28-.561,0-1.162,0-1.723-.04l-.2,2.684c-.24,3-.441,5.4-.481,8.165.481.04,1,.04,1.562.04.961,0,1.963-.04,2.924-.12.32-.04.638-.04.918-.08,1.121-.08,2.523-.24,3.762-.24a7.657,7.657,0,0,1,4.286.921Z" transform="translate(-520.513 361.886)" fill="#de9ba8"/>
      <path id="Path_1139" data-name="Path 1139" d="M585.338-321.425v.841l-.724.16a1.68,1.68,0,0,1-.718.12,2.116,2.116,0,0,1-1.922-1.122,5.984,5.984,0,0,1-.521-1.482l-.04-.12-.12-.561c-.4-1.4-.878-3.2-1.4-5.244l-.12-.481c-.32-1.359-.678-2.761-1.038-4.042a4.035,4.035,0,0,0-.6.28l-.6.24a13.661,13.661,0,0,1-4.563,1.322c-.08,1.439,0,3.281.08,5.044v.958c.08,1.482.157,2.884.12,3.966v.441l-.361.28a1.364,1.364,0,0,1-.961.361,2.13,2.13,0,0,1-1.042-.32l-.28-.12-.521-.16-.12-.6v-.04a189.573,189.573,0,0,1-.8-22.819v-.04c.043-1.642.043-3.445.043-5.164v-.681l.6-.24a15.219,15.219,0,0,1,5.408-.961,10.673,10.673,0,0,1,5.8,1.442,8.152,8.152,0,0,1,3.041,3.642,10.3,10.3,0,0,1,1,4.8,9.6,9.6,0,0,1-.841,3.966,6.782,6.782,0,0,1-2.083,2.52c.361,1.2.6,2.4.841,3.525.04.2.08.437.12.641l.561,2.52c.2.841.481,1.722.681,2.323A28.057,28.057,0,0,1,585.338-321.425ZM572.847-335a18.742,18.742,0,0,0,5.284-1.919,5.977,5.977,0,0,0,3.124-4.406,6.126,6.126,0,0,0-1.282-5.084,6.325,6.325,0,0,0-4.843-1.883,9.826,9.826,0,0,0-2.4.28c0,1.282,0,2.724-.04,4.283C572.643-341.043,572.606-337.758,572.847-335Z" transform="translate(-498.242 362.56)" fill="#de9ba8"/>
      <path id="Path_1140" data-name="Path 1140" d="M598.295-339.108a24.557,24.557,0,0,1-.761,5.765c-1.4,6.165-3.361,10.047-5.965,11.81h-.04a9.686,9.686,0,0,1-5.164,1.562,10.073,10.073,0,0,1-6.125-2.2,13.031,13.031,0,0,1-3.882-4.964v-.04a22.141,22.141,0,0,1-1.562-9.286,21.529,21.529,0,0,1,2.2-9.009v-.04c1.8-3.321,4.366-5.444,7.407-6.125h.08c.04-.04.12-.04.244-.04a.356.356,0,0,1,.2.04,9.315,9.315,0,0,1,.961-.08,10.984,10.984,0,0,1,2.921.361,12.275,12.275,0,0,1,4.844,2.724,14.49,14.49,0,0,1,3.565,4.443A11.542,11.542,0,0,1,598.295-339.108Zm-13.85,15.852a4.3,4.3,0,0,0,.758.04,8.588,8.588,0,0,0,4.763-1.719c2.283-2.163,3.285-5.928,3.885-8.969l.04-.08a27.333,27.333,0,0,0,.841-6.125c-.2-2.564-2.083-4.683-3.245-5.925l-.04-.08a6.291,6.291,0,0,0-5-2.16,10.016,10.016,0,0,0-1.482.117,8.512,8.512,0,0,0-4.723,4.606,20.482,20.482,0,0,0-.6,14.971,10.784,10.784,0,0,0,2.123,3.285A5.963,5.963,0,0,0,584.445-323.255Z" transform="translate(-484.885 362.307)" fill="#de9ba8"/>
      <path id="Path_1141" data-name="Path 1141" d="M601.2-334.228v.04a26.461,26.461,0,0,1-2.68,7.607,11.944,11.944,0,0,1-4.2,4.523,12.009,12.009,0,0,1-6.489,1.923,11.321,11.321,0,0,1-4.52-.961l-.561-.28v-.561c-.484-6.726-.28-14.093-.083-20.579.083-2.76.16-5.4.2-7.965v-.4l.281-.28a2.424,2.424,0,0,1,.638-.481l.123-.04h.477a2.134,2.134,0,0,1,.961.441.155.155,0,0,1,.083.04l.077.04.04.04c0,.04.04.04.12.04a48.308,48.308,0,0,1,6.566,2.04,14.693,14.693,0,0,1,5.524,3.685,11.362,11.362,0,0,1,2.8,4.883A15.557,15.557,0,0,1,601.2-334.228Zm-5.685,5.4a15.326,15.326,0,0,0,2.043-6.286,11.34,11.34,0,0,0-2.28-7.888c-1.8-2-4.486-3.321-8.689-4.283l-.24,5.965a150.851,150.851,0,0,0,.04,17.535,8.211,8.211,0,0,0,1.683.16,7.419,7.419,0,0,0,3.081-.6A10.151,10.151,0,0,0,595.512-328.824Z" transform="translate(-466.958 362.391)" fill="#de9ba8"/>
      <path id="Path_1142" data-name="Path 1142" d="M593.1-344.881c-.2,5.2-.4,11.089-.16,17.054v.04a1.957,1.957,0,0,0,.04.481v.557a14.318,14.318,0,0,1-.16,5.247l-.12.441-.481.16a2.912,2.912,0,0,1-1.122.24,1.421,1.421,0,0,1-1.078-.4,2.1,2.1,0,0,1-.6-2.123v-.04a.819.819,0,0,0,.043-.32c-.083-2-.12-4.082-.16-6.085v-2.08c-.043-.6-.043-1.2-.043-1.8,0-1.2-.037-2.443-.077-3.6v-2.924a73.226,73.226,0,0,1,.357-10.288v-.08l.12-.28h.04a1.764,1.764,0,0,1,1.605-.841,2.391,2.391,0,0,1,1.8.761v.037l.2.28v.28Z" transform="translate(-451.279 362.756)" fill="#de9ba8"/>
      <path id="Path_1143" data-name="Path 1143" d="M608.137-325.6c.477.965-.2,2.083-1.081,3.325l-.361.521-.324.441a10.423,10.423,0,0,1-5.681,1.919,5.721,5.721,0,0,1-2.841-.678c-1.886-.881-3.966-4.126-4.807-5.685l-.08-.2a21.809,21.809,0,0,1-1.4-6.686,33.674,33.674,0,0,1,.481-7.447,23.613,23.613,0,0,1,2.36-7.047,11.491,11.491,0,0,1,3.965-4.363l.12-.08.16-.04a9.473,9.473,0,0,1,1.963-.16,11.449,11.449,0,0,1,4.964,1.162,5.337,5.337,0,0,1,2.964,3.241,1.07,1.07,0,0,1-.16.641,1.9,1.9,0,0,1-.561.521,3.621,3.621,0,0,1-.885.12,2.7,2.7,0,0,1-2.039-1l-.077-.04v-.04a3.022,3.022,0,0,0-.524-.441l-.12-.08a4.017,4.017,0,0,0-2.32-.761,3.176,3.176,0,0,0-2.724,1.482l-.2.2c-1.843,1.6-3.2,4.967-3.722,8.969a24.2,24.2,0,0,0,1.082,11.169,11.846,11.846,0,0,0,3.642,3.6,3,3,0,0,0,.961.16,7.249,7.249,0,0,0,2.32-.481,1.235,1.235,0,0,1,.32-.08,4.455,4.455,0,0,1,.521-.2l.24-.481c.681-1.238,1.242-2.32,2.283-2.32A1.561,1.561,0,0,1,608.137-325.6Z" transform="translate(-445.735 362.167)" fill="#de9ba8"/>
      <path id="Path_1144" data-name="Path 1144" d="M604.5-352.968l-.521.841a16.906,16.906,0,0,1-4.523,5.564l-.04.04-.6.441-.681-.28a2.3,2.3,0,0,1-1.319-1.282v-.04a44.486,44.486,0,0,0-3-3.361,1.84,1.84,0,0,1-.641-1.4v-.24l.08-.08a2.681,2.681,0,0,1,1.282-1.6l.16-.08h.04l.718-.441,1.042.841v.08l.561.6.043.04.438.481c.481.521.921,1,1.4,1.559a11.477,11.477,0,0,0,.8-1.158l.4-.6a2.811,2.811,0,0,1,2.083-1.322h.12a1.686,1.686,0,0,1,1.479.721Z" transform="translate(-441.893 354.891)" fill="#de9ba8"/>
      <path id="Path_1145" data-name="Path 1145" d="M620.95-339.108a24.706,24.706,0,0,1-.758,5.765c-1.4,6.165-3.365,10.047-5.965,11.81h-.043a9.686,9.686,0,0,1-5.164,1.562,10.082,10.082,0,0,1-6.125-2.2,13.036,13.036,0,0,1-3.882-4.964v-.04a22.137,22.137,0,0,1-1.562-9.286,21.536,21.536,0,0,1,2.2-9.009v-.04c1.8-3.321,4.366-5.444,7.407-6.125h.083c.037-.04.12-.04.24-.04a.355.355,0,0,1,.2.04,9.318,9.318,0,0,1,.962-.08,10.983,10.983,0,0,1,2.921.361,12.284,12.284,0,0,1,4.847,2.724,14.523,14.523,0,0,1,3.562,4.443A11.542,11.542,0,0,1,620.95-339.108ZM607.1-323.255a4.325,4.325,0,0,0,.758.04,8.577,8.577,0,0,0,4.763-1.719c2.283-2.163,3.288-5.928,3.885-8.969l.04-.08a27.34,27.34,0,0,0,.841-6.125c-.2-2.564-2.083-4.683-3.244-5.925l-.04-.08a6.29,6.29,0,0,0-5-2.16,10.046,10.046,0,0,0-1.482.117,8.522,8.522,0,0,0-4.724,4.606,20.5,20.5,0,0,0-.6,14.971,10.787,10.787,0,0,0,2.123,3.285A5.98,5.98,0,0,0,607.1-323.255Z" transform="translate(-431.917 362.307)" fill="#de9ba8"/>
      <path id="Path_1146" data-name="Path 1146" d="M624.444-350.893l-.077.758a62,62,0,0,1-3,10.411c-.08.28-.2.561-.281.841-.481,1.322-.961,2.724-1.362,4.162h-.04c-.28.8-.561,1.723-.841,2.6-.08.24-.16.441-.24.681l-1.359,4.2c-.12.481-.24,1.041-.364,1.562a13.994,13.994,0,0,1-.561,2.36v.04l-.037.12c-.644,1.682-1.365,3.285-2.484,3.605l-.08.08h-.32c-1.4,0-2.12-1.562-2.52-2.764a25.6,25.6,0,0,1-.8-3.121,2.042,2.042,0,0,0-.077-.521l-.164-.8c-1.278-5.044-2.08-9.891-2.881-14.574l-.761-4.4c-.08-.28-.16-.641-.28-1.041a6.363,6.363,0,0,1-.477-2.8l.077-.958.961.08a3.227,3.227,0,0,1,2.8,2.16,11.944,11.944,0,0,1,.638,3.044v.12l.123,1.162c.718,5.044,1.96,10.288,3.081,14.891v.04c.12.641.28,1.242.4,1.843a7.474,7.474,0,0,0,.28-.881c.04-.16.12-.321.157-.481.2-.681.4-1.4.644-2.12l1.642-5.328c.357-1.078.721-2.24,1.078-3.321.481-1.562,1-3.2,1.486-4.8.2-.6.357-1.242.517-1.843l.12-.481.04-.08a17.606,17.606,0,0,1,1.6-4.443,1.226,1.226,0,0,1,1.118-1.042h.164a1.88,1.88,0,0,1,1.359.6l.04.04.043.08.037.04Z" transform="translate(-413.257 361.802)" fill="#de9ba8"/>
      <path id="Path_1147" data-name="Path 1147" d="M574.786-306.644l-.561.32a2.173,2.173,0,0,1-1.2.4c-1,0-1.763-.721-2.2-2.163a16.834,16.834,0,0,1-.638-3.365l-.083-.718c-.638-4.646-1.559-10.288-2.524-15.215-1.2,3.525-3.4,8.929-3.882,9.33a2.307,2.307,0,0,1-1,.521c-1.723,0-2.6-1.562-3.165-2.564h-.037l-.281-.561c-1.445-2.721-2.8-5.765-4.166-8.729a.154.154,0,0,0-.04-.08c-.28,1.883-.4,4.046-.521,6.125-.04,1-.08,2.083-.161,3.164v.04c-.12,1.042-.2,2-.28,2.964-.04.317-.04.6-.08.918-.08.961-.16,1.963-.361,3.124v.04l-.16,1.242a24.188,24.188,0,0,1-.561,3.4c-.4,1.642-1.2,2.56-2.283,2.56a2.226,2.226,0,0,1-1.278-.437l-.04-.04-.361-.36v-.561c.08-.641.157-1.242.24-1.923.16-.921.28-1.919.4-2.921.518-3.525.882-6.446,1.122-9.21.12-1.242.237-2.564.32-3.842a55.086,55.086,0,0,1,1.362-10.769l.2-.484.481-.2h.043a4.72,4.72,0,0,1,.718-.08,2.982,2.982,0,0,1,2.36,1.245,7.575,7.575,0,0,1,1.085,1.759,17.408,17.408,0,0,1,1.318,2.8l.083.24.036.04a2.374,2.374,0,0,0,.2.561c.043.16.12.317.163.481.918,2,2,4.082,3,6.042a4.008,4.008,0,0,1,.2.4,54.933,54.933,0,0,0,2.4-7.564l.123-.481.157-.521c.561-1.963,1-3.645,1.442-4.683l.08-.28.28-.2h.04a2.416,2.416,0,0,1,1.322-.4,1.535,1.535,0,0,1,1.438,1v.04a6.716,6.716,0,0,1,.244.918,1.2,1.2,0,0,0,.037.36l.12.8a51.511,51.511,0,0,1,1.4,6.726v.04c.124,1.041.32,2.043.524,3.084.037.117.037.24.077.361.24,1.2.4,2.16.561,3.121l.6,3.321c.08.4.12.761.2,1.162.561,3.245,1.122,6.326,1.362,9.089Z" transform="translate(-545.335 396.087)" fill="#de9ba8"/>
      <path id="Path_1148" data-name="Path 1148" d="M575.241-306.837a2.239,2.239,0,0,1-.481.641l-.12.037a2.85,2.85,0,0,1-.881.2c-.28,0-1.722-.24-1.722-.24l-.2-.561c-1.365-4.246-2.564-8.328-3.6-12.531h-.841a23.522,23.522,0,0,0-3.6.321c-.36,1.2-.761,2.56-1.2,4.243l-.16.481c-.441,1.722-.961,3.485-1.522,5.124l-.12.36c-.24.841-.721,2.4-2.16,2.4a2.124,2.124,0,0,1-1.162-.4.731.731,0,0,1-.281-.32,1.221,1.221,0,0,1-.16-.441,5.554,5.554,0,0,1,.641-2.523l.037-.08a7.362,7.362,0,0,0,.4-1.118c.764-2.684,1.485-5.408,2.123-8.128a10.705,10.705,0,0,0,.28-1.081c1.082-4.163,2.2-8.449,3.685-12.611a15.974,15.974,0,0,1,1.479-3.485l.043-.117.16-.12.037-.043a2.046,2.046,0,0,1,1.122-.4q1.2,0,1.919,1.562a11.055,11.055,0,0,1,.721,2.36v.16c.484,2.123.841,4.563,1.165,6.886.16,1.2.357,2.764.561,4.042h.04a2.259,2.259,0,0,1,.758.681l.12.441a1.46,1.46,0,0,1-.441,1.2c.761,3.084,1.682,6.286,2.724,9.447l.04.043a.3.3,0,0,0,.04.157,1.685,1.685,0,0,1,.117.361C575.121-309.04,575.6-307.638,575.241-306.837Zm-9.29-15.7c.521,0,1.045-.037,1.562-.037-.24-2.163-.517-4.366-.881-6.489-.357,1.162-.721,2.363-1.038,3.525a7.236,7.236,0,0,0-.2.761c-.077.24-.117.441-.2.678-.157.524-.317,1.082-.477,1.642a.494.494,0,0,0,.237-.04h.043A7.68,7.68,0,0,0,565.952-322.532Z" transform="translate(-526.399 396.2)" fill="#de9ba8"/>
      <path id="Path_1149" data-name="Path 1149" d="M579.759-307.642l-.761.681a3.732,3.732,0,0,1-2.523.761,9.746,9.746,0,0,1-1.522-.12c-.4-.04-.841-.08-1.162-.08h-.758a53.088,53.088,0,0,1-8.609-.841l-.678-.2-.083-.641a118.669,118.669,0,0,1-.28-15.131v-1.122c.083-3.845.16-7.848-.08-11.53a1.309,1.309,0,0,1,.24-.961,1.333,1.333,0,0,1,1.122-.481,3.426,3.426,0,0,1,.638.08.157.157,0,0,0,.124.04,1.9,1.9,0,0,1,.2.04h.518l.28.481.043.037a9.69,9.69,0,0,1,.6,4.526v.04a11.262,11.262,0,0,0-.04,1.162c0,.561.04,1.122.08,1.679,0,.244.036.521.036.761a16.762,16.762,0,0,1,.12,3.2,103.193,103.193,0,0,0-.2,15.211l1.2.12c.841.12,1.722.2,2.563.28h.04a5.362,5.362,0,0,0,.838.04c.524,0,1.121-.04,1.682-.08h.043a5.629,5.629,0,0,0,.8-.04H575a5.467,5.467,0,0,1,4.079,1.322Z" transform="translate(-511.77 396.003)" fill="#de9ba8"/>
      <path id="Path_1150" data-name="Path 1150" d="M587.833-329.991l-.077.441v.037c-.641,2.363-1.562,4.847-2.444,7.247l-.12.28c-.477,1.242-.878,2.363-1.278,3.4-.16.481-.364.958-.561,1.4a2.91,2.91,0,0,0-.123.317,8.575,8.575,0,0,0-.878,2.564,27.9,27.9,0,0,0-.28,4.443l-.083,2.323c-.037.6-.037,1.282-.037,1.883a13.261,13.261,0,0,1-.641,5.044l-.28.641h-.6a2.18,2.18,0,0,1-1.722-.641,2.747,2.747,0,0,1-.441-2.243v-.641c.043-.521.043-1.082.043-1.719,0-1.245,0-2.684.117-4.086a11.981,11.981,0,0,1,.16-1.642v-.117a12.286,12.286,0,0,0,.08-3.846,4.171,4.171,0,0,0-.6-.841l-.083-.12-.477-.561a38.045,38.045,0,0,1-2.4-3.8l-.16-.28-1.038-1.722a30.165,30.165,0,0,0-2.524-3.522l-.644-.721a6.027,6.027,0,0,1-1.919-3.361v-.961l.881-.08h.36c1.6,0,2.641,1.359,3.321,2.28l.361.441c1.642,2.083,3.164,4.366,4.643,6.606.32.441.644.921.961,1.4l.561.921c.6-1.442,1.082-3,1.562-4.526l.04-.2a36.04,36.04,0,0,1,2.8-7.007l.077-.28.441-.2a1.872,1.872,0,0,1,.641-.08,2.855,2.855,0,0,1,2.083,1.122Zm-11.446-.921-.524-.361.083-.681v-.04a12.4,12.4,0,0,1,2.123-3.842,19.194,19.194,0,0,1,3.321-3.605l.561-.481.521.361.321.12a1.9,1.9,0,0,1,1.438,1.362v.36l-.077.2a3.812,3.812,0,0,1-1.242,1.562l-.721.678c-.4.521-.765,1.162-1.162,1.8-.841,1.482-1.719,3-3.241,3A2.627,2.627,0,0,1,576.386-330.913Z" transform="translate(-498.817 389.889)" fill="#de9ba8"/>
      <path id="Path_1151" data-name="Path 1151" d="M592.206-309.192a8.593,8.593,0,0,1-1.282,1.362,9.159,9.159,0,0,1-5.685,2.163h-.721a9.236,9.236,0,0,1-7.764-6.125c-1.2-2.924-1.642-6.926-1.362-11.81a24.527,24.527,0,0,1,1.482-7.127,9.453,9.453,0,0,1,4.163-5.124,11.809,11.809,0,0,1,5.364-1.322,8.3,8.3,0,0,1,3.725.8c.758.4,2.64,1.4,2.36,3.445a1.831,1.831,0,0,1-.28.441,2.8,2.8,0,0,1-.641.361h-.04a.509.509,0,0,1-.24.04,3,3,0,0,1-2.4-1.122,5.086,5.086,0,0,0-.524-.441,5.1,5.1,0,0,0-1.4-.2,8.125,8.125,0,0,0-3.361.8c-1.722.841-3.124,3.081-3.926,6.285a25.25,25.25,0,0,0-.561,8.729,14.782,14.782,0,0,0,2.2,6.966h.04a4.883,4.883,0,0,0,3.925,1.919,4.85,4.85,0,0,0,3.078-1.122,4.895,4.895,0,0,0,1.045-1.682,8.957,8.957,0,0,1,1.118-1.879,1.181,1.181,0,0,1,.521-.481c.24-.08.681.16.681.16a2.6,2.6,0,0,1,1.562,2A4.022,4.022,0,0,1,592.206-309.192Z" transform="translate(-483.64 396.312)" fill="#de9ba8"/>
      <path id="Path_1152" data-name="Path 1152" d="M600.089-333.413v.561c0,2.443-.16,4.8-.32,6.926-.04.521-.04,1-.08,1.482-.12,1.682-.2,3.241-.2,4.8s.117,3.321.237,4.884v.16a30.652,30.652,0,0,1,.12,6.566l-.12.721-.681.08a.138.138,0,0,0-.117.04c-.123,0-.28.04-.444.04-.08,0-.2,0-.24-.04h-.28a.361.361,0,0,0-.2-.04h-.881l-.077-.8a92.252,92.252,0,0,1-.681-15.011c-.281,0-.524-.043-.8-.043a33.6,33.6,0,0,0-6.763.921l-.361.08c-.281.04-.6.12-.881.16-.561.12-1.161.24-1.759.361,0,2.524.2,5.124.357,7.447.16,2.123.321,4.763.321,7.207v.481l-.4.32a2.864,2.864,0,0,1-1.282.321c-.885,0-1.325-.361-1.482-.761l-.123-.12v-.24a133.262,133.262,0,0,1-.918-26.384v-.761a2.549,2.549,0,0,1,.521-2.28l.277-.28h.524a4.826,4.826,0,0,1,1.559.4l.441.24.083.517a42.6,42.6,0,0,1,.12,6.326c-.043,1.282-.084,2.684-.043,4.126l1.122-.24.28-.04a45.917,45.917,0,0,1,9.37-1.362,21.55,21.55,0,0,0,.2-4.443,18.872,18.872,0,0,1,.324-5.084l.077-.16c.043-.043.043-.08.083-.12a1.261,1.261,0,0,1,.918-.8l.08-.04h.321a1.573,1.573,0,0,1,1.121.441C600.169-336.1,600.129-334.651,600.089-333.413Z" transform="translate(-468.491 396.031)" fill="#de9ba8"/>
      <path id="Path_1153" data-name="Path 1153" d="M610.329-319.828v.04a26.374,26.374,0,0,1-2.684,7.607,11.91,11.91,0,0,1-4.2,4.523,12.006,12.006,0,0,1-6.489,1.919,11.318,11.318,0,0,1-4.52-.958l-.561-.28v-.561c-.484-6.726-.28-14.093-.083-20.579.083-2.761.16-5.4.2-7.965v-.4l.277-.28a2.442,2.442,0,0,1,.641-.481l.12-.04h.481a2.151,2.151,0,0,1,.961.441.139.139,0,0,1,.08.04l.08.04.04.04c0,.037.04.037.12.037a48.463,48.463,0,0,1,6.566,2.043,14.694,14.694,0,0,1,5.525,3.685,11.362,11.362,0,0,1,2.8,4.884A15.56,15.56,0,0,1,610.329-319.828Zm-5.685,5.4a15.326,15.326,0,0,0,2.043-6.286,11.341,11.341,0,0,0-2.28-7.888c-1.8-2-4.486-3.321-8.689-4.283l-.24,5.965a150.812,150.812,0,0,0,.04,17.535,8.2,8.2,0,0,0,1.679.16,7.423,7.423,0,0,0,3.084-.6A10.185,10.185,0,0,0,604.644-314.424Z" transform="translate(-445.607 396.059)" fill="#de9ba8"/>
      <path id="Path_1154" data-name="Path 1154" d="M615.927-307.433l-.2.761a2.215,2.215,0,0,1-2.32,1.482,8.081,8.081,0,0,1-1.445-.164v-.037a9.069,9.069,0,0,0-1.078-.08,31.4,31.4,0,0,0-3.6.2h-.043c-.32,0-.641.037-.961.037-1.042.08-2.12.16-3.2.16a13.675,13.675,0,0,1-3.966-.477l-.561-.2-.12-.641v-.04c-.12-4.126,0-8.609.16-12.932.043-.441.043-.881.043-1.322l.037-.321c.2-5.164.364-10.007.124-14.37v-.761l.681-.2c2.079-.881,5.284-.921,8.365-.961,1.162,0,2.2-.04,3.241-.08h.32c.164,0,.324-.04.521-.04a10.661,10.661,0,0,1,1.162-.08,2.578,2.578,0,0,1,1.963.681,1.551,1.551,0,0,1,.441,1.322v.317l-.244.244a3.182,3.182,0,0,1-2.641,1,.888.888,0,0,1-.36-.04h-.721l-2,.08a45.273,45.273,0,0,0-6.806.441c0,3.285-.037,6.967-.117,10.769,1.2.08,2.48.124,3.922.124,1.041,0,1.963-.043,2.844-.08l1.158-.12a1.316,1.316,0,0,1,.4-.08,7.491,7.491,0,0,1,1.282-.164,2.8,2.8,0,0,1,2.524,1.322l.28.641-.441.561a4.475,4.475,0,0,1-2.924.921c-.04,0-.12.04-.16.04h-.08a4.876,4.876,0,0,0-.761.04c-1.8.16-3.919.28-6.282.28-.561,0-1.162,0-1.722-.04l-.2,2.681c-.237,3-.437,5.408-.477,8.168.477.04,1,.04,1.562.04.961,0,1.963-.04,2.924-.12.317-.04.638-.04.918-.08,1.122-.08,2.523-.24,3.762-.24a7.656,7.656,0,0,1,4.286.921Z" transform="translate(-429.695 395.554)" fill="#de9ba8"/>
      <path id="Path_1155" data-name="Path 1155" d="M623.267-334.631l-.28.36a2.2,2.2,0,0,1-2.04,1c-.12,0-.28-.04-.4-.04h-.32c-.12,0-.24-.04-.361-.04h-1c-.24,0-.441.04-.681.04h-.638c-.244,0-.484.04-.721.04-.16,0-.28-.04-.44-.04.28,5.164.16,11.81.04,17.7l-.04,1.042-.084,4.4v.8a3.761,3.761,0,0,1-.357,2.524v.04l-.2.321-.361.08a2.057,2.057,0,0,1-.8.12,1.536,1.536,0,0,1-1.2-.521,2.682,2.682,0,0,1-.557-2v-.28a.644.644,0,0,0,.037-.28c.28-8.048.24-15.051-.12-24.181a7.749,7.749,0,0,0-1.081-.04c-.517,0-1.078,0-1.639.04-.6.04-1.2.08-1.8.08a6.621,6.621,0,0,1-2.4-.361,2.7,2.7,0,0,1-1.722-1.919l-.28-1.082,1.165-.12c1.318-.12,2.52-.2,3.678-.2,1.365,0,2.684.08,4.086.157h.24c1.162.08,2.323.124,3.642.164h.521a11.238,11.238,0,0,0,1.162-.04h.6a3.39,3.39,0,0,1,.641-.043c.761,0,2.761,0,3.525,1.762Z" transform="translate(-417.007 396.368)" fill="#de9ba8"/>
      <path id="Path_1156" data-name="Path 1156" d="M620.523-301.393l-.12.32c-.441,1.2-1.762,1.242-2.64,1.282h-.04a1.108,1.108,0,0,0-.36.04h-.281l-1.162.321c-.12.04-.24.04-.364.08a6.438,6.438,0,0,1-1.759.28,2.871,2.871,0,0,1-2.083-.8l-.357-.361.077-.521a1.554,1.554,0,0,1,1.2-1.282,2.35,2.35,0,0,1,.921-.16.508.508,0,0,1,.24-.04h.24c.04-1.562,0-3.321-.08-5.4v-.04c0-.28-.04-.6-.04-.881a86.89,86.89,0,0,1,.12-9.687,78,78,0,0,0,.123-8.088h-.043a9.844,9.844,0,0,1-1.122.08,4.633,4.633,0,0,1-1.322-.16,1.9,1.9,0,0,1-1.278-1.559l-.08-.641.561-.364a12.862,12.862,0,0,1,4.68-.878,13.071,13.071,0,0,1,1.325-.08,3.55,3.55,0,0,1,1.722.361,1.878,1.878,0,0,1,1.078,1.559l.12.32-.237.32a1.912,1.912,0,0,1-1.8.841h-.16c.077,3.044,0,6.045-.083,9.21v1.522c-.077,4.163-.157,8.445.04,12.848h.083a7.726,7.726,0,0,1,.921-.08,1.719,1.719,0,0,1,1.879,1.362Zm-8.445-30.146-.524-.361.084-.681v-.04a12.455,12.455,0,0,1,2.12-3.842,19.082,19.082,0,0,1,3.325-3.6l.561-.481.521.361.317.12a1.89,1.89,0,0,1,1.442,1.359v.361l-.08.2a3.779,3.779,0,0,1-1.239,1.562l-.721.681c-.4.517-.764,1.162-1.162,1.8-.841,1.482-1.722,3-3.244,3A2.608,2.608,0,0,1,612.078-331.539Z" transform="translate(-401.798 388.433)" fill="#de9ba8"/>
    </g>
    <g id="Group_523" data-name="Group 523" transform="translate(-544.218 -1341.26)">
      <path id="Path_1415" data-name="Path 1415" d="M855.108,1455.761c-2.6-14.444-7.7-29.575-16.541-41.454a61.226,61.226,0,0,0-22.572-18.077,34.785,34.785,0,0,0,2.341-4.306c3.932.385,7.878.718,11.824.839,4.659.143,7.921-.9,5.227-6.1-1.8-3.471-4.817-6.507-5.954-10.283-.892-2.965-.549-6.369-.8-9.426-.626-7.474-2.1-15.817-8.131-20.92-4.881-4.133-10.739-4.223-16.8-3.383a34.519,34.519,0,0,0-4.635.783c-1.389-.973-6.762-1.106-7.8-1.141-7.866-.271-14.287,3.636-16.859,11.28-1.339,3.98-1.3,8.308-1.648,12.446a30.056,30.056,0,0,1-4.663,13.68c-2.307,3.842-8.339,11.1-1.177,13.522,4.314,1.462,9.806.88,14.593.371q.548,1.239,1.2,2.406c-.443.132-.856.262-1.071.33a31.092,31.092,0,0,0-5.733,2.448c-5.57,3.068-8.895,7.888-12.37,13.054-6.83,10.153-16.078,20.62-28.8,22.693-3.831.625-8.463.785-11.276,3.829-3,3.242-2.122,7.9.188,11.255,5.821,8.459,19.961,4.337,27.937,1.628a126.923,126.923,0,0,0,22.826-10.4c-5,30.733-9.3,61.962-9.593,93.088-.018,1.978,2.142,3.248,3.872,3.235l.694-.005q.654,6.864,1.309,13.726c.411,4.3.2,9.482,2.117,13.488,3.588,7.5,14.78,9.737,20.051,2.689,2.8-3.744,2.7-8.3,3.072-12.728l1.452-17.38,6.509-.048q.673,7.061,1.348,14.123c.4,4.148.169,9.181,1.984,13.062,3.282,7.018,13.585,8.875,18.464,2.428,2.724-3.6,2.606-8.056,2.963-12.329q.73-8.739,1.459-17.477l3.924-.029a2.233,2.233,0,0,0,2.147-2.289c-1.872-29.693-6.489-58.956-11.349-88.254a69.306,69.306,0,0,1,7.965,21.825c1.474,7.244,4.622,23.051,15.888,19.128C859.194,1483.426,856.526,1463.63,855.108,1455.761Zm-70.841-78.974c0-.044-.01-.084-.011-.127a2.693,2.693,0,0,0,1.838.791,27.892,27.892,0,0,0,15.247-5.057,28.7,28.7,0,0,0,13.327,7.625,2.451,2.451,0,0,0,.912.079,49.5,49.5,0,0,1-2.009,6.869c-2.474,6.536-7.142,13.363-14.779,13.8C786.7,1401.454,783.98,1386.1,784.267,1376.787Zm-12.775,11.877c-.3-.006-1.014-.14-1.72-.24a59.927,59.927,0,0,0,4.3-7.081c3.225-5.679,4.047-11.088,4.537-17.524.6-7.82,3.119-16.109,12.4-16.373,3.114-.089,6.75,1.448,9.413,1.231,4.7-.383,9.828-2.554,14.455-.606,11.336,4.773,5.945,21.3,9.739,30.331,1.146,2.73,3.237,7.093,5.405,9.035l.051.089c-.881-.049-1.853.041-2.663,0-2.394-.124-4.786-.313-7.176-.529a51.727,51.727,0,0,0,2.157-10.53c.311-3.191-5.617-4.71-5.984-.941a12.757,12.757,0,0,0-.251,1.5,2.894,2.894,0,0,0-1.641-1.212,21.783,21.783,0,0,1-9.988-5.92c1.557-1.643-1.039-4.329-2.893-3.635-.387-.6-.75-1.228-1.078-1.87-1.227-2.4-5.412-1.422-3.956,1.428a26.8,26.8,0,0,0,1.728,2.9,24.4,24.4,0,0,1-13.538,4.541c-1.137.012-1.585.607-1.572,1.346-1.693-1.456-4.845-1.507-4.929,1.241a44.411,44.411,0,0,0,1.412,12.534C776.965,1388.585,774.22,1388.714,771.492,1388.664Zm18.36,162.5c-.212,2.542-.289,5.149-.631,7.681,0-.162-.335,1.5-.517,2a6.688,6.688,0,0,1-4.278,4.459c-7.557,2.252-6.926-7.623-7.35-12.066l-1.539-16.128,15.5-.114Q790.443,1544.079,789.852,1551.162Zm34.549.144c-.436,5.225.431,12.962-5.971,14.813-8.6,2.485-8.141-7.853-8.635-13.027l-1.548-16.224,17.37-.128Q825.009,1544.022,824.4,1551.306Zm18.533-70.131c-2.122-1.667-2.65-5.566-3.205-7.983-.786-3.43-1.345-6.907-2.165-10.33-2.494-10.4-7.624-20.905-15.287-28.534-1.287-1.282-5.589-1.89-5.092,1.095,5.3,31.82,10.634,63.538,12.816,95.748l-1.152.008a2.462,2.462,0,0,0-2.046.015l-29.874.22c-1.4-1.519-4.322-1.865-5.238.038l-18.139.134a4.6,4.6,0,0,0-2.649-.767c.654-31.828,5.375-63.708,10.584-95.044.434-2.611-2.806-4.986-5.109-3.446a120.074,120.074,0,0,1-27.931,13.678,52.455,52.455,0,0,1-10.114,2.386c-2.372.314-6.762,1.355-8.98-.053-3.547-2.253-1.529-6.187,1.435-7.268,2.051-.748,4.407-.791,6.544-1.163,11.956-2.077,22.032-11.011,28.866-20.647,3.891-5.488,7.022-11.8,13.01-15.324,2.106-1.239,5.145-1.626,7.538-2.6a17.327,17.327,0,0,0,11.612,4.922,18.267,18.267,0,0,0,14.375-5.868,53.315,53.315,0,0,1,23.592,20.029c8.353,13.425,14.1,31.113,13.935,46.99C850.236,1469.82,848.986,1485.93,842.934,1481.175Z" fill="#de9ba8"/>
      <path id="Path_1416" data-name="Path 1416" d="M677.485,1458.751c10.931-.68,14.146-13.311,6.86-20.737-5-5.1-12.825-6.724-18.463-11.033-6.375-4.87-10.857-12.128-15.419-18.6a128.036,128.036,0,0,0-26.987-27.687,23.985,23.985,0,0,0,4.217-16.648,26.129,26.129,0,0,0-24.557-22.764,24.9,24.9,0,0,0-25.83,21.942,24.607,24.607,0,0,0,4.156,16.578c-5.567,1.962-10.544,6.331-14.333,10.463-13.325,14.529-19.875,35.917-22.163,55.127-1.191,10-1.977,24.55,5.949,32.366a9.893,9.893,0,0,0,9.423,2.813c5.921-1.284,7.566-6.025,8.2-11.511,1.164-10.081,1.883-19.608,5-29.356.608-1.9,1.3-3.927,2.04-5.969q-.354,35.7-.952,71.387c-.2,11.657-.367,23.317-.318,34.976.031,7.256-1.166,16.989,2.05,23.772,4.68,9.87,19.659,7.946,23.194-1.843,2.076-5.748.858-13.141.68-19.1-.346-11.619-.653-23.244-.712-34.868-.023-4.5-.178-9.08.208-13.568.206-2.4.373-5.47,3.3-4.635a3.229,3.229,0,0,1,1.05.675c0,.929.165,2.182.165,2.552v22.4c0,5.756-.385,11.445-.6,17.2s-.309,11.54-.052,17.3c.191,4.277.287,9.176,1.987,13.184a12.915,12.915,0,0,0,12.843,7.471c6.017-.645,9.594-5.261,10.647-10.9,1.074-5.749.507-12.04.491-17.892l-.078-30.291c-.075-29.058-.652-58.1-1.168-87.158a88.6,88.6,0,0,0,13.778,15.886C650.83,1448.3,664.646,1459.551,677.485,1458.751ZM666.8,1451.46a73.138,73.138,0,0,1-18.837-12.188,83.367,83.367,0,0,1-15.083-16.959c-1.339-2.009-2.6-4.076-3.732-6.207-.286-.538-1.295-2.619-1.116-2.206-.887-2.05-5.429-3.73-5.368-.217.46,26.415,1.228,52.842,1.3,79.262q.069,26.734.139,53.469c.017,6.475.887,21.908-9.621,18.975-5.244-1.464-5.016-8.148-5.291-12.52-.353-5.607-.3-11.239-.136-16.851.422-14.632.676-29.183.676-43.837,0-2.407-.337-3.693-2.427-5.175-2.683-1.9-6.593-3.646-9.709-1.707-3.625,2.255-3.367,7.679-3.477,11.453-.142,4.858-.1,9.723-.044,14.581.12,11.094.414,22.186.755,33.275.179,5.807,1.953,15.3-3.588,19.066-1.8,1.226-4.589,2.18-6.766,1.66-3.107-.742-3.841-3.967-4.179-6.766a97.241,97.241,0,0,1-.422-9.791c-.2-10.543-.075-21.095.065-31.638.408-30.9.984-61.781,1.241-92.684q.021-2.551.042-5.1c.017-2.036-4.038-4.483-5.154-2.058-4.776,10.377-8.989,21.409-11.1,32.656-1.284,6.84-.663,14.1-2.371,20.837-.777,3.062-3.76,6.4-7.2,4.653-2.733-1.391-3.882-5.939-4.519-8.594-1.395-5.819-1.284-12.039-.71-17.956,1.707-17.587,7.459-36.7,18.132-50.95a42.118,42.118,0,0,1,12.983-11.889,26.066,26.066,0,0,1,3.916-1.724l.11-.035a27.691,27.691,0,0,0,13.52,6.9c3.551.7,2.769-4.166-.179-4.748a20.239,20.239,0,0,1-10.7-5.851,3.6,3.6,0,0,0-1.043-1.161,19.821,19.821,0,0,1-4.225-16.127,21.023,21.023,0,0,1,20.576-17.263,19.787,19.787,0,0,1,19.358,19.239,20.381,20.381,0,0,1-4.391,13.275,2.19,2.19,0,0,0-.829,1.014,21.654,21.654,0,0,1-13.635,7.071c-3.475.41-1.359,5.138,1.5,4.8a26.159,26.159,0,0,0,15.224-7.217c7.117,5.4,14.1,11.343,19.717,18.264,7.614,9.388,13.253,20.954,23.085,28.352,4.866,3.662,10.839,5.364,15.744,8.854,4.848,3.449,5.428,11.194-.688,13.456C674.557,1454.548,670.332,1452.946,666.8,1451.46Z" fill="#de9ba8"/>
      <path id="Path_1417" data-name="Path 1417" d="M746.07,1476.348c-5.313.7-7.682,5.819-10.486,9.586a21.215,21.215,0,0,1-9.281,6.7,20.8,20.8,0,0,0-2.949-19.435,21.951,21.951,0,0,0-26.658-6.92,20.931,20.931,0,0,0-10.761,25.485,22,22,0,0,0,.936,2.287c-1.139-.66-2.7-1.4-3.165-1.728a47.9,47.9,0,0,1-7.5-6.634c-2.907-3.148-4.938-7.608-9.389-8.739-7.194-1.829-12.92,4.834-11.1,11.7,1.326,5.014,5.4,9.535,8.551,13.534a71.539,71.539,0,0,0,11.861,12.369c2.572,2.005,7.76,4.428,8.314,7.062.655,3.114.049,6.972-.013,10.13-.2,10.346-.661,20.637-1.315,30.959-.482,7.617-.977,15.236-1.356,22.859-.236,4.752-.775,10.188,3.3,13.582,6.59,5.493,14.931,1.733,16.683-6.044,1.49-6.613.834-13.715.867-20.429.015-3.175-.556-7.357.849-10.331,1.628-3.444,5.352-3.084,6.2-.087.621,2.2.266,5.138.384,7.415q.324,6.26.647,12.518c.247,4.777-.528,11.837,2.585,15.681,6.174,7.626,18,3.535,19.771-5.535,1.4-7.149-.468-15.722-1.1-22.886-.809-9.132-1.879-18.258-2.028-27.433-.087-5.379-.016-10.762.11-16.141.044-1.865.3-3.846.162-5.707l0-.044c1.407-.3,3.446-2.393,4.5-3.168a94.164,94.164,0,0,0,8.268-6.792,72.356,72.356,0,0,0,11.321-12.633c2.949-4.472,4.711-9.76,2.006-14.818C754.374,1479.16,750.354,1475.781,746.07,1476.348ZM687.9,1495.967c-.01.011-.021.017-.031.028l.029-.032Zm42.318,23.5a1.762,1.762,0,0,0,0-.47C730.484,1519.1,730.4,1519.283,730.216,1519.469Zm21.221-30.695c-.972,5.167-6.183,10.094-9.7,13.692a93.069,93.069,0,0,1-11.428,9.892c-1.688,1.242-5.2,2.694-6.053,4.767-.628,1.527-.194,4.253-.236,5.808-.115,4.309-.19,8.619-.194,12.929-.017,16.71,2.742,33.2,3.323,49.881.124,3.573.166,7.634-3.459,9.757-3.818,2.235-6.425-.389-6.628-4.238-.028-.529.007-1.083-.011-1.616-.194-5.878-.608-11.758-.912-17.631-.186-3.593.292-8.015-.926-11.489-2.23-6.362-12.41-8.864-16.488-2.964-3.449,4.99-2.184,13.124-2.166,18.774.016,4.853,1.293,14.593-2.395,18.493-1.447,1.53-4.822,1.873-6.087-.066-.544-.834-.429-2.317-.459-3.285-.059-1.9.112-3.819.209-5.711.347-6.737.774-13.469,1.2-20.2.573-9.1,1.055-18.154,1.3-27.271.145-5.375,1.694-13.285-.418-18.422-1.728-4.2-6.767-6.441-10.178-9.01-4.331-3.262-7.969-7.583-11.291-11.834-2.676-3.424-10.549-11.677-5.343-15.823,4.236-3.375,7.441,4.131,9.961,6.721,2.8,2.878,13.165,13.265,18.683,10.743a23.185,23.185,0,0,0,20.823,5.176c3.018-.69-.026-4.932-2.6-4.343-9.647,2.206-19.161-3.934-20.073-14.067a17.228,17.228,0,0,1,10.578-17.335,16.047,16.047,0,0,1,19.187,5.461c4.13,5.859,3.661,13.215-.031,18.849a2.059,2.059,0,0,0-1.9,2.426,18.747,18.747,0,0,1-1.432,1.415c-2.236,1.962,1.579,5.587,3.615,3.8a22.976,22.976,0,0,0,2.194-2.235c8.209-1.337,15.577-5.358,20.15-12.378,1.116-1.714,3.08-5.155,5.418-5.448C751.065,1481.566,751.892,1486.361,751.437,1488.774Z" fill="#de9ba8"/>
    </g>
  </g>
</svg>
