<svg xmlns="http://www.w3.org/2000/svg" width="133.287" height="140.029"><g data-name="Group 110" fill="#fff"><g data-name="Group 108"><path data-name="Path 653" d="M81.84 15.327a48.931 48.931 0 0 0-4.995-1.033l-3.1-1.033h-.6a42.638 42.638 0 0 0-7.32 1.377 59.521 59.521 0 0 1 16.017.689z"/><path data-name="Path 654" d="M78.999 13.519c1.249.258 2.5.56 3.7.9a45.389 45.389 0 0 1 5.468 2.54 40.479 40.479 0 0 1 7.793 3.53l-1.55-1.162 1.722 1.033a57.39 57.39 0 0 1 11.543 9.815l1.55 2.023q1.249 1.593 2.411 3.314l1.378 2.023a44.592 44.592 0 0 0-9.989-12.569c-7.708-6.453-16.276-11.576-26.308-11.791z"/><path data-name="Path 655" d="M113.875 39.173l-.646-1.248-.775-1.162q.732 1.205 1.421 2.41z"/><path data-name="Path 656" d="M14.973 76.536c.043.43.043.861.086 1.291v.646l.646 1.851a36.838 36.838 0 0 1-.732-3.788z"/><path data-name="Path 657" d="M31.421 109.379a49.28 49.28 0 0 1-14.338-23.846q-.818-1.722-1.55-3.53a44.527 44.527 0 0 0 3.531 12.87c2.583 5.424 6.8 9.3 10.979 13.43q1.593 1.593 3.272 2.97l-.388-.56z"/><path data-name="Path 658" d="M84.165 16.748c-1.249-.3-2.54-.517-3.832-.732a31.74 31.74 0 0 1 4.693 1.291 34.36 34.36 0 0 1 12.443 8.092 42.446 42.446 0 0 1 8.267 9.3 78.76 78.76 0 0 1 13.3 30.174 39.46 39.46 0 0 1 .646 10.761 52.543 52.543 0 0 0 .517-13.473c-1.804-20.189-15.582-40.635-36.034-45.413z"/><path data-name="Path 659" d="M128.858 41.326a76.092 76.092 0 0 0-10.161-19.327c-4.349-5.768-9.731-9.814-15.414-13.774a43.744 43.744 0 0 0-37.589-6.543 48.42 48.42 0 0 0-5.339 1.765c-14.037 2.2-27.686 8.092-37.933 16.83-9.559 8.179-17.309 19.241-20.84 31.38-2.713 9.427-1.722 19.284 1.335 28.5A89.122 89.122 0 0 0 5.07 93.238a37.488 37.488 0 0 0 9.386 17.347c5.3 5.467 10.506 10.976 17.05 14.979a60.892 60.892 0 0 0 17.524 7.231c7.966 5.079 16.835 8.178 26.824 6.973a52.318 52.318 0 0 0 20.151-7.1 68.462 68.462 0 0 0 29.67-33.232c8.565-18.035 10.287-38.869 3.183-58.11zM74.52 1.123c14.08-1.334 25.877 5.424 36.3 14.2a54.329 54.329 0 0 1 13.175 17.218c-7.1-12.612-18.084-22.9-31.905-27.2a69.053 69.053 0 0 0-26.525-2.539 51.768 51.768 0 0 1 8.956-1.679zm14.295 128.1l-.99.344a52.544 52.544 0 0 1-9.989 2.066 46.981 46.981 0 0 0 5.939-2.625 52.5 52.5 0 0 0 10.979-2.884 54.732 54.732 0 0 1-5.9 3.1zm5.511-.818a34.408 34.408 0 0 1-9.429 3.788l2.885-1.119 1.507-.646a49.917 49.917 0 0 0 5.038-2.023zm-23.851 3.53l-3.057-.172-.56-.086a.388.388 0 0 0-.3-.215l-4.09-.775a61.846 61.846 0 0 0 13.778-2.238 48.493 48.493 0 0 0 10.929-2.713l-3.315 1.98a54.614 54.614 0 0 1-6.631.646.646.646 0 0 0 0 1.291l3.143-.215-.474.215a35.229 35.229 0 0 1-9.429 2.281zm4.133 1.42q-2.239.344-4.478.473l-2.11-.129h-.215a28.745 28.745 0 0 0 3.315-.3 32.079 32.079 0 0 1 3.531-.043zm-16.878-4.089a40.564 40.564 0 0 1-4.952-2.324l-.431-.258a52.758 52.758 0 0 0 13.95 1.851h.478l1.679.129a56.118 56.118 0 0 1-10.678.6zm29.58-2.2l4.349-2.669a58.219 58.219 0 0 0 15.156-7.533l.99-.6-1.076 1.076q-1.895 1.679-3.918 3.271a47.973 47.973 0 0 1-15.457 6.457zm2.325-3.788a57.435 57.435 0 0 0 20.194-16.185 62.9 62.9 0 0 1-9.9 10.331 47.88 47.88 0 0 1-5.3 3.7 51.546 51.546 0 0 1-3.4 1.679zm17.007-7.7a55.117 55.117 0 0 1-4.865 3.056c-1.033.517-2.11.99-3.143 1.463a75.219 75.219 0 0 0 9.214-6.8 51.659 51.659 0 0 0 8.525-9.427 56.386 56.386 0 0 1-4.478 7.4 52.786 52.786 0 0 1-5.253 4.261zm.775-3.659l1.076-1.205a58.925 58.925 0 0 0 9.473-15.152 56.6 56.6 0 0 0 3.531-6.887q-.56 2.8-1.378 5.51a56.905 56.905 0 0 1-12.659 17.691zm13.648-25.74a57.841 57.841 0 0 0 1.378-8.351c.043-.3.129-.56.172-.861 0 1.765-.043 3.573-.215 5.338a11.451 11.451 0 0 1-1.292 3.831zm-5.9 8.092a56.5 56.5 0 0 1-24.413 27.376 43.194 43.194 0 0 1-16.577 5.854c-8.224.99-15.544-1.55-22.088-5.725a50.126 50.126 0 0 1-14.424-5.94c-5.382-3.314-9.645-7.834-14.037-12.311a30.86 30.86 0 0 1-7.751-14.29 73.33 73.33 0 0 1-1.765-10.761c-2.5-7.576-3.315-15.711-1.076-23.459a46.95 46.95 0 0 1 1.679-4.649l-.56 1.076q.3-1.377.689-2.755a76.884 76.884 0 0 1 2.583-3.917 57.64 57.64 0 0 1 12.833-15.668c8.4-7.188 19.634-12.052 31.216-13.9a47.79 47.79 0 0 1 4.392-1.464 36.04 36.04 0 0 1 30.958 5.42c4.65 3.228 9.214 6.8 12.659 11.321a62.072 62.072 0 0 1 8.353 15.883c5.9 15.84 4.435 33.058-2.583 47.865zm-62.82 33.7l-.646-.215a65.633 65.633 0 0 1-4.779-2.884l1.378.517a78.811 78.811 0 0 0 4.048 2.586zm-11.453-3.314q2.756 1.55 5.64 2.841a46.724 46.724 0 0 1-5.038-1.722l-1.163-.861zm-.129-2.669l.474.258 1.163.861c1.163.818 2.368 1.636 3.574 2.454l-1.076-.473q-2.11-1.507-4.133-3.142zm-1.119.43l-2.239-1.291-2.67-1.851h-.086l-1.895-2.152c.9.56 1.808 1.119 2.756 1.593a113.75 113.75 0 0 0 4.134 3.705zM8.213 58.673c.086-1.42.172-2.8.388-4.218a44.369 44.369 0 0 1 1.464-5.122v-.172l.086-.258a59.83 59.83 0 0 1 4.349-6.715l-.344.775a51.687 51.687 0 0 0-5.943 15.71zm4.349-6.155c-.215 1.162-.431 2.281-.56 3.444l-.344.9c.043-.3.043-.6.086-.861.129-.99.344-1.98.517-2.97zm-.947 14.2a9.319 9.319 0 0 0-.172 1.076 54.522 54.522 0 0 1-.172-5.811l.344-1.162a66.444 66.444 0 0 0 0 5.854zm-1.292-9.642a45.629 45.629 0 0 0-.348 4.869 53.751 53.751 0 0 0-1.335 6.586l-.086-.775a43.979 43.979 0 0 1 .474-7.275q.563-1.722 1.295-3.4zM8.557 83.208a50.96 50.96 0 0 0 .9 5.122 47.426 47.426 0 0 1-3.014-8.867 50.259 50.259 0 0 1-.043-5.467c.258 1.377.56 2.755.9 4.089s.784 3.402 1.257 5.123zm.861-9.986a51.337 51.337 0 0 1 .689-6.112 58.7 58.7 0 0 0 .775 6.241 44.408 44.408 0 0 0 .344 6.457 65.239 65.239 0 0 1-1.765-6.586zm5.339 29.227a57.809 57.809 0 0 0 7.318 10.675q.56 1.205 1.206 2.367a60.261 60.261 0 0 1-13-19.671 77 77 0 0 0 4.478 6.629zm-1.292-16.83a54.607 54.607 0 0 1-1.033-5.768c.215.775.474 1.593.732 2.367q.474 2.712 1.163 5.338zm2.154 10.029q.99 2.41 2.2 4.735l.256 1.076a66.583 66.583 0 0 1-5.124-9.943q1.249 2.152 2.67 4.175zm5.339 12.052l.431.387c.732.9 1.464 1.808 2.239 2.669l-2.454-2.41zm-1.292-6.284l1.765 2.2a55.786 55.786 0 0 0 3.7 5.122l.99 1.507-1.938-1.765a69.345 69.345 0 0 1-4.521-6.973zm25.145-82.731a81.032 81.032 0 0 0-15.974 11.623c1.206-1.765 2.54-3.487 3.875-5.165a64.937 64.937 0 0 1 12.1-6.457zm-9.085 2.97q1.378-1.507 2.842-2.884a59.9 59.9 0 0 1 8.224-3.7l1.464-.473a39.579 39.579 0 0 1 7.362-1.29 81.39 81.39 0 0 0-19.892 8.351zm-2.885 1.722q-3.014 1.937-5.856 4.132a58.9 58.9 0 0 1 4.607-4.391l1.765-1.248 1.895-1.205a49.594 49.594 0 0 0-2.411 2.712zm-2.966 3.745A76.287 76.287 0 0 0 26 32.976a94.49 94.49 0 0 0-9.3 10.847l-.689.99a44.114 44.114 0 0 1 2.239-5.079c.732-1.377 1.507-2.755 2.368-4.089a54.8 54.8 0 0 1 6.329-6.2c.943-.774 1.933-1.549 2.928-2.323zm85.984 5.251l.129.215a59.577 59.577 0 0 1 2.885 6.026q-1.425-3.228-3.018-6.241zm1.163 5.381l-1.507-2.238a70.088 70.088 0 0 0-20.413-19.414 40.736 40.736 0 0 0-13.047-6.629 47.589 47.589 0 0 0-13.52-1.465c10.764-1.42 21.615-.086 30.7 5.854a59.2 59.2 0 0 1 7.19 6.457 69.128 69.128 0 0 1 8.05 12.226q1.356 2.518 2.583 5.165zM61.216 8.397l-1.249.344a54.307 54.307 0 0 0-10.678 2.667l-3.229 1.033.947-.689 3.315-1.593c12.185-5.036 25.36-7.4 37.976-2.5-8.869-2.232-18.169-1.328-27.082.738zM72.54 3.619a57.453 57.453 0 0 0-17.395 3.189q2.411-1.205 4.865-2.2a77.954 77.954 0 0 1 12.53-.99zM3.003 68.272a61.666 61.666 0 0 0-.3 7.447C.807 68.1.375 60.18 2.486 52.518c3.23-11.71 10.549-22.34 19.505-30.39S43.003 8.308 55.489 5.513a64.247 64.247 0 0 0-6.714 3.745 111.656 111.656 0 0 0-15.242 8.178 66.6 66.6 0 0 0-14.168 11.838 58.663 58.663 0 0 0-15.89 32.412 46.218 46.218 0 0 0-.474 6.586zm2.713.387q-.215 1.334-.388 2.712a46.6 46.6 0 0 1 .347-8.738 47.638 47.638 0 0 0 .043 6.026zM3.993 79.508c-.043-.517-.086-1.033-.086-1.55a44.754 44.754 0 0 0 .99 4.649q-.43-1.12-.822-2.282a5.88 5.88 0 0 1-.086-.818zm18.213 37.018c-5.038-5.079-10.2-9.771-13.348-16.314a55.609 55.609 0 0 1-4.305-15.626q.9 2.2 1.894 4.3a60.331 60.331 0 0 0 17.438 28.969l1.808 1.636.474.689q-2.067-1.765-4-3.659zm13.649 8.824q-1.851-1.076-3.617-2.324a61.826 61.826 0 0 1-6.415-5.079c-.431-.689-.861-1.42-1.292-2.152a51.494 51.494 0 0 0 12.357 9.384zM25.22 114.674a38.978 38.978 0 0 1-2.8-3.185l-.388-.861a75.817 75.817 0 0 0 8.7 7.361 74.206 74.206 0 0 0 3.272 3.1l3.057 2.583a47.232 47.232 0 0 1-11.841-9zm11.97 11.45l.947-.258q1.808.9 3.746 1.679l2.583 2.066a62.139 62.139 0 0 1-7.277-3.487zm9.085 2.884a46.124 46.124 0 0 0 5.038 1.119 51.506 51.506 0 0 0 5.425 2.281 44.45 44.45 0 0 1-5.511-.56q-2.498-1.291-4.952-2.84zm21.83 9.814a39.153 39.153 0 0 1-16.4-5.424 48.042 48.042 0 0 0 19.117 5.467h1.464a38.163 38.163 0 0 1-4.181-.043zm54.725-36.157a78.818 78.818 0 0 1-16.362 20.877 70.226 70.226 0 0 1-5.856 4.735c-11.41 7.92-25.1 11.794-38.665 7.92a54.568 54.568 0 0 1-5.253-1.851 58.143 58.143 0 0 0 13.434.818 36.135 36.135 0 0 0 13.348-.689c7.147-1.765 13.52-5.854 19.246-10.374q3.057-2.41 5.856-5.036a71.372 71.372 0 0 0 15.587-19.2 80.849 80.849 0 0 1-1.335 2.8zm.99-26.429a57.231 57.231 0 0 0-.474-6.284 57.189 57.189 0 0 0-.431-8.91q.861 2.712 1.464 5.467a45.916 45.916 0 0 1-.56 9.728zm.431 4.563q-.344 2.281-.9 4.477c.086-.689.172-1.42.258-2.109a22.69 22.69 0 0 1 .646-2.41zm3.315 8.006a52.464 52.464 0 0 1-3.315 7.748 55.387 55.387 0 0 0 3.789-10.933c-.172 1.033-.3 2.066-.517 3.142zm-1.206-3.788a53.058 53.058 0 0 0 .517-7.49c.043-1.248.086-2.454.086-3.7a51.122 51.122 0 0 1-.474 10.417 5.863 5.863 0 0 0-.172.732zm3.746-9.47a59.427 59.427 0 0 1-.474 4.778 57.1 57.1 0 0 0-.344-6.543 61.754 61.754 0 0 0-5.081-22.641 84.089 84.089 0 0 0-2.583-8.867c5.167 10.288 9 22 8.439 33.273zm.215-11.751a95.535 95.535 0 0 0-16.189-36.631A51.572 51.572 0 0 0 104.1 15.844a41.986 41.986 0 0 0-15.156-9.857 38.587 38.587 0 0 0-5.683-1.593c1.593.258 3.143.517 4.65.9 24.844 5.811 41.593 30.6 43.789 55.183a63.86 63.86 0 0 1-.646 16.357 47.981 47.981 0 0 0-.775-13.042z"/><path data-name="Path 660" d="M39.343 26.734a91.893 91.893 0 0 1 12.573-6.714 52.878 52.878 0 0 1 5.554-3.1 61.625 61.625 0 0 0-27.556 13.645 58.849 58.849 0 0 0-6.157 6.414l-.258.473q-1.378 1.937-2.626 4l-1.507 1.851-.56.732a48.461 48.461 0 0 0-4.392 9.642 51.348 51.348 0 0 1 2.8-5.036 59.733 59.733 0 0 0-3.7 11.923l-.646 1.679c0-.775.043-1.593.086-2.367a39.332 39.332 0 0 0 1.033 14.85 50.733 50.733 0 0 1 .254-6.106 38.041 38.041 0 0 1 .388-5.381 48.291 48.291 0 0 1 13.089-26.691 54.851 54.851 0 0 1 11.625-9.814z"/><path data-name="Path 661" d="M71.507 15.37a64.173 64.173 0 0 0-10.291.818q-2.067.818-4 1.808a47.289 47.289 0 0 1 14.291-2.626z"/></g><path data-name="Path 662" d="M88.213 121.905a59.867 59.867 0 0 1-8.7-1.248 82.93 82.93 0 0 0 5.684-2.281 70.221 70.221 0 0 0 23.552 1.205l.689-.086q2.239-2.109 4.306-4.434-2.411.646-4.822 1.076a62.191 62.191 0 0 1-19.419.215l2.54-1.334a84.441 84.441 0 0 0 3.875-2.281l.99-.646.172-.129h-.344c.947-.086 3.014-2.712 1.894-2.755a91.105 91.105 0 0 0 17.44-13.516h.043l.086-.086c.56-.732.431-2.712-.388-3.185a.775.775 0 0 0-1.076.129 84.263 84.263 0 0 1-25.016 17.218 99.7 99.7 0 0 0 10.893-11.148c.3-.258.431-.473.344-.646-.517-.775-2.8.861-3.186 1.291a92.387 92.387 0 0 1-12.056 12.1 69.162 69.162 0 0 1-7.879 2.41l-3.271-1.042q2.842-1.334 5.6-2.841a84.441 84.441 0 0 0 3.875-2.281c.258-.172 1.722-.99 1.206-.9 1.593-.172.388-3.659-.861-3.53s-2.885 1.722-3.961 2.367a84.1 84.1 0 0 1-10.893 5.294 89.652 89.652 0 0 1-17.007-9.255c-1.593-1.119-.172 2.238.6 2.8a90.169 90.169 0 0 0 13.347 7.619c-1.851.689-3.746 1.248-5.64 1.765a89.557 89.557 0 0 1-21.184-15.152c-1.076-1.076-2.885 2.152-1.981 3.013a89.3 89.3 0 0 0 17.567 13.215 72.4 72.4 0 0 1-9.429-1.98 94.583 94.583 0 0 1-17.784-17.434c-.6-.775-4 .3-3.358 1.076a92.9 92.9 0 0 0 13.046 13.6 85.3 85.3 0 0 1-21.356-12.311c-1.464-1.162-1.722 2.5-.689 3.357a85.606 85.606 0 0 0 29.236 15.066 59.909 59.909 0 0 1-13.821-1.162 55.997 55.997 0 0 1-5.124-1.291 91.712 91.712 0 0 1-14.683-9.94 35.126 35.126 0 0 0 2.885 3.4c3.057 3.142 6.028 6.284 9.257 9.125a79.066 79.066 0 0 0 17.958 7.06 57.712 57.712 0 0 0 20.064 1.334l.215.086q-2.11.689-4.263 1.162a58.962 58.962 0 0 1-15.07 1.464q2.454.861 4.952 1.55a63.139 63.139 0 0 0 12.056-2.152c1.378-.387 2.756-.861 4.133-1.334l3.617 1.248c10.118 3.185 20.753 3.228 31.087 1.334l3.1-1.98a60.673 60.673 0 0 1-33.8-1.55l-.775-.3 1.033-.43c1.851-.344 3.66-.775 5.511-1.248a71.665 71.665 0 0 0 12.142 2.583 57.325 57.325 0 0 0 18.644-.99 67.94 67.94 0 0 0 5.425-4.606 62.579 62.579 0 0 1-21.227 2.324zm7.018-10.761l-.6.43a77.554 77.554 0 0 1-8.267 4.218l-1.163-.215a75.06 75.06 0 0 0 9.989-4.477zm-51.582 9.513l-3.7-.99a62.711 62.711 0 0 0 10.721-.215q2.54 1.507 5.167 2.8a59 59 0 0 1-12.188-1.595zm17.61 1.464a82.315 82.315 0 0 1-6.415-3.314l1.421-.258a68 68 0 0 0 7.32.56q2.583 1.162 5.253 2.109a66.283 66.283 0 0 1-7.578.947zm7.018-6.844l3.1-1.205 1.593.6-3.746.474zm4.093 3.355q2.11-.258 4.177-.689l-2.239 1.334zm7.621-1.507h.215l1.765.473q-2.842 1.076-5.77 1.937 1.894-1.162 3.789-2.41z"/><g data-name="Group 109"><path data-name="Path 663" d="M58.03 81.96h-.086a2.282 2.282 0 0 1-2.11.947h-.3a96.738 96.738 0 0 0-9.9 1.334c-2.282.387-4.392.732-6.243.947h-2.975a6.5 6.5 0 0 1-1.163-.258l-.818-.215a.861.861 0 0 1-.517-.215 3.572 3.572 0 0 1-1.119-2.54 30.953 30.953 0 0 1-.129-2.884v-.086a151.165 151.165 0 0 0 .56-26.257 37.53 37.53 0 0 0-.517-4.218 2.577 2.577 0 0 0-2.5-2.109h-.043a1.765 1.765 0 0 0-.818 1.162 17.084 17.084 0 0 1 .947 4.52 41.7 41.7 0 0 1-.172 6.328c-.086.947-.129 1.851-.172 2.755a50.176 50.176 0 0 1-.818 6.241c-.474 2.8-.344 10.8-.129 13.731a16.654 16.654 0 0 0 .689 3.7 8.365 8.365 0 0 0 5.9 3.745h.431a65.316 65.316 0 0 0 12.53-1.377 83.423 83.423 0 0 1 10.635-1.377c.431-.129.517-.56.646-1.464.043-.258.043-.473.086-.732l-.56-.646c-.431-.43-.904-.987-1.335-1.032z"/><path data-name="Path 664" d="M43.046 75.03l1.679.646a19.58 19.58 0 0 0 4.865 1.464h.431a4.7 4.7 0 0 0 1.981-.344 8.4 8.4 0 0 1 1.249-.775c1.206-.646 2.024-1.162 1.938-2.066a3.529 3.529 0 0 0-.043-.43 2.684 2.684 0 0 0-1.722-1.125h-.215a4.275 4.275 0 0 1-3.445 1.205h-.646c-1.851-.129-5.77-1.894-6.674-3.659l-.258-.473a4.418 4.418 0 0 1-.732-3.53.6.6 0 0 1 .517-.473l2.325-.215a36.522 36.522 0 0 0 7.578-.99 3.548 3.548 0 0 0 2.756-3.831l-.3-.947c-.215-.646-.3-.947-.344-1.119-.732-2.109-2.971-3.53-4.779-4.649l-.172-.086a6.116 6.116 0 0 0-1.292-.258l-1.722-.086c-1.679-.043-3.488.129-4.65 1.722a22.088 22.088 0 0 0-2.842 6.715 33.607 33.607 0 0 0 0 4.477c.169 4.221 1.676 7.019 4.517 8.827zm-.258-13.817a10.072 10.072 0 0 1 1.335-2.8c.732-1.033 2.325-1.205 3.531-1.162h.517a2.971 2.971 0 0 1 2.2 1.636 1.85 1.85 0 0 1-.215 2.152c-.99 1.076-5.554 1.248-6.157 1.248a1.163 1.163 0 0 1-1.076-.473.818.818 0 0 1-.086-.646z"/><path data-name="Path 665" d="M79.127 63.02a.861.861 0 0 1-.56-.473.732.732 0 0 1 .043-.689c2.067-3.4 2.971-6.371 2.842-9.082a11.06 11.06 0 0 0-1.895-5.6 7.987 7.987 0 0 0-6.717-3.917h-.77a36.006 36.006 0 0 0-5.727.517 33.377 33.377 0 0 1-5.081.473 2.712 2.712 0 0 0-.689.9 17.858 17.858 0 0 0 .474 3.573 13.039 13.039 0 0 1 .388 2.841l.129.129a.861.861 0 0 1 .172.387 68.9 68.9 0 0 1 .9 9.125c.086 4.175-.086 8.351-.258 12.44-.043 1.55-.129 3.142-.172 4.606v.387a26.418 26.418 0 0 1-.129 2.927 27.455 27.455 0 0 0-.129 3.056c.086 2.152.689 3.357 2.024 4l1.851.172h1.292c6.588.129 11.841-2.367 15.63-7.447.344-.689.732-1.377 1.119-2.066 1.206-2.109 2.411-4.3 2.368-6.8a7.532 7.532 0 0 0-.3-1.894c-1.162-3.906-3.618-6.661-6.805-7.565zM64.875 48.643a.689.689 0 0 1 .215-.56 5.193 5.193 0 0 1 2.626-1.076 6.417 6.417 0 0 0 1.636-.517l.344-.086h.043l1.033.086c2.325.172 5.253.387 6.717 3.142a.861.861 0 0 1 .258.387 8.392 8.392 0 0 1 .388 2.324c.129 4.089-2.239 7.49-4.047 9.685a.689.689 0 0 1-.56.258h-.344a11.8 11.8 0 0 1-1.938 1.119 36.473 36.473 0 0 1-3.531 1.722 1.077 1.077 0 0 1-1.464-.689.861.861 0 0 1-.3-.387 7.7 7.7 0 0 1-.474-2.97v-.732a1.377 1.377 0 0 1-.086-.344c0-.215-.043-.43-.043-.646a.947.947 0 0 1-.043-.56c-.043-.818 0-1.679 0-2.5a5.76 5.76 0 0 0-.172-1.291 6.024 6.024 0 0 1 0-2.54v-.387zm11.281 34.306l-.947.9-.215.129h-.043a15.439 15.439 0 0 1-5.9 1.42h-.172a6.761 6.761 0 0 1-2.8-.818.861.861 0 0 1-.431-.646 18.444 18.444 0 0 1-.129-2.109 53.359 53.359 0 0 1 .172-5.381v-2.152a6.34 6.34 0 0 1 .431-3.917 1.119 1.119 0 0 1 .775-.56 10.85 10.85 0 0 1 3.358-2.5 11.755 11.755 0 0 1 2.8-1.765c1.163-1.334 3.445-1.205 5.124-.258a7.751 7.751 0 0 1 3.574 3.573l.3.344a.818.818 0 0 1 .172.646 10.157 10.157 0 0 1 .3 2.109c.129 4.864-3.358 8.092-6.415 10.976z"/><path data-name="Path 666" d="M111.377 62.805a20.96 20.96 0 0 0-2.842-6.543 33.234 33.234 0 0 0-7.449-8.092l-.689-.086h-.818a10.775 10.775 0 0 0-4.263 1.98h-.086c-4.177 5.9-8.568 15.023-6.028 25.353a28.233 28.233 0 0 0 3.445 8.178 7.832 7.832 0 0 0 6.071 3.53 7.156 7.156 0 0 0 5.64-1.55 2.153 2.153 0 0 0 .947-.689c3.963-5.207 8.225-13.257 6.072-22.081zm-5.9 17.089v.086a12.874 12.874 0 0 1-6.286 4.175h-.258c-3.531-.3-4.435-3.4-5.124-5.854a15.408 15.408 0 0 0-.9-2.54.732.732 0 0 1-.043-.6c-1.765-5.639-.3-12.741 2.282-17.261a5.553 5.553 0 0 1 .646-1.291 13.688 13.688 0 0 1 2.454-3.53 2.885 2.885 0 0 1 1.636-.861h.344c1.55.043 2.713 1.507 3.789 2.8a12.441 12.441 0 0 0 1.078 1.244l.129.129a19.368 19.368 0 0 1 3.057 6.672 24.062 24.062 0 0 1-2.8 16.873z"/></g></g></svg>