<svg xmlns="http://www.w3.org/2000/svg" xmlns:xlink="http://www.w3.org/1999/xlink" width="280" height="294.249" viewBox="0 0 280 294.249">
  <defs>
    <clipPath id="clip-path">
      <rect width="280" height="294.249" fill="none"/>
    </clipPath>
  </defs>
  <g id="Component_8" data-name="Component 8" clip-path="url(#clip-path)">
    <g id="Artwork_4" data-name="Artwork 4" transform="translate(140 147.125)">
      <path id="Artwork_4-2" data-name="Artwork 4" d="M270.7,86.84c-5.246-14.2-12.211-28.492-21.347-40.613S228.911,25.6,216.971,17.283C193.273.821,166.047-4.154,138.007,3.535a101.7,101.7,0,0,0-11.216,3.709C97.3,11.856,68.63,24.248,47.1,42.61,27.023,59.8,10.741,83.042,3.324,108.549c-5.7,19.809-3.618,40.522,2.8,59.879a187.326,187.326,0,0,0,4.523,27.5,78.783,78.783,0,0,0,19.718,36.452c11.126,11.487,22.07,23.065,35.819,31.477A127.9,127.9,0,0,0,103,279.05c16.734,10.673,35.367,17.186,56.351,14.653,14.925-1.809,29.306-7.236,42.331-14.924,27.678-15.105,50.743-41.427,62.321-69.829C282.006,171.051,285.624,127.272,270.7,86.84ZM156.549,2.359c29.578-2.8,54.361,11.4,76.251,29.849,11.487,9.678,20.713,22.342,27.678,36.181-14.925-26.5-37.99-48.12-67.025-57.165C176,5.8,156.821,4.168,137.735,5.886a108.723,108.723,0,0,1,18.814-3.528Zm30.03,269.184-2.08.724a110.353,110.353,0,0,1-20.985,4.342A98.681,98.681,0,0,0,176,271.09a110.261,110.261,0,0,0,23.065-6.06,114.969,114.969,0,0,1-12.392,6.513Zm11.578-1.719a72.272,72.272,0,0,1-19.809,7.96l6.06-2.352,3.166-1.357a104.845,104.845,0,0,0,10.583-4.251Zm-50.11,7.417-6.422-.362-1.176-.181a.814.814,0,0,0-.633-.452l-8.593-1.628a129.888,129.888,0,0,0,28.945-4.7,101.847,101.847,0,0,0,22.975-5.7l-6.965,4.161a114.7,114.7,0,0,1-13.93,1.357,1.359,1.359,0,0,0,0,2.714l6.6-.452-.995.452a73.991,73.991,0,0,1-19.809,4.794Zm8.683,2.985q-4.7.724-9.407.995l-4.432-.271h-.452a60.369,60.369,0,0,0,6.965-.633c2.352-.362,4.975,0,7.417-.09ZM109.876,268.92l-1.357-.452c-3.437-1.9-6.784-3.889-10.04-6.06l2.894,1.085c2.894,1.9,5.7,3.708,8.593,5.427ZM83.284,257.251l-4.7-2.714-5.608-3.889h-.181l-3.98-4.523h0c1.9,1.176,3.8,2.352,5.789,3.347C77.4,252.1,80.3,254.719,83.284,257.251ZM54.791,231.744l-4.07-3.709a145.726,145.726,0,0,1-9.5-14.744l3.709,4.613a117.23,117.23,0,0,0,7.779,10.764ZM37.967,213.2A139.93,139.93,0,0,1,27.2,192.307q2.623,4.523,5.518,8.774a36.052,36.052,0,0,1,4.613,9.95Zm-9.678-33.2a114.779,114.779,0,0,1-2.171-12.12c.452,1.628.995,3.347,1.538,4.975q.995,5.7,2.442,11.216ZM27.023,130.8a126.088,126.088,0,0,1,.995-12.844,107.457,107.457,0,0,1,8.141-15.648,125.546,125.546,0,0,0-7.779,25.055c-.452,1.085-.9,2.171-1.357,3.347Zm-1.809-13.206-.724,1.9c.09-.633.09-1.266.181-1.809.271-2.08.724-4.161,1.085-6.241l.543-1.085c-.362,2.352-.724,4.794-1.085,7.236Zm136.13-87.557a85.794,85.794,0,0,0-9.317-2.985l4.432.181a90.9,90.9,0,0,1,9.5,1.176c2.623.543,5.246,1.176,7.779,1.9a99.226,99.226,0,0,1,17.819,9.045,109.808,109.808,0,0,0-30.211-9.317ZM94.138,39.263A170.229,170.229,0,0,0,60.58,63.685c2.533-3.709,5.337-7.327,8.141-10.854A136.4,136.4,0,0,1,94.138,39.263ZM75.052,45.5q2.894-3.166,5.97-6.06A125.817,125.817,0,0,1,98.3,31.665l3.075-.995a83.125,83.125,0,0,1,15.467-2.714A170.954,170.954,0,0,0,75.052,45.5Zm-6.06,3.618q-6.332,4.07-12.3,8.683a123.738,123.738,0,0,1,9.678-9.226l3.708-2.623,3.98-2.533c-1.719,1.809-3.437,3.709-5.065,5.7Zm-6.241,7.869c-2.894,3.98-5.608,8.05-8.141,12.3A198.541,198.541,0,0,0,35.073,92.087l-1.447,2.08a92.712,92.712,0,0,1,4.7-10.673C39.867,80.6,41.495,77.7,43.3,74.9A115.144,115.144,0,0,1,56.6,61.876C58.59,60.248,60.671,58.62,62.751,56.991ZM50.721,76.167,49.364,78.7q-2.894,4.07-5.518,8.412L40.681,91a112.16,112.16,0,0,0-10.945,16.914q.633-2.894,1.447-5.789a180.814,180.814,0,0,1,19.538-25.96ZM29.736,90.278a108.632,108.632,0,0,0-12.482,33.015c.181-2.985.362-5.879.814-8.864a93.256,93.256,0,0,1,3.075-10.764V103.3l.181-.543A125.729,125.729,0,0,1,30.46,88.65ZM24.4,140.116a19.59,19.59,0,0,0-.362,2.261,114.6,114.6,0,0,1-.362-12.211l.724-2.442C24.219,131.885,24.219,135.956,24.4,140.116Zm-2.714-20.261a95.909,95.909,0,0,0-.724,10.221,112.977,112.977,0,0,0-2.8,13.93l-.181-1.628a92.442,92.442,0,0,1,.995-15.286q1.176-3.618,2.714-7.146Zm-3.709,54.9a107.112,107.112,0,0,0,1.9,10.764,99.678,99.678,0,0,1-6.332-18.633,105.645,105.645,0,0,1-.09-11.487c.543,2.894,1.176,5.789,1.9,8.593s1.628,7.236,2.623,10.854Zm1.809-20.985a107.816,107.816,0,0,1,1.447-12.844,123.368,123.368,0,0,0,1.628,13.116,93.345,93.345,0,0,0,.724,13.568,137.036,137.036,0,0,1-3.708-13.749ZM31,215.282a121.477,121.477,0,0,0,15.377,22.432q1.176,2.533,2.533,4.975A126.633,126.633,0,0,1,21.6,201.352,161.816,161.816,0,0,0,31,215.282Zm13.025,11.126.9.814c1.538,1.9,3.075,3.8,4.7,5.608l-5.156-5.065Zm45.045,32.11c2.442,1.719,4.975,3.437,7.507,5.156l-2.261-.995q-4.432-3.075-8.683-6.513l.995.543Zm8.774,9.316a98.14,98.14,0,0,1-10.583-3.618l-2.442-1.809L86,261.774a129.213,129.213,0,0,0,11.849,6.151Zm41.608,2.261h.995l3.528.271a117.861,117.861,0,0,1-22.613,1.176,85.206,85.206,0,0,1-10.4-4.884l-.9-.543a110.8,110.8,0,0,0,29.4,4.07Zm44.05-3.166,9.136-5.608a122.29,122.29,0,0,0,31.749-15.739l2.08-1.266-2.261,2.261q-3.98,3.528-8.231,6.874A100.764,100.764,0,0,1,183.5,267.02Zm40.522-24.241a115.868,115.868,0,0,1-10.221,6.422c-2.171,1.085-4.432,2.08-6.6,3.075a158.02,158.02,0,0,0,19.357-14.291,108.542,108.542,0,0,0,17.909-19.809,118.494,118.494,0,0,1-9.407,15.558,110.9,110.9,0,0,1-11.035,9.136ZM225.654,235l2.261-2.533a123.827,123.827,0,0,0,19.9-31.839,119.035,119.035,0,0,0,7.417-14.472q-1.176,5.879-2.894,11.578a119.577,119.577,0,0,1-26.593,37.356Zm28.673-54.09a121.577,121.577,0,0,0,2.894-17.548c.09-.633.271-1.176.362-1.809,0,3.709-.09,7.507-.452,11.216s-1.628,5.518-2.714,8.231Zm-44.412,65.849a100.585,100.585,0,0,1-11.126,7.779c-2.352,1.266-4.7,2.442-7.146,3.528l-3.256.995a120.662,120.662,0,0,0,42.331-34.01A132.239,132.239,0,0,1,209.916,246.759ZM212,51.836A130.792,130.792,0,0,0,198.428,40.62l3.618,2.171A120.572,120.572,0,0,1,226.2,63.414a260.77,260.77,0,0,1,17.909,25.96l1.628,3.618,1.628,3.98-.271-.452A116.683,116.683,0,0,0,212,51.836Zm31.387,16.191.271.452a125.209,125.209,0,0,1,6.06,12.663Q246.73,74.358,243.383,68.027Zm2.442,11.306-3.166-4.7a147.256,147.256,0,0,0-42.874-40.794,85.568,85.568,0,0,0-27.407-13.93c-8.593-2.442-18.633-3.256-28.4-3.075,22.613-2.985,45.407-.181,64.492,12.3A124.372,124.372,0,0,1,223.574,42.7a145.267,145.267,0,0,1,16.914,25.688q2.849,5.291,5.427,10.854ZM128.6,17.645l-2.623.724a114.06,114.06,0,0,0-22.432,5.608l-6.784,2.171,1.99-1.447,6.965-3.347c25.6-10.583,53.276-15.558,79.778-5.246C166.861,11.4,147.323,13.3,128.6,17.645ZM152.389,7.6A120.663,120.663,0,0,0,115.846,14.3q5.065-2.533,10.221-4.613A163.717,163.717,0,0,1,152.389,7.6ZM6.309,143.463a129.529,129.529,0,0,0-.633,15.648C1.7,143.1.792,126.458,5.224,110.358,12.008,85.755,27.384,63.414,46.2,46.5s44.14-29.035,70.371-34.914a134.957,134.957,0,0,0-14.11,7.869A234.541,234.541,0,0,0,70.439,36.64,139.929,139.929,0,0,0,40.681,61.514,123.286,123.286,0,0,0,7.3,129.624a97.057,97.057,0,0,0-.995,13.839Zm5.7.814q-.452,2.8-.814,5.7a97.96,97.96,0,0,1,.724-18.362,100.134,100.134,0,0,0,.09,12.663ZM8.39,167.071c-.09-1.085-.181-2.171-.181-3.256a94.069,94.069,0,0,0,2.08,9.769q-.9-2.352-1.719-4.794a12.359,12.359,0,0,1-.181-1.719Zm38.261,77.788c-10.583-10.673-21.437-20.532-28.04-34.281-4.7-9.95-7.417-21.527-9.045-32.834q1.9,4.613,3.98,9.045c5.789,23.246,19.176,44.5,36.633,60.874l3.8,3.437.995,1.447q-4.342-3.709-8.412-7.688ZM75.324,263.4q-3.889-2.261-7.6-4.884a129.889,129.889,0,0,1-13.477-10.673c-.9-1.447-1.809-2.985-2.714-4.523a108.18,108.18,0,0,0,25.96,19.718ZM52.982,240.97a81.9,81.9,0,0,1-5.879-6.693l-.814-1.809A159.284,159.284,0,0,0,64.56,247.935c2.261,2.261,4.523,4.432,6.874,6.513l6.422,5.427a99.225,99.225,0,0,1-24.874-18.9Zm25.146,24.06,1.99-.543q3.8,1.9,7.869,3.528l5.427,4.342a130.52,130.52,0,0,1-15.286-7.327Zm19.085,6.06a96.86,96.86,0,0,0,10.583,2.352,108.182,108.182,0,0,0,11.4,4.794,93.352,93.352,0,0,1-11.578-1.176Q102.369,274.347,97.213,271.09Zm45.859,20.623c-12.121-.9-23.7-5.246-34.462-11.4,12.663,6.422,26.231,10.764,40.161,11.487h3.075A80.135,80.135,0,0,1,143.072,291.713Zm114.964-75.979A165.617,165.617,0,0,1,223.664,259.6a147.543,147.543,0,0,1-12.3,9.95c-23.97,16.643-52.733,24.784-81.226,16.643a114.611,114.611,0,0,1-11.035-3.889,122.11,122.11,0,0,0,28.221,1.719,75.89,75.89,0,0,0,28.04-1.447c15.015-3.708,28.4-12.3,40.432-21.8q6.422-5.065,12.3-10.583a149.969,149.969,0,0,0,32.743-40.341C259.936,211.845,259.031,213.744,258.036,215.734Zm2.08-55.537a120.3,120.3,0,0,0-.995-13.206,120.2,120.2,0,0,0-.9-18.723q1.809,5.7,3.075,11.487A96.422,96.422,0,0,1,260.116,160.2Zm.9,9.588q-.724,4.794-1.9,9.407c.181-1.447.362-2.985.543-4.432a47.691,47.691,0,0,1,1.357-5.065Zm6.965,16.824a110.264,110.264,0,0,1-6.965,16.281,116.409,116.409,0,0,0,7.96-22.975c-.362,2.171-.633,4.342-1.085,6.6Zm-2.533-7.96a111.525,111.525,0,0,0,1.085-15.739c.09-2.623.181-5.156.181-7.779a107.457,107.457,0,0,1-.995,21.889,12.328,12.328,0,0,0-.362,1.538Zm7.869-19.9c-.181,3.347-.543,6.693-.995,10.04a120.018,120.018,0,0,0-.724-13.749c-.271-16.01-4.251-32.291-10.673-47.578A176.737,176.737,0,0,0,255.5,88.83c10.854,21.618,18.9,46.221,17.728,69.919Zm.452-24.693a200.782,200.782,0,0,0-34.01-76.974A108.361,108.361,0,0,0,218.69,33.293,88.2,88.2,0,0,0,186.851,12.58a81.044,81.044,0,0,0-11.94-3.347c3.347.543,6.6,1.085,9.769,1.9,52.191,12.211,87.376,64.311,91.989,115.959a134.231,134.231,0,0,1-1.357,34.372,100.854,100.854,0,0,0-1.628-27.407Z" transform="translate(-140 -147.125)" fill="#87c0bd"/>
    </g>
  </g>
</svg>
