<svg xmlns="http://www.w3.org/2000/svg" width="415.969" height="153.875" viewBox="0 0 415.969 153.875"><defs><style>.a{fill:#87c0bd;}</style></defs><g transform="translate(-3964.327 79.164)"><path class="a" d="M4042.667-16.507a5.684,5.684,0,0,1,.287,4.254,1.134,1.134,0,0,1-.534-.886,2.284,2.284,0,0,0-.674-1.244,1.283,1.283,0,0,0-1.135.711l-.072.708a3.606,3.606,0,0,1,1.139,1.066,14.782,14.782,0,0,1,.358,5.317,9.018,9.018,0,0,0,.071,3.727,19.192,19.192,0,0,0,.718,2.657q1.418,3.55.143,5.672a12.655,12.655,0,0,0-.352,2.657,10.488,10.488,0,0,1-.561,3.019l-1.413,8.863c-.14.237-.284.474-.424.708a1.238,1.238,0,0,0,.072,1.063,1.165,1.165,0,0,0,.39.533c.165.122.105.415-.175.883a1.8,1.8,0,0,0-.639-.708c-1.185,0-1.534.592-1.06,1.774a4.61,4.61,0,0,1-1.487,4.254l-4.107,5.672-.355,1.774a5.982,5.982,0,0,0-3.044,3.016,15.959,15.959,0,0,1-2.192,3.368,27.7,27.7,0,0,0-4.465,5.672,9.318,9.318,0,0,0-2.832,3.546c.237,1.185-.5,2.008-2.195,2.482a2.721,2.721,0,0,1-1.7,1.06c-.851.24-1.581.48-2.195.711l-1.914,1.419q-1.844,2.484-6.737,1.771l-4.465.355a11.784,11.784,0,0,1-4.859-1.063c-1.587-.711-2.66-1.179-3.227-1.419q-5.75-2.835-8.09-6.028-1.779-1.768-5.748-5.495A17.941,17.941,0,0,1,3974,37.738h-.708l-.638-.708c.139-.234.09-.356-.141-.356l-.287-.708-.708-1.774L3970.24,31a15.038,15.038,0,0,0-1.634-3.19,19.582,19.582,0,0,1-.85-3.9c-.434-1.653-.9-3.424-1.429-5.317s-.995-3.661-1.422-5.32a35.223,35.223,0,0,1-.219-4.961A29.577,29.577,0,0,0,3964.328,3l.7-5.32.776-7.8q.07-2.479,2.052-2.841a3.39,3.39,0,0,1-1.275-1.419,6.778,6.778,0,0,0,.811-2.835c.116-1.179.2-2,.246-2.482a24.783,24.783,0,0,1,2.617-8.5,4.718,4.718,0,0,0,1.166-2.838c.114-1.179.2-2.005.246-2.482a6.043,6.043,0,0,1,.318-1.419,4.647,4.647,0,0,0,.034-2.127l1.843-2.482c.137-.234.564-.355,1.273-.355l-.281-.708a4.714,4.714,0,0,1-.04-3.19,11.546,11.546,0,0,1,.954-2.482,34.617,34.617,0,0,1,3.323-6.739,8.2,8.2,0,0,0,.779-2.482l1.984-3.9a7.186,7.186,0,0,0,2.123-3.546q.422-.706-1.636-3.19a9.155,9.155,0,0,1-.46-1.6c-.122-.589-.7-1-1.74-1.241-.24,0-.5-.356-.782-1.06q-.992-2.479-.355-3.549a3.335,3.335,0,0,1,2.13,0l1.843,1.067a3.211,3.211,0,0,0-.355.882,1.971,1.971,0,0,0,.143,1.241l4.825,3.193a3.12,3.12,0,0,1,1.631-.352l-.356-1.778,5.461.356a34.139,34.139,0,0,0,5.323,5.32,2.368,2.368,0,0,0-.817.175c-.3.122-.293.3.037.533q1.067,1.778,2.486,4.431a10.278,10.278,0,0,0,3.763,4.079q1.838,1.062,8.8,6.025l1.492,1.063.78,1.066.567-.355-1.346-.711.068-.708a9.841,9.841,0,0,1,4.4,3.9l1.562,2.13a24.973,24.973,0,0,0,5.043,5.495c2.126,1.771,3.4,2.9,3.83,3.371a3.747,3.747,0,0,1,.143,1.238c0,.592.406,1.01,1.209,1.244q4.964,1.777,6.313,6.025a1.685,1.685,0,0,0,.639.711,2.317,2.317,0,0,1,.782,1.063h-1.063l.639,2.479a3.927,3.927,0,0,0,1.419,1.771,2.512,2.512,0,0,0-.136,3.19A.8.8,0,0,1,4041-15.8a.787.787,0,0,0,.742-.356,8.854,8.854,0,0,0-1.351-2.482h1.064Zm-8.36,10.989s.2-.53.6-1.594a3.755,3.755,0,0,0-.468-3.371,9.012,9.012,0,0,0-.071-4.606c-.431-1.653-.736-2.716-.926-3.193l-.5-2.127a8.606,8.606,0,0,0-2.984-3.9l.786,2.835h-1.419q.42,1.062,1.131,1.063c-.991.477-1.3,1.771-.913,3.9a24.35,24.35,0,0,0-1.059,7.091q-1.49-1.062-.852-2.13a21.156,21.156,0,0,0-.077-6.38,68.453,68.453,0,0,1-1.213-9.218,6.487,6.487,0,0,0-.64-2.479,5.677,5.677,0,0,0-2.061-2.482,65.712,65.712,0,0,0-6.175-3.9,58.059,58.059,0,0,1-5.671-3.546l-5.963-4.254a6.269,6.269,0,0,0-3.4-1.419l-3.116,6.383q-2.975,4.968-3.188,7.088a8.27,8.27,0,0,1-1.589,3.549,8.166,8.166,0,0,0-1.591,3.543q.064,1.066-2.408,6.38a2.026,2.026,0,0,0-.352,1.774q-.356,0,.038.533c.258.352.314.652.177.886-.708,0-.914.237-.6.7s.387.833.246,1.066a1.564,1.564,0,0,1-.458,1.063,1.578,1.578,0,0,0-.461,1.063q0,3.55-1.554,4.965c-.143.24-.287.477-.427.708a2.337,2.337,0,0,1,.782,1.067,2.322,2.322,0,0,1-.171,1.771,6.021,6.021,0,0,0-.533,1.774,9.251,9.251,0,0,1-.564,3.9,9.136,9.136,0,0,0-.564,3.9c.1.24,0,.592-.283,1.063q-1.063,1.778.432,4.609a4.029,4.029,0,0,0-1.7,3.72,8.094,8.094,0,0,1-.423,3.371,4.248,4.248,0,0,0-.527,1.771c-.073.708-.131,1.3-.178,1.771l1.282,4.965,1.138,6.383.287.708q.565,1.422,3.193,1.774.565-.351.916-2.127a5.421,5.421,0,0,0,2.841,1.771l-2.553.711a7.15,7.15,0,0,0,1.917.352c.467,0,.8-.352.991-1.063.329-.939.868-1.063,1.628-.356h1.063a16.158,16.158,0,0,0,5.1-3.19,125.686,125.686,0,0,0,11.192-10.992,69.69,69.69,0,0,1,5.523-5.669,3.754,3.754,0,0,1,.82,1.6c.022.352-.084.53-.318.53a26.644,26.644,0,0,0-1.877,1.949,3.161,3.161,0,0,0-.882,2.657,12.322,12.322,0,0,0-4.609,3.549,5.189,5.189,0,0,0,2.978-1.419,13.352,13.352,0,0,0,1.631-2.13l1.771,1.771h-.353a2.407,2.407,0,0,0-2.2,1.6q-.783,1.6-1.84,1.594c-1.323.24-2.794,1.3-4.394,3.19a3.536,3.536,0,0,1-1.7,1.952,5.636,5.636,0,0,0-1.842,1.6,12.786,12.786,0,0,0,4.252,0,14.2,14.2,0,0,0,2.2-4.257,7.886,7.886,0,0,1,.779,2.838c-.236,0-.443-.231-.636-.711l-.564,2.13c.939,0,1.344-.471,1.2-1.419.474,0,.779-.115.923-.356a37.742,37.742,0,0,1,7.225-6.739l2.692-3.9a25.224,25.224,0,0,0,2.376-3.368,5.318,5.318,0,0,0,.663-4.076,4.88,4.88,0,0,1,1.352-1.063,28.881,28.881,0,0,0,3.607-7.8c.044-.471.191-1.3.425-2.482a1.968,1.968,0,0,1,2.124-1.774,4.815,4.815,0,0,0-.141-2.127,9.128,9.128,0,0,1,2.055.711l-.854-2.13a5.524,5.524,0,0,1-.567-3.19C4034.284-5.277,4034.307-5.517,4034.307-5.517ZM3987.9,35.256l.779,1.063c-.237,0-.3.122-.209.356l-.924-1.419Zm16.952,2.482a8.922,8.922,0,0,0-1.565-2.127c-.141.24-.45.355-.921.355-.427-.474-.792-.646-1.1-.53s-.444.53-.39,1.238l-3.334,1.416q-2.193.72-2.335,2.13a21.792,21.792,0,0,1,2.2.181,3.384,3.384,0,0,0,2.055-.181,4.681,4.681,0,0,1,1.559-.53c.663-.115,1.017-.412,1.064-.889Zm-3.371-.886a.969.969,0,0,0,.6.178,5.032,5.032,0,0,1,0,1.771l-1.207-2.127A1.036,1.036,0,0,1,4001.481,36.853Zm1.6,0c-.1.355-.377.533-.851.533a1.521,1.521,0,0,0,.14-1.419C4002.934,36.2,4003.168,36.5,4003.078,36.853Zm.555-87.041,1.632-.355-.568-1.416C4003.989-50.778,4003.633-50.189,4003.633-50.189Zm8.941,2.835h0Zm4.4,82.61a5.878,5.878,0,0,0-1.067-1.771,1.872,1.872,0,0,1-1.06,1.771Zm4.628-18.969a3.876,3.876,0,0,0,.6-1.59l.284.708a1.939,1.939,0,0,1,.04,1.419,6.118,6.118,0,0,0-.322,1.416h-1.06A3.237,3.237,0,0,1,4021.6,16.287Zm1.015-10.281a13.109,13.109,0,0,1,2.833-4.431l.139.355c.1,1.419-.112,2.367-.633,2.838a5.175,5.175,0,0,0-1.166,2.835,3.605,3.605,0,0,1-1.875,2.838A8.042,8.042,0,0,1,4022.617,6.005Zm.163,21.629a3.2,3.2,0,0,1,.355-.886l-1.2,1.416C4022.4,28.165,4022.687,27.99,4022.78,27.634Zm11.258-21.448a1.269,1.269,0,0,0-.852,1.416,5.62,5.62,0,0,0,.213,1.419,1.346,1.346,0,0,1-.849.53,1.4,1.4,0,0,0-.852.533,10.527,10.527,0,0,0-1.131,4.254l-1.133.711-4.107,7.444a12.032,12.032,0,0,0-1.977,3.9c.989-.468,1.442-.823,1.345-1.06a15.253,15.253,0,0,0,1.38-1.419,10.369,10.369,0,0,0,1.026-1.419c.425-.708,1.1-1.824,2.019-3.368a9.73,9.73,0,0,0,1.448-4.787l2.832-5.317A2.22,2.22,0,0,0,4034.038,6.186Zm-7.871,2.482a.506.506,0,0,1,.5.352q.71,1.778-1.345,1.063Zm1.478-14.894-.639-.708.213-.355c.324.237.661.477.991.708Zm1.279,4.961c.421.48.627.833.6,1.066a3.142,3.142,0,0,1-.459,1.063Zm1.831-16.662s-.05-.119-.144-.356a3.842,3.842,0,0,0,.852,2.127h-.708l-.711-1.771Z" transform="translate(-0.001 11.443)"/><path class="a" d="M4094.721-32.2a2.027,2.027,0,0,0-.355,1.771,16.171,16.171,0,0,1,.469,5.139,35.323,35.323,0,0,0-.032,4.79c-.139.237-.071.708.215,1.416-.047.477-.1.945-.14,1.419s-.1.945-.14,1.419a2.142,2.142,0,0,0-.781,2.482,10.162,10.162,0,0,1,.288,2.482l-.353,3.543a3.428,3.428,0,0,0-.136,3.193,25.858,25.858,0,0,1,.786,4.606,28.848,28.848,0,0,0,.5,3.9,15.914,15.914,0,0,1,.216,4.079,9.322,9.322,0,0,0,.573,4.079,3.319,3.319,0,0,0,.107,2.479,3.337,3.337,0,0,1,.107,2.482,43.085,43.085,0,0,0,1.142,6.38l.57,3.193a39.133,39.133,0,0,1,2.377,5.495c.5,1.544.938,2.782,1.316,3.723A4.953,4.953,0,0,1,4105,41.2l-.14-.355c-.328.945.258,2.127,1.773,3.546q3.756,3.19,4.332,6.38l-3.187,1.771-3.621-1.06-1.7-.711a29.706,29.706,0,0,1-7.88-6.38q-4.391-5.669-6.39-8.866A38.614,38.614,0,0,1,4085,30.2q-1.637-3.185-2.2-4.606a1.082,1.082,0,0,1-.43-1.066,3.871,3.871,0,0,0-.355-1.771q-1.848-1.062-1.562-3.9l-2.626-2.127,1.349-1.067-.357-1.771a4.285,4.285,0,0,1-.783-2.835,3.749,3.749,0,0,1-.144-1.244c0-.586-.476-.886-1.419-.886-.33-.231-.358-.583-.074-1.063a11.226,11.226,0,0,0-.146-3.9,2,2,0,0,1-.531-1.771c.166-.471.6-.711,1.311-.711-.852-.939-.787-1.65.212-2.124l-1.74-1.241c-.5-.355-.915-.652-1.24-.889l.07-.708,1.56.356-.213-1.419h-2.13l2.2-2.482-1.207-.356a30.086,30.086,0,0,1,.136-6.739c-.279-.708-.068-1.06.64-1.06l-1.351-2.482L4075.3-20.5a3.157,3.157,0,0,0-1.631.352,10.676,10.676,0,0,0,.073-3.368,4.805,4.805,0,0,1,.985-3.723l-1.559-.352-2.548,4.254-2.55,4.254a39.615,39.615,0,0,0-1.731,4.961,19.494,19.494,0,0,1-1.877,4.612,32.621,32.621,0,0,0-.988,3.723,11.634,11.634,0,0,1-1.132,3.365c-.238,0-.39.359-.458,1.067a1.545,1.545,0,0,1-1.029,1.416c-.378.24-.472,1.188-.282,2.838a14.487,14.487,0,0,1-2.331,7.447l-.708,3.546-1.341,2.838c.093.237.019.352-.214.352a7.257,7.257,0,0,1-.281,3.723,16.916,16.916,0,0,0-.776,3.368,45.59,45.59,0,0,1-1.337,8.155q-.207,2.128-2.324,14.538a9.21,9.21,0,0,0-.5,2.3q-.278,1.951-2.975,2.3-1.487.716-2.2,4.254h.355l-.28,2.838a.645.645,0,0,0-.567.352c-.141.24-.285.48-.424.711a4.684,4.684,0,0,1,1.418.886,1.586,1.586,0,0,0,.924.533l.926,3.19a3.979,3.979,0,0,1-1.986.355,5.1,5.1,0,0,1-3.547-1.774,14.056,14.056,0,0,0-2.73-1.952,7.125,7.125,0,0,1-2.38-1.949,3.163,3.163,0,0,0-1.7-.708,2.307,2.307,0,0,0-.778-1.063l-.5-.352-.071-1.066a24.736,24.736,0,0,1-5.539-6.736,9.6,9.6,0,0,0-1.849-2.835,7.873,7.873,0,0,1-.314-1.241,1.733,1.733,0,0,0-1.388-1.241,60.057,60.057,0,0,1-3.053-6.739,56.559,56.559,0,0,0-3.483-9.574,9.749,9.749,0,0,1-.677-3.012,4.985,4.985,0,0,0-.887-2.66c-.335-.231-.41-.708-.216-1.416a1.559,1.559,0,0,0-.71-1.774,5.516,5.516,0,0,1-.571-3.19,73.25,73.25,0,0,1-1.107-8.51,74.312,74.312,0,0,0-1.107-8.51,7.8,7.8,0,0,1,.212-1.238,7.774,7.774,0,0,0,.209-1.244l1.407-15.954c.044-.474.147-1.241.318-2.3a13.134,13.134,0,0,0,.175-2.66.753.753,0,0,1,.069-.711.645.645,0,0,1,.567-.355q1.342-1.057.206-3.9a30.3,30.3,0,0,1,.742-3.016c.258-.823.483-1.593.672-2.3l.425-2.482a14.457,14.457,0,0,1,.742-2.124,7.342,7.342,0,0,0,.458-2.841,15.3,15.3,0,0,1,1.269-7.444l1.343-6.383a25.2,25.2,0,0,0,1.976-5.669l.773-7.8c-.049-.711-.071-1.36-.071-1.952a2.534,2.534,0,0,1,.213-1.241,7.925,7.925,0,0,0,3.474-1.063l3.193,3.546a5.626,5.626,0,0,0,1.419,1.771,2.144,2.144,0,0,1,.854,2.13,5.049,5.049,0,0,1,1.172,1.594,4.975,4.975,0,0,0,1.169,1.6c.521.708,1.039,1.419,1.563,2.127a21.251,21.251,0,0,0,1.423,1.768,2.817,2.817,0,0,1,.85,1.244,2.7,2.7,0,0,0,.848,1.238l.147.359c1.932.708,3.1,1.54,3.477,2.482s.24,2.364-.42,4.254l.143.355a2.032,2.032,0,0,1-.356,1.771,1.778,1.778,0,0,0,.144,2.127l-1.556,6.739a18.916,18.916,0,0,0-.777,3.365,8.19,8.19,0,0,1-.917,3.015c-.283.477-.1.948.568,1.419-.14.237-.319.53-.531.886a2.624,2.624,0,0,1-.885.889c-.237,0-.309.122-.212.355a43.729,43.729,0,0,1-.989,6.38l-.633,4.606a1.889,1.889,0,0,0-1.059,1.774c-.1.945-.168,1.656-.213,2.127a26.673,26.673,0,0,0-.776,4.254c-.136,1.422-.327,2.722-.561,3.9-.524,1.659-.893,4.849-1.126,9.574l-.212,3.9q-.132,8.509.155,12.764h-1.417l-.569.355a6.746,6.746,0,0,1,2.343,1.416q-.561,3.906,1.427,12.408l.144.355,1.974-10.992,2.049-8.152a7.483,7.483,0,0,1,1.134-2.482l-.14-.352A74.922,74.922,0,0,1,4043.91,1.13l1.207.352-.143-.352a2,2,0,0,1-1.207-.355l1.2-3.193q-.145-2.124,2.051-8.152a4.464,4.464,0,0,0,.387-1.241,1.8,1.8,0,0,1,.746-1.244l0-1.771h1.064l.214-.352-1-.711a18.674,18.674,0,0,0,2.192-6.025,7.223,7.223,0,0,1,.921-1.241,5.7,5.7,0,0,0,.711-.886,5.045,5.045,0,0,1,1.771,1.771c-1.131.711-1.691,1.241-1.663,1.6a12.691,12.691,0,0,0,1.386,3.012h4.609c-.09-.231.043-.474.427-.711h1.064a2.773,2.773,0,0,1,0-1.771,12.251,12.251,0,0,0,.356-1.771l-1.563-2.127.846-1.419c.189-.711.993-1.063,2.413-1.063-.237,0-.783-.471-1.634-1.419h1.774a.974.974,0,0,0,0-.886.952.952,0,0,1,0-.886l4.464-.355a3.75,3.75,0,0,0-1.985-1.419,2.521,2.521,0,0,1,1.31-.708q1.1-.351-.178-1.774l-.923.355h-.355l1.487-2.482a7.173,7.173,0,0,1,1.63-2.127h.706L4066.57-36.1a2.744,2.744,0,0,0,1.839-1.6,7.178,7.178,0,0,0,.564-3.012,2.748,2.748,0,0,1,1.559.352q-.993-2.474.605-3.365a6.257,6.257,0,0,0,1.8-1.241l.358,1.771a2.071,2.071,0,0,0-1.843,2.482,6.281,6.281,0,0,1,1.983-2.13,11.474,11.474,0,0,0,1.344-4.606,2.608,2.608,0,0,0-.889-1.774,7.052,7.052,0,0,1-1.1-1.416l.212,1.416-1.767,1.774c-.094.948-.853,1.416-2.27,1.416q-2.485,0-3.191,1.771a1.5,1.5,0,0,1-1.022.536,1.545,1.545,0,0,0-1.029.53,3.639,3.639,0,0,1,1.166-2.838,9.457,9.457,0,0,0,1.382-1.416,9.268,9.268,0,0,1,2.479-1.774c.471,0,.757.125.851.355a2.672,2.672,0,0,1,.993-2.838,7.594,7.594,0,0,0,1.77-1.774l.142.359a1.59,1.59,0,0,1,1.49-.711,3.373,3.373,0,0,1,1.631.533,15.061,15.061,0,0,0,1.771.886,3.777,3.777,0,0,0-1.839.708,5.6,5.6,0,0,1,1,1.6,2.683,2.683,0,0,0,.848,1.241l1.986-.355a4.889,4.889,0,0,0,2.13.889,2.911,2.911,0,0,1,1.915,1.238.5.5,0,0,0,.5.356,2.136,2.136,0,0,1,2.092.356q.818.711,1.313,1.063a3.17,3.17,0,0,1-1.556,1.419,25.636,25.636,0,0,1,3.012.886,3.319,3.319,0,0,1,2.021,1.949,21.186,21.186,0,0,0,1.812,3.19,13.594,13.594,0,0,1,1.884,4.257Zm-46.28,26.058c.237.592.406,1.007.5,1.241a1.97,1.97,0,0,1-.143-1.241,3.338,3.338,0,0,1,.352-.886C4048.442-7.025,4048.207-6.722,4048.442-6.139Zm1.914-3.187a10.794,10.794,0,0,1-.568,1.238,2,2,0,0,0,1.207.352c.939,0,1.2-.823.779-2.482A1.381,1.381,0,0,0,4050.356-9.326Zm1.356,11.339a1.473,1.473,0,0,0-.071-1.949c-.758.48-1.161.951-1.207,1.419a3.909,3.909,0,0,0,.356,1.774C4050.93,3.026,4051.242,2.608,4051.713,2.012Zm.92-3.009s-.312-.471-.927-1.422l.147,2.13Zm-.147-3.9a1.484,1.484,0,0,0-.708.889c-.1.352.119.886.64,1.59A2.109,2.109,0,0,0,4052.486-4.9Zm5.731-11.345a.5.5,0,0,1-.5-.355,3.09,3.09,0,0,0-1.313.708,2.053,2.053,0,0,0-.738,2.13l-2.274-.359-.919.359-.353,1.771h1.772a4.86,4.86,0,0,0,.218,2.3,8.538,8.538,0,0,0,1.631,2.3,2.2,2.2,0,0,0-.389-1.416,2.159,2.159,0,0,1-.395-1.422l1.348-1.06a12.919,12.919,0,0,1-.287-2.482A7.256,7.256,0,0,0,4058.217-16.243Zm-4.191-7.8h-1.771c.377-.234.447-.352.212-.352-.187-.474.007-1.007.6-1.6a2.462,2.462,0,0,0,.811-1.949c-.285-.711.326-1.534,1.839-2.482a7.532,7.532,0,0,0,1.136-2.482,3.14,3.14,0,0,0,.923,1.419l-.284,1.063-.707,1.771.358,1.777-.073.7-.14-.352-2.2,2.482Zm-.066,3.368a1.935,1.935,0,0,0,.209-1.241c.474,0,.758.122.854.355l-.28,2.835Q4053.6-19.792,4053.961-20.674Zm.209-1.241c.14-.237.094-.355-.144-.355h.359Zm2.663,2.657c-.168-.115.082-.53.743-1.238a7.193,7.193,0,0,0,1.209,2.124A15.4,15.4,0,0,1,4056.833-19.258Zm3.144-14.713-3.122,1.063,3.471-6.38,1.559-1.419,1.207,2.127h.352a2.662,2.662,0,0,1-.849,3.19l-1.344,2.838A3.408,3.408,0,0,1,4059.977-33.971Zm-1.772,3.546-.427-1.063,2.2,1.063c-.615.24-.925.948-.92,2.13l-.927-1.419.425-.711Zm4.191,6.031a1.153,1.153,0,0,0-.745.352c-.26.237-.344.474-.247.708C4061.636-23.334,4061.97-23.687,4062.4-24.394Zm1.332-15.249.144.356-.427.708Zm1.912-1.419.639.708-1.132.711L4065-40Zm4.535-6.38s-.085-.056-.25-.178a1.106,1.106,0,0,1-.39-.533l-.636,1.063c.8.237,1.157.237,1.064,0Z" transform="translate(103.845 10.115)"/><path class="a" d="M4125.24-52.218s.33.53,1,1.594,1.3,2.071,1.917,3.012a9.183,9.183,0,0,0-.069,2.482,5.172,5.172,0,0,0,0,1.771,28.672,28.672,0,0,0-2.965,12.059,7.984,7.984,0,0,0-.848,4.073c0,1.777-.041,3.14-.138,4.082a3.369,3.369,0,0,1-.492,1.419,3.321,3.321,0,0,0-.5,1.416c.094.24.592.592,1.494,1.066l-1.986.352a21.254,21.254,0,0,1,.211,3.19l-.065,6.028a37.725,37.725,0,0,0,.255,6.38,39.119,39.119,0,0,1,.256,6.383,14.434,14.434,0,0,0,.177,3.546,14.8,14.8,0,0,1,.181,3.543,11.687,11.687,0,0,0,.926,3.193,1.438,1.438,0,0,1,.287,1.594,1.959,1.959,0,0,0-.214,1.244,16.5,16.5,0,0,0,1.063,3.546l.715,3.543a4.489,4.489,0,0,0,.424,1.949,4.475,4.475,0,0,1,.43,1.952,4.451,4.451,0,0,0,.427,1.949,4.5,4.5,0,0,1,.427,1.952,6.875,6.875,0,0,1,1.563,3.9l.854,2.127a53.079,53.079,0,0,0,4.76,9.221l.283.708a15.457,15.457,0,0,0,2.451,3.9q1.732,2.128,2.523,3.19a2.5,2.5,0,0,1-1.313.708q-1.1.36.181,1.774l1.275,1.419h-2.125a10.96,10.96,0,0,1-4.257-.886,34.2,34.2,0,0,1-3.977-1.952,13.282,13.282,0,0,1-2.551-2.835q-1.141-1.066-4.117-4.079a37.021,37.021,0,0,1-4.827-5.85l-.428-1.063.212-.356a.5.5,0,0,1-.495-.352l.212-.359-1.207-.352a18.2,18.2,0,0,0-1.846-2.838q-1.568-2.124-.855-3.9a11.032,11.032,0,0,1-3.2-4.431c-.707-1.771-1.207-3.016-1.49-3.72q.211-.355-.32-1.244c-.359-.586-.225-1,.39-1.238q-2.128,0-2.2-2.838a17.222,17.222,0,0,1-1-3.368,23.63,23.63,0,0,1-.358-2.66c-.618-.942-.854-1.534-.711-1.771a1.405,1.405,0,0,1,0-.889c.09-.355-.124-.889-.639-1.594a7.715,7.715,0,0,1-.814,1.949,3.224,3.224,0,0,0-.459,1.949h-.355a3.5,3.5,0,0,1,1.134,1.067l-2.762,1.06a1.013,1.013,0,0,1,.993.711,20.477,20.477,0,0,1-4.534,8.155c-.421.711-.355,1.185.216,1.416.38.951.212,1.419-.493,1.419-.24,0-.384-.352-.427-1.06-.193.708-.229,1.06-.107,1.06h.535l-2.056,2.838a33.065,33.065,0,0,0-3.963,7.8l-2.483,1.774A10.5,10.5,0,0,1,4087,42.09q-1.734,1.422-2.512,2.127a1.513,1.513,0,0,0-.922,2.13l-.919.352c-.571.948-1.712,1.481-3.44,1.6a11.685,11.685,0,0,0-4.076.886,4.543,4.543,0,0,1-3.545,0c-.8-.231-1.988-.53-3.55-.886a18.132,18.132,0,0,1-4.11-1.416,9.583,9.583,0,0,1-3.2-2.663,23.094,23.094,0,0,1-3.19-1.771,32.554,32.554,0,0,1-6.249-8.51l-6.464-13.472-.218-1.419a.4.4,0,0,1,.143-.533c.187-.115.162-.175-.068-.175a3.162,3.162,0,0,1-.926-1.419,4.755,4.755,0,0,1-.145-2.127,15.483,15.483,0,0,0,.072-2.482c-.053-.711-.23-2.183-.536-4.431a10.24,10.24,0,0,1,.456-5.5,30.981,30.981,0,0,0,.916-5.672c-.186-.471-.094-2.005.278-4.612a12.856,12.856,0,0,0,.992-2.832,10.725,10.725,0,0,1,.352-1.771,12.605,12.605,0,0,0,.356-1.771,2.021,2.021,0,0,1,.349-1.777,4.479,4.479,0,0,0,.708-1.771l1.484-4.254a2.036,2.036,0,0,1,.355-1.774,1.48,1.48,0,0,0,.706-.889,3.413,3.413,0,0,1,.355-.883,3.927,3.927,0,0,1,.6-1.6,1.765,1.765,0,0,0,.247-1.594c-.191-.471.09-.939.847-1.419a30.617,30.617,0,0,1,3.612-7.8c.376-.234.664-.405.851-.53a1.591,1.591,0,0,0,.494-.533l1.346-2.838-.143-.352q.918-2.128,4.885-6.383a21.669,21.669,0,0,1,7.155-6.025,8.811,8.811,0,0,1,2.557-.708,14.519,14.519,0,0,1,3.827.708c1.843.474,3.076.592,3.689.355-.19-.471.281-.471,1.419,0l5.388,2.835a18.852,18.852,0,0,1,2.91,1.949c1.044.833,1.728,1.363,2.061,1.6.564.237,1.075.474,1.521.7a3.662,3.662,0,0,0,1.741.359h.71a9.357,9.357,0,0,1,5.1,2.124l1.705.711a6.481,6.481,0,0,0,.6-2.482,2.165,2.165,0,0,1,1.8-2.127l-.283-.708a6.089,6.089,0,0,1,.562-5.672c.941-1.182,1.038-2.713.276-4.609a3.875,3.875,0,0,0,.64-1.952,14.5,14.5,0,0,1,.069-1.593l.919-.352a3.467,3.467,0,0,1,2.342,1.416,6.719,6.719,0,0,0,2.127,1.771h-1.771q2.974.36,6.526,3.9a2.441,2.441,0,0,1-.144-2.124,10.9,10.9,0,0,1,1.064.882,12.375,12.375,0,0,1,1.35,1.6l1.843-.711,3.053,3.19Zm-75.812,65.59-.14-.355c.1.24.019.355-.212.355a2.49,2.49,0,0,0-.882,2.657,9.511,9.511,0,0,0,1.313,3.727l-.431-6.383Zm-.345,8.866-.141-.356-.567.356.643.708Zm.7-14.183a1.338,1.338,0,0,0-.286,1.063h.354Zm.283-1.063s.137-.234.425-.711c-.24,0-.288-.115-.144-.355l-.636,1.067Zm.122-22.693s.187.477.564,1.422a2.291,2.291,0,0,1,.779-.711c.378-.234.353-.586-.071-1.066a1.325,1.325,0,0,0,.284-1.063.51.51,0,0,0-.5-.352c.287.711.356,1.185.216,1.416C4050.607-15.816,4050.186-15.7,4050.186-15.7Zm.281,2.482h.358l-.285-.708Zm1.151,11.7h-.359l.219,1.419a1.662,1.662,0,0,0-.425,2.482L4051.83-.1Zm1.27-5.672.564-2.127C4052.74-8.136,4052.554-7.425,4052.887-7.194Zm.13-12.05.069-.711-.213.355Zm.646,9.57q1.627-.351,1.452-1.241a7.933,7.933,0,0,0-.32-1.241c.521-.471.448-.945-.213-1.416l.213,1.416Zm1.05-14.183.144.355.565-.355.426-.708h-.354l-.64-.711-.071.711C4054.495-24.086,4054.477-23.856,4054.713-23.856Zm26.843,42.192.568-.356a9.392,9.392,0,0,1,2.691-2.127,3.44,3.44,0,0,1-1.135-1.063q-1-.706-1.064,0c-.046.477-.193.708-.426.708-1.083-.939-1.42-1.771-.993-2.482l3.115-2.838.784,1.066a2.393,2.393,0,0,0-.784-1.066l.284-1.06,2.271,2.127-1-4.254c-.09-.234.022-.533.356-.886a5.215,5.215,0,0,1,1.063-.889l-.144-.356a2.3,2.3,0,0,0,.779,1.063,2.848,2.848,0,0,0-.531,1.771,2.761,2.761,0,0,0,.746,1.422l.5-1.422c.141-.231.442-.352.923-.352H4088.5l-.283-.708-.642-2.482V2.38a25.912,25.912,0,0,1,2.9-6.025.7.7,0,0,0,.779-.711,2.475,2.475,0,0,0-.074-1.067,1.793,1.793,0,0,1,.741-1.238,3.888,3.888,0,0,0,.889-.886,9.53,9.53,0,0,0,.493-2.3,3.159,3.159,0,0,1,2.124-2.657l.567-.355a3.416,3.416,0,0,1-1.131-1.063l1.553-3.193,2.335-5.672a2.981,2.981,0,0,1-.215-1.416,3.989,3.989,0,0,0-.356-1.774l-2.77-7.8-2.916-6.383a62.545,62.545,0,0,0-6.24,2.127,19.944,19.944,0,0,0-5.669,3.546,55.36,55.36,0,0,0-5.807,6.736,28.935,28.935,0,0,0-2.832,4.431q-1.423,2.662-2.264,4.082-3.331,8.509-3.824,9.923a12.592,12.592,0,0,0-.67,2.308,3.839,3.839,0,0,0,1.315,3.72,24.5,24.5,0,0,0-.529,2.663,15.686,15.686,0,0,1-.955,3.365l-.851,1.419.286.708c.284.711-.025,1.419-.92,2.13l-.071.7a2.243,2.243,0,0,0,.462.711,1.357,1.357,0,0,1,.249,1.067,5.211,5.211,0,0,0-.564,2.124c-.1.948-.331,1.544-.709,1.774q-1.987,2.128-.421,4.257,1.277,3.19-1.983,3.9l-.07.711a1.783,1.783,0,0,1,1,1.594,1.753,1.753,0,0,0,.991,1.6,11.229,11.229,0,0,0,0,1.771,11.393,11.393,0,0,1,0,1.774l.858,3.9,4.533-2.835-1.347-.708c.043-.471.188-.711.425-.711a.647.647,0,0,0,.567-.352l1.983,1.416-.563-1.416a1.238,1.238,0,0,0,.5-1.419,5,5,0,0,0,2.339-.356,1.48,1.48,0,0,0,.7-.886,3.523,3.523,0,0,1,.356-.889,5.064,5.064,0,0,0,1.169-1.06c.4-.474,1.12-.589,2.161-.359l1.987-2.124q-1.212-2.128-.148-2.13l.927,1.419L4080,17.981l1.417,1.774C4081.507,18.814,4081.557,18.337,4081.557,18.337Zm-11.793,15.243a6.993,6.993,0,0,1,.96-.708,3.5,3.5,0,0,0-1.282-1.416q-2.2.711-.78,2.479A1.575,1.575,0,0,0,4069.764,33.579Zm5.807-8.5c.026-.237.059-.589.1-1.067q-1.837.716-.351,1.771A1.7,1.7,0,0,0,4075.57,25.075Zm4.282-9.221-.143-.355a1.811,1.811,0,0,0,.57,1.419l.14.355h-.352c-.665-.471-.855-.942-.568-1.419Zm.864,10.992h.354c-.336-.234-.43-.471-.286-.708-.615.237-.827.593-.64,1.06l.146.359C4080.573,27.084,4080.716,26.847,4080.716,26.847Zm4.381-90.765a9.514,9.514,0,0,1,1.484-.711,2.519,2.519,0,0,0,1.351-1.063L4088-66.4a8.352,8.352,0,0,0,3.328-3.193l1.2-1.419a1.564,1.564,0,0,1,.495-.53,1.549,1.549,0,0,0,.5-.533c-.328-.231-.34-.409-.036-.53s.415-.293.32-.53l.781-.711.21-.352a5.671,5.671,0,0,1,1.416-1.777l.636-1.06a1.282,1.282,0,0,1,.852-1.422c.468,0,.717-.115.741-.352a.353.353,0,0,1,.391-.352l.854.352c.328.237.527.3.6.181s.272-.059.6.171a5.745,5.745,0,0,0,1.528.711,6.244,6.244,0,0,0,2.089.355,3.555,3.555,0,0,0,1.916.355l1.917.356.636.7c.515.711.64,1.3.356,1.777a.387.387,0,0,1-.141.533c-.19.119-.453.056-.782-.181h-1.06l-2.127,3.546c-.237,0-.306.122-.208.355s.016.352-.216.352c-.474,0-.944.6-1.416,1.774a2.138,2.138,0,0,1-.956.708.757.757,0,0,0-.458,1.067l-1.56,1.416-.779.711c-.236,0-.39.059-.458.175s-.182.3-.321.533a4.623,4.623,0,0,1-1.558,1.419,42.591,42.591,0,0,0-4.963,1.774c-.144.237-.471.3-.991.175s-.856-.053-1,.178a1.153,1.153,0,0,1-1.239,0,2.6,2.6,0,0,0-1.029-.352h-.353q-1.281.356-3.261-1.063l-.287-.711q.565-.351-.57-1.419Zm7.659,76.582-2.13-1.774-4.1,7.447c.094.24.019.355-.212.355l-.426.708a4,4,0,0,0-1.909,3.193c.374-.234,1-.589,1.874-1.066a1.9,1.9,0,0,0,1.241-1.771l-.285-.711a1.891,1.891,0,0,0,1.915-1.416,10.521,10.521,0,0,0,.632-1.952,3.41,3.41,0,0,1,2.268-2.3Zm4.958-7.091a12.79,12.79,0,0,1-2.557-1.063c.1.237.022.352-.212.352l1.135,1.063-.989,1.067a1.719,1.719,0,0,1-.639-.711.511.511,0,0,0-.5-.355,5.985,5.985,0,0,1-3.972-2.835q-1.774,1.777,1.137,2.835a6,6,0,0,0,1.88.711,9.183,9.183,0,0,0,2.093.356q-.431.711.285,2.482h-1.064l-1.911-.355.424,1.06h-.356L4094.1,11.6l1.273-2.124Zm-6.922-5.32a6.074,6.074,0,0,0-.529,1.774l1.136,1.063a5.347,5.347,0,0,0,.988-2.838l-.215-1.416A2.473,2.473,0,0,0,4090.792.253Zm11.8-8.158a9.39,9.39,0,0,0-3.261.711,4.363,4.363,0,0,0-.6-1.949,4.136,4.136,0,0,1-.6-1.949,4.883,4.883,0,0,0-2.626,1.419,2.322,2.322,0,0,0-.852,1.416,2.6,2.6,0,0,1-.279,1.063,1.556,1.556,0,0,0-.565,2.13l1.985-2.13q1.56-1.413,3.542,0l.075,2.838,2.9-2.482C4102.591-7.309,4102.687-7.662,4102.591-7.9Zm-.848,3.193-1.412,3.549c-.053-.711-.25-1.067-.605-1.067a2.087,2.087,0,0,0-1.1.355q-.856-.351-.923.352a2.443,2.443,0,0,0,.072,1.066l-.992,1.063h1.418l.212-.355,1.278-.356-.071.711a1.552,1.552,0,0,0-.567,2.127c1.138-.708,1.322-1.416.567-2.127Q4102.387-.458,4101.743-4.712Zm-4.263-10.634a3.231,3.231,0,0,1,.922,1.419l-.991,1.063.284.708c.708,0,1.135-.115,1.275-.352l-.568-1.419C4099.061-14.638,4098.756-15.105,4097.48-15.346ZM4098.7-4.356l-.639-.708h-.353Zm2.146-16.306a1.692,1.692,0,0,1-1.027-.359l-.991,4.612a.506.506,0,0,1,.5.352,1.279,1.279,0,0,1,.855-1.416l.282.711,1.415-3.549A1.786,1.786,0,0,0,4100.843-20.662Zm1.6,10.634a7.133,7.133,0,0,0-.6-1.063,3.624,3.624,0,0,1-.537-1.771l-1.843.708c-.284.477-.093.948.571,1.419h.352Q4100.389-8.964,4102.448-10.029Zm.864,12.764-.284-.708q.067-.706-.924-1.419l.924,1.419-3.118,2.835,1.7.711Zm-2.289-18.081.573,1.419c.329-.942.138-1.419-.573-1.419l-.283-.711S4100.839-15.816,4101.022-15.346Zm5.08-28.013-.493-.352-.571.352,1.21.359Zm-.321,31.914h-.358l.218,1.416h.352C4106.134-10.259,4106.066-10.736,4105.781-11.444Zm1.79,17.725-.991,1.063A.874.874,0,0,0,4107.571,6.281Zm1.707,4.257s-.5-.359-1.494-1.063l.714,1.771-.216.352c.234,0,.309-.115.216-.352C4109.015,10.774,4109.277,10.537,4109.277,10.537Zm.071,2.835h-.71l.717,5.32.851.352A45.509,45.509,0,0,1,4109.349,13.372Z" transform="translate(166.646 0)"/><path class="a" d="M4147.939-56.507l.567,1.419a9.035,9.035,0,0,1,.575,4.961l-.072.711a31.466,31.466,0,0,1,.861,9.218c-.048.477-.095,1.241-.142,2.3a5.1,5.1,0,0,0,1.35,3.371q-3.119,1.066-2.4,4.612c.19.474.154.83-.1,1.063a1.574,1.574,0,0,0-.461,1.063,1.376,1.376,0,0,0-.213,1.238,1.954,1.954,0,0,0,.712.889l-.425,2.482-1.06,1.771a4.024,4.024,0,0,0-.463,1.949,2.569,2.569,0,0,1-.81,1.949c-.051.477-.78,1.3-2.2,2.482q-1,1.067-3.192,0a10.81,10.81,0,0,0-2.979-.355,4.678,4.678,0,0,1-2.554-1.063,8.8,8.8,0,0,1-1.351-2.479l-3.331-.355a1.8,1.8,0,0,1-.569-1.416l-.285-.711a5.658,5.658,0,0,0-2.061-2.482,18.644,18.644,0,0,0-1.63-3.19,9.874,9.874,0,0,1,.816-1.063,11.476,11.476,0,0,0,1.026-1.419,33.059,33.059,0,0,0,1.413-5.317l2.685-9.221a1.37,1.37,0,0,0,.209-1.238.99.99,0,0,1,0-.889l.776-7.8a4.067,4.067,0,0,0-.325-2.124q-.319-.351-2.3,0-3.409.355-10.988,3.546c.19.474-.632.945-2.446,1.419s-2.872.945-3.156,1.416c-.047.477-.5.948-1.38,1.419a4.97,4.97,0,0,0-1.946,1.771c-.144.24-.568.355-1.279.355l-.211.355a3.485,3.485,0,0,0-3.19,1.771h-1.417c.424,1.656-.28,2.838-2.126,3.549-.706,0-1.134.122-1.275.352q-.706,1.778-4.248,5.32a7.773,7.773,0,0,0-3.971,4.254l-.563.355a2.189,2.189,0,0,1-.424,2.482,5.013,5.013,0,0,0-1.272,2.127q.14.356-1.56,3.193a4.631,4.631,0,0,0,1.278,3.187l.852.355.855.355c.187.474.4.708.639.708a45.473,45.473,0,0,1,4.538,1.6,20,20,0,0,0,4.044,1.238,90.962,90.962,0,0,1,8.937,4.609l9.365,7.447a29.912,29.912,0,0,1,3.479,4.257q.995.711,2.237,1.594a16.282,16.282,0,0,1,2.52,2.3,4.087,4.087,0,0,0,1.7,1.594,7.879,7.879,0,0,1,2.2,1.952h-1.421a2.3,2.3,0,0,0,.783,1.063,28.523,28.523,0,0,0,2.556,4.612c1.232,1.893,2.246,3.546,3.057,4.965a23.04,23.04,0,0,1-1.957-4.434c-.5-1.534-.889-2.66-1.175-3.368.237,0,.83.593,1.777,1.771a18.293,18.293,0,0,1,2.27,3.9,2.81,2.81,0,0,1,.747,1.419.972.972,0,0,1-.458,1.063,3.229,3.229,0,0,0-.209,3.012c.425,1.063.685,1.715.782,1.949.946,2.364,1.256,4.023.926,4.961a2.188,2.188,0,0,0-.249,1.6,1.918,1.918,0,0,1-.03,1.241,7.652,7.652,0,0,1-.107,1.952,15.344,15.344,0,0,0-.247,1.59l-1.7,2.838a7.122,7.122,0,0,0,.074,2.838c-1.612.708-2.435,1.3-2.478,1.771q-7.093,7.1-10.843,9.218l-1.843.711-7.443,1.771a28.077,28.077,0,0,1-7.8,1.771h-.714a6.073,6.073,0,0,1-3.617-1.06q-1.136-1.066-3.332-3.012A16.215,16.215,0,0,1,4095,48.44l-.427-1.063h-.354a22.532,22.532,0,0,0-2.908-2.838l-.569.356a6.893,6.893,0,0,0,.065-2.482l1.708.711a1.335,1.335,0,0,1,.632-1.066,3.037,3.037,0,0,0,.995-1.063,32.46,32.46,0,0,0,3.406,3.193c-.14-.942.044-1.356.567-1.241a5.589,5.589,0,0,0,1.136.178l1.559.352,1.489-.708c.9.477,1.533.592,1.917.355a4.189,4.189,0,0,0,1.2-1.419l-3.118,1.063c-.428-.471-.454-.826-.072-1.063a1.935,1.935,0,0,1,.918-.359c.759-.468,1.476-.882,2.166-1.238a20.246,20.246,0,0,1,1.948-.886,22.6,22.6,0,0,1-1.7-2.482l-2.267,1.419-1.49-1.066-.072,2.482a10.049,10.049,0,0,1-1.877-.708,2.567,2.567,0,0,0-1.029-.356,28.393,28.393,0,0,1-3.334,1.419l.427-2.482-5.388,2.482.282,2.482-.423-1.067a7.678,7.678,0,0,0-1.139-1.946,6.942,6.942,0,0,0-1.2-1.241,7.212,7.212,0,0,1-1.209-2.13,14.68,14.68,0,0,1-.926-3.19c-.145-.942-.238-1.771-.284-2.482a14.935,14.935,0,0,0,3.333.352,5.864,5.864,0,0,1,1.488,1.952,5.3,5.3,0,0,0,1,1.6h2.126a2.26,2.26,0,0,1,1.847,1.063c.093.237.634.122,1.626-.352l.145.352q0,1.782,1.774,0h-1.774a1.367,1.367,0,0,1,1.915-.53,6.156,6.156,0,0,0,1.631.53c.042-.471.777-1.3,2.194-2.482l1.631-.352.64-1.066a18.829,18.829,0,0,1,1.842,1.066l-.566-1.419-.144-.359a16.138,16.138,0,0,0,3.225-2.124,33.687,33.687,0,0,1,3.437-2.482l2.338-3.9c.379-.234.522-.474.422-.711a7.2,7.2,0,0,0,3.648-3.723q1.234-2.657,1.451-3.012a5.629,5.629,0,0,0-1.283-6.736,8.855,8.855,0,0,0-3.19-1.771L4100.2,1.286a19.966,19.966,0,0,0-4.11-1.419,26.4,26.4,0,0,1-4.967-1.774,16.88,16.88,0,0,1-4.616-3.546A31.445,31.445,0,0,0,4082.6-9a18.912,18.912,0,0,1-4.263-7.094l-.849-.352a13.725,13.725,0,0,0-2.557-2.835q.49-3.19-1.213-9.218-2.694-6.726.7-12.411a66.954,66.954,0,0,1,5.666-8.863,15.937,15.937,0,0,0,2.264-3.193,9.121,9.121,0,0,1,3.542-3.543l6.948-5.672,7.792-5.317c-.1-.234.234-.586.993-1.066.281-1.65,1.718-2.482,4.324-2.482a11.242,11.242,0,0,0,3.579-1.241,11.962,11.962,0,0,1,3.224-1.238q1.632-.351,3.442-.708a13.64,13.64,0,0,0,3.3-1.066,5.328,5.328,0,0,0,3.33,1.241,6.529,6.529,0,0,1,3.191.889c.1.237.216.237.359,0a.644.644,0,0,1,.565-.356l1.278-.355q2.829,0,4.469,3.193a13.022,13.022,0,0,0,5.535,6.736,2.238,2.238,0,0,0,1.491.175,2.33,2.33,0,0,1,1.492.181q4.681,4.6,6.1,6.377C4147.724-56.741,4147.939-56.507,4147.939-56.507ZM4098.7-54.2c.539-.115.789-.533.741-1.244q-1.276-1.408-3.545,0l-3.118,2.841.074,1.06-3.406.359a.762.762,0,0,0,.073-.711c-.093-.234-.025-.355.211-.355-.948,0-1.275.355-.991,1.066q-2.84,0-3.829,1.06l-4.319,6.028a18.734,18.734,0,0,0-2.441,4.082,22.2,22.2,0,0,1-2.658,4.431,4.676,4.676,0,0,0,1.457,1.416,1.207,1.207,0,0,0,1.453-.355l-.284-.708a2.377,2.377,0,0,1,.243-2.482c.543-.711.885-1.179,1.026-1.419l.714,1.774,2.055-1.067h.354l-.141-.352c-.284-.708-.309-1.067-.072-1.067q3.683-3.185,4.035-4.961l.783-.708a41.022,41.022,0,0,0,5.526-3.9q.559-.351,5.1-4.965l-.212.352A5.781,5.781,0,0,0,4098.7-54.2Zm-18.674,14,.14.352-.779.711Zm1.772-2.66a3.363,3.363,0,0,1,.353-.886l-.21,2.127-.851-.352A1.514,1.514,0,0,0,4081.794-42.858Zm1.064-.886-.145-.355.5.355Zm.954-1.594c.165.122.415.3.742.53l-1.131.708a.5.5,0,0,1-.5-.352l.639-1.063S4083.644-45.456,4083.812-45.337Zm-.6,1.594.209-.355.43,1.066Zm5.169-5.672h.353a2.947,2.947,0,0,1-.954,1.6,3.8,3.8,0,0,0-.885.886q-.921.356-2.41-.711a13.069,13.069,0,0,0,1.912-1.419,10.343,10.343,0,0,1,1.346-1.063C4087.975-50.127,4088.193-49.887,4088.383-49.416Zm1.557-3.19.424-.711-.495-.352A1.213,1.213,0,0,0,4089.94-52.606Zm9.876,95.374h.353a1,1,0,0,1-.921.355l.424-.711C4099.765,42.649,4099.815,42.768,4099.815,42.768Zm3.237-100.7h-1.419c.565-.939.208-1.531-1.064-1.768a6.148,6.148,0,0,1-.318,1.416,6.525,6.525,0,0,0-.321,1.419C4101.4-56.152,4102.435-56.507,4103.053-57.929Zm4.96-3.539-3.121-.711-.069.711a2.367,2.367,0,0,1,1.63,1.416A3.155,3.155,0,0,0,4108.013-61.469Zm2.007,97.853a10.509,10.509,0,0,1,0-1.774l-1.7,1.067c-.051.474-.1.948-.144,1.416s-.1.948-.138,1.419l2.339-.352A5.688,5.688,0,0,1,4110.02,36.384Zm22.311-26.591.708,1.774-2.623-2.127C4131.69,9.678,4132.331,9.793,4132.331,9.793Z" transform="translate(229.217 8.188)"/></g></svg>