<svg xmlns="http://www.w3.org/2000/svg" width="206.988" height="65.631" viewBox="0 0 206.988 65.631">
  <g id="Group_662" data-name="Group 662" transform="translate(-465.539 -2278.169)">
    <g id="Group_476" data-name="Group 476" transform="translate(465.539 2278.169)">
      <path id="Path_684" data-name="Path 684" d="M412-174.413l.127.315a2.008,2.008,0,0,1,.128,1.1l-.016.157a6.954,6.954,0,0,1,.191,2.049c-.01.106-.021.275-.031.511a1.131,1.131,0,0,0,.3.749.785.785,0,0,0-.534,1.024c.042.105.035.184-.024.236a.353.353,0,0,0-.1.236.3.3,0,0,0-.046.275.436.436,0,0,0,.157.2l-.094.552-.236.394a.894.894,0,0,0-.1.434.575.575,0,0,1-.18.433c-.01.106-.173.289-.489.552q-.22.237-.709,0a2.4,2.4,0,0,0-.662-.079,1.034,1.034,0,0,1-.567-.236,1.906,1.906,0,0,1-.3-.552l-.74-.078a.4.4,0,0,1-.127-.315l-.063-.158a1.269,1.269,0,0,0-.457-.552,4.19,4.19,0,0,0-.363-.709,2.194,2.194,0,0,1,.181-.236,2.376,2.376,0,0,0,.228-.315,7.228,7.228,0,0,0,.315-1.182l.6-2.049a.305.305,0,0,0,.046-.276.215.215,0,0,1,0-.2l.172-1.734a.914.914,0,0,0-.071-.472c-.048-.052-.218-.052-.512,0a10,10,0,0,0-2.442.788q.063.158-.543.315t-.7.315q-.015.159-.307.315a1.108,1.108,0,0,0-.432.394c-.032.053-.126.079-.283.079l-.048.078a.773.773,0,0,0-.708.394h-.315q.141.552-.472.788c-.157,0-.252.027-.283.079a4.438,4.438,0,0,1-.945,1.182,1.722,1.722,0,0,0-.882.945l-.125.078a.486.486,0,0,1-.094.552,1.122,1.122,0,0,0-.283.473,2.068,2.068,0,0,1-.346.71,1.026,1.026,0,0,0,.284.709l.188.078.19.079c.042.106.089.157.142.157a10.385,10.385,0,0,1,1.008.355,4.387,4.387,0,0,0,.9.276,20.379,20.379,0,0,1,1.986,1.024l2.082,1.654a6.82,6.82,0,0,1,.773.946q.22.159.5.354a3.649,3.649,0,0,1,.559.512.914.914,0,0,0,.379.355,1.74,1.74,0,0,1,.489.434h-.315a.514.514,0,0,0,.173.236,6.324,6.324,0,0,0,.569,1.024q.41.631.678,1.1a5.13,5.13,0,0,1-.435-.985q-.166-.511-.261-.748c.051,0,.184.132.394.394a4.045,4.045,0,0,1,.505.867.621.621,0,0,1,.166.315.217.217,0,0,1-.1.236.719.719,0,0,0-.047.669q.143.355.174.434a1.827,1.827,0,0,1,.207,1.1.482.482,0,0,0-.055.355.424.424,0,0,1-.008.276,1.623,1.623,0,0,1-.023.433,3.418,3.418,0,0,0-.055.354l-.378.63a1.593,1.593,0,0,0,.017.631q-.537.237-.551.394a13.336,13.336,0,0,1-2.41,2.048l-.41.157-1.654.394a6.236,6.236,0,0,1-1.732.394h-.158a1.348,1.348,0,0,1-.8-.236q-.254-.237-.741-.669a3.588,3.588,0,0,1-.789-.985l-.095-.236h-.078a4.948,4.948,0,0,0-.647-.631l-.125.08a1.532,1.532,0,0,0,.015-.552l.378.157a.3.3,0,0,1,.141-.237.668.668,0,0,0,.22-.236,7.374,7.374,0,0,0,.757.709c-.032-.209.01-.3.126-.276a1.236,1.236,0,0,0,.252.04l.346.079.331-.158c.2.106.34.132.425.079a.935.935,0,0,0,.267-.315l-.693.236c-.1-.1-.1-.184-.017-.236a.433.433,0,0,1,.2-.079c.168-.1.328-.2.482-.276a4.282,4.282,0,0,1,.433-.2,4.866,4.866,0,0,1-.379-.552l-.5.315-.331-.236-.015.552a2.246,2.246,0,0,1-.418-.158.576.576,0,0,0-.228-.078,6.5,6.5,0,0,1-.742.315l.095-.552-1.2.552.064.552-.1-.237a1.7,1.7,0,0,0-.252-.433,1.571,1.571,0,0,0-.269-.276,1.609,1.609,0,0,1-.268-.473,3.189,3.189,0,0,1-.205-.709c-.033-.209-.053-.394-.064-.552a3.319,3.319,0,0,0,.741.078,1.315,1.315,0,0,1,.331.434,1.168,1.168,0,0,0,.221.354h.473a.5.5,0,0,1,.41.236c.021.053.141.027.362-.078l.031.078q0,.4.394,0h-.394a.3.3,0,0,1,.426-.118,1.369,1.369,0,0,0,.362.118c.01-.1.173-.288.488-.551l.362-.078.141-.237a4.23,4.23,0,0,1,.41.237l-.126-.315-.032-.08a3.6,3.6,0,0,0,.717-.472,7.6,7.6,0,0,1,.763-.552l.52-.867c.085-.051.116-.1.094-.158a1.6,1.6,0,0,0,.811-.827c.184-.394.29-.617.323-.669a1.251,1.251,0,0,0-.285-1.5,1.978,1.978,0,0,0-.71-.394l-3.593-1.1a4.574,4.574,0,0,0-.914-.315,5.857,5.857,0,0,1-1.1-.394,3.782,3.782,0,0,1-1.026-.789,7.027,7.027,0,0,0-.867-.787,4.192,4.192,0,0,1-.947-1.577l-.189-.078a3.007,3.007,0,0,0-.568-.63,5.217,5.217,0,0,0-.27-2.049,2.962,2.962,0,0,1,.155-2.757,14.79,14.79,0,0,1,1.259-1.969,3.542,3.542,0,0,0,.5-.71,2.022,2.022,0,0,1,.788-.787l1.543-1.261,1.732-1.182c-.021-.052.053-.13.22-.237q.094-.55.96-.551a2.52,2.52,0,0,0,.8-.276,2.667,2.667,0,0,1,.717-.276c.242-.051.5-.1.765-.157a3.02,3.02,0,0,0,.732-.236,1.2,1.2,0,0,0,.741.276,1.466,1.466,0,0,1,.71.2q.031.079.079,0a.143.143,0,0,1,.125-.079l.283-.078a1.1,1.1,0,0,1,.994.709,2.89,2.89,0,0,0,1.23,1.5.5.5,0,0,0,.332.04.512.512,0,0,1,.33.039q1.042,1.024,1.357,1.418Zm-10.943.511c.121-.026.175-.118.166-.276q-.285-.313-.788,0l-.693.631.016.236-.755.08a.174.174,0,0,0,.015-.158c-.021-.052-.006-.079.047-.079q-.316,0-.22.237A1.158,1.158,0,0,0,398-173l-.96,1.34a4.141,4.141,0,0,0-.543.906,4.927,4.927,0,0,1-.59.985,1.015,1.015,0,0,0,.323.315.269.269,0,0,0,.323-.078l-.063-.158a.527.527,0,0,1,.055-.552c.12-.157.2-.262.227-.315l.159.395.457-.237h.078l-.031-.078c-.064-.158-.069-.237-.016-.237a2.576,2.576,0,0,0,.9-1.1l.173-.157a9.092,9.092,0,0,0,1.228-.867q.126-.078,1.134-1.1l-.048.078A1.281,1.281,0,0,0,401.059-173.9Zm-4.149,3.113.032.078-.174.157Zm.394-.592a.75.75,0,0,1,.078-.2l-.047.472-.188-.078A.331.331,0,0,0,397.3-171.381Zm.236-.2-.031-.079.111.079Zm.213-.355.166.118-.252.158a.112.112,0,0,1-.111-.079l.142-.236Zm-.133.355.047-.079.095.236Zm1.149-1.261h.079a.657.657,0,0,1-.213.355.863.863,0,0,0-.2.2c-.137.053-.315,0-.536-.157a2.952,2.952,0,0,0,.425-.315,2.236,2.236,0,0,1,.3-.236C398.678-173,398.726-172.943,398.768-172.838Zm.346-.708.094-.158-.111-.078A.276.276,0,0,0,399.114-173.546Zm2.195,21.193h.078c-.032.053-.1.079-.2.079l.094-.157C401.3-152.378,401.308-152.353,401.308-152.353Zm.719-22.376h-.315q.189-.313-.236-.394a1.416,1.416,0,0,1-.071.315,1.375,1.375,0,0,0-.071.315A.446.446,0,0,0,402.028-174.729Zm1.1-.787-.694-.158-.016.158a.525.525,0,0,1,.363.315A.7.7,0,0,0,403.13-175.516Zm.445,21.745a2.556,2.556,0,0,1,0-.394l-.378.237c-.01.105-.021.21-.031.315s-.021.21-.031.315l.52-.079A1.309,1.309,0,0,1,403.575-153.771Zm4.959-5.908.158.394-.583-.473Z" transform="translate(-395.245 197.419)" fill="#87c0bd"/>
      <path id="Path_685" data-name="Path 685" d="M445.927-170.247s-.023.434-.07,1.3-.064,1.509-.053,1.93q-.095.552-.2.985a7.417,7.417,0,0,1-.212.748l.158.394c-.421,0-.572.211-.457.631.043.106-.008.211-.149.315a.249.249,0,0,0-.039.4l.031.078a1.236,1.236,0,0,0-.315.394,1,1,0,0,0-.087.276c-.026.132-.118.2-.276.2-.105,0-.168.106-.188.315a.443.443,0,0,1-.173.552.429.429,0,0,0-.228.118.814.814,0,0,0-.2.2,1.09,1.09,0,0,1-.016.552,5.5,5.5,0,0,1-.9,1.5l-.236.394c-.189.315-.337.472-.441.472a.629.629,0,0,0-.213.355c-.058.185-.15.25-.275.2a.375.375,0,0,1-.1.433,1.9,1.9,0,0,1-.323.276l-.409.552a.114.114,0,0,0-.111-.078l.032.078h.079l-.676.867-1.071.867-.425.315a.373.373,0,0,1-.141-.157.115.115,0,0,0-.112-.08c-.073-.051-.189.053-.346.316l-.109.315h.236c-.094.157-.13.263-.109.315l-1.261.788c-.063.105-.1.131-.125.078a.461.461,0,0,0-.268-.078c-.053,0-.1.053-.134.157a.427.427,0,0,1-.181.236l-.048-.315a.3.3,0,0,1-.189.118,1.1,1.1,0,0,0-.268.118c-.168.106-.24.185-.22.237-.032.315-.153.472-.362.472a3.687,3.687,0,0,1-.914.08.271.271,0,0,0,.016.236,1.674,1.674,0,0,1-.615-.158l.127.315-.331.158a.433.433,0,0,0,0-.394H432.8l.095.236a1.364,1.364,0,0,1-.567.158,1.176,1.176,0,0,1-.536-.158.509.509,0,0,0-.181.04c-.068.027-.091.066-.071.118l-.063.236-1.749-.236a5.815,5.815,0,0,0,.033,1.261.726.726,0,0,1-.267.709c.335.315.4.552.205.708a1.831,1.831,0,0,1-.346.315c.1,0,.188.08.252.237.053.263.1.512.143.748s.089.486.143.748q-.016.553.024,1.34c.026.525.036.972.025,1.339a4.185,4.185,0,0,0-.015.946,6.446,6.446,0,0,1,.207,1.5l.712,3.151a19.075,19.075,0,0,0,.869,2.757,2.877,2.877,0,0,0,.332,1.024l.031.079a.965.965,0,0,0,.119.2.4.4,0,0,1,.071.276h-.079a8.706,8.706,0,0,1,.529,1.024,3.011,3.011,0,0,0,.686,1.024l.064.552a1.934,1.934,0,0,1-.646.158,1.8,1.8,0,0,1-1.166-.552c-.074-.053-.227-.171-.457-.354a1.74,1.74,0,0,0-.694-.355,1.564,1.564,0,0,1-.252-.236l-.284-.315a8.181,8.181,0,0,1-1.8-2.522,17.759,17.759,0,0,1-1.058-2.442c.084-.053.052-.132-.094-.236-.263-.264-.269-.473-.017-.631l-.346-.078-.238-.789L426-141.726c.116-.1.139-.209.071-.315a1.5,1.5,0,0,1-.134-.237l-.063-.157c-.021-.051-.079-.394-.174-1.024a10.389,10.389,0,0,0-.444-2.285,5.031,5.031,0,0,0,0-.788c-.073-.051-.08-.13-.016-.236a4.941,4.941,0,0,0-.254-1.418c-.084-.209-.085-.342,0-.394a2,2,0,0,0,.062-1.024q-.1-.629-.142-.945l-.064-.158a.609.609,0,0,0,.1-.63,2.97,2.97,0,0,1-.134-.631,2.189,2.189,0,0,1,.181-.236c.089-.1.035-.209-.166-.315.01-.1.022-.209.031-.315s.021-.209.032-.315a.442.442,0,0,1-.008-.315,1,1,0,0,0,.039-.394.676.676,0,0,0,.062-.63l-.017-2.6a.336.336,0,0,1,.2-.473q-.174-1.022-.206-1.1l.457.157c.031-.051.02-.078-.031-.078a1,1,0,0,0-.3-.355.307.307,0,0,1-.094-.433c.03-.052-.037-.157-.205-.315l.173-.157h.079l.362-.867-.236-.394a.376.376,0,0,1,.251-.552.245.245,0,0,1-.047-.315,3.044,3.044,0,0,1,.07-.71,1.545,1.545,0,0,0-.071-.866,1.818,1.818,0,0,1,.141-.631,3.309,3.309,0,0,1,.055-.354.394.394,0,0,0-.1-.355.742.742,0,0,1,.111-.315.672.672,0,0,0,.078-.394l.174.236c.051,0,.069-.026.046-.079a.705.705,0,0,1-.205-.315l-.094-.631a4.389,4.389,0,0,0,.179-.827,4.459,4.459,0,0,1,.181-.827,6.311,6.311,0,0,1-.025-1.143,6.5,6.5,0,0,0-.024-1.143.271.271,0,0,0,.307-.315,4.165,4.165,0,0,1,.007-.473.921.921,0,0,0,.071-.512.6.6,0,0,1,.148-.511,1.633,1.633,0,0,1,.071-.709,1.9,1.9,0,0,0,.1-.631c-.031-.209-.087-.511-.166-.906a5.108,5.108,0,0,1-.1-1.143c.419-.524.613-.893.582-1.1.084-.052.115-.105.094-.158.084-.051.32-.184.709-.394a1.929,1.929,0,0,0,.646-.157,1.494,1.494,0,0,0,.725.236,6.742,6.742,0,0,0,1.057.867,2.172,2.172,0,0,1,.931.552,1.052,1.052,0,0,1,.347.473.772.772,0,0,0,.709.394,1.156,1.156,0,0,1,.064.552,4.937,4.937,0,0,1,.15.472.385.385,0,0,1-.166.473c-.01.106-.015.224-.015.354s-.006.25-.015.355a12.429,12.429,0,0,1-.266,1.89,4.258,4.258,0,0,1-.189.907,4.229,4.229,0,0,0-.188.906c-.01.106-.053.329-.125.669a1.65,1.65,0,0,0,.08.985l.157-.394-.064-.158q-.095-.236.252-.551c.357-.158.483-.367.378-.631l.016-.157-.284.078c.094-.419.147-.681.157-.788a2.979,2.979,0,0,1,.245.315,2.378,2.378,0,0,0,.244.316,4.236,4.236,0,0,1,.582-1.1.79.79,0,0,1-.425-.078.365.365,0,0,1,.22-.434.775.775,0,0,0,.315-.2c-.105-.263-.064-.42.126-.473a.617.617,0,0,0,.33-.158c-.021.211-.073.342-.157.394l.74-.315a.627.627,0,0,1-.276-.2.908.908,0,0,0-.2-.2,3.282,3.282,0,0,1,1.4-1.417l.236-.4.52.315c.084-.051.094-.157.031-.315l.094-.157-.189-.079q.471-.787.755-.867l.142.157a5.68,5.68,0,0,0-.567.552,4.647,4.647,0,0,0,.756-.473,9.348,9.348,0,0,0,.771-.631,5.571,5.571,0,0,1-.866.394.671.671,0,0,1,.346-.512,10.582,10.582,0,0,1,.976-.512.723.723,0,0,1,.205.315.44.44,0,0,1-.032-.276.741.741,0,0,1,.078-.2,3.571,3.571,0,0,1,.883-.157,2.9,2.9,0,0,1,1.718.552,12.482,12.482,0,0,0,1.671,1.024c.062-.1.12-.157.173-.157l.473.394h.157a1.966,1.966,0,0,1,.71.394l-.52.079q.6.708.773.945l.188-.315a.2.2,0,0,1,.284.118c.053.132.089.225.111.276l.553,1.576C445.831-170.614,445.927-170.247,445.927-170.247ZM425.8-154.411a6.2,6.2,0,0,1-.007.669,1.2,1.2,0,0,0,.182.748c-.243.053-.295.185-.158.394l-.2.078.08,1.182-.094.158a.168.168,0,0,0-.016.157l.063.158a1.791,1.791,0,0,1,.143.748c-.012.236-.021.407-.031.512H425.6l.221.158a6.409,6.409,0,0,0,.1,1.811,4.008,4.008,0,0,1,.079.788,8.424,8.424,0,0,0,.064.945q.142,1.341.143,1.734l-.016.157a.8.8,0,0,1,.253.236.273.273,0,0,1,.016.236.17.17,0,0,0-.016.158l.27,1.261a11.319,11.319,0,0,1,.459,2.127.258.258,0,0,0,.087.118.262.262,0,0,1,.087.118.6.6,0,0,0,.016-.552l-.459-2.522q-.018-.236-.459-2.915a.779.779,0,0,0-.064-.354.672.672,0,0,1-.017-.434c.083-.315.078-.525-.016-.63a.612.612,0,0,1,.055-.355.621.621,0,0,0,.055-.354,4.644,4.644,0,0,1-.127-.907,4.807,4.807,0,0,0-.127-.905,2.869,2.869,0,0,1,.046-.867,2.629,2.629,0,0,0,.015-.945,9.226,9.226,0,0,1-.174-1.419A1.032,1.032,0,0,0,425.8-154.411Zm1.282-10.164s-.015-.039-.047-.118l-.079-.2c.157,0,.215-.051.174-.158a8.66,8.66,0,0,0,.139-1.812c.031-.051.01-.1-.063-.157a.391.391,0,0,1-.142-.158l.22-.237a.886.886,0,0,0,.22-.629,1.894,1.894,0,0,0-.032-.473,9.64,9.64,0,0,0,.409-1.34.958.958,0,0,0-.409,1.34l-.487.946.078.394h-.157c-.052.788-.089,1.288-.109,1.5.01.158.016.369.017.63a.891.891,0,0,1-.22.631c-.053,0-.047.078.017.236a.622.622,0,0,1,.024.355,3.446,3.446,0,0,0-.055.354,1.114,1.114,0,0,0-.141,1.024,2.3,2.3,0,0,1-.125,1.064,3.659,3.659,0,0,0-.2.669c-.032.053.021.184.158.394a7.571,7.571,0,0,0-.141,1.615,3.783,3.783,0,0,1-.3,1.615h.631a5.814,5.814,0,0,0,.015-.749,2.377,2.377,0,0,1,.046-.669,1,1,0,0,0,.039-.59.554.554,0,0,1,.2-.591l-.394-.394.346-.315.079-.788-.174-.237c.22-.1.309-.341.267-.709a1.184,1.184,0,0,1,.031-.708l.125-1.656Zm0,11.385c.021-.078-.053-.2-.22-.354l.017.63A.649.649,0,0,0,427.08-153.19Zm.339-8.785a2.4,2.4,0,0,1-.031.709C427.556-161.37,427.567-161.607,427.419-161.975Zm.123,23.2c-.026.13.061.249.261.355l-.174-.631A.935.935,0,0,0,427.543-138.771Zm.663,1.261a.943.943,0,0,0-.464-.669l.552,1.182A1.877,1.877,0,0,1,428.206-137.511Zm13.37-33.761s-.016-.5-.049-1.5l-.331-.63c-.085.053-.26.17-.528.354a1.271,1.271,0,0,0-.527.748l-.394.394a3.143,3.143,0,0,0-1.039.946,10.718,10.718,0,0,1-.677.867q-.489.552-1.4,1.812a6.236,6.236,0,0,1-.834,1.261,1.031,1.031,0,0,1-.331.354.833.833,0,0,0-.283.276l.142.157q.031.08-.22.236c-.168.107-.258.211-.267.315a1.1,1.1,0,0,1-.362.867,4.847,4.847,0,0,0-.291.552,3.464,3.464,0,0,1-.2.394l-.409.945-.361.867.031.079a2.269,2.269,0,0,0-.582,1.1,1.06,1.06,0,0,1-.109.513,3.422,3.422,0,0,0-.189.512l-.188,1.1a.4.4,0,0,1-.165.275.386.386,0,0,0-.134.354,3.4,3.4,0,0,1-.243,1.261,2.259,2.259,0,0,1-.7,1.1l.016.237.709-.394a4.276,4.276,0,0,0,.433-.2,1.779,1.779,0,0,0,.4-.276h.157a.567.567,0,0,0,.473-.2,2.864,2.864,0,0,0,.205-.276c.051,0,.069-.026.047-.079l.094-.157a2.145,2.145,0,0,0,1.354-.945l.283-.08c-.021.211-.058.315-.109.315l-1.354,1.34a3.945,3.945,0,0,1-.795.669,7.176,7.176,0,0,1-.859.512h-.157a.505.505,0,0,0-.189.315c-.042.158-.125.211-.252.158.03-.052.015-.158-.048-.315-.137.053-.194.105-.173.157l.22.552c-.158,0-.225.027-.205.078a1.2,1.2,0,0,1-1.118.552c-.053,0-.09.039-.11.118a.333.333,0,0,1-.157.2l1.859-.473,1.511-.946q.126-.077.291-.157c.11-.051.234-.1.37-.158a.958.958,0,0,0,.276-.394.47.47,0,0,1,.575-.236l.015-.157a4.416,4.416,0,0,1,1.2-1.34q.3-.236.267-.315c-.012-.158.041-.223.157-.2s.163.014.141-.039l.253-.157a.687.687,0,0,0,.22-.236l-.252-.631.441.315.457-1.024-.095-.236a.7.7,0,0,1,.378.157l.33-.552c-.22-.157-.307-.275-.261-.355s.15-.118.308-.118c.073.053.107.106.1.157s.039.132.134.236a3.489,3.489,0,0,1,.109-.512.517.517,0,0,0-.237-.591l-.015-.236h.078a.111.111,0,0,1-.11-.079l-.08-.394.189-.315c.031-.052.1-.079.2-.079a1.013,1.013,0,0,1,.157-.394,3.045,3.045,0,0,0,.252-.551c.125.053.2.106.22.157a.381.381,0,0,0,.142.157l-.331.552.615-.236a1.226,1.226,0,0,1,.456-1.024,1.681,1.681,0,0,0,.166-.473,1.874,1.874,0,0,1,.211-.552c-.157,0-.295.118-.409.355a1.711,1.711,0,0,1-.346.512,1.335,1.335,0,0,0-.008-.315.358.358,0,0,1,.15-.315,1.545,1.545,0,0,0,.33-.552,3.054,3.054,0,0,1,.252-.552c.042.105.1.157.181.157s.15-.052.213-.157h-.394c.083-.315.173-.617.267-.906s.184-.591.268-.906a1.97,1.97,0,0,0,.361-.867,11.211,11.211,0,0,0,.03-1.891C441.518-170.956,441.576-171.272,441.576-171.272ZM430-152.993a.144.144,0,0,0-.125.079.169.169,0,0,0-.016.157l.063.158a3.707,3.707,0,0,0,.615-.237,3.1,3.1,0,0,1,.85-.236l-.031-.078Zm1.062-10.321-.222-.551Q430.49-163.55,431.058-163.314Zm-.285-1.89s.068.368.2,1.1a1.987,1.987,0,0,1,.378-.631.97.97,0,0,0,.2-.867h.157c.126.053.2.039.221-.04a.315.315,0,0,0,0-.2l.615.157a1.223,1.223,0,0,0,.315-.394l-.015-.236a1.371,1.371,0,0,0-.441.473c-.074-.051-.095-.1-.064-.158a.691.691,0,0,1,.2-.669,2.424,2.424,0,0,0,.378-.434l.346-.315.174.237a.241.241,0,0,0,.078-.394,1.824,1.824,0,0,0,.881-.946.774.774,0,0,1-.457-.157,1.026,1.026,0,0,1,.551-.788.816.816,0,0,1-.094.552,1.023,1.023,0,0,0,.5-.315c-.02-.053.034-.08.166-.08s.177-.051.134-.157l.046-.079c.01-.1.132-.262.362-.473a.451.451,0,0,0,.078-.394l-.694.236a1.868,1.868,0,0,0,.339-.433,3.028,3.028,0,0,1,.385-.512.87.87,0,0,1,.2-.2.443.443,0,0,1,.229-.118.408.408,0,0,0,.126.315h.157a.442.442,0,0,1-.031-.276,1.823,1.823,0,0,0,.047-.276l.52-.078c-.095-.1-.169-.158-.221-.158a.339.339,0,0,1-.189-.079.5.5,0,0,0,.173-.157.526.526,0,0,0,.694-.237h-.237l.346-.709.284.315v-.394a.8.8,0,0,1,.252.236L438.2-173l-.3-.552h.157c.1,0,.168.027.189.078l.109-.315a.681.681,0,0,0,.378.158.284.284,0,0,0,.252-.158l-.378-.157a11.729,11.729,0,0,1,1.039-.552l-.095-.237a1.952,1.952,0,0,0,.3-.039q.22-.04.015-.355l.252-.158-.346-.078a1.262,1.262,0,0,0-.914.473l-.489.157a5.349,5.349,0,0,1-.842.749,3.09,3.09,0,0,0-.81.827,9.849,9.849,0,0,1-1.008,1.024A9.857,9.857,0,0,0,434.2-170.4a12.641,12.641,0,0,1-1.164,1.812l-.127.078a1.541,1.541,0,0,0-.157.394.505.505,0,0,1-.189.315q-.331.159-.661,1.1a2.6,2.6,0,0,1-.613,1.024Zm.407-1.536a.711.711,0,0,1-.189.511c.295-.051.456-.367.487-.945A.413.413,0,0,0,431.181-166.741Zm.69,13.512a.351.351,0,0,0,.267-.118,1.177,1.177,0,0,1,.236-.2q-.6-.315-.772.236A.441.441,0,0,0,431.871-153.229Zm1.59-.945-.835.079Q433.288-153.623,433.461-154.174Zm-.174-.236a1.1,1.1,0,0,0,.426.078,1.905,1.905,0,0,0,.645-.157l-.031-.078Zm5.086-4.412-.3-.157c.021.053-.022.078-.126.078a8.769,8.769,0,0,0-.646.945,2.942,2.942,0,0,1-.629.789l-1.307,1.261a.281.281,0,0,0-.189.315l-.771.631.11.473.362-.078v-.394a1.759,1.759,0,0,1,.6-.079l.188-.71a1.64,1.64,0,0,1,.583.08q-.379-.946.5-1.1a.284.284,0,0,0,.252-.158h.079a.489.489,0,0,0,.417-.433c.035-.236.06-.407.07-.512h.315a1.665,1.665,0,0,0,.149-.315,1.755,1.755,0,0,1,.15-.315ZM434.6-172.651c-.121.027-.113.145.024.355a.156.156,0,0,0,.173-.158.565.565,0,0,1,.063-.236A1.435,1.435,0,0,0,434.6-172.651Zm.626,3.822a.449.449,0,0,0,.252-.552Zm1.714,12.527a2.052,2.052,0,0,0-.425.118c-.042.027.015.171.174.432Zm.364-14.812-.346.315Q437.338-170.641,437.306-171.114Zm1.555,11.74s.132-.13.394-.394c-.169-.157-.286-.222-.355-.2a.651.651,0,0,0-.244.276H438.5a2.938,2.938,0,0,1-.2.276c-.1.132-.073.276.1.434l.094-.158a.509.509,0,0,0,.173.236l-.095-.236Zm1.637-2.8a.38.38,0,0,0,.2-.276.405.405,0,0,0-.567.157l-.3.631c.042.106.089.157.141.157a1.763,1.763,0,0,1-.582.512.682.682,0,0,0-.3.827c.085-.051.168-.1.253-.158a.506.506,0,0,0,.173-.157q.125-.079.6-.473a4.386,4.386,0,0,0,.173-.945A.376.376,0,0,1,440.5-162.171Zm.222,1.536a.721.721,0,0,0,.046-.473l-.457.236-.015.552a.987.987,0,0,0-.283.079.42.42,0,0,0-.236.394c.209,0,.34-.065.394-.2a2.206,2.206,0,0,1,.126-.276A.98.98,0,0,0,440.72-160.635Zm.8-3.112a1.216,1.216,0,0,0-.143-.749,1.822,1.822,0,0,1-.157.591,3.375,3.375,0,0,0-.189.513C441.305-163.5,441.467-163.616,441.52-163.747Zm.678.118a.337.337,0,0,0-.157.2.333.333,0,0,1-.157.2l.221.157Zm.061-2.6-.346.71Q442.385-165.914,442.259-166.23Zm.191,2.443.078-.2a.581.581,0,0,0-.126-.513l-.109.71a.113.113,0,0,1,.11.079Zm.566-1.733a.376.376,0,0,0-.252.552Z" transform="translate(-404.316 197.035)" fill="#87c0bd"/>
      <path id="Path_686" data-name="Path 686" d="M473.826-164.329a1.262,1.262,0,0,1,.064.945.255.255,0,0,1-.119-.2.516.516,0,0,0-.15-.276.285.285,0,0,0-.252.158l-.016.157a.779.779,0,0,1,.252.237,3.289,3.289,0,0,1,.08,1.182,1.989,1.989,0,0,0,.016.827,4.389,4.389,0,0,0,.159.591,1.4,1.4,0,0,1,.032,1.261,2.8,2.8,0,0,0-.078.59,2.378,2.378,0,0,1-.125.67l-.315,1.969c-.031.053-.062.106-.094.157a.275.275,0,0,0,.016.237.247.247,0,0,0,.087.118c.037.027.024.093-.04.2a.4.4,0,0,0-.142-.158c-.263,0-.341.132-.235.4a1.024,1.024,0,0,1-.331.945l-.913,1.261-.079.394a1.329,1.329,0,0,0-.676.67,3.519,3.519,0,0,1-.488.748,6.179,6.179,0,0,0-.992,1.261,2.072,2.072,0,0,0-.63.788c.053.263-.109.446-.487.552a.6.6,0,0,1-.378.236c-.19.053-.351.107-.489.158l-.426.315a1.47,1.47,0,0,1-1.5.394l-.992.079a2.617,2.617,0,0,1-1.08-.236c-.353-.158-.592-.262-.718-.315a4.861,4.861,0,0,1-1.8-1.339q-.4-.394-1.278-1.222a3.994,3.994,0,0,1-1.152-1.694h-.157l-.142-.158c.031-.051.02-.078-.032-.078l-.063-.158-.158-.394-.284-.71a3.36,3.36,0,0,0-.363-.708,4.448,4.448,0,0,1-.191-.867q-.142-.551-.316-1.182c-.117-.42-.221-.814-.316-1.182a7.82,7.82,0,0,1-.048-1.1,6.644,6.644,0,0,0-.08-1.182l.156-1.182.172-1.733q.017-.55.457-.631a.762.762,0,0,1-.284-.315,1.516,1.516,0,0,0,.181-.63c.026-.262.044-.445.055-.552a5.515,5.515,0,0,1,.581-1.89,1.048,1.048,0,0,0,.26-.631c.026-.262.044-.446.055-.552a1.342,1.342,0,0,1,.071-.315,1.064,1.064,0,0,0,.008-.473l.409-.552c.03-.052.126-.079.283-.079l-.063-.157a1.051,1.051,0,0,1-.008-.71,2.6,2.6,0,0,1,.212-.552,7.633,7.633,0,0,1,.739-1.5,1.843,1.843,0,0,0,.173-.552l.441-.866a1.6,1.6,0,0,0,.471-.789q.095-.156-.363-.709a1.974,1.974,0,0,1-.1-.355c-.027-.13-.157-.222-.387-.276-.053,0-.111-.079-.174-.236-.147-.367-.174-.631-.079-.789a.736.736,0,0,1,.472,0l.41.237a.728.728,0,0,0-.078.2.433.433,0,0,0,.032.276l1.072.71a.7.7,0,0,1,.362-.078l-.08-.4,1.214.079a7.571,7.571,0,0,0,1.182,1.182.528.528,0,0,0-.181.04c-.068.027-.066.067.008.118.157.264.341.591.552.985a2.278,2.278,0,0,0,.836.907q.407.236,1.955,1.339l.331.236.173.236.125-.079-.3-.157.015-.158a2.188,2.188,0,0,1,.978.867l.347.473a5.578,5.578,0,0,0,1.119,1.221q.711.59.852.748a.856.856,0,0,1,.032.276c0,.131.089.224.268.276a2.089,2.089,0,0,1,1.4,1.339.378.378,0,0,0,.142.158.521.521,0,0,1,.173.236h-.236l.143.552a.87.87,0,0,0,.315.394.559.559,0,0,0-.03.709.179.179,0,0,1,.166-.078.175.175,0,0,0,.165-.079,1.946,1.946,0,0,0-.3-.552h.237Zm-1.858,2.442.134-.355a.833.833,0,0,0-.1-.748,2.008,2.008,0,0,0-.016-1.024q-.143-.551-.206-.71l-.111-.473a1.917,1.917,0,0,0-.663-.867l.174.631h-.315c.063.157.146.236.252.236-.221.106-.289.394-.2.867a5.446,5.446,0,0,0-.235,1.576q-.331-.237-.19-.473a4.671,4.671,0,0,0-.017-1.418,15.542,15.542,0,0,1-.27-2.049,1.429,1.429,0,0,0-.142-.551,1.253,1.253,0,0,0-.458-.552,14.645,14.645,0,0,0-1.371-.867,13,13,0,0,1-1.261-.788l-1.324-.945a1.4,1.4,0,0,0-.757-.315l-.692,1.419a4.7,4.7,0,0,0-.708,1.575,1.832,1.832,0,0,1-.354.789,1.832,1.832,0,0,0-.353.787,5.167,5.167,0,0,1-.534,1.419.45.45,0,0,0-.078.394c-.053,0-.051.039.008.118s.071.146.04.2c-.158,0-.2.053-.133.157s.086.185.055.237a.35.35,0,0,1-.1.236.352.352,0,0,0-.1.236,1.441,1.441,0,0,1-.345,1.1l-.095.158a.526.526,0,0,1,.174.236.517.517,0,0,1-.039.394,1.371,1.371,0,0,0-.118.394,2.064,2.064,0,0,1-.125.867,2.035,2.035,0,0,0-.125.866c.021.053,0,.132-.063.237a1.022,1.022,0,0,0,.1,1.024.9.9,0,0,0-.378.827,1.8,1.8,0,0,1-.094.748.951.951,0,0,0-.118.394c-.015.157-.03.29-.039.394l.284,1.1.254,1.418.064.158c.084.21.32.342.709.394.084-.051.152-.209.2-.473a1.2,1.2,0,0,0,.631.394l-.567.157a1.57,1.57,0,0,0,.425.079c.105,0,.178-.079.221-.236.073-.209.193-.237.362-.079h.236a3.6,3.6,0,0,0,1.134-.71,27.847,27.847,0,0,0,2.488-2.442A15.2,15.2,0,0,1,468.333-157a.838.838,0,0,1,.182.355c0,.078-.02.118-.071.118q-.173.159-.417.434a.709.709,0,0,0-.2.59,2.741,2.741,0,0,0-1.023.789,1.153,1.153,0,0,0,.662-.315,2.86,2.86,0,0,0,.361-.473l.4.394h-.079a.536.536,0,0,0-.489.355c-.116.236-.252.354-.409.354a1.863,1.863,0,0,0-.976.709.784.784,0,0,1-.378.433,1.262,1.262,0,0,0-.409.355,2.808,2.808,0,0,0,.945,0,3.146,3.146,0,0,0,.487-.945,1.74,1.74,0,0,1,.174.63c-.053,0-.1-.051-.142-.157l-.125.473c.209,0,.3-.1.267-.315.1,0,.173-.026.2-.079a8.393,8.393,0,0,1,1.606-1.5l.6-.867a5.546,5.546,0,0,0,.527-.748,1.181,1.181,0,0,0,.149-.906,1.084,1.084,0,0,1,.3-.236,6.456,6.456,0,0,0,.8-1.733c.01-.1.042-.288.094-.551a.439.439,0,0,1,.472-.4,1.046,1.046,0,0,0-.031-.472,2.06,2.06,0,0,1,.457.157l-.19-.473a1.231,1.231,0,0,1-.127-.71C471.963-161.834,471.968-161.887,471.968-161.887Zm-10.312,9.061.173.236c-.053,0-.067.027-.047.079l-.205-.315Zm3.766.552a1.971,1.971,0,0,0-.347-.473c-.031.053-.1.079-.2.079-.1-.1-.176-.143-.245-.118s-.1.118-.087.276l-.74.315q-.489.159-.52.473a4.8,4.8,0,0,1,.489.04.755.755,0,0,0,.457-.04,1.013,1.013,0,0,1,.346-.118c.147-.026.225-.091.236-.2Zm-.748-.2a.214.214,0,0,0,.134.04,1.142,1.142,0,0,1,0,.394l-.268-.472A.233.233,0,0,1,464.674-152.472Zm.354,0c-.021.079-.085.118-.188.118a.34.34,0,0,0,.031-.315C465-152.617,465.049-152.551,465.028-152.472Zm.124-19.342.362-.079-.127-.315Zm1.986.631h0Zm.978,18.358a1.34,1.34,0,0,0-.237-.394.418.418,0,0,1-.236.394Zm1.028-4.215a.876.876,0,0,0,.134-.354l.063.157a.431.431,0,0,1,.009.315,1.373,1.373,0,0,0-.071.315h-.236A.728.728,0,0,1,469.145-157.042Zm.227-2.285a2.891,2.891,0,0,1,.629-.985l.031.078a.781.781,0,0,1-.141.631,1.147,1.147,0,0,0-.259.631.8.8,0,0,1-.416.63A1.771,1.771,0,0,1,469.371-159.327Zm.036,4.806a.706.706,0,0,1,.079-.2l-.268.315C469.323-154.4,469.386-154.441,469.407-154.521Zm2.5-4.766a.282.282,0,0,0-.189.315,1.209,1.209,0,0,0,.047.315.308.308,0,0,1-.188.118.309.309,0,0,0-.19.118,2.339,2.339,0,0,0-.251.945l-.252.158-.913,1.654a2.664,2.664,0,0,0-.441.867c.221-.1.32-.183.3-.236a3.249,3.249,0,0,0,.307-.315,2.368,2.368,0,0,0,.229-.316l.448-.748a2.156,2.156,0,0,0,.322-1.064l.629-1.181A.494.494,0,0,0,471.908-159.287Zm-1.748.552a.113.113,0,0,1,.11.079q.158.394-.3.236Zm.327-3.31-.141-.157.047-.079c.073.053.148.107.221.158Zm.285,1.1c.094.106.139.184.134.237a.666.666,0,0,1-.1.236Zm.406-3.7-.031-.079a.848.848,0,0,0,.189.473h-.158l-.158-.394Z" transform="translate(-414.026 196.948)" fill="#87c0bd"/>
      <path id="Path_687" data-name="Path 687" d="M495.93-200.641s-.029.157-.086.473-.134.682-.228,1.1l.126.315a.325.325,0,0,1-.078.394.39.39,0,0,0-.15.315.854.854,0,0,1-.071.315l.095.631a.883.883,0,0,1-.149.512.516.516,0,0,0-.1.434,3.891,3.891,0,0,1-.11.512,1.861,1.861,0,0,0-.078.59,2.158,2.158,0,0,1-.109.71,2.138,2.138,0,0,0-.11.709.32.32,0,0,1,0,.2.813.813,0,0,1-.078.2,5.872,5.872,0,0,0-.1.827,8.715,8.715,0,0,1-.117.985c-.032.053-.029.092.008.118s.039.067.008.118l-.331.158.284.315a2.477,2.477,0,0,0-.189.708.828.828,0,0,1-.583.71l.394.394c-.136.053-.2.184-.2.394s-.06.342-.2.394c-.032.053-.011.105.064.157a.392.392,0,0,1,.141.157,6.915,6.915,0,0,0-.267,1.1.375.375,0,0,1-.1.433,1.859,1.859,0,0,0-.245.276,3.364,3.364,0,0,1,.1.433,1.3,1.3,0,0,1-.047.669l-.2.473a2.49,2.49,0,0,0-.133.552.938.938,0,0,1-.118.394l.19.079a.667.667,0,0,0-.095.355c0,.132-.006.249-.015.355a1.372,1.372,0,0,1-.22,1.024c.126.053.187.106.182.158s-.051.106-.134.157l-.094.552a1.757,1.757,0,0,1-.047.276.612.612,0,0,0,.063.354.5.5,0,0,1-.173.158c-.085.053-.043.157.126.315-.085.053-.168.236-.252.552a3.159,3.159,0,0,0-.062,1.024.461.461,0,0,1-.41.552.9.9,0,0,1,.2.2c.058.079.113.118.166.118l-.267,1.5a1.994,1.994,0,0,0-.118.59,2.192,2.192,0,0,1-.07.512,4.908,4.908,0,0,1-.038.985,9.825,9.825,0,0,0-.086,1.064,9.319,9.319,0,0,0-.062,1.418l-.124,1.261-.284.473.378.157-.11,1.1-.094.158.127.709-.173.157h.237l.031.079a2.6,2.6,0,0,1-.015.748,1.225,1.225,0,0,0,.174.827c.073.053.108.105.1.157a.079.079,0,0,1-.087.079,1.669,1.669,0,0,0,.1.552.746.746,0,0,1,.024.552l.174.236.095.237c-.053,0-.089.106-.109.315a.312.312,0,0,1-.347.315l.521.315-.331.552c.105,0,.168.027.189.078l.017.237a3.36,3.36,0,0,1,.134.63,1.982,1.982,0,0,0,.277.788,1.3,1.3,0,0,1,0,1.182l.283.315-.078.394-.127-.315c-.157,0-.193.106-.109.315l.205.315a.678.678,0,0,1-.062.63l-.394.394a1.275,1.275,0,0,1,.315.394,1.068,1.068,0,0,1,.033.473l-.363-.315a.616.616,0,0,0-.158-.394l-.425.315a2.73,2.73,0,0,1,.916,1.5l.283.315.379.552-.536-.157a7.373,7.373,0,0,1-1.246-1.34l-.221-.158a.876.876,0,0,1-.315-.394.585.585,0,0,0,.457.157,3.8,3.8,0,0,1-.536-.552.444.444,0,0,1-.268-.078.338.338,0,0,1,.031-.316.532.532,0,0,1-.434-.394,1.178,1.178,0,0,0-.229-.473c-.283-.315-.353-.552-.205-.709a.752.752,0,0,1-.284-.315l-.426-.867-.269-.867a9.965,9.965,0,0,1-.458-1.339,4.069,4.069,0,0,1-.364-.709.484.484,0,0,0-.142-.552,1.674,1.674,0,0,0-.19-.867c.031-.051.01-.1-.063-.158a.547.547,0,0,0,.031-.511l-.174-.434a20.875,20.875,0,0,1-.459-2.521,12.611,12.611,0,0,1-.112-1.655.437.437,0,0,1-.032-.276.7.7,0,0,1,.079-.2.67.67,0,0,0-.048-.315.337.337,0,0,1,.031-.315,4.883,4.883,0,0,1-.1-1.812,3.138,3.138,0,0,0-.04-.59,1.058,1.058,0,0,1,.086-.671l-.031-.078a.6.6,0,0,1-.025-.354.939.939,0,0,1,.087-.276c-.011-.158-.03-.433-.056-.827a1.649,1.649,0,0,1,.2-.985,1.975,1.975,0,0,0,.015-.552,6.471,6.471,0,0,0,.078-1.182c.021-.209.071-.511.149-.906a4.142,4.142,0,0,0,.086-1.064q.015-.157.2-1.261l.141-1.418.236-.4c.052,0,.019-.051-.1-.157s-.141-.184-.055-.237a2.032,2.032,0,0,0,.173-.945c-.021-.051.073-.078.284-.078l.472.394.22-.631a.269.269,0,0,0-.087-.118c-.037-.026-.04-.065-.008-.118l-.031-.078c-.021-.053.013-.131.1-.237a.215.215,0,0,0-.008-.315l-.378.236a1.162,1.162,0,0,1,.055.236c.016.107.1.158.26.158q-.158,0-.6.473a1.76,1.76,0,0,1,.108-1.5.793.793,0,0,1,.126-.473l-.063-.157a.087.087,0,0,1,.031-.118.087.087,0,0,0,.031-.118q-.237-.394.236-.394a.346.346,0,0,0,.126-.473h.63l-.033-1.261h-.079l-.141,1.024a.774.774,0,0,1-.213-.039c-.089-.026-.118-.065-.087-.118l-.078.394-.252.157q-.285-.709.22-1.024l-.126-.315a.579.579,0,0,0,.235-.59,2.108,2.108,0,0,1-.047-.513,2.225,2.225,0,0,1,.566-1.732l-.221-.158.267-1.1.015-.157.048-.079a1.777,1.777,0,0,1,.062-1.024,1.24,1.24,0,0,0,.062-.63q-.062-.158.283-.473a.113.113,0,0,0-.111-.079,2.623,2.623,0,0,1,.015-.748c.042-.288.131-.459.268-.512.2-.158.178-.341-.063-.552l.031-.315c.041-.158.08-.355.117-.591a.688.688,0,0,1,.307-.512l-.032-.079-.063-.157a.82.82,0,0,1-.016-.433,2.2,2.2,0,0,0,.031-.512,1.358,1.358,0,0,1,.118-.394,1.911,1.911,0,0,0,.133-.552l-.016-.63c-.053,0-.072-.012-.055-.039s0-.039-.055-.039l.188-.315.015-.158q.079-.394.141-.827c.042-.288.078-.591.109-.906a1.478,1.478,0,0,0,.109-.315.4.4,0,0,0-.079-.394l-.063-.157a1,1,0,0,1-.071-.473.98.98,0,0,0-.071-.473l.425.079.346-.315a.26.26,0,0,1,.119.2.252.252,0,0,0,.118.2.444.444,0,0,0,.268.079.452.452,0,0,1,.268.079l.276.2a1.583,1.583,0,0,1,.339.355,1.122,1.122,0,0,0,.52-.079l-.11.315a1.876,1.876,0,0,1,.355.2.555.555,0,0,0,.322.118,1.17,1.17,0,0,1,.773.158l.047.315a3.769,3.769,0,0,1,.9,1.261,2.846,2.846,0,0,1,.143,1.34Q495.93-200.641,495.93-200.641Zm-8.423,25.369q.284-.077.205-.472A.335.335,0,0,0,487.507-175.272Zm.338-1.615a.665.665,0,0,0-.04-.2.641.641,0,0,0-.079-.788,1.683,1.683,0,0,0,.079.788q-.283.079-.125.473A.392.392,0,0,0,487.845-176.886Zm-.182-1.143c.1,0,.173-.026.2-.078a.273.273,0,0,0-.017-.237Zm.36-1.654.142-.236a.248.248,0,0,0-.048-.315l-.426-.079A2.907,2.907,0,0,1,488.023-179.683Zm.141-1.419c-.095.157-.17.237-.221.237l.395.394a3.506,3.506,0,0,1-.017-1.024.912.912,0,0,1-.489.157Zm.045-1.261-.046.079h.157v.394l.346-.316-.048-.315-.3.237a.528.528,0,0,0-.174-.237Zm.618,2.915-.032-.078a.723.723,0,0,0-.205-.315.272.272,0,0,1,.015.236c-.188.053-.249.132-.18.237a1.887,1.887,0,0,1,.166.315Zm-.246,7.249a.225.225,0,0,0-.165.276.582.582,0,0,0,.261.355A.858.858,0,0,0,488.581-172.2Zm.282-1.261a1.63,1.63,0,0,1,.048-.276.444.444,0,0,0-.032-.276C488.574-173.853,488.57-173.668,488.863-173.459Zm-.024,7.406a.111.111,0,0,1-.11-.079l.032.079Zm-.046,1.261.094-.157C488.73-164.95,488.7-164.9,488.793-164.792Zm.221.355c.073-.079.011-.17-.189-.276a.549.549,0,0,1,.032.473A1.17,1.17,0,0,1,489.015-164.437Zm-.177-11.74a.91.91,0,0,0,.071.276,1.058,1.058,0,0,0-.032-.473A.322.322,0,0,0,488.838-176.177Zm0,6.973.173.236q-.22.237.08.394a.677.677,0,0,0-.017-.434,1.205,1.205,0,0,0-.22-.354C488.841-169.256,488.836-169.2,488.836-169.2Zm.229-8.273-.22.631.189.079A2.38,2.38,0,0,0,489.065-177.477ZM489.188-164a2.436,2.436,0,0,0-.126.276c-.053.132.022.25.222.354Zm.081-14.536c-.01-.026-.043-.04-.094-.04l-.094.552.189.08a1.989,1.989,0,0,0,.015-.552Zm.22-1.222a.628.628,0,0,0-.158-.394,2.4,2.4,0,0,1-.031.709A.5.5,0,0,0,489.489-179.762Zm.376-2.6.173-.945a2.644,2.644,0,0,0-.409.945,9.283,9.283,0,0,0-.22,1.812l-.015.157c.084-.051.152-.209.2-.472A7,7,0,0,0,489.864-182.362ZM489.793-190a2.382,2.382,0,0,1,0-.394q-.363.08-.275.394c.057.211.1.342.119.394-.158,0-.235.04-.229.118a.5.5,0,0,0,.15.276.452.452,0,0,1,.08-.394A.463.463,0,0,0,489.793-190Zm.061,14.1a.707.707,0,0,1-.2.473C490-175.48,490.065-175.638,489.854-175.9Zm.08-15.916q-.048.08-.173.355a.589.589,0,0,0,.079.591c-.105,0-.1.131,0,.393a.269.269,0,0,1-.015-.236.171.171,0,0,0,.015-.157,1.3,1.3,0,0,1,.094-.355.466.466,0,0,0,.016-.354Zm.306,7.249-.362.08q0,.394.032.866c-.053,0-.055.028-.008.079a.547.547,0,0,1,.1.157Zm-.288,12.449-.079.394C490.02-171.884,490.046-172.014,489.953-172.119Zm.369,7.8-.252-.63A.578.578,0,0,0,490.322-164.32Zm.067-30.1-.267.71A.78.78,0,0,0,490.389-194.417Zm.117,7.565s-.031-.079-.095-.237l-.109.315a.114.114,0,0,1,.111.079Zm-.063-.552c-.085.053-.069.158.047.315Zm.26-.433a.555.555,0,0,1,.023-.434q-.332.158-.2.867A.366.366,0,0,0,490.7-187.837Zm-.051,22.178a.11.11,0,0,1-.11-.078l.031.078Zm.269-23.991a.892.892,0,0,1-.118-.2c.063.157.078.263.048.315a.6.6,0,0,0-.2.394,1.2,1.2,0,0,0,.1.552.5.5,0,0,0,.125-.473,2.022,2.022,0,0,1-.031-.473C490.955-189.532,490.978-189.571,490.921-189.65Zm-.105,30.3-.08-.4C490.61-159.539,490.637-159.408,490.816-159.355Zm.083-37.425c.006-.051-.067-.131-.213-.236a1.137,1.137,0,0,0,0,.394C490.823-196.674,490.893-196.728,490.9-196.78Zm.216,37.582a.457.457,0,0,0-.267-.078l.22.157Zm.926-37.582c-.053,0-.067.027-.047.079Z" transform="translate(-423.361 205.762)" fill="#87c0bd"/>
      <path id="Path_688" data-name="Path 688" d="M517.3-172.242s-.073.211-.22.631a1.859,1.859,0,0,1-.047.276,1.627,1.627,0,0,0-.046.276,4.514,4.514,0,0,0-.236.788q-.078.394-.157.787a.992.992,0,0,0,.095.434.485.485,0,0,1,.017.433l-.032.315.142.158a.43.43,0,0,0-.2.078.449.449,0,0,0-.078.394l.031.079a1.955,1.955,0,0,1-.015.551,6.46,6.46,0,0,1-.078,1.182l-.188.315.031.079a5.3,5.3,0,0,1,.081,1.773,8.257,8.257,0,0,0-.094,1.142l.189.078-.252.552a.271.271,0,0,1,.016.236.175.175,0,0,0-.015.158l-.094.157a1.981,1.981,0,0,0,.284.71,1.156,1.156,0,0,1,.063.552,12.058,12.058,0,0,0,.712,3.151l.143.355a.835.835,0,0,0,.41.433c-.063.106-.058.184.016.236-.031.053.011.158.127.315a.57.57,0,0,1-.3.236,1.158,1.158,0,0,1,.425.473.172.172,0,0,0,.063-.236c.252.107.294.211.127.315a2.461,2.461,0,0,0,.3.552c.115.158.221.289.315.394-.368,0-.547.078-.535.236h-.158a2.194,2.194,0,0,1-1.119-.433,8.885,8.885,0,0,1-.851-.748c-.263-.263-.443-.446-.536-.552a1.763,1.763,0,0,0-.947-.788q-.079,0-.173-.236l-1.31-2.285a.871.871,0,0,0-.189-.473.693.693,0,0,1-.142-.552l-.316-.788a.951.951,0,0,1-.2-.394,1.462,1.462,0,0,0-.087-.315l-.457,1.024a2.485,2.485,0,0,1-.189.71q-.2.473-.692,1.812l-.016.157.016-.157.252.236h-.315a24.718,24.718,0,0,1-.644,2.522l-.511,1.182a5.629,5.629,0,0,0-.4,1.261l-.252.157a.525.525,0,0,0-.182.04c-.068.027-.091.067-.071.118a1.188,1.188,0,0,1-.393.789c-.231.21-.4.368-.52.472a7.3,7.3,0,0,1-1.039,1.34.169.169,0,0,1-.016.157c-.031.053-.1.079-.2.079a3.511,3.511,0,0,1-.882.157,2.037,2.037,0,0,1-1.072-.315,6.52,6.52,0,0,0-1.387-.709c-.053,0-.168-.091-.347-.276a3.648,3.648,0,0,0-.378-.354.905.905,0,0,0-.709-.394l-.568-.631a3.163,3.163,0,0,0-.316-.591,3,3,0,0,1-.316-.59,16.578,16.578,0,0,1-.742-1.654,7.461,7.461,0,0,1-.395-1.182,3.34,3.34,0,0,1-.134-.63,2.357,2.357,0,0,0-.308-.867,3.676,3.676,0,0,1-.237-.788c-.033-.21-.053-.394-.063-.552q-.063-.157.125-.473l-.346-.078a1.36,1.36,0,0,0,.109-1.1,5.209,5.209,0,0,1-.189-.866,4.96,4.96,0,0,0,0-.789,4.768,4.768,0,0,1,0-.787l.094-.158c.031-.051.01-.1-.064-.157a.72.72,0,0,1-.205-.315.511.511,0,0,1,.047-.473,1.025,1.025,0,0,0,.157-.394c-.012-.158-.048-.577-.111-1.261a8.737,8.737,0,0,1,.078-.985q.062-.432.141-.827c-.021-.052.016-.158.11-.315a1.332,1.332,0,0,0,.188-1.1l.268-1.1a.319.319,0,0,1-.024-.158c0-.051-.03-.1-.1-.157l.376-2.206.22-.236a.886.886,0,0,0,.1-.434,1.042,1.042,0,0,1,.149-.511,1.236,1.236,0,0,1,.567-.749,1.5,1.5,0,0,1,1.024-.2l-.015.552a5.048,5.048,0,0,1,.646-.157.881.881,0,0,1,.544.276q.307.277.733.748c.031-.051.177-.078.441-.078a5.729,5.729,0,0,0,.009.906,2.376,2.376,0,0,1-.071.906c-.031.053,0,.184.08.394l-.173.945-.094.947a.7.7,0,0,0-.363.078c.073.053.108.105.1.157s.028.106.1.158h-.472l.472.394-.3,1.419a4.751,4.751,0,0,1-.441.472.705.705,0,0,1,.379.158l-.171,1.734q-.064.631-.1,1.221t-.085,1.063a17.646,17.646,0,0,0-.069,1.891q.007,1.1-.023,1.812a1.188,1.188,0,0,1,.1.434.926.926,0,0,0,.063.354c.073.315.15.8.23,1.457a6.749,6.749,0,0,0,.4,1.694l.38,1.734a1.774,1.774,0,0,0,1.228-.867q.425-.71.567-.945l.378-.631c.031-.052.119-.026.268.079a.284.284,0,0,1-.252.157c.167.158.278.237.331.237a1.015,1.015,0,0,1-.976,1.1,7.393,7.393,0,0,0,.647.63l.755-1.261a1.07,1.07,0,0,1,.267-.71,5.484,5.484,0,0,1,.441-.472.111.111,0,0,1-.111-.079c-.02-.052-.006-.079.048-.079a1.733,1.733,0,0,0-.489-.63l-.048-.315.457-.237a2.663,2.663,0,0,0,.222.355.843.843,0,0,0,.536.355.51.51,0,0,0,.173.236l-.095-.236.378-.236.062-.63h.158l-.048-.315.425-.315c.273-.1.405-.2.4-.276a1.069,1.069,0,0,0-.292-.433h-.08l-.015-.236h.078l.331-.552.283.118a1.135,1.135,0,0,1,.205.118.087.087,0,0,1,.032-.118.086.086,0,0,0,.031-.118l-.425-.473h.394a.615.615,0,0,1-.039-.2.507.507,0,0,0-.15-.276c.316,0,.414-.08.3-.237.031-.051-.011-.091-.126-.118a1.346,1.346,0,0,0-.252-.039l-.017-1.419-.52.473a3.385,3.385,0,0,0-.425-.473,4.187,4.187,0,0,0,.55-.787q.093-.158.315-.591a1.721,1.721,0,0,0,.188-.906,1,1,0,0,1,.165-.669,2.539,2.539,0,0,0,.276-.591,7.9,7.9,0,0,1,.471-.985,2.065,2.065,0,0,0,.235-1.378l.346-.708a3.833,3.833,0,0,1,.8-1.734,4.4,4.4,0,0,0,.29-.946,4.534,4.534,0,0,1,.244-.866l.188-1.891.2-.867q.646.237.836.315a1.264,1.264,0,0,1,.306-.512.593.593,0,0,1,.5-.039l-.158.394a1.6,1.6,0,0,1,1.2.63,4.454,4.454,0,0,0,1.055.079l.238,1.182Zm-10.746,17.019.22-.237.032.079A.285.285,0,0,0,506.549-155.223Zm1.859-.079a1.537,1.537,0,0,0-.6-.315.444.444,0,0,1,.032.276.772.772,0,0,1-.079.2Zm-.147-5.673-.032-.079.094-.157.221.157-.126.079Zm.272,3.624.047.315-.252-.237C508.36-157.324,508.427-157.351,508.534-157.351Zm1.916-5.83s.042-.42.125-1.261a1.821,1.821,0,0,0-.361,1.655c-.315,0-.426.184-.331.551l.331-.551Zm.392-1.97c-.242.053-.34.264-.3.631A.419.419,0,0,0,510.842-165.151Zm.173-.946-.046.473Q511.533-165.781,511.014-166.1Zm1.069-2.836a.952.952,0,0,0-.346,1.1c-.158,0-.234.039-.228.118a1.265,1.265,0,0,0,.1.355l.126-.473A1.712,1.712,0,0,0,512.084-168.933Z" transform="translate(-426.873 196.351)" fill="#87c0bd"/>
      <path id="Path_689" data-name="Path 689" d="M571.385-182.144a.349.349,0,0,0-.213.354c0,.184-.06.276-.165.276a1.947,1.947,0,0,0-.709.394l-.6-.315a1,1,0,0,1-.315-.2,1.077,1.077,0,0,0-.316-.2l-.489-.236a.6.6,0,0,1-.378.236,2.017,2.017,0,0,1-.646-.236l-.191-.867a1.136,1.136,0,0,1-.024-.354c.005-.184-.13-.355-.4-.512L566-182.617l-1.07,1.655-.629,1.182-.142.236.08.394c-.211,0-.294.053-.253.158a1.561,1.561,0,0,1-.306.709,2.188,2.188,0,0,0-.338.631,1.244,1.244,0,0,1-.158.2.241.241,0,0,0-.047.276.175.175,0,0,1,.079.2.332.332,0,0,1-.157.2,1.137,1.137,0,0,0-.575.827,2.628,2.628,0,0,1-.117.591l-.11.315a.708.708,0,0,0-.2.473c-.021.21-.073.342-.157.394-.053,0-.124.053-.213.158s-.076.236.04.394c-.064.106-.122.157-.173.157a.754.754,0,0,0-.283.867c.125.053.142.158.048.315a.725.725,0,0,0-.268.71,1.452,1.452,0,0,0-.331.748,6.035,6.035,0,0,1-.125.669,2.578,2.578,0,0,1-.345,1.1l-.047.473c.042.106.036.157-.016.157a7.1,7.1,0,0,1-.22.827,7.388,7.388,0,0,0-.22.827c-.043.158-.112.407-.211.748a1.894,1.894,0,0,0-.071.906,1.613,1.613,0,0,0-.2.591,2.722,2.722,0,0,0-.039.591,7.418,7.418,0,0,1-.258,1.221,12.553,12.553,0,0,0-.306,1.3,5.014,5.014,0,0,0-.313,1.576l-.3.631h-.079c.042.105.042.171,0,.2a.086.086,0,0,0-.031.118,2.74,2.74,0,0,1-.439,2.049l-.078.394a1.33,1.33,0,0,1-.095.354.467.467,0,0,0-.015.355,1.358,1.358,0,0,1-.094.355,1.306,1.306,0,0,0-.095.354q.031.473-.6.867l.032.079.032.078a.111.111,0,0,1-.11-.078l-.283.473H555.8l-.283.079c.01.158-.133.132-.425-.079h-.158a2.236,2.236,0,0,1-1.119-.236,1.4,1.4,0,0,0-.757-.315l-.678-.71q.11.081-2.3-1.811a.711.711,0,0,1-.3-.157,4.589,4.589,0,0,1-.474-.394l-.631-.788-.095-.236-.047.079-.174-.236h.157l-.347-.473a.173.173,0,0,0-.062.237.265.265,0,0,0-.087-.118c-.037-.026-.039-.065-.007-.118l-.111-.473-.284.079c.01-.1-.058-.209-.205-.315l.016-.157-.142-.157-.142-.158-.032-.079.379.157q-.694-.55-.458-.945l-.457-.157c.1,0,.137-.052.094-.158l-.079-.787a3.442,3.442,0,0,1-.537-1.34c-.042-.1-.17-.157-.378-.157.231-.209.288-.394.173-.552l-.206-.315a1.421,1.421,0,0,1-.079-.591,5.9,5.9,0,0,0,0-.59l-.205-.316.378-.236-.41-.237a1.865,1.865,0,0,1,.078-.591,1.879,1.879,0,0,0,.078-.59q-.111-.473-.19-1.064c-.053-.394-.1-.7-.127-.906l.031-.315-.346-.472a.593.593,0,0,1,.26-.237,2.663,2.663,0,0,0,.291-.157.324.324,0,0,0-.324-.118,1.391,1.391,0,0,1-.26.04,1.108,1.108,0,0,0,0-.394c-.021-.315.1-.473.362-.473q.283-.078.125-.473h-.157q-.4,0-.8-.631l-.063-.158q-.126-.313.267-.709l.063.157h.079a1.528,1.528,0,0,0,.015-.551h-.394l-.19-1.261a4.939,4.939,0,0,1,.235-.788.42.42,0,0,1-.149-.276,2.155,2.155,0,0,0-.1-.354.876.876,0,0,0-.269-.867.624.624,0,0,1-.024-.355,3.356,3.356,0,0,0,.055-.355,1.12,1.12,0,0,0,.52-.078.67.67,0,0,1-.039-.2.511.511,0,0,0-.15-.276,1.032,1.032,0,0,1,.292.04.83.83,0,0,1,.244.118c.169.158.315.131.441-.079a.955.955,0,0,0,.505.473,1.255,1.255,0,0,0,.631,0,2.458,2.458,0,0,1,.866,0,11.737,11.737,0,0,1,1.15.315,9.544,9.544,0,0,1,1.813.788.361.361,0,0,1,.189.078c.073.054.053.132-.062.237a.565.565,0,0,0,.024.354,1.46,1.46,0,0,0,.244.512l.048.315c-.158,0-.2.027-.126.08a.386.386,0,0,1,.142.157l-.236,1.575.19.079a.816.816,0,0,0-.417.631,1.659,1.659,0,0,1-.086.473,5.94,5.94,0,0,1-.134.748,1.989,1.989,0,0,0-.054.748c-.032.053.006.211.11.473l-.172.551a.769.769,0,0,0-.078.2.434.434,0,0,0,.032.276l.018,2.6a4.677,4.677,0,0,0,.017,1.418c.032.211.061.448.088.71a6.318,6.318,0,0,0,.182.945.45.45,0,0,1,.033.276.613.613,0,0,0,.063.355l.19.866a1.98,1.98,0,0,0,.143.946,19.233,19.233,0,0,0,.632,1.969,2.257,2.257,0,0,0,.8,1.024,1.245,1.245,0,0,0,.442,1.1l.252-.552.424-1.5a.587.587,0,0,1,.149-.315.293.293,0,0,0,.071-.315,5.343,5.343,0,0,1,.22-.63l-.031-.08a.392.392,0,0,1,.165-.275.279.279,0,0,0,.055-.354l.315-.394a1.059,1.059,0,0,1,.109-1.1c.01-.1.025-.262.047-.473a.434.434,0,0,1,.394-.394c.051,0,.031-.052-.064-.158s-.1-.184-.015-.236l.188-.709a.524.524,0,0,0,.039-.394,1.208,1.208,0,0,1-.04-.394l-.016-.236a.527.527,0,0,1,.174.236l.189-.315c-.084-.209-.048-.315.109-.315l.094-.157c-.116-.158-.124-.276-.023-.354a.877.877,0,0,0,.2-.2,3.33,3.33,0,0,0,.047-.866c-.064-.421.067-.682.392-.789l.064-.236c-.148-.1-.2-.2-.15-.276a.226.226,0,0,0,.04-.2l.377-.63a.113.113,0,0,1,.111.078.745.745,0,0,1,.3.157h.158a.294.294,0,0,1,.142-.236.522.522,0,0,0,.173-.158.508.508,0,0,1,.15.276.926.926,0,0,0,.071.276l-.268-.078-.252.552h-.157c-.211,0-.342.131-.394.394l-.266.709a.121.121,0,0,0,.024.158.123.123,0,0,1,.024.157l.52-.078a.507.507,0,0,0-.046.473l-.473.394-.079-.394-.2.472a.122.122,0,0,0,.024.158.541.541,0,0,1,.1.158.509.509,0,0,0-.046.473l.441.315-1.119.552a.275.275,0,0,0,.284.118.907.907,0,0,1,.221-.039c-.053,0-.143.105-.268.315a1.217,1.217,0,0,0,.332.631l-.551.788.252.237a1.572,1.572,0,0,1-.283.276c-.158.131-.142.3.048.511a1.494,1.494,0,0,1,.52-.079.339.339,0,0,0-.031.315l-.236,1.182.173-.158a1.017,1.017,0,0,1,.157-.394.807.807,0,0,0,.126-.473,21.743,21.743,0,0,0,.691-2.6l.283-.867.267-.315c-.084-.209-.11-.341-.08-.394a1.854,1.854,0,0,0,.173-.552,1.017,1.017,0,0,1,.252-.552.5.5,0,0,0,.244-.473,3.946,3.946,0,0,1,.008-.472l.219-1.025.345-1.5a1.874,1.874,0,0,0,.173-.552,1.263,1.263,0,0,1,.3-.63l.315-1.182.345-.71a4.285,4.285,0,0,0,.551-1.182.75.75,0,0,1,.11-.315q.094-.157-.079-.394c.209,0,.341-.131.394-.394a1.576,1.576,0,0,0,.157-.4,1.87,1.87,0,0,1,.2-.472l.095-.552c.188-.051.283-.144.283-.276a.3.3,0,0,1,.126-.276,1.743,1.743,0,0,1,.6-.867l-.174-.236a1.514,1.514,0,0,0,.283-.866l.11.078.048-.078.661-.71-.426-.078a3.683,3.683,0,0,1-.819-.079l-.425.315a1.121,1.121,0,0,1,.394.394l.457.158a1.46,1.46,0,0,1-.52.078q-.048.08.071.276c.078.132.076.224-.008.275l-.236.395-.6.078-.126.078.536.158a1.083,1.083,0,0,1-.709.394l.142.552h-.866l-.346,1.1.3.157-.3.237c-.116.105-.269.053-.457-.157q-.346.315.11.472l-.141,1.024.173-.157a.864.864,0,0,1-.149.709q-.229.316-.275.394c-.01.106-.111.184-.3.236a1.767,1.767,0,0,1-.441.079l-.031-.079-.426.315a.124.124,0,0,0-.024-.157.121.121,0,0,1-.024-.157.42.42,0,0,0,.236-.394q.03-.314.046-.473l-.016-.236h.157l.345-1.1a.7.7,0,0,0,.205-.472c.021-.209.073-.342.157-.394l.236-.394a3.5,3.5,0,0,1,.055-.355c.026-.131.044-.249.055-.355.209,0,.356-.157.44-.473a1.414,1.414,0,0,1,.2-.591.6.6,0,0,1,.559-.276l-.237-.394.473-.394a.68.68,0,0,1,.125-.67c.168-.236.283-.406.346-.511.1,0,.131-.066.078-.2s-.027-.2.078-.2a.425.425,0,0,0,.181-.236.44.44,0,0,1,.182-.236l.268-.71a1.024,1.024,0,0,1,.582-.709,1.132,1.132,0,0,0,.283-.473,1.539,1.539,0,0,1,.346-.708.88.88,0,0,0,.353-.394.872.872,0,0,1,.355-.394,5.247,5.247,0,0,1,.89-.433c.342-.13.606-.222.8-.276.031-.051.125-.078.283-.078a2.266,2.266,0,0,1,.993.315,5.377,5.377,0,0,0,1.387.315q.189.08.978.473a2.886,2.886,0,0,1,1.924,1.655l.331.63.143.552Zm-26.608,6.933.236.394.346-.315-.489-.236-.111-.473a.517.517,0,0,0-.188.709,3.447,3.447,0,0,0-.015.355c0,.131,0,.276.017.433h.157l-.048-.315Zm.205.71a.292.292,0,0,0,.056.236.781.781,0,0,0,.338.157l-.174-.631Zm1.31,1.89a1.355,1.355,0,0,0-.362-.315c.021.053-.048.08-.205.08a.5.5,0,0,0,.174.236.4.4,0,0,1,.142.158.354.354,0,0,1-.331.157,1.42,1.42,0,0,1,.142.552c.043.106.01.158-.094.158q-.378.236-.031.709a.355.355,0,0,1-.024.236.185.185,0,0,0,.055.236,1.2,1.2,0,0,1-.22.631.414.414,0,0,1,.127.315.237.237,0,0,0,.095.237.278.278,0,0,1-.055.354.4.4,0,0,0-.165.276h.552l-.064-.158a2.68,2.68,0,0,1-.016-1.024,1.05,1.05,0,0,0-.1-.631c.105,0,.167-.1.189-.315l-.017-.63c.063-.105.057-.184-.016-.236s-.148-.1-.221-.158a.547.547,0,0,0,.308-.315.67.67,0,0,1,.228-.315Zm-.175-1.024a.884.884,0,0,0,.457-.236l-.426-.473-.441.473A.7.7,0,0,0,546.118-173.636Zm-.324,6.855c.209,0,.331-.026.362-.078.063-.105.031-.184-.095-.237s-.2-.1-.22-.158h-.079Zm.051,3.861a.111.111,0,0,0,.11.079l-.078.394H545.8Zm.087-8.037h-.08l.048-.078Zm.071,9.612q.189.079.095.236l-.031-.079-.142-.157Zm.722-2.915a.394.394,0,0,0-.41-.236.447.447,0,0,1-.078.394A2.346,2.346,0,0,0,546.726-164.26Zm.765-8.116s-.074-.051-.221-.157c-.085-.21-.195-.288-.331-.237-.074-.051-.1-.051-.079,0q-.332.159.08.394a.75.75,0,0,0,.252.237.281.281,0,0,1-.189.315l-.22-.157.048.315.331.236.031-.709Zm-.216,6.146-.425-.473a.382.382,0,0,0-.016.355l.142.355C547.185-165.993,547.286-166.072,547.275-166.229Zm-.2.59a1.788,1.788,0,0,0-.071-.276,1.672,1.672,0,0,0-.031,1.1h.158c.072.053.1.093.087.119a.132.132,0,0,0,.008.118c.021.053.131.132.331.236l-.142-.354a.478.478,0,0,0-.268-.276c.052,0,.088-.105.11-.315A.732.732,0,0,1,547.079-165.639Zm-.121-3.348a1.357,1.357,0,0,0-.031.512,1.71,1.71,0,0,0,.064.355l.11.079A1.982,1.982,0,0,0,546.958-168.987Zm.547-5.121-.489.158a2.805,2.805,0,0,1,.615.552Zm-.367,11.464a.736.736,0,0,0,.268.276l.33-.552c-.053,0-.11-.079-.173-.236a.46.46,0,0,1-.126.276c-.074.078-.1.145-.078.2l-.284-.316A1.232,1.232,0,0,0,547.137-162.644Zm.014-1.537.205.71.19.079a.607.607,0,0,1-.024-.355c.026-.131.044-.249.055-.354Zm.137,2.8a.378.378,0,0,0,.323.118,1,1,0,0,0-.118-.2,1.431,1.431,0,0,0-.308-.275A.672.672,0,0,0,547.288-161.384Zm.528-.157a.17.17,0,0,0,.079.2l.189.078a.426.426,0,0,1,0-.394C547.927-161.66,547.837-161.62,547.816-161.541Zm.758,2.087a.585.585,0,0,1,.063-.236c-.211,0-.324.014-.338.04s.055.17.212.433A.582.582,0,0,0,548.574-159.454Zm6.6-.827c.042-.026.021-.143-.062-.354a1.232,1.232,0,0,0-.315.394A.975.975,0,0,0,555.175-160.281Zm.608-6.341.158-.394Q556.067-166.7,555.784-166.623Zm1.129-6.619.378-.237a.679.679,0,0,1,.04.2.49.49,0,0,0,.15.276.957.957,0,0,0-.109,1.1l-.284.078-.236.394.143.157a1.233,1.233,0,0,1,.464.276.661.661,0,0,1,.055.433h-.157l-.236-.394-.441.079a1.14,1.14,0,0,1,.181.157c.048.053.045.079-.008.079a.811.811,0,0,0-.252.354c-.083.185-.189.25-.315.2a.442.442,0,0,1-.158-.2.45.45,0,0,0-.157-.2,1.2,1.2,0,0,0,.518-1.261q.409-.946.55-1.182Zm.647.63c.073.053.148.107.221.158a.521.521,0,0,1,.173.236c-.032.053-.091.067-.181.039a.23.23,0,0,1-.166-.118C557.459-172.4,557.444-172.5,557.559-172.611Zm.378-.63-.284.079-.031-.079.236-.394.063.157C557.931-173.32,557.938-173.241,557.938-173.241Zm1.037-2.127h.079l-.142.236Zm.409-.945-.047.078a.114.114,0,0,0-.11-.078Zm.676-.867h-.315c.042-.157.115-.236.221-.236C560.028-177.259,560.06-177.181,560.06-177.181Zm2.817-4.176.181-.236a.849.849,0,0,0,.2-.394.745.745,0,0,0-.741-.079l-.44.867a1.327,1.327,0,0,0,.339.157.891.891,0,0,1,.37.236l.188-.315Zm.59-.985a.564.564,0,0,0,.15-.512h-.552l-.047.078a.59.59,0,0,0,.347.08.471.471,0,0,0-.174.354.848.848,0,0,0,.032.276A1.924,1.924,0,0,1,563.467-182.342Zm.732-1.024a1.97,1.97,0,0,0,.441-.67h-.079a.21.21,0,0,0-.212.158.435.435,0,0,1-.181.236q-.442.08-.473.788Q563.868-183.011,564.2-183.366Zm1.228-1.457a1.354,1.354,0,0,0-.322.079c-.164.053-.2.184-.119.394Zm.3-.236c-.148-.1-.216-.209-.206-.315h-.157l.143.552Z" transform="translate(-440.851 199.793)" fill="#87c0bd"/>
      <path id="Path_690" data-name="Path 690" d="M618.659-189.01s.088.092.268.275a1.08,1.08,0,0,1,.315.591l.032.473H619.2c-.105,0-.283-.118-.536-.355a.478.478,0,0,0-.724-.039l.378.157h.157c.021.053-.021.079-.126.079-.672-.105-1.24-.209-1.7-.315-.073-.052-.1-.091-.087-.118a.136.136,0,0,0-.008-.118h.315a.583.583,0,0,0-.482-.315.68.68,0,0,1-.385-.079l-.157.394a7.636,7.636,0,0,1-1.166-.158.339.339,0,0,1,.031-.315l-.457-.157-.078.394a4.137,4.137,0,0,1-1.435-.237,1.124,1.124,0,0,0,.521-.078.7.7,0,0,0-.378-.158c-.106,0-.153.08-.142.236a1.906,1.906,0,0,1-1.1,0,.815.815,0,0,0-.41-.039,1.083,1.083,0,0,1-.3.039.923.923,0,0,1-.868-.394.972.972,0,0,0-.086.276c-.026.132-.087.146-.182.039s-.179-.118-.252-.039a.3.3,0,0,1-.19.118,1.954,1.954,0,0,0-.662-.078,9.174,9.174,0,0,0-.831,4.019l-.583-.079.063.157.473.394-.283.472-.313,1.577-.282,1.261-.095.158a.847.847,0,0,1-.078.787c-.053,0-.079.067-.079.2a.59.59,0,0,1-.047.276l-.331.157a.11.11,0,0,0,.11.079c.021.053.083.079.189.079-.01.106-.032.249-.062.433s-.057.382-.078.591l.127.315-.772.236a3.039,3.039,0,0,1,.52.315l-.188,1.5a4.756,4.756,0,0,1-.441.473l.346.079.032.472c-.051.264-.1.658-.155,1.182s-.083.973-.094,1.34a.275.275,0,0,1-.15.118.448.448,0,0,0-.2.2.283.283,0,0,1-.15.118c-.069.028-.1.118-.087.276h.078l.173-.157a2.814,2.814,0,0,1,.119.394,1.319,1.319,0,0,1,.039.4,6.09,6.09,0,0,0-.108,1.89c.031.21-.116.368-.441.473h.236a1.5,1.5,0,0,1,.087.71q-.04.4-.244.472c-.243.053-.288.264-.141.631l.157-.394c-.031.053-.021.079.031.079l.111.473a2.519,2.519,0,0,1-.677.079l.583.473c.01.157.038.421.08.788a1.465,1.465,0,0,1-.173.945c-.053,0-.1-.051-.141-.157a.8.8,0,0,1-.009-.315.678.678,0,0,0-.15-.473l.033,1.261c.1,0,.141.028.111.079l.157-.394a.806.806,0,0,1-.046.867l.221.946h-.158a.513.513,0,0,0-.173-.236.6.6,0,0,0-.031.315.318.318,0,0,1-.11.315l.189.078a.17.17,0,0,1,.016-.157c.03-.052.1-.08.2-.08a3.424,3.424,0,0,1,.095.434.557.557,0,0,1-.314.59c-.053,0-.063.04-.032.118a.216.216,0,0,1,0,.2v1.182a2.34,2.34,0,0,0,.064,1.339c.021.053-.01.107-.094.158s-.053.132.095.237a.531.531,0,0,1,.015.236.862.862,0,0,0,.079.394l.1.63.174.631.252.63a7.73,7.73,0,0,0,.3,1.34,6.182,6.182,0,0,1,.269,1.261,1.247,1.247,0,0,1-.11.709,11.526,11.526,0,0,1-3.154-3.152.528.528,0,0,0-.174-.236l-.143-.158a.332.332,0,0,1-.133-.236.349.349,0,0,0-.135-.237,15.515,15.515,0,0,1-1.028-3.545q-.174-1.024-.318-3.545l-.224-3.31q.017-.55-.009-1.3a6.566,6.566,0,0,1,.07-1.3,7.588,7.588,0,0,0,.14-1.615q0-.984.015-1.536a5.085,5.085,0,0,0,.125-1.261,3.353,3.353,0,0,1,.157-1.182,6.586,6.586,0,0,0,.078-1.181,1.065,1.065,0,0,1,.267-.71.751.751,0,0,1-.252-.236l.189-.315a15.259,15.259,0,0,1,.335-3.584,11.063,11.063,0,0,1,.824-3.349.71.71,0,0,1-.205-.315,2.1,2.1,0,0,1-.032-.866l.535-1.024a2.753,2.753,0,0,0,0-.394,1.4,1.4,0,0,1,.094-.552l.157-.789q-1.764.317-2.615.552l-1.4.631q-.2.079-.654.236a5.589,5.589,0,0,1-.89.236,3.86,3.86,0,0,0-1.213.315l-.2.079a3.039,3.039,0,0,1-1.262-.394q-.725-.63-.631-1.182-.032-.473.5-.315h.472a21.022,21.022,0,0,0,2.143-.552,2.418,2.418,0,0,0,.883-.158,23.786,23.786,0,0,1,3.2-.866,10.544,10.544,0,0,0,1.528-.316.948.948,0,0,0,.473-.2.808.808,0,0,0,.109-.512,6.952,6.952,0,0,1,.268-1.1q.187-.709.313-1.378t.251-1.143l.377-1.419a7.794,7.794,0,0,0,.33-1.733c.02-.209.048-.5.086-.866a3.734,3.734,0,0,0,.006-.867q.158-.787.567-.946a1.982,1.982,0,0,0-.166-.315.786.786,0,0,1-.119-.394c-.042-.1.015-.157.173-.157l-.284-.315.015-.157a1.51,1.51,0,0,0,.63-.2,1.1,1.1,0,0,1,.741-.118.839.839,0,0,1,.41-.158,1.422,1.422,0,0,1,.9.473,2.726,2.726,0,0,0,.9.473,2.155,2.155,0,0,1,.434.591.779.779,0,0,0,.449.433l.127.315a.341.341,0,0,1,.024.158c-.006.053.028.105.1.157l.126.315q.016.237.024.748a2.418,2.418,0,0,1-.1.827,2.543,2.543,0,0,1-.14,1.419.351.351,0,0,0-.024.236.33.33,0,0,0,.134.236.273.273,0,0,1-.11.315,2.079,2.079,0,0,0,.048.512.942.942,0,0,1-.125.669,3.575,3.575,0,0,0-.44,1.261c-.043.157-.092.329-.149.512s-.107.355-.149.512a2.666,2.666,0,0,0-.331,1.34.6.6,0,0,0,.347.079,40.213,40.213,0,0,1,4.255.394q.693.159,1.663.316T617-189.4l1.387.315Zm-16.682,23.242q-.456.237-.3.63Zm.238,1.182a.8.8,0,0,0-.426-.079l-.016.157.095.236C602.226-164.165,602.341-164.271,602.215-164.586Zm-.2.669c-.01-.026.01-.039.063-.039-.053,0-.068.027-.047.079Zm.391-4.136-.19-.473-.189.709.047.316.174.236Zm.182-6.225q-.314.789.017,1.024Zm.689-5.357-.646.157a1.558,1.558,0,0,0,.442.315l-.2,1.261A1.73,1.73,0,0,0,603.272-179.635Zm.138-4.57h-.236a1.2,1.2,0,0,0,.15.276c.057.078.07.145.039.2h.08C603.526-183.784,603.515-183.942,603.41-184.2Zm.364,1.89a.766.766,0,0,0-.181.631,3.366,3.366,0,0,1,.025.552A1.412,1.412,0,0,0,603.774-182.314Zm.4-5.279-.047.08.032.078.047-.078Zm.553,1.577c-.012-.158-.064-.223-.158-.2a.86.86,0,0,1-.22.04C604.438-185.964,604.563-185.911,604.731-186.016Zm.392,15.521-.031-.078-.047.078Zm.216,10.558a.271.271,0,0,1,.015.236.273.273,0,0,0,.017.237h-.158a2.939,2.939,0,0,0-.064-.552C605.255-160.016,605.318-159.989,605.339-159.937Zm.1-30.413c-.021-.051-.006-.078.047-.078h-.078l-.016.158Zm4.838.67a.086.086,0,0,0,.031-.118,1.365,1.365,0,0,0-.5-.078,1.314,1.314,0,0,1-.5-.079c-.211,0-.347.053-.409.157a.653.653,0,0,0-.078.394,1.963,1.963,0,0,1,1.292-.315C610.174-189.667,610.232-189.654,610.275-189.68Zm1.954-.039a10.836,10.836,0,0,1-1.561-.158l-.015.158,1.561.157Zm1.844.669a.31.31,0,0,0,0-.2q-.158,0-.188.118a.308.308,0,0,0,.11.275A.777.777,0,0,0,614.073-189.05Z" transform="translate(-456.408 204.61)" fill="#87c0bd"/>
      <path id="Path_691" data-name="Path 691" d="M633.4-164.329a1.262,1.262,0,0,1,.064.945.255.255,0,0,1-.118-.2.516.516,0,0,0-.15-.276.285.285,0,0,0-.252.158l-.016.157a.793.793,0,0,1,.253.237,3.3,3.3,0,0,1,.08,1.182,2.013,2.013,0,0,0,.016.827,4.379,4.379,0,0,0,.159.591,1.4,1.4,0,0,1,.033,1.261,2.753,2.753,0,0,0-.078.59,2.379,2.379,0,0,1-.125.67l-.314,1.969c-.031.053-.063.106-.094.157a.275.275,0,0,0,.016.237.256.256,0,0,0,.087.118c.037.027.024.093-.039.2a.415.415,0,0,0-.142-.158c-.263,0-.342.132-.236.4a1.024,1.024,0,0,1-.331.945l-.913,1.261-.078.394a1.328,1.328,0,0,0-.677.67,3.518,3.518,0,0,1-.488.748,6.183,6.183,0,0,0-.992,1.261,2.072,2.072,0,0,0-.63.788c.053.263-.109.446-.487.552a.6.6,0,0,1-.378.236c-.189.053-.351.107-.489.158l-.425.315a1.472,1.472,0,0,1-1.5.394l-.992.079a2.619,2.619,0,0,1-1.08-.236c-.353-.158-.591-.262-.718-.315a4.867,4.867,0,0,1-1.8-1.339q-.395-.394-1.277-1.222a3.99,3.99,0,0,1-1.153-1.694h-.157l-.142-.158c.031-.051.02-.078-.032-.078l-.063-.158-.157-.394-.285-.71a3.357,3.357,0,0,0-.363-.708,4.409,4.409,0,0,1-.19-.867q-.143-.551-.316-1.182c-.117-.42-.222-.814-.317-1.182a7.824,7.824,0,0,1-.049-1.1,6.644,6.644,0,0,0-.08-1.182l.157-1.182.172-1.733q.016-.55.456-.631a.755.755,0,0,1-.283-.315,1.528,1.528,0,0,0,.18-.63c.026-.262.044-.445.055-.552a5.514,5.514,0,0,1,.581-1.89,1.049,1.049,0,0,0,.26-.631c.026-.262.044-.446.055-.552a1.336,1.336,0,0,1,.071-.315,1.043,1.043,0,0,0,.008-.473l.41-.552c.03-.052.125-.079.283-.079l-.063-.157a1.05,1.05,0,0,1-.008-.71,2.639,2.639,0,0,1,.212-.552,7.637,7.637,0,0,1,.739-1.5,1.841,1.841,0,0,0,.173-.552l.441-.866a1.6,1.6,0,0,0,.472-.789q.095-.156-.364-.709a1.974,1.974,0,0,1-.1-.355c-.027-.13-.157-.222-.387-.276-.053,0-.111-.079-.174-.236q-.22-.551-.079-.789a.739.739,0,0,1,.473,0l.41.237a.728.728,0,0,0-.078.2.433.433,0,0,0,.032.276l1.072.71a.7.7,0,0,1,.362-.078l-.08-.4,1.214.079a7.574,7.574,0,0,0,1.182,1.182.528.528,0,0,0-.181.04c-.068.027-.065.067.008.118.157.264.341.591.552.985a2.283,2.283,0,0,0,.836.907q.409.236,1.955,1.339l.331.236.173.236.125-.079-.3-.157.015-.158a2.188,2.188,0,0,1,.978.867l.347.473a5.564,5.564,0,0,0,1.12,1.221q.71.59.852.748a.857.857,0,0,1,.032.276c0,.131.089.224.268.276a2.089,2.089,0,0,1,1.4,1.339.377.377,0,0,0,.142.158.512.512,0,0,1,.173.236h-.236l.143.552a.872.872,0,0,0,.315.394.559.559,0,0,0-.03.709.179.179,0,0,1,.166-.078.176.176,0,0,0,.165-.079,1.963,1.963,0,0,0-.3-.552h.236Zm-1.858,2.442s.044-.119.134-.355a.834.834,0,0,0-.1-.748,2,2,0,0,0-.016-1.024c-.1-.367-.164-.6-.206-.71l-.111-.473a1.912,1.912,0,0,0-.662-.867l.174.631h-.315q.094.236.252.236c-.22.106-.289.394-.2.867a5.446,5.446,0,0,0-.235,1.576q-.331-.237-.189-.473a4.663,4.663,0,0,0-.018-1.418,15.379,15.379,0,0,1-.269-2.049,1.457,1.457,0,0,0-.142-.551,1.26,1.26,0,0,0-.459-.552,14.469,14.469,0,0,0-1.371-.867,12.911,12.911,0,0,1-1.26-.788l-1.325-.945a1.393,1.393,0,0,0-.757-.315l-.692,1.419a4.7,4.7,0,0,0-.708,1.575,1.831,1.831,0,0,1-.354.789,1.821,1.821,0,0,0-.353.787,5.21,5.21,0,0,1-.535,1.419.45.45,0,0,0-.078.394c-.053,0-.051.039.008.118s.07.146.039.2c-.157,0-.2.053-.133.157s.086.185.055.237a.349.349,0,0,1-.1.236.356.356,0,0,0-.1.236,1.441,1.441,0,0,1-.345,1.1l-.095.158a.521.521,0,0,1,.174.236.52.52,0,0,1-.039.394,1.328,1.328,0,0,0-.118.394,2.067,2.067,0,0,1-.125.867,2.036,2.036,0,0,0-.125.866c.021.053,0,.132-.062.237a1.021,1.021,0,0,0,.095,1.024.9.9,0,0,0-.378.827,1.815,1.815,0,0,1-.093.748.93.93,0,0,0-.118.394c-.016.157-.03.29-.04.394l.284,1.1.254,1.418.064.158c.084.21.32.342.71.394.084-.051.152-.209.2-.473a1.2,1.2,0,0,0,.631.394l-.568.157a1.57,1.57,0,0,0,.426.079c.1,0,.177-.079.22-.236.073-.209.193-.237.362-.079h.236a3.6,3.6,0,0,0,1.134-.71,27.834,27.834,0,0,0,2.488-2.442A15.342,15.342,0,0,1,627.907-157a.838.838,0,0,1,.182.355c0,.078-.019.118-.071.118q-.173.159-.417.434a.706.706,0,0,0-.2.59,2.738,2.738,0,0,0-1.023.789,1.153,1.153,0,0,0,.662-.315,2.907,2.907,0,0,0,.362-.473l.394.394h-.079a.535.535,0,0,0-.488.355c-.116.236-.252.354-.41.354a1.859,1.859,0,0,0-.976.709.788.788,0,0,1-.378.433,1.261,1.261,0,0,0-.409.355,2.808,2.808,0,0,0,.945,0,3.146,3.146,0,0,0,.487-.945,1.74,1.74,0,0,1,.174.63c-.053,0-.1-.051-.142-.157l-.125.473c.209,0,.3-.1.267-.315.105,0,.173-.026.2-.079a8.393,8.393,0,0,1,1.607-1.5l.6-.867a5.476,5.476,0,0,0,.527-.748,1.182,1.182,0,0,0,.148-.906,1.083,1.083,0,0,1,.3-.236,6.433,6.433,0,0,0,.8-1.733c.01-.1.042-.288.094-.551a.439.439,0,0,1,.473-.4,1.055,1.055,0,0,0-.032-.472,2.049,2.049,0,0,1,.457.157l-.19-.473a1.231,1.231,0,0,1-.127-.71C631.538-161.834,631.542-161.887,631.542-161.887Zm-10.312,9.061.173.236c-.053,0-.067.027-.047.079l-.205-.315Zm3.766.552a1.931,1.931,0,0,0-.347-.473c-.031.053-.1.079-.2.079-.1-.1-.176-.143-.244-.118s-.1.118-.087.276l-.741.315q-.488.159-.52.473a4.785,4.785,0,0,1,.489.04.758.758,0,0,0,.457-.04,1.012,1.012,0,0,1,.346-.118c.146-.026.225-.091.235-.2Zm-.748-.2a.214.214,0,0,0,.134.04,1.105,1.105,0,0,1,0,.394l-.268-.472A.232.232,0,0,1,624.248-152.472Zm.355,0c-.022.079-.085.118-.189.118a.338.338,0,0,0,.031-.315C624.571-152.617,624.623-152.551,624.6-152.472Zm.123-19.342.362-.079-.127-.315Zm1.987.631h0Zm.978,18.358a1.324,1.324,0,0,0-.237-.394.417.417,0,0,1-.236.394Zm1.028-4.215a.889.889,0,0,0,.134-.354l.062.157a.432.432,0,0,1,.009.315,1.37,1.37,0,0,0-.071.315h-.236A.722.722,0,0,1,628.719-157.042Zm.227-2.285a2.893,2.893,0,0,1,.63-.985l.03.078a.778.778,0,0,1-.141.631,1.147,1.147,0,0,0-.259.631.8.8,0,0,1-.416.63A1.777,1.777,0,0,1,628.945-159.327Zm.036,4.806a.706.706,0,0,1,.079-.2l-.267.315C628.9-154.4,628.96-154.441,628.981-154.521Zm2.5-4.766a.282.282,0,0,0-.188.315,1.241,1.241,0,0,0,.047.315.306.306,0,0,1-.188.118.31.31,0,0,0-.19.118,2.351,2.351,0,0,0-.251.945l-.251.158-.913,1.654a2.668,2.668,0,0,0-.44.867c.22-.1.32-.183.3-.236a3.349,3.349,0,0,0,.308-.315,2.366,2.366,0,0,0,.228-.316c.095-.157.243-.405.448-.748a2.156,2.156,0,0,0,.322-1.064l.629-1.181A.494.494,0,0,0,631.482-159.287Zm-1.748.552a.113.113,0,0,1,.11.079c.106.263.006.342-.3.236Zm.328-3.31-.141-.157.046-.079c.073.053.148.107.221.158Zm.285,1.1c.094.106.139.184.134.237a.659.659,0,0,1-.1.236Zm.406-3.7-.031-.079a.847.847,0,0,0,.189.473h-.157l-.159-.394Z" transform="translate(-463.018 196.948)" fill="#87c0bd"/>
      <path id="Path_692" data-name="Path 692" d="M677.967-171.745a6.65,6.65,0,0,1,.27,1.655,8.127,8.127,0,0,1-.046,1.261l-.251,1.339a2.733,2.733,0,0,0-.078.591,5.09,5.09,0,0,1-.094.749,3.22,3.22,0,0,1-.172.945q-.488.552-.33.945l.016.236a3.761,3.761,0,0,0-.181.433,1,1,0,0,0,.024.748c.021.053,0,.079-.047.079l-.471,1.576q-.048.079.127.315a.171.171,0,0,1-.017.157.14.14,0,0,1-.125.079c-.107,0-.147.027-.127.078a.5.5,0,0,0,.174.237l-.127.078h-.236l-.015.158-.046.867-.518,3.23-.094.946-.2.866a.758.758,0,0,1-.11.315.662.662,0,0,0-.079.394.972.972,0,0,1,.033.867.6.6,0,0,0-.015.552c.021.315.053.787.1,1.419a7.858,7.858,0,0,0,.27,1.654.426.426,0,0,1-.046.276.314.314,0,0,0,.063.354l.236.394a3.05,3.05,0,0,1,.182.748c.037.29.071.54.1.748l-.094.158a1.509,1.509,0,0,1-.473-.394l.079.394a1.577,1.577,0,0,1-.441-.315l-.253.157a19.94,19.94,0,0,1-1.813-1.182l-.11-.078a1.171,1.171,0,0,0-.426-.473c.063-.1.031-.183-.095-.236a17.866,17.866,0,0,1-.773-1.734,12.123,12.123,0,0,1-.7-2.127,11.3,11.3,0,0,1-.3-4.885v-.394l.11-1.1a5,5,0,0,0,.085-.867,6.622,6.622,0,0,1,.1-1.025c.052-.262.1-.538.141-.827a3.639,3.639,0,0,1,.267-.906,2.129,2.129,0,0,0,.109-.709,2.143,2.143,0,0,1,.109-.709c.074-.209.155-.5.243-.867a6.654,6.654,0,0,0,.165-.866,1.192,1.192,0,0,1,.15-.709,3.59,3.59,0,0,0,.258-.631,2.174,2.174,0,0,1,.22-1.418,5.608,5.608,0,0,0,.337-1.221,3.468,3.468,0,0,1,.369-1.143q.062-.236.314-1.576l-.867.394-.173.157a1.415,1.415,0,0,1-.551.788q-.425.316-.6.473l-.929,1.024a4.81,4.81,0,0,1-.9,1.1q-.047.08-.676.867l-.094.157a4.969,4.969,0,0,1-.85,1.419,4.021,4.021,0,0,0-.754,1.261,2.515,2.515,0,0,1-.425.71l-.3.63a1.23,1.23,0,0,1-.157.59c-.116.236-.2.408-.267.512l-.974,1.892q-.723,1.734-1.006,2.6a3.663,3.663,0,0,1-.236.591,1.123,1.123,0,0,0-.126.669c-.263,0-.351.106-.268.315a1.623,1.623,0,0,0-.1.433.475.475,0,0,1-.338.434l-.063.236c-.211.526-.462.816-.756.867h-.236a.812.812,0,0,0-.568-.236h-.551a1.584,1.584,0,0,0-.339.039c-.121.026-.266-.039-.433-.2-.021-.052-.121-.1-.3-.158a4.17,4.17,0,0,1-.457-.157q.615.552.333,1.024a3.468,3.468,0,0,0-.505-.473c-.211,0-.352.237-.425.709a.521.521,0,0,1,.245.315c.016.106.028.236.039.394-.148-.1-.368-.262-.662-.472a3.246,3.246,0,0,1-.686-.631,1.672,1.672,0,0,1-.324-.71l-.064-.157-.125-.315a.325.325,0,0,1,.078-.395l-.063-.157a.414.414,0,0,1-.2-.394.8.8,0,0,0-.008-.315,17.254,17.254,0,0,1-.319-4.333,14.68,14.68,0,0,1,.188-1.5.273.273,0,0,0-.017-.237.275.275,0,0,1-.015-.236q.016-.55.139-2.994l.047-.473h-.236a2.763,2.763,0,0,1-.739,1.1,2.01,2.01,0,0,1-.552.394.886.886,0,0,0,.071-.315.524.524,0,0,1,.274-.394q.158,0,.127-.079a4.052,4.052,0,0,1,.771-1.024,1.569,1.569,0,0,0,.188-1.5,3.935,3.935,0,0,1-.615.631,4.455,4.455,0,0,0-.52.472l.064.158-.016.157.016.236-.41-.236q.061.553-.52.473l.252.63q-.836.079-.786,1.182a.458.458,0,0,0-.268-.078c-.107,0-.166.078-.182.236s-.05.237-.1.237L653.5-163l-.378-.157.442.709c-.116-.158-.227-.236-.331-.236l-.409.552a.121.121,0,0,0,.024.157.124.124,0,0,1,.023.157,1.732,1.732,0,0,0-.455,1.419l-.157.394a2.354,2.354,0,0,0-.708,1.182l-.189.315a.486.486,0,0,1-.094.552,2.477,2.477,0,0,0-.315.394,1.3,1.3,0,0,0,.236.394.8.8,0,0,1-.337.433.5.5,0,0,0-.26.433,5.351,5.351,0,0,1,.93.158q.189.868-.236,1.182c-.085.053-.115.106-.094.158q-.017.158-.071.511a1.63,1.63,0,0,1-.2.591.479.479,0,0,0-.055.354,1.262,1.262,0,0,1,.024.355.31.31,0,0,1-.236.394l-.031.315a7.194,7.194,0,0,1-.267,1.1l-.22,1.024a.631.631,0,0,1-.087.276l-.117.2a.405.405,0,0,0,.126.315c-.064.105-.168.105-.315,0a.729.729,0,0,0-.3-.158l.078-.787a.114.114,0,0,0-.11-.08l-.96,1.734h-.473q-.347.316.252.63l-.125,1.261-.8-.63.362.709-.567.157.316.394a.292.292,0,0,1-.331-.039c-.085-.079-.221-.222-.41-.433.022.053-.015.157-.11.315l-.394-.394a3.681,3.681,0,0,0-.56-.315,4.184,4.184,0,0,1-.67-.394c-.053,0-.094-.039-.125-.118a.443.443,0,0,0-.158-.2.479.479,0,0,0-.189-.473l-.444-2.284q-.1-.236-.261-.552a2.576,2.576,0,0,1-.244-.709,3.723,3.723,0,0,0-.182-.749,1.458,1.458,0,0,1-.1-.748,1.292,1.292,0,0,0-.072-.67,2.817,2.817,0,0,1-.134-.827,1.363,1.363,0,0,0,.015-.552,1.338,1.338,0,0,1,.016-.552h.078a.7.7,0,0,1-.205-.315.169.169,0,0,1,.1-.237,2.581,2.581,0,0,0,.29-.157l-.5-.473.2-.867c-.02-.051.024-.1.134-.157a.286.286,0,0,0,.181-.236,2.019,2.019,0,0,1,.015-.552,1.017,1.017,0,0,1-.181-.157.774.774,0,0,0-.261-.158l.205-.078c.125.053.21.067.252.039s.047-.078.016-.157l-.079-.2.063-.63-.174.157a.448.448,0,0,1,.095-.354.469.469,0,0,0,.125-.276l-.441-.315.567-.158a.5.5,0,0,0-.41-.236l.52-.473-.441-.315.2-.079c.125-.209.179-.342.157-.394a2.689,2.689,0,0,0-.181-.354.488.488,0,0,1,.07-.512l.19.473h.078a1.519,1.519,0,0,0-.126-.709l-.142.236-.017-.63a.5.5,0,0,0,.244-.473.928.928,0,0,1,.039-.394l-.031-.079-.1-.236q-.095-.236.362-.473a.712.712,0,0,1-.205-.315,1.449,1.449,0,0,1-.063-.749c.042-.288.067-.484.078-.59l.3-.236-.016-.63a.767.767,0,0,0,.078-.2,1.13,1.13,0,0,1,.126-.276.506.506,0,0,0,.292-.354.426.426,0,0,0-.055-.434c-.064-.157-.053-.262.031-.315s.116-.1.094-.157a1.916,1.916,0,0,0,.008-.276,1.6,1.6,0,0,1,.008-.276l.785-2.364.315-.787c.052,0,.055-.026.008-.079a1.253,1.253,0,0,0-.182-.157,1.337,1.337,0,0,0,.323-.08c.162-.051.192-.209.087-.472a.266.266,0,0,0,.118-.394,3.1,3.1,0,0,1-.166-.315,1.466,1.466,0,0,1,.527-.355,1.308,1.308,0,0,1,.67.2l.883.236-.189.315a3.317,3.317,0,0,0,.458.552c.147.106.3.224.457.355s.347.276.568.432a1.748,1.748,0,0,1,.931,1.34l.662.473a1.335,1.335,0,0,1-.054.749,4.211,4.211,0,0,1-.18.433l-.456,1.419a4.1,4.1,0,0,1-.141.434,3.689,3.689,0,0,0-.142.432,5.9,5.9,0,0,1-.259.631,6.6,6.6,0,0,0-.259.63.673.673,0,0,1,.039.2.5.5,0,0,1-.086.275l.063.158a1.39,1.39,0,0,0-.307.709q-.087.473-.149.71l-.376,1.812-.11.708a4.11,4.11,0,0,1-.551.789l.41.236q-.438,3.232-.577,6.224a1.345,1.345,0,0,0,.441-.867,2.123,2.123,0,0,0,.369-.946,2.1,2.1,0,0,1,.369-.945.749.749,0,0,0,.078-.2.439.439,0,0,0-.031-.276l.409-.157.488-1.734a3.864,3.864,0,0,1,.494-1.024,3.85,3.85,0,0,0,.5-1.024c.2-.419.389-.8.566-1.142s.346-.642.5-.906a9.973,9.973,0,0,1,1.29-2.285l.708-1.182q.55-.787,1.716-2.206c.115-.1.245-.236.393-.394l.441-.472.568.236.387.276a.675.675,0,0,0,.4.118.546.546,0,0,0,.032.473,5.667,5.667,0,0,1,1.4,2.127l-.238-1.182h.079l.205.315a7.773,7.773,0,0,0,.57,1.812,1.868,1.868,0,0,1-.048.276.444.444,0,0,0,.032.276l.129,2.284-.141,1.024.017,1.419a.37.37,0,0,0,.141.157.515.515,0,0,1,.174.237,1.929,1.929,0,0,1-.243.276c-.133.131-.093.328.118.591-.094.157-.194.236-.3.236-.053,0-.068.028-.048.079l.033,1.261c-.042.421-.182.658-.424.709-.106,0-.127.078-.063.236a.8.8,0,0,1,.425.079.943.943,0,0,0,.259-.433.987.987,0,0,1,.087-.276,5.5,5.5,0,0,0,.464-1.1,2.7,2.7,0,0,1,.622-1.1,3.25,3.25,0,0,0,.173-.946q.363-.078.787-.788a4.191,4.191,0,0,1,.881-1.733,5.759,5.759,0,0,1,.96-1.734,15.67,15.67,0,0,1,1.2-2.127,11.891,11.891,0,0,0,1.321-2.206q.22-.236.378-.433a3.242,3.242,0,0,1,.33-.355l.85-1.024a18.72,18.72,0,0,1,1.29-1.5,12.487,12.487,0,0,1,2.378-2.127,3.127,3.127,0,0,1,.559-.276,3.337,3.337,0,0,0,.559-.276c.357-.158.577-.263.662-.315a.924.924,0,0,1,.2.2.609.609,0,0,0,.276.2c.189.211.335.315.441.315a1.123,1.123,0,0,1,.883.63,1.244,1.244,0,0,0,.584.473,3.909,3.909,0,0,1,1.025,1.182,6.717,6.717,0,0,1,.726,1.418l.283-.078ZM643.2-158.824l.142.552-.41.157q.016-.157.109-.709Zm.859.473a4.578,4.578,0,0,0-.15-.473l.049,1.1A.782.782,0,0,0,644.061-158.352Zm.06,4.766c.073-.078.011-.169-.189-.275l.079.394Zm.356-7.366c-.063-.158-.127-.249-.19-.276s-.125.014-.189.118Zm-.016.355c0-.13-.089-.223-.267-.276l.047.315a.764.764,0,0,0,.252.237A.83.83,0,0,1,644.461-160.6Zm-.112-1.852c-.01.368-.021.6-.031.709A.713.713,0,0,0,644.349-162.448Zm7.454.709s-.073-.051-.221-.157c-.042-.105-.042-.17,0-.2a.086.086,0,0,0,.031-.118c-.211,0-.294.184-.252.552a.858.858,0,0,0-.44.867l-.221.236c-.242.053-.3.237-.173.552l-.378.237a7.12,7.12,0,0,1-.314,1.182l.032.079a1.937,1.937,0,0,0-.362.866c-.031.053-.123.184-.276.394a.6.6,0,0,0,.009.71,1.956,1.956,0,0,0,.817-1.89.594.594,0,0,0,.268-.512c.01-.237.02-.407.031-.513a1.387,1.387,0,0,0,.465-.315,1.265,1.265,0,0,0,.212-.552l-.331-.237c.209,0,.283-.078.221-.236.137-.052.22-.04.252.04l.078.2c.031-.051.1-.078.205-.078a.965.965,0,0,1-.175-.631.342.342,0,0,0,.039-.2.209.209,0,0,1,.119-.2c.051,0,.068-.026.047-.079l.063.158Zm-1.967,3.152.22.158c-.01.105-.053.132-.125.078s-.095-.1-.063-.157Zm.6,2.679q.19.473.441.315v-.394Zm2.969-9.691h-.315a2.567,2.567,0,0,0-.644,1.34c.021.053-.021.078-.126.078a3.856,3.856,0,0,0-.219,1.025q-.316,0-.157.394c-.211,0-.316.067-.315.2a.847.847,0,0,0,.032.276l.252.236q.126-.077.031-.709h.078l.851-.236-.3-.157a.718.718,0,0,1-.472,0l.165-.276.165-.276.519-.867a1.279,1.279,0,0,0,.488-.552.171.171,0,0,1,.016-.157Zm-1.253,7.879.189.078-.22.237-.032-.08C652.07-157.537,652.09-157.616,652.154-157.721Zm2.953-10.321a3.341,3.341,0,0,1,.441-.079q-.142-.55-.552-.394a1.516,1.516,0,0,1-.331.552,4.653,4.653,0,0,0-.456.63c-.127.21-.265.421-.417.631a3.246,3.246,0,0,0-.385.709.82.82,0,0,0,.551-.394,1.25,1.25,0,0,1,.315-.394h.473l.047-.078-.3-.157.393-.394C654.791-167.779,654.864-167.99,655.106-168.042Zm1.26-1.182-.206-.315a.653.653,0,0,0-.243.08.445.445,0,0,0-.229.315l-.33.157c.272.158.457.158.552,0Zm-.784,4.728-.032.315-.188-.078A.676.676,0,0,0,655.582-164.5Zm2.289,3.939a.482.482,0,0,0-.087.276c0,.08.07.146.2.2Zm-.029,3.467a.994.994,0,0,0,.009.513.615.615,0,0,0,.181.354l-.11-.473ZM672.8-175.212l-.22-.157c-.105.263-.211.394-.315.394a.506.506,0,0,1-.173-.236l-1.119.946a.346.346,0,0,0,.19.079.114.114,0,0,1,.11.078.835.835,0,0,0-.41.158l-.535.63-.378-.158q-.268.71-.425.71a.568.568,0,0,0-.472.2,3.244,3.244,0,0,0-.252.355l.205.315a1.214,1.214,0,0,1-.441.08c-.158,0-.242.053-.253.157a.478.478,0,0,1-.227.315c-.142.106-.166.211-.071.315a1.793,1.793,0,0,0-.748.788q-.292.552-.48.867l-.094.157q-.347-.078-.316.394l-.109.315-.787,1.182-.661,1.1a9.81,9.81,0,0,0-1.29,2.285,3.406,3.406,0,0,1-.292.354.8.8,0,0,0-.132.748q.2-.078.582-.708c.116-.367.277-.552.488-.552l-.063-.158a4.342,4.342,0,0,0,.527-.552,1.04,1.04,0,0,0,.148-.709c-.02-.051,0-.079.048-.079-.021.211.1.315.362.315l.047-.473-.362.078.567-.552c.01.158.042.237.095.237l.628-1.182.3-.63.331-.552a.354.354,0,0,1,.331-.157l-.362-.315a.708.708,0,0,0,.661-.315c.126-.209.2-.341.236-.394.063-.1.151-.276.267-.511a.749.749,0,0,1,.536-.434l.142-.236c-.075-.315.1-.525.534-.631v-.394h.236c.031-.051.062-.105.094-.158a.347.347,0,0,0,.394-.394,1.134,1.134,0,0,0,.276-.394,1.119,1.119,0,0,1,.275-.394,1.128,1.128,0,0,0,.63-.4,1.355,1.355,0,0,1,.472-.394,7.111,7.111,0,0,0,1.339-1.182Zm-4.972,8.43a.111.111,0,0,1-.11-.078,2.408,2.408,0,0,1-.488.158,1.308,1.308,0,0,0,.237.394Zm1.2-1.615a.3.3,0,0,0,.008-.276l-.268.315C668.893-168.3,668.98-168.318,669.028-168.4Zm.543-1.5a.652.652,0,0,0,.315-.591,1.386,1.386,0,0,0-.741-.079c.043.106.216.211.52.315a1.762,1.762,0,0,0-.472.2,2.226,2.226,0,0,1-.394.2,1.261,1.261,0,0,1,.182.158.2.2,0,0,0,.15.079Zm-.394.985a.112.112,0,0,1-.11-.08c.021.053,0,.132-.063.236Zm1.117-2.325c-.01-.026.01-.04.063-.04h-.079l.032.079S670.3-171.206,670.294-171.233Zm.818-.512-.567.157Q670.986-171.272,671.112-171.745Zm.269,16.979a.087.087,0,0,0,.03-.119.819.819,0,0,0-.118-.394,1.456,1.456,0,0,1-.134-.236,4.758,4.758,0,0,0,.112.867A.336.336,0,0,1,671.381-154.766Zm-.129-2.088-.015.157h.079l.047-.079Zm1.272-4.491a1.681,1.681,0,0,1-.615-.158l-.015.945a1.661,1.661,0,0,0-.227.906c0,.342,0,.565-.008.67q-.52.473-.141,1.418a.823.823,0,0,1,.252-.552.515.515,0,0,1-.174-.236,1.336,1.336,0,0,1,.205-.473l.03-.315a1.243,1.243,0,0,0,.1-.236,1.013,1.013,0,0,0,.04-.394.357.357,0,0,0,.062-.433c-.073-.184-.121-.3-.142-.355.031-.051.1-.078.205-.078a.278.278,0,0,1,.054-.355.858.858,0,0,0,.2-.2Zm-1.13,4.649h.08l-.032-.079Zm.41-16.073a.7.7,0,0,1-.173.355.325.325,0,0,0,.017.433A.9.9,0,0,0,671.8-172.77Zm.852,9.494a2.365,2.365,0,0,1,.228-.511,1.062,1.062,0,0,0-.48.276,1.659,1.659,0,0,0,.024.748A2.347,2.347,0,0,0,672.657-163.276Zm.471-1.576a.63.63,0,0,0,.086-.276c-.284-.051-.414.079-.393.394l-.095.158h.315A.653.653,0,0,1,673.128-164.852Zm.871-3.427c-.325.106-.5.2-.52.276a1.39,1.39,0,0,0,.159.59l-.126.079.063.157.063-.236Z" transform="translate(-471.257 196.721)" fill="#87c0bd"/>
    </g>
  </g>
</svg>
