<svg xmlns="http://www.w3.org/2000/svg" width="603.561" height="252.557" viewBox="0 0 603.561 252.557"><defs><style>.a{fill:#315f72;}</style></defs><path class="a" d="M4539.663,243.855h-.36l-.294-.723Zm-19.24,38.77a1.951,1.951,0,0,0,0-1.81l-1.594-.36,1.6,5.8,1.011-1.09A2.1,2.1,0,0,1,4520.423,282.626ZM4516.2,259.44l1.3-.363-.869-2.174C4515.86,257.387,4515.718,258.232,4516.2,259.44Zm64.855-82.254.435,1.087h.726A3.5,3.5,0,0,1,4581.055,177.185Zm-6.772,42.757h-.725C4573.851,220.666,4574.085,220.666,4574.283,219.943Zm-58.41.723a5.874,5.874,0,0,1-.213,2.177l.8-.727-.222-1.45Zm60.69,38.41c-1.207,0-1.736.488-1.59,1.45h1.816Zm1.2-44.931c-.149.242-.459.36-.947.36l.436,1.087Zm-58-25.369h1.088l-.8-1.087Zm84.922,62.689a2.1,2.1,0,0,1,1.234.363c-.687-.481-1.016-.723-1.016-.723C4604.991,251.348,4604.917,251.466,4604.678,251.466Zm-26.3,7.611-.293-.727-1.157.727Zm-18.487-7.247.143.363h1.451c-.294-.727-.593-1.029-.909-.911A1.347,1.347,0,0,0,4559.9,251.829Zm21.519-42.579-.332.545.8-.723C4581.636,209.072,4581.48,209.132,4581.414,209.25Zm-44.762,63.231a.5.5,0,0,0,.5.363l.362-1.813-.87-.363a1.526,1.526,0,0,1,.006.911l-.151.542S4536.552,272.245,4536.652,272.481Zm43.633-61.963.873.367-.076-1.09C4580.838,209.8,4580.578,210.041,4580.285,210.519Zm25.484,46.384h.363l-1.957,1.447c-.778-.723-1.45-.6-2.027.363l-.07.727c.137-.239.045-.481-.292-.727l-1.158,2.537,1.3-.363h.726c.53.727.459,1.147-.22,1.268s-1.087.3-1.23.542a9.806,9.806,0,0,1-4.27,2.9,25.6,25.6,0,0,0-3.984,1.81c-.392.242-1.259.79-2.608,1.635a6,6,0,0,1-4.856.542l-.581.36a64.724,64.724,0,0,1-8.838,1.45,11.733,11.733,0,0,1-5-.727,8.74,8.74,0,0,0-4.423-1.084,1.8,1.8,0,0,1-2.173,0,9.165,9.165,0,0,0-4.057-1.992,22.773,22.773,0,0,1-3.268-.911c-2.558-.959-4.206-2.046-4.93-3.26-.192-.478-.874-.963-2.029-1.447a32.3,32.3,0,0,0-3.625-1.807,31.254,31.254,0,0,1-3.627-1.817,11.461,11.461,0,0,1-4.353-3.62l-.067.723c-.488,0-.587-.236-.294-.723a3.851,3.851,0,0,1-1.232-.363,14.779,14.779,0,0,0-.066,1.629c0,.606.018,1.268.072,2h-1.81l.287.723c1.207,0,1.718.363,1.523,1.087l.3,9.784h-.728l-.873-2.177.587,3.26h-1.45c1.157.491,1.717,1.578,1.669,3.264l1.167,10.144.949,5.074a7.328,7.328,0,0,1,.222,3.264L4537.1,293.5a3.19,3.19,0,0,0,1.6,2.174,13.63,13.63,0,0,1-1.156,1.629,3.293,3.293,0,0,0-.8,1.635,22.484,22.484,0,0,1,1.743,2.537c0,1.2-.654,1.689-1.953,1.447a5.162,5.162,0,0,1,1.81,1.81l-1.517.727,2.83,9.781c-.532-.727-.92-1.087-1.155-1.087a1.218,1.218,0,0,0-.4-.542c-.177-.118-.432-.3-.762-.545l1.963,5.8-1.67-1.453a5.405,5.405,0,0,1-1.811,1.813c1.013,1.935,3.162,4.583,6.457,7.971a5.809,5.809,0,0,1-2.571-.545,8.363,8.363,0,0,1-2.436-1.992,3.581,3.581,0,0,0-1.119-.542,3.926,3.926,0,0,1-1.126-.545,1.521,1.521,0,0,1-.614-1.087,2.9,2.9,0,0,0-.766-1.45q-3.188-4.346-6.97-13.768a26.846,26.846,0,0,0-1.78-4.892,26.575,26.575,0,0,1-1.779-4.889l-.287-.727a4.02,4.02,0,0,1-.078-2.9c1.062,1.447,1.983,1.934,2.754,1.447a4.066,4.066,0,0,1-1.523-1.087,7.427,7.427,0,0,0-2.031-1.45l.434-2.537-.294-.72-1.522-1.09a5.174,5.174,0,0,1,1.2-1.087q.977-.722-.329-2.177a5.724,5.724,0,0,1,1.449-1.81l-2.249-4.71.07-.724a4.754,4.754,0,0,0,.181-1.81,2.911,2.911,0,0,0-.765-1.453c-.194.727-.841,1.211-1.957,1.453a37.52,37.52,0,0,1-1.02-7.974,39.863,39.863,0,0,0-.878-7.607h1.45l-.218-1.45-.292-2.537a3.029,3.029,0,0,1-.216-1.45,2.4,2.4,0,0,0-.078-1.087h-1.449l-1.027-13.408,1.888,1.087-1.091-1.813a8.391,8.391,0,0,1-.51-3.984,21.236,21.236,0,0,0,.144-3.26l1.449,1.81c.674-.723.979-1.326.9-1.81s-.641-.845-1.7-1.09c-.239-2.413-.388-3.984-.439-4.7a9.342,9.342,0,0,1,2.1.72,24.153,24.153,0,0,0-.728-5.434l.943-2.174a8.358,8.358,0,0,0-1.165-1.087,1.764,1.764,0,0,1-.653-.727,66.243,66.243,0,0,0,1.112-7.611,66.085,66.085,0,0,1,1.122-7.608,2.477,2.477,0,0,1,.829-1.992,8.718,8.718,0,0,0,1.337-1.632l.362-3.624-1.16.723a4.8,4.8,0,0,1-.147-3.079,8.7,8.7,0,0,0,.36-2.719l.87,2.174,2.467-1.087-1.527-2.9h-.362a.982.982,0,0,0,0-.9q-.223-.545.147-.545c-1.065-.239-1.476-.966-1.242-2.174l1.744.727-.652-2.537,1.376-1.087-1.743-.723,1.667-2.177a.523.523,0,0,0-.511-.36l-.8.723-.648-.723c.48,0,.815-.363,1.01-1.09s.581-.963,1.162-.723c.237,0,.383-.239.431-.723a3.133,3.133,0,0,0-.216-1.45c.1.242,0,.606-.294,1.087a.505.505,0,0,1-.5-.363q.568-5.794.5-6.884l.5-3.26.8-2.537,1.3-9.424.722-1.813a44.2,44.2,0,0,0,1.01-6.518c.284-1.692.565-3.26.832-4.71a24.018,24.018,0,0,1,.9-3.624,19.683,19.683,0,0,1,1.655-7.611,11.72,11.72,0,0,0,.287-4.71,4.557,4.557,0,0,1,.4-2.177,6.625,6.625,0,0,0,.542-1.81q.21-3.982.646-4.71a6.383,6.383,0,0,0,2.1.723c-1.013-.723-1.5-1.323-1.447-1.81-.149-.963.307-2.537,1.372-4.71a2.916,2.916,0,0,0,0-1.813,1.239,1.239,0,0,1-.077-1.087q1.373-4.7,2.1-6.521c-.146.242-.1.36.145.36l-.145-.36-.432-1.087a43.8,43.8,0,0,0,1.188-4.71,32.528,32.528,0,0,1,1.406-5.074h.36a6.664,6.664,0,0,1-.652-2.537l2.82-6.521,3.481-.363a3.015,3.015,0,0,1,2.606,1.087l.73,1.813a28.5,28.5,0,0,1,7.326,6.521,7.848,7.848,0,0,1,1.086,3.627l.88,5.8h.721l.366,1.807h-.366a34.347,34.347,0,0,0-1.008,4.71,4.809,4.809,0,0,1,1.594-1.447,1.255,1.255,0,0,0,.074,1.087,1.259,1.259,0,0,1,.073,1.087,19.847,19.847,0,0,0-1.155,4.347L4556,117.4a10.463,10.463,0,0,1,.006,3.624c-.393.245-.5.723-.329,1.447a1.1,1.1,0,0,1-.684,1.453,1.791,1.791,0,0,0-.688,1.45c-.072.723-.135,1.329-.179,1.81a21.574,21.574,0,0,0-.5,3.26,8.15,8.15,0,0,1-.864,3.264l-.653,1.087c.046.723.073,1.692.073,2.9a4.1,4.1,0,0,1-1.01,2.9c-.244,0-.289.182-.146.542a1,1,0,0,1,0,.908q-.292,6.516-.785,9.778l-1.663,7.611a2.122,2.122,0,0,0-.323,1.45,4.774,4.774,0,0,0,.256,1.087,3.037,3.037,0,0,0-.363,1.813c.047.723-.117,1.211-.5,1.45a9.3,9.3,0,0,0,.22,3.26l-1.667.363a6.7,6.7,0,0,1-.721,5.434c-.289.491-.385.851-.289,1.087l.148.363a2.725,2.725,0,0,1-.87,3.264l-.575,5.8q5.788-12.678,23.018-29.353a2.155,2.155,0,0,1,1.527,1.087,5.655,5.655,0,0,0,1.444-1.81c-.143.242-.7.36-1.666.36-.29-.727-.194-1.087.29-1.087a5.807,5.807,0,0,1,4.2-2.177l-1.3,2.177,2.318-1.45-1.091-1.81,3.044-1.45c.287-.481,1.425-.962,3.4-1.45,1.691,1.211,2.9,1.813,3.623,1.813h.365a3.736,3.736,0,0,1,2.612,1.087,18.592,18.592,0,0,0,1.667,1.45c.236,0,.333.242.286.723a10.318,10.318,0,0,1,3.265,1.813q3.919,2.538,3.921,2.537s.042,1.329.148,3.987a27.376,27.376,0,0,1,.292,9.781,2.768,2.768,0,0,1,.113,1.632,15.424,15.424,0,0,0-.249,1.629A15.136,15.136,0,0,0,4594.1,179a2.114,2.114,0,0,1-.069,1.629c-.244.606-.772.79-1.595.542.867.969,1.11,1.578.724,1.813a4.364,4.364,0,0,0-.539,1.813,5.262,5.262,0,0,1-.758,2.17c-1.4.723-1.986,1.692-1.737,2.9.1.242,0,.6-.292,1.087-.772.488-1.106.848-1.008,1.087a.918.918,0,0,1-.146,1.45,5.909,5.909,0,0,0-1.01,1.084,4.151,4.151,0,0,1-.908.911c-.462.36-.473.784-.034,1.265.094.242.021.36-.218.36q.216,1.453-1.884,2.537a1.93,1.93,0,0,0-.032,1.272,1.091,1.091,0,0,1-.4,1.265,6.412,6.412,0,0,1-2.463,1.09l.794,1.087c.681,1.692-.046,2.9-2.166,3.624-.49,0-.678.124-.58.363a5.334,5.334,0,0,1-1.375,2.9,18.435,18.435,0,0,0-1.662,2.177l.067,1.084q-.579.368.436,1.087a1.462,1.462,0,0,1,0,.905c-.1.363-.48.309-1.158-.178a1.024,1.024,0,0,0-.979-.185,2.237,2.237,0,0,1-.833.185l2.028,1.45a12.207,12.207,0,0,0-2.025,2.174l-.725-1.813v1.813l-2.465-.723.872,2.174h1.809a9.745,9.745,0,0,1-1.371,1.087,3.157,3.157,0,0,0-1.013,1.087l.436,1.087-1.381,1.087-3.188-.723.73,1.813a4.167,4.167,0,0,1-1.526.72h1.819q.5,2.175-2.031,2.174a1.252,1.252,0,0,1-.072-1.087,10.987,10.987,0,0,0-2.251.727l2.324.36c-.149.242-.4.669-.757,1.268s-1.128.666-2.285.182c.968,1.211.822,2.052-.432,2.537-1.063.966-1.839,1.45-2.319,1.45l-.144-.363c-.292.488-.561.723-.8.723a3.613,3.613,0,0,0-2.1-.723l2.4,1.45-3.121.36c.68,1.692.244,2.419-1.3,2.177l.5.36h-.722a15.264,15.264,0,0,0-4.239.723,6.846,6.846,0,0,1-3.659.366H4545.1a4.164,4.164,0,0,1,.906.905,6.2,6.2,0,0,0,1.417,1.265l-.94,2.177a5.027,5.027,0,0,0,1.953.36l-.578-1.447a17.6,17.6,0,0,1,3.84,2.355,6.256,6.256,0,0,0,3.194,1.629,3.567,3.567,0,0,0,2.753,3.264l-.146-.363h.727l-.075.727.731,1.81c.142-.236.577-.363,1.3-.363l.8,1.09a6.468,6.468,0,0,0,2.1.723,1.549,1.549,0,0,1,.145-1.45,4.747,4.747,0,0,0,1.344,1.087,4.959,4.959,0,0,1,1.338,1.087l-2.026.363a8.661,8.661,0,0,0,1.414,1.268,2.566,2.566,0,0,1,.9.905l1.309-2.174a1.866,1.866,0,0,1,1.3.542,1.489,1.489,0,0,1,.51,1.268c-.437.727-.237,1.211.579,1.45.485,0,.677-.118.577-.363.772-.478,1.307-.663,1.593-.545a7.57,7.57,0,0,1,1.6,1.272q-.146,1.449,1.3,1.45l1.524,1.087a.4.4,0,0,1,.146-.545.4.4,0,0,0,.146-.542,4.864,4.864,0,0,1,1.339.178c.406.128.683.064.832-.178l2.684.36a3.206,3.206,0,0,0,3.114-2.174,10.015,10.015,0,0,0,2.32,2.174l5.218-1.447a5.328,5.328,0,0,1,1.956,2.174l.8-.727.146-1.447,2.463.727a1.621,1.621,0,0,1,.47-1.09.628.628,0,0,0,.253-.727q-.073-2.892,2.1-1.087a18.043,18.043,0,0,1,3.043-3.26l1.376.727-1.521,2.534A6.864,6.864,0,0,1,4605.769,256.9Zm-89.012-19.568-.289-.727-.94.363.65.727Zm6.766-51.815c.335.242.679.484,1.014.723s.6.306.8.182.313-.421.362-.905Zm-.591-10.508c.535-.484.461-.962-.217-1.45Zm1.109,19.929.36-1.813a1.187,1.187,0,0,0-.762.363c-.264.242-.546,0-.835-.727Q4521.932,194.217,4524.041,194.94Zm-2.119,59.789q-1.091,1.812,1.52,2.9ZM4521,203.635l1.307-.36.287.727c.918-.727.746-1.453-.507-2.177-.1-.236-.558-.481-1.379-.727Zm3.54,68.486-2.03-3.264a3.544,3.544,0,0,0,1.083-1.81q.069-.727-1.522-2.9l.87-1.45-.8-2.9h-.721a13.2,13.2,0,0,1,.541,1.813,7.78,7.78,0,0,1,.113,2.534,15.657,15.657,0,0,0,.439,4.71,15.828,15.828,0,0,0,.876,5.8C4524.165,272.969,4524.543,272.121,4524.543,272.121Zm1.831,14.492-1.53-4.71a5.05,5.05,0,0,0,.006,2.715A5.873,5.873,0,0,0,4526.374,286.613Zm.07-79.354a1.837,1.837,0,0,0-1.052-.36c-.362,0-.45.242-.252.723l1.162,1.087Zm.882,14.858-.359,1.81.292.727A5.047,5.047,0,0,0,4527.325,222.116Zm.268-21.019s-.654-.118-1.953-.36a4.073,4.073,0,0,0,.87,2.174C4527.233,201.706,4527.593,201.1,4527.593,201.1Zm2.123-52.542,1.012-1.087h-2.53Zm1.613,18.482a2.671,2.671,0,0,0-.289,1.09,3.508,3.508,0,0,1-.5,1.447C4531.647,169.339,4531.915,168.488,4531.33,167.038Zm3.113,147.841a8.571,8.571,0,0,0-2.253-4.714,22.393,22.393,0,0,1,.691,2.177A5.353,5.353,0,0,0,4534.442,314.878Zm.22,3.26,1.741-1.09-1.527-1.087Zm17.838-70.3,1.014.727.216,1.447c.575-.963.5-1.447-.216-1.447l-.8-1.09h-.185C4552.405,247.479,4552.4,247.606,4552.5,247.842Zm15.97-42.394h-1.089a1.442,1.442,0,0,1,0,.908c-.1.36-.39.542-.868.542l-.731-1.813-3.257,1.813,2.831.723-2.393.363c-.728,0-.893.488-.508,1.45a17.553,17.553,0,0,0-2.969.723,5.548,5.548,0,0,0-.647,2.9l1.953.367a1.96,1.96,0,0,0,.006,1.81l-2.321-.363h-.729a3.5,3.5,0,0,0-1.481.363,1.188,1.188,0,0,1-1.269,0l.364,1.81,3.19-1.087a4.042,4.042,0,0,1,.36,1.813,2.412,2.412,0,0,0,.077,1.087h-2.541l.149.363-1.742-.727-2.971,2.537.293.727h1.81l.22,1.447-1.957-.36q-1.455,0-1.015,1.084c.386-.236.915-.118,1.594.366a9.758,9.758,0,0,0,1.887,1.087l.437-.727-.583-1.45,2.393-.36a1.168,1.168,0,0,1-.549-.911,2.853,2.853,0,0,0-.181-.9h1.086c.728,0,1.2-.182,1.416-.545a2.887,2.887,0,0,0,.252-1.629,18.9,18.9,0,0,0,2.854-3.264,19.8,19.8,0,0,1,2.862-3.26q.432-.722-.727-1.813a2.45,2.45,0,0,1,1.307-.36c.481,0,.794-.118.94-.363.287-.481.438-.723.438-.723s.332-.363,1.006-1.087A2.932,2.932,0,0,0,4568.47,205.448Zm11.584-9.061c-1.934,0-2.82,1.09-2.676,3.26Zm1.509-20.652-.508,1.45a2.729,2.729,0,0,1-1.306,2.174,32.061,32.061,0,0,0-3.834,7.607,1.561,1.561,0,0,0-.14,1.45l-.8.723a50.223,50.223,0,0,0-5.064,7.247l-3.907,6.524.144.363,2.752-.363.657,2.537a17.855,17.855,0,0,1,2.678-5.074,6.615,6.615,0,0,0-2.468,1.087.513.513,0,0,0-.5-.363,3.438,3.438,0,0,1,.5-1.45c.289-.478.578-.959.872-1.447a2.751,2.751,0,0,0,1.593.36c.481,0,.843-.3,1.086-.905a10.487,10.487,0,0,1,.578-1.268h-2.538a4.7,4.7,0,0,0,1.668-.36,8.882,8.882,0,0,0,1.519-.727l.147.363.94-2.174-1.885.723a3.22,3.22,0,0,1,2.465-2.9l.067-2.537,1.017-1.087.216-.36c1.256-.481,1.807-1.208,1.663-2.174a5.824,5.824,0,0,0,1.375-2.9,8.593,8.593,0,0,0,.939-2.174,6.965,6.965,0,0,1,.723-1.813c-.193-.481-.292-.723-.292-.723s.317-.118.947-.363Zm-30.621,40.221,1.885-.723,4.924-5.8a8.436,8.436,0,0,1,2.964-4.35,4.47,4.47,0,0,0,1.74-1.992,6.27,6.27,0,0,1,1.372-2l3.407-5.071,6.147-10.871,4.121-6.884,1.16-4.347a19.8,19.8,0,0,0,1.518-4.35l.217,1.45c.481,0,.7-.36.652-1.087l-.223-1.45q1.74-2.9,1.737-2.9s-.235-.6-.721-1.813l-2.172,1.813a15.863,15.863,0,0,1-2.936,3.079,15.7,15.7,0,0,0-3.146,3.442c-.921.723-1.6.848-2.031.363l-.579.36.649.727-5.573,6.884a127.454,127.454,0,0,1-7.231,12.681,10.136,10.136,0,0,1-1.882,4.35l-1.66,3.984c-.971,2.416-1.593,3.869-1.879,4.35l-.874,3.26a6.247,6.247,0,0,0-.864,3.26,1.657,1.657,0,0,1-.183,1.813c-.411.484-.559.851-.465,1.087Zm-4.227-28.626q1.086,0,1.413-.545a5.263,5.263,0,0,0,.468-1.989,8.222,8.222,0,0,1-.941,1.268A7.268,7.268,0,0,0,4546.715,187.33Zm-1.879,4.347c.63-.236.672-.723.143-1.45Zm-.548,38.41,1.743.727c.482,0,1.083-.6,1.813-1.813.957,0,1.349-.239,1.158-.723a5.218,5.218,0,0,1,4.342-1.813,8.4,8.4,0,0,0-3.187-.723,1.929,1.929,0,0,0-1.956,1.45l-1.158.723Zm-7.331-96.023,1.3,1.45.213-2.174a.517.517,0,0,0-.511-.363c-.43.727-.646,1.087-.646,1.087Zm5.976,115.228-4.353-3.624-.218.363a15.652,15.652,0,0,0,2.1,2.537A7.44,7.44,0,0,0,4542.933,249.292Zm6.38,1.45a11.911,11.911,0,0,1-1.414-1.268,5.039,5.039,0,0,0-2.142-1.268,6.845,6.845,0,0,0-.869-1.268,4.166,4.166,0,0,0-1.6-1.268q-1.668-3.26-6.383-5.074a4.917,4.917,0,0,1,.149,2.177l1.667,1.447.581-.363.509.363a1.942,1.942,0,0,0,1.848,1.45h1.63a3.3,3.3,0,0,0,2.105,2.537l.145.363C4546.12,250.016,4547.372,250.742,4549.313,250.742Zm.5-5.074h-.584a2.006,2.006,0,0,0,.368.363C4549.835,246.032,4549.908,245.914,4549.814,245.669Zm4.428,8.334c-1.162-.478-2-.478-2.539,0q.363-1.807-1.813-1.81.365,1.812,1.813,1.81c.485,0,.677.488.584,1.45Zm3.772,2.177-1.816-1.813-2.1,1.087,1.308,1.45Zm2.4,5.071-1.887-1.084-.654,1.084,1.235.363Zm5.284-.363a1.542,1.542,0,0,0-1.518-1.087,1.84,1.84,0,0,0-1.051-.36,1.788,1.788,0,0,1-1.054-.363l.147.363a1.944,1.944,0,0,0,1.849,1.447Zm106.5-38.407.65.723.583-.36c-.343-.239-.683-.484-1.018-.727Zm-.854,15.942-.868,1.447c1.4.491,1.861.124,1.377-1.084A.529.529,0,0,0,4671.336,238.421Zm-.587-6.887-.146-.36a13.375,13.375,0,0,0-2.893,4.532,8.115,8.115,0,0,0-.721,4.529,3.678,3.678,0,0,0,1.919-2.9,5.267,5.267,0,0,1,1.2-2.9C4670.632,233.953,4670.842,232.984,4670.749,231.534Zm17.61-2.17q1.456,3.624.148,5.8a12.788,12.788,0,0,0-.36,2.715,10.7,10.7,0,0,1-.577,3.082l-1.44,9.058c-.144.245-.292.488-.435.727a1.259,1.259,0,0,0,.075,1.087,1.138,1.138,0,0,0,.4.542c.168.124.107.427-.182.905a1.815,1.815,0,0,0-.653-.724c-1.214,0-1.569.606-1.083,1.813a4.7,4.7,0,0,1-1.518,4.347l-4.2,5.8-.361,1.81a6.113,6.113,0,0,0-3.114,3.082,16.273,16.273,0,0,1-2.244,3.442,28.341,28.341,0,0,0-4.557,5.8,9.5,9.5,0,0,0-2.9,3.624q.364,1.817-2.241,2.537a2.777,2.777,0,0,1-1.736,1.087c-.874.242-1.619.488-2.247.723l-1.957,1.45q-1.884,2.543-6.884,1.813l-4.568.36a11.976,11.976,0,0,1-4.961-1.087q-2.435-1.085-3.3-1.45-5.875-2.892-8.267-6.157-1.813-1.807-5.877-5.616a18.384,18.384,0,0,1-5.3-7.792h-.72l-.656-.727c.143-.236.095-.36-.148-.36l-.286-.727-.73-1.81-1.307-3.26a15.5,15.5,0,0,0-1.667-3.26,20.42,20.42,0,0,1-.879-3.987q-.653-2.529-1.451-5.434l-.076-.28a2.021,2.021,0,0,1-.1.641,1.655,1.655,0,0,0-.11,1.087l-.868-.36-.437,2.537a11.39,11.39,0,0,0-1.949,3.26h-.365l.143-1.45-1.885-1.087,1.379-1.087c.724,0,1.083-.6,1.083-1.813l1.806-5.434a3.616,3.616,0,0,1,.5.72c-.2-.739-.39-1.472-.572-2.17a35.971,35.971,0,0,1-.223-5.074,30.787,30.787,0,0,0-.367-5.434l.721-5.434.791-7.971c.048-1.686.749-2.658,2.1-2.9a3.528,3.528,0,0,1-1.307-1.45,6.947,6.947,0,0,0,.833-2.9c.113-1.2.2-2.046.25-2.534a25.33,25.33,0,0,1,2.672-8.7,4.8,4.8,0,0,0,1.195-2.9c.117-1.2.2-2.049.247-2.537a6.79,6.79,0,0,1,.329-1.45,4.857,4.857,0,0,0,.033-2.174l1.882-2.537c.14-.239.581-.363,1.3-.363l-.291-.72a4.8,4.8,0,0,1-.039-3.26,12.139,12.139,0,0,1,.978-2.537,35.2,35.2,0,0,1,3.4-6.887,8.541,8.541,0,0,0,.79-2.537l2.03-3.984a7.331,7.331,0,0,0,2.168-3.624q.434-.722-1.669-3.264a8.827,8.827,0,0,1-.472-1.629c-.122-.6-.717-1.026-1.775-1.268-.244,0-.511-.363-.8-1.087-.678-1.686-.8-2.9-.367-3.627a3.387,3.387,0,0,1,2.17,0l1.887,1.09a3.467,3.467,0,0,0-.36.905,2,2,0,0,0,.149,1.268l4.93,3.26a3.2,3.2,0,0,1,1.661-.36l-.359-1.813,5.58.363a34.969,34.969,0,0,0,5.438,5.434,2.309,2.309,0,0,0-.833.185c-.313.121-.3.3.039.542.724,1.211,1.572,2.715,2.54,4.526a10.49,10.49,0,0,0,3.847,4.172q1.879,1.09,8.992,6.161l1.516,1.084.8,1.09.579-.363-1.383-.727.079-.723a10.022,10.022,0,0,1,4.5,3.987l1.6,2.174a25.667,25.667,0,0,0,5.148,5.616c2.18,1.813,3.483,2.961,3.923,3.442a4,4,0,0,1,.144,1.272c0,.6.411,1.026,1.23,1.265q5.083,1.817,6.457,6.161a1.769,1.769,0,0,0,.654.723,2.429,2.429,0,0,1,.8,1.087h-1.085l.654,2.537a4.019,4.019,0,0,0,1.45,1.81,2.581,2.581,0,0,0-.143,3.263.821.821,0,0,1,.76-.36.807.807,0,0,0,.763-.367,9.126,9.126,0,0,0-1.38-2.537h1.09l1.233,2.177a5.773,5.773,0,0,1,.289,4.347,1.162,1.162,0,0,1-.538-.908,2.394,2.394,0,0,0-.691-1.265,1.314,1.314,0,0,0-1.161.723l-.073.727a3.641,3.641,0,0,1,1.164,1.09,15.257,15.257,0,0,1,.368,5.434,9.093,9.093,0,0,0,.075,3.8A20.255,20.255,0,0,0,4688.359,229.364Zm-40.054-51.092,1.667-.363-.578-1.447C4648.663,177.673,4648.305,178.272,4648.305,178.272Zm1.244,89.862a9.156,9.156,0,0,0-1.593-2.177c-.147.245-.463.363-.941.363-.443-.481-.809-.66-1.128-.542s-.447.542-.4,1.268l-3.4,1.447c-1.5.488-2.292,1.214-2.39,2.174a22.112,22.112,0,0,1,2.246.185,3.451,3.451,0,0,0,2.1-.185,4.737,4.737,0,0,1,1.594-.539c.678-.121,1.039-.421,1.083-.911Zm12.393-2.537a6.238,6.238,0,0,0-1.088-1.813,1.929,1.929,0,0,1-1.085,1.813Zm6.293-8.694-1.227,1.447c.481,0,.772-.178.867-.545A3.41,3.41,0,0,1,4668.234,256.9Zm11.142-21.019a1.3,1.3,0,0,0-.866,1.45,5.328,5.328,0,0,0,.221,1.45,1.4,1.4,0,0,1-.871.542,1.449,1.449,0,0,0-.874.542,10.682,10.682,0,0,0-1.15,4.35l-1.161.723-4.2,7.611a12.24,12.24,0,0,0-2.023,3.987q1.523-.722,1.375-1.087a14.426,14.426,0,0,0,1.412-1.45,9.964,9.964,0,0,0,1.045-1.45q.655-1.085,2.07-3.439a9.922,9.922,0,0,0,1.481-4.9l2.895-5.434A2.274,2.274,0,0,0,4679.376,235.884Zm1.664-5.8-.873-2.174a5.677,5.677,0,0,1-.584-3.26c.045-.478.073-.727.073-.727s.2-.542.613-1.629a3.838,3.838,0,0,0-.475-3.442,9.212,9.212,0,0,0-.075-4.71c-.437-1.686-.754-2.776-.945-3.26l-.513-2.177a8.8,8.8,0,0,0-3.042-3.987l.8,2.9h-1.447c.289.727.675,1.087,1.162,1.087-1.016.488-1.332,1.81-.94,3.987a24.963,24.963,0,0,0-1.077,7.247q-1.523-1.085-.876-2.174a21.66,21.66,0,0,0-.076-6.524,71.337,71.337,0,0,1-1.243-9.421,6.515,6.515,0,0,0-.658-2.537,5.765,5.765,0,0,0-2.1-2.537,67.617,67.617,0,0,0-6.3-3.987,58.96,58.96,0,0,1-5.8-3.624l-6.094-4.344a6.365,6.365,0,0,0-3.48-1.45l-3.181,6.521q-3.042,5.077-3.254,7.244a8.538,8.538,0,0,1-1.626,3.627,8.47,8.47,0,0,0-1.63,3.624c.052.723-.771,2.9-2.454,6.524a2.066,2.066,0,0,0-.357,1.81c-.247,0-.239.182.033.542s.328.669.185.908q-1.095,0-.616.723c.309.488.4.848.254,1.087a1.6,1.6,0,0,1-.474,1.087,1.623,1.623,0,0,0-.465,1.087q0,3.628-1.59,5.074c-.147.245-.29.488-.434.723a2.466,2.466,0,0,1,.8,1.09,2.383,2.383,0,0,1-.182,1.813,6.115,6.115,0,0,0-.542,1.807,9.491,9.491,0,0,1-.571,3.987,9.334,9.334,0,0,0-.581,3.984c.1.245,0,.606-.287,1.09q-1.088,1.817.438,4.707a4.138,4.138,0,0,0-1.736,3.809,8.225,8.225,0,0,1-.431,3.442,4.321,4.321,0,0,0-.542,1.81c-.073.727-.136,1.332-.178,1.81l1.306,5.074,1.171,6.521.29.727c.388.966,1.471,1.574,3.257,1.81.393-.236.705-.962.946-2.174a5.516,5.516,0,0,0,2.9,1.813l-2.607.724a7.342,7.342,0,0,0,1.953.363c.48,0,.815-.363,1.016-1.087.335-.962.888-1.09,1.661-.366h1.091a16.511,16.511,0,0,0,5.216-3.26,128.092,128.092,0,0,0,11.439-11.228,69.675,69.675,0,0,1,5.648-5.8,3.808,3.808,0,0,1,.834,1.635c.016.36-.089.542-.326.542q-.792.727-1.918,1.992a3.253,3.253,0,0,0-.908,2.715,12.609,12.609,0,0,0-4.7,3.627,5.278,5.278,0,0,0,3.044-1.45,12.707,12.707,0,0,0,1.66-2.177l1.816,1.813h-.366a2.456,2.456,0,0,0-2.241,1.632c-.535,1.084-1.158,1.629-1.888,1.629q-2.021.368-4.486,3.264a3.626,3.626,0,0,1-1.737,1.992,5.729,5.729,0,0,0-1.881,1.629,12.914,12.914,0,0,0,4.347,0,14.49,14.49,0,0,0,2.241-4.347,8.073,8.073,0,0,1,.8,2.9c-.246,0-.461-.236-.652-.723l-.581,2.174c.966,0,1.377-.481,1.233-1.45.479,0,.8-.118.941-.363a38.559,38.559,0,0,1,7.384-6.881l2.747-3.987a25.5,25.5,0,0,0,2.429-3.439,5.472,5.472,0,0,0,.685-4.172,5.051,5.051,0,0,1,1.377-1.087,29.822,29.822,0,0,0,3.688-7.971c.046-.481.187-1.326.433-2.534a2.013,2.013,0,0,1,2.17-1.817,4.756,4.756,0,0,0-.149-2.17A9.436,9.436,0,0,1,4681.04,230.087Zm-6.744.36a3.139,3.139,0,0,0,.475-1.084c.019-.242-.188-.6-.621-1.087Zm1-19.2.727,1.81h.727a4.633,4.633,0,0,1-.8-1.81Zm.581-.36a2.131,2.131,0,0,0,.073.36h.073S4675.973,211.127,4675.875,210.885Zm-29,56.886c.478,0,.764-.178.863-.545s-.146-.663-.721-.905A1.573,1.573,0,0,1,4646.873,267.771Zm20.409-23.189a4.078,4.078,0,0,1-.614,1.632,3.331,3.331,0,0,0-.469,1.992h1.09a6.161,6.161,0,0,1,.325-1.447,2.029,2.029,0,0,0-.037-1.453Zm-20.559,22.826a.98.98,0,0,1-.615-.182,1.07,1.07,0,0,0-.618-.179l1.233,2.17A5.068,5.068,0,0,0,4646.722,267.407Zm-14.5-1.81h-.361l.945,1.45c-.1-.239-.032-.366.217-.366Zm111.158-79.354-.646,1.087.144.36,1.156-.723Zm46.324,93.849-3.253,1.81-3.7-1.087-1.743-.723a30.42,30.42,0,0,1-8.05-6.521q-4.494-5.794-6.528-9.061a39.37,39.37,0,0,1-3.27-5.434q-1.669-3.26-2.25-4.71a1.115,1.115,0,0,1-.439-1.09,3.92,3.92,0,0,0-.36-1.81q-1.885-1.085-1.6-3.987l-2.683-2.174,1.378-1.087-.362-1.813a4.355,4.355,0,0,1-.8-2.9,3.842,3.842,0,0,1-.142-1.265c-.007-.6-.492-.908-1.451-.908-.341-.239-.368-.6-.077-1.087a11.555,11.555,0,0,0-.149-3.987,2.042,2.042,0,0,1-.543-1.813c.17-.481.613-.723,1.34-.723-.872-.963-.8-1.686.213-2.174-.678-.481-1.268-.905-1.775-1.265s-.934-.663-1.268-.905l.073-.727,1.593.363-.216-1.45h-2.181l2.247-2.537-1.23-.363a30.493,30.493,0,0,1,.137-6.884c-.289-.727-.073-1.087.654-1.087l-1.384-2.537,1.377-2.9a3.223,3.223,0,0,0-1.67.363,10.715,10.715,0,0,0,.073-3.442,4.917,4.917,0,0,1,1.01-3.805l-1.593-.36-2.607,4.347-2.6,4.347a40.742,40.742,0,0,0-1.773,5.074,19.905,19.905,0,0,1-1.919,4.71,33.127,33.127,0,0,0-1.006,3.805,11.85,11.85,0,0,1-1.16,3.442q-.365,0-.465,1.09a1.6,1.6,0,0,1-1.053,1.447c-.388.242-.482,1.211-.287,2.9a14.83,14.83,0,0,1-2.385,7.611l-.722,3.62-1.374,2.9c.1.245.021.363-.219.363a7.4,7.4,0,0,1-.285,3.805,16.792,16.792,0,0,0-.792,3.442,46.618,46.618,0,0,1-1.368,8.334q-.216,2.17-2.379,14.858a9.425,9.425,0,0,0-.5,2.355c-.2,1.329-1.208,2.116-3.046,2.352q-1.521.731-2.24,4.347h.363l-.287,2.9a.666.666,0,0,0-.581.363c-.143.245-.292.488-.435.723a4.832,4.832,0,0,1,1.452.905,1.6,1.6,0,0,0,.943.545l.944,3.264a4.1,4.1,0,0,1-2.028.36,5.21,5.21,0,0,1-3.626-1.81,14.25,14.25,0,0,0-2.788-2,7.344,7.344,0,0,1-2.436-1.992,3.216,3.216,0,0,0-1.736-.727,2.438,2.438,0,0,0-.8-1.087l-.51-.36-.073-1.09a25.257,25.257,0,0,1-5.659-6.884,9.857,9.857,0,0,0-1.888-2.9,7.537,7.537,0,0,1-.323-1.265,1.766,1.766,0,0,0-1.417-1.272,62.207,62.207,0,0,1-3.123-6.887,58.059,58.059,0,0,0-3.556-9.778,9.975,9.975,0,0,1-.692-3.082,5.108,5.108,0,0,0-.911-2.719c-.339-.236-.416-.723-.221-1.45a1.589,1.589,0,0,0-.723-1.81,5.675,5.675,0,0,1-.587-3.264,76.817,76.817,0,0,1-1.132-8.694,75.283,75.283,0,0,0-1.128-8.7,7.783,7.783,0,0,1,.215-1.268,8.554,8.554,0,0,0,.217-1.268l1.434-16.3c.048-.481.153-1.265.328-2.352a13.046,13.046,0,0,0,.176-2.722.77.77,0,0,1,.073-.723.661.661,0,0,1,.58-.363q1.373-1.085.211-3.984a29.408,29.408,0,0,1,.76-3.079c.259-.845.49-1.635.684-2.358l.432-2.537a15.538,15.538,0,0,1,.759-2.174,7.472,7.472,0,0,0,.472-2.9,15.6,15.6,0,0,1,1.294-7.611l1.371-6.524a25.437,25.437,0,0,0,2.02-5.8l.794-7.971c-.051-.727-.077-1.386-.077-1.992a2.692,2.692,0,0,1,.219-1.268,8.122,8.122,0,0,0,3.549-1.087l3.266,3.62a5.709,5.709,0,0,0,1.451,1.813,2.189,2.189,0,0,1,.873,2.174,5.262,5.262,0,0,1,1.195,1.632,4.934,4.934,0,0,0,1.2,1.632q.793,1.085,1.593,2.174c.53.723,1.016,1.329,1.451,1.81a2.837,2.837,0,0,1,.87,1.265,2.761,2.761,0,0,0,.873,1.272l.145.363c1.977.727,3.166,1.574,3.552,2.537s.246,2.419-.429,4.347l.146.363a2.08,2.08,0,0,1-.362,1.813,1.81,1.81,0,0,0,.146,2.17l-1.588,6.887a19.1,19.1,0,0,0-.8,3.442,8.29,8.29,0,0,1-.937,3.076c-.288.491-.1.969.582,1.453-.146.242-.322.542-.542.908a2.659,2.659,0,0,1-.909.9c-.241,0-.311.124-.213.363a44.5,44.5,0,0,1-1.013,6.521l-.647,4.714a1.931,1.931,0,0,0-1.083,1.81c-.1.969-.167,1.692-.217,2.177a27.235,27.235,0,0,0-.791,4.347q-.214,2.175-.577,3.987-.8,2.538-1.15,9.778l-.218,3.987q-.133,8.7.163,13.048h-1.45l-.578.36a6.937,6.937,0,0,1,2.391,1.45q-.572,3.992,1.463,12.681l.141.36,2.017-11.228,2.1-8.337a7.686,7.686,0,0,1,1.161-2.537l-.146-.36a76.742,76.742,0,0,1,2.6-11.594l1.232.36-.15-.36a2.062,2.062,0,0,1-1.231-.363l1.231-3.26q-.146-2.17,2.1-8.331a4.431,4.431,0,0,0,.394-1.275,1.866,1.866,0,0,1,.762-1.265v-1.813h1.083l.222-.36-1.018-.727a19.139,19.139,0,0,0,2.241-6.157,7.192,7.192,0,0,1,.939-1.268,6.284,6.284,0,0,0,.728-.908,5.172,5.172,0,0,1,1.811,1.813c-1.157.723-1.73,1.268-1.7,1.629a12.542,12.542,0,0,0,1.415,3.082h4.71c-.091-.236.046-.481.438-.723h1.083a2.826,2.826,0,0,1,0-1.813,12.267,12.267,0,0,0,.361-1.81l-1.6-2.177.866-1.45q.292-1.085,2.467-1.087c-.242,0-.8-.481-1.67-1.45h1.814a1,1,0,0,0,0-.9.976.976,0,0,1,0-.908l4.563-.36a3.8,3.8,0,0,0-2.027-1.45,2.552,2.552,0,0,1,1.338-.727c.746-.236.682-.845-.185-1.81l-.942.36h-.36l1.517-2.537a7.317,7.317,0,0,1,1.67-2.174H4746l-1.661,2.174a2.8,2.8,0,0,0,1.88-1.629,7.426,7.426,0,0,0,.577-3.079,2.814,2.814,0,0,1,1.593.36q-1.015-2.534.615-3.439a6.382,6.382,0,0,0,1.846-1.268l.362,1.813a2.113,2.113,0,0,0-1.882,2.534,6.4,6.4,0,0,1,2.028-2.174,11.721,11.721,0,0,0,1.371-4.71,2.66,2.66,0,0,0-.9-1.813,7.129,7.129,0,0,1-1.128-1.447l.218,1.447-1.812,1.813c-.095.969-.865,1.447-2.316,1.447-1.692,0-2.782.609-3.261,1.813a1.56,1.56,0,0,1-1.048.545,1.549,1.549,0,0,0-1.048.545,3.713,3.713,0,0,1,1.189-2.9,9.316,9.316,0,0,0,1.412-1.447,9.671,9.671,0,0,1,2.534-1.813c.483,0,.778.127.873.363a2.735,2.735,0,0,1,1.015-2.9,7.7,7.7,0,0,0,1.807-1.81l.146.363a1.628,1.628,0,0,1,1.521-.727,3.438,3.438,0,0,1,1.667.542,15.936,15.936,0,0,0,1.812.911,3.865,3.865,0,0,0-1.879.72A5.69,5.69,0,0,1,4754.54,177a2.73,2.73,0,0,0,.874,1.268l2.026-.363a4.958,4.958,0,0,0,2.174.905,2.973,2.973,0,0,1,1.96,1.272.5.5,0,0,0,.5.36,2.2,2.2,0,0,1,2.141.363c.554.484,1,.851,1.339,1.087a3.217,3.217,0,0,1-1.59,1.45,25.971,25.971,0,0,1,3.079.9,3.394,3.394,0,0,1,2.065,2,21.658,21.658,0,0,0,1.855,3.26,14,14,0,0,1,1.926,4.347l.216,1.45a2.065,2.065,0,0,0-.36,1.81,16.638,16.638,0,0,1,.479,5.259,36.114,36.114,0,0,0-.033,4.889c-.146.245-.073.727.222,1.45-.051.488-.1.969-.145,1.45s-.1.969-.144,1.45a2.185,2.185,0,0,0-.8,2.537,10.336,10.336,0,0,1,.294,2.537l-.361,3.624a3.514,3.514,0,0,0-.143,3.26,26.251,26.251,0,0,1,.8,4.71,30.028,30.028,0,0,0,.51,3.984,16.446,16.446,0,0,1,.223,4.169,9.568,9.568,0,0,0,.583,4.165,3.428,3.428,0,0,0,.108,2.537,3.4,3.4,0,0,1,.111,2.537,43.578,43.578,0,0,0,1.17,6.524l.58,3.26a40.444,40.444,0,0,1,2.434,5.616c.5,1.574.958,2.84,1.343,3.8a5.065,5.065,0,0,1,3.628,5.437l-.146-.363c-.332.969.264,2.177,1.816,3.627C4787.841,275.742,4789.323,277.918,4789.708,280.092Zm-41.687-100.37s-.085-.057-.255-.182a1.111,1.111,0,0,1-.4-.542l-.653,1.087c.822.242,1.182.242,1.09,0Zm-21.847,42.209a3.409,3.409,0,0,1,.361-.9c-.723,0-.966.306-.723.9s.411,1.036.509,1.272A2,2,0,0,1,4726.175,221.931Zm2.247-1.625c.958,0,1.227-.845.793-2.537a1.406,1.406,0,0,0-1.446.905,11.336,11.336,0,0,1-.581,1.268A2.019,2.019,0,0,0,4728.422,220.306Zm.657,7.971q-1.162.727-1.23,1.447a4.012,4.012,0,0,0,.361,1.81,15.245,15.245,0,0,1,.945-1.265A1.5,1.5,0,0,0,4729.079,228.277Zm1.013-1.087-.943-1.45.147,2.174C4729.827,227.432,4730.092,227.19,4730.092,227.19Zm-.149-3.987a1.521,1.521,0,0,0-.724.905c-.1.36.121.908.653,1.632A2.157,2.157,0,0,0,4729.943,223.2Zm5.86-11.594a.52.52,0,0,1-.51-.363,3.143,3.143,0,0,0-1.339.723,2.1,2.1,0,0,0-.757,2.177l-2.323-.363-.941.363-.36,1.81h1.811a5,5,0,0,0,.226,2.355,8.764,8.764,0,0,0,1.667,2.355,2.251,2.251,0,0,0-.4-1.447,2.209,2.209,0,0,1-.4-1.45l1.377-1.087a13.734,13.734,0,0,1-.295-2.537A7.4,7.4,0,0,0,4735.8,211.609Zm4.268-8.334a1.2,1.2,0,0,0-.762.36.634.634,0,0,0-.248.727C4739.3,204.361,4739.637,204,4740.07,203.275Zm-5.685,5.252a17.133,17.133,0,0,0,2,.908,7.407,7.407,0,0,1-1.241-2.177C4734.468,207.985,4734.216,208.406,4734.385,208.527Zm7.046-20.837-.287,1.087.437-.72Zm-9.189,15.945,2.248-2.537.143.363.075-.723-.368-1.813.723-1.813.292-1.084a3.193,3.193,0,0,1-.946-1.453,7.783,7.783,0,0,1-1.16,2.537c-1.55.969-2.17,1.813-1.877,2.537a2.545,2.545,0,0,1-.835,2c-.606.609-.8,1.151-.612,1.632.238,0,.168.124-.217.36h2.533Zm6.662-8.694,1.373-2.9a2.723,2.723,0,0,0,.868-3.264h-.36l-1.233-2.17-1.593,1.45-3.549,6.518,3.187-1.084A3.553,3.553,0,0,0,4738.9,194.94Zm-7.451,12.136q-.372.908.8,2l.286-2.9c-.1-.236-.386-.36-.873-.36A1.951,1.951,0,0,1,4731.453,207.077Zm.211-1.265.219-.363h-.363C4731.759,205.448,4731.807,205.572,4731.664,205.811Zm4.488-8.7-.435.727.946,1.45c-.007-1.208.309-1.928.937-2.177l-2.245-1.084.431,1.084Zm76.775,71.023c-.1-.239-.393-.363-.87-.363a14.394,14.394,0,0,1,.292,2.537h.72a1.277,1.277,0,0,1-.073-1.09A1.248,1.248,0,0,0,4812.928,268.134Zm18.426-132.983a9.02,9.02,0,0,0-3.044-.36,42.14,42.14,0,0,0-3.824,18.478l-2.681-.363.284.723,2.179,1.813-1.3,2.174-1.445,7.247-1.3,5.8-.428.723a3.9,3.9,0,0,1-.362,3.624c-.244,0-.368.306-.361.905a2.676,2.676,0,0,1-.216,1.268l-1.521.723a.5.5,0,0,0,.5.363c.1.242.387.363.873.363-.051.488-.143,1.147-.288,1.992s-.268,1.753-.359,2.719l.577,1.45-3.549,1.087a13.432,13.432,0,0,1,2.394,1.447l-.861,6.884a22.357,22.357,0,0,1-2.03,2.174l1.594.363.149,2.174q-.36,1.821-.723,5.437c-.242,2.419-.38,4.471-.429,6.157a1.263,1.263,0,0,1-.684.542,2.079,2.079,0,0,0-.907.908,1.277,1.277,0,0,1-.686.542c-.312.124-.452.545-.4,1.272h.362l.8-.727a13.456,13.456,0,0,1,.548,1.813,6.22,6.22,0,0,1,.179,1.813q-1.009,6.521-.5,8.7c.144.966-.536,1.689-2.029,2.17h1.09a6.946,6.946,0,0,1,.4,3.264c-.124,1.208-.49,1.935-1.125,2.17-1.117.242-1.32,1.214-.651,2.9l.723-1.813c-.143.245-.092.363.152.363l.5,2.174a11.522,11.522,0,0,1-3.11.363l2.681,2.174c.043.723.171,1.938.368,3.627a6.817,6.817,0,0,1-.8,4.347c-.244,0-.456-.236-.654-.727a3.762,3.762,0,0,1-.037-1.45,3.108,3.108,0,0,0-.693-2.17l.159,5.8c.477,0,.646.124.5.36l.723-1.81c.675,1.692.608,3.025-.213,3.987l1.02,4.347h-.726a2.418,2.418,0,0,0-.8-1.087,2.721,2.721,0,0,0-.144,1.447c.047.727-.118,1.214-.5,1.45l.863.363a.787.787,0,0,1,.077-.723c.143-.239.453-.363.94-.363a13.906,13.906,0,0,1,.434,1.992,2.556,2.556,0,0,1-1.444,2.719c-.243,0-.294.182-.144.542a1,1,0,0,1,0,.905l.007,5.437a10.789,10.789,0,0,0,.292,6.157c.1.245-.047.491-.433.727s-.247.606.438,1.09a2.514,2.514,0,0,1,.07,1.084,3.945,3.945,0,0,0,.367,1.813l.436,2.9.8,2.9,1.164,2.9a35.834,35.834,0,0,0,1.382,6.164,27.833,27.833,0,0,1,1.235,5.8,5.733,5.733,0,0,1-.5,3.26,53.054,53.054,0,0,1-14.508-14.495,2.37,2.37,0,0,0-.8-1.087l-.652-.727a1.54,1.54,0,0,1-.616-1.084,1.576,1.576,0,0,0-.617-1.09,71.1,71.1,0,0,1-4.723-16.3q-.8-4.709-1.463-16.3l-1.033-15.221c.048-1.686.03-3.675-.038-5.976a30.114,30.114,0,0,1,.317-5.979,34.858,34.858,0,0,0,.647-7.429q-.009-4.527.061-7.066a23.27,23.27,0,0,0,.58-5.8,15.491,15.491,0,0,1,.715-5.437,29.739,29.739,0,0,0,.362-5.434,4.892,4.892,0,0,1,1.223-3.264,3.456,3.456,0,0,1-1.156-1.087l.867-1.45q-.588-3.256,1.542-16.487t3.792-15.4a3.193,3.193,0,0,1-.946-1.45,9.728,9.728,0,0,1-.146-3.984l2.457-4.71a10.91,10.91,0,0,0,0-1.813,6.468,6.468,0,0,1,.438-2.531l.715-3.627q-8.107,1.458-12.028,2.537l-6.441,2.9c-.63.239-1.631.6-3.011,1.087a26.187,26.187,0,0,1-4.093,1.087,17.7,17.7,0,0,0-5.577,1.447l-.941.363a14.031,14.031,0,0,1-5.8-1.81c-2.225-1.935-3.193-3.742-2.907-5.437-.1-1.45.678-1.928,2.32-1.45h2.174a96.539,96.539,0,0,0,9.854-2.534,11.071,11.071,0,0,0,4.054-.727,109.7,109.7,0,0,1,14.708-3.984,48.578,48.578,0,0,0,7.031-1.45,4.364,4.364,0,0,0,2.174-.908,3.705,3.705,0,0,0,.5-2.355,32.46,32.46,0,0,1,1.226-5.071c.581-2.177,1.058-4.287,1.445-6.342s.764-3.805,1.152-5.255l1.734-6.524a35.756,35.756,0,0,0,1.515-7.968c.094-.963.224-2.295.395-3.987a17.284,17.284,0,0,0,.037-3.987c.477-2.413,1.351-3.86,2.6-4.347a8.7,8.7,0,0,0-.76-1.45,3.735,3.735,0,0,1-.548-1.813c-.191-.478.077-.723.8-.723l-1.3-1.447.071-.727a6.907,6.907,0,0,0,2.9-.905,5.083,5.083,0,0,1,3.405-.545,3.877,3.877,0,0,1,1.887-.723q1.811,0,4.132,2.174a12.518,12.518,0,0,0,4.134,2.174,9.9,9.9,0,0,1,2,2.715,3.548,3.548,0,0,0,2.069,2l.577,1.453a1.54,1.54,0,0,1,.113.723c-.032.242.13.484.465.723l.587,1.45c.042.723.079,1.874.111,3.442a11.2,11.2,0,0,1-.468,3.805q.434,4.709-.647,6.521a1.649,1.649,0,0,0-.108,1.087,1.534,1.534,0,0,0,.617,1.087,1.257,1.257,0,0,1-.509,1.45,9.93,9.93,0,0,0,.224,2.355,4.318,4.318,0,0,1-.578,3.079c-.528.488-1.208,2.419-2.024,5.8-.2.727-.422,1.517-.684,2.358s-.5,1.629-.687,2.355q-1.885,4.346-1.516,6.157a2.738,2.738,0,0,0,1.595.366,184.294,184.294,0,0,1,19.569,1.81q3.185.727,7.643,1.45t7.642,1.447l6.382,1.45,1.235.363s.408.424,1.234,1.268a5.04,5.04,0,0,1,1.454,2.715l.143,2.177h-.36c-.488,0-1.307-.545-2.467-1.635s-2.271-1.138-3.33-.175l1.736.723h.727c.1.242-.1.36-.583.36-3.091-.481-5.7-.959-7.823-1.45-.343-.236-.473-.418-.4-.542a.658.658,0,0,0-.04-.542h1.451a2.683,2.683,0,0,0-2.216-1.45,3.174,3.174,0,0,1-1.774-.363l-.721,1.813a35.128,35.128,0,0,1-5.367-.727,1.573,1.573,0,0,1,.143-1.45l-2.1-.723-.357,1.813a19.03,19.03,0,0,1-6.6-1.09,5.165,5.165,0,0,0,2.39-.36,3.189,3.189,0,0,0-1.735-.727c-.492,0-.705.363-.654,1.087a8.765,8.765,0,0,1-5.071,0,3.756,3.756,0,0,0-1.886-.182,5.031,5.031,0,0,1-1.377.182c-1.935,0-3.26-.6-3.989-1.81a4.4,4.4,0,0,0-.393,1.265c-.125.609-.4.672-.835.185s-.823-.545-1.158-.185A1.382,1.382,0,0,1,4831.354,135.151Zm20.868-1.268a1.425,1.425,0,0,0,.507,1.268,3.527,3.527,0,0,0,.364-.905,1.487,1.487,0,0,0,0-.905C4852.6,133.341,4852.319,133.52,4852.222,133.883Zm-56.132,110.335,1.377-2.9Q4795.358,242.408,4796.089,244.218Zm2.466,2.54a3.648,3.648,0,0,0-1.957-.367l-.073.727.437,1.087C4798.61,248.693,4799.133,248.206,4798.556,246.759Zm.854-15.945s-.289-.727-.873-2.177l-.867,3.26.22,1.453.8,1.084Zm.918-23.916-.073-4.714C4799.285,204.6,4799.315,206.172,4800.328,206.9Zm3.088-29.35-2.969.723a7.2,7.2,0,0,0,2.029,1.45l-.933,5.8Q4804.865,181.174,4803.416,177.549Zm.635-21.019h-1.09a5.975,5.975,0,0,0,.692,1.268c.268.363.325.666.182.905h.366Q4804.779,158.345,4804.05,156.53Zm1.676,8.7a3.52,3.52,0,0,0-.831,2.9,14.263,14.263,0,0,1,.107,2.537C4805.976,169.457,4806.208,167.643,4805.726,165.228Zm2-23.912-.144-.366-.219.366.146.36Zm2.4,6.881c-.055-.727-.291-1.026-.727-.905a3.954,3.954,0,0,1-1.015.178C4808.78,148.438,4809.354,148.68,4810.132,148.2Zm1.806,71.383-.143-.36-.218.36Zm1.648-91.672h-.361l-.066.723.216-.363C4813.277,128.032,4813.344,127.907,4813.586,127.907Zm23.779,3.26,7.171.727.076-.727a49.346,49.346,0,0,1-7.176-.727Zm-8.479,1.447q1.594-1.444,5.938-1.447c.339.242.606.3.8.178a.387.387,0,0,0,.144-.542,6.224,6.224,0,0,0-2.313-.363,6.066,6.066,0,0,1-2.323-.363c-.967,0-1.594.245-1.881.727A3.032,3.032,0,0,0,4828.887,132.615Zm38.612,101.1a2.94,2.94,0,0,0,.074.36h.069S4867.593,233.953,4867.5,233.711Zm61.06,42.031,1.306,1.45h-2.18a11.123,11.123,0,0,1-4.343-.905,33.288,33.288,0,0,1-4.064-2,13.5,13.5,0,0,1-2.61-2.9c-.777-.727-2.177-2.11-4.206-4.169a37.938,37.938,0,0,1-4.938-5.976l-.432-1.084.217-.367a.51.51,0,0,1-.508-.36l.221-.363-1.233-.363a18.8,18.8,0,0,0-1.89-2.9c-1.068-1.447-1.353-2.773-.873-3.984a11.2,11.2,0,0,1-3.266-4.529c-.724-1.81-1.235-3.082-1.521-3.805.138-.239.032-.663-.332-1.265s-.23-1.029.4-1.272c-1.45,0-2.2-.966-2.254-2.9a18,18,0,0,1-1.014-3.439,25.083,25.083,0,0,1-.366-2.722c-.628-.959-.873-1.568-.727-1.81a1.457,1.457,0,0,1,0-.905c.1-.36-.124-.905-.653-1.632a7.434,7.434,0,0,1-.83,1.992,3.325,3.325,0,0,0-.467,1.992h-.363a3.662,3.662,0,0,1,1.162,1.09l-2.826,1.087a1.034,1.034,0,0,1,1.017.723,20.977,20.977,0,0,1-4.631,8.337c-.436.724-.363,1.208.218,1.447.392.969.216,1.45-.5,1.45-.246,0-.389-.363-.436-1.087-.2.723-.233,1.087-.109,1.087h.545l-2.1,2.9a33.62,33.62,0,0,0-4.05,7.971l-2.536,1.81a10.725,10.725,0,0,1-2.427,2.537c-1.183.969-2.037,1.689-2.569,2.174a1.543,1.543,0,0,0-.94,2.174l-.94.363c-.583.966-1.75,1.511-3.519,1.629a11.877,11.877,0,0,0-4.162.908,4.643,4.643,0,0,1-3.623,0q-1.235-.359-3.625-.908a18.393,18.393,0,0,1-4.2-1.447,9.662,9.662,0,0,1-3.265-2.719,24.071,24.071,0,0,1-3.264-1.81,33.275,33.275,0,0,1-6.386-8.7l-6.6-13.768-.224-1.45a.4.4,0,0,1,.144-.542c.191-.121.167-.185-.07-.185a3.263,3.263,0,0,1-.947-1.447,4.906,4.906,0,0,1-.143-2.177,16.138,16.138,0,0,0,.07-2.537c-.058-.723-.232-2.228-.547-4.529a10.446,10.446,0,0,1,.465-5.612,31.233,31.233,0,0,0,.933-5.8c-.191-.481-.093-2.046.287-4.71a12.894,12.894,0,0,0,1.013-2.9,10.7,10.7,0,0,1,.364-1.813,13.285,13.285,0,0,0,.36-1.81,2.1,2.1,0,0,1,.354-1.813,4.715,4.715,0,0,0,.731-1.813l1.512-4.347a2.084,2.084,0,0,1,.363-1.81,1.521,1.521,0,0,0,.721-.908,3.448,3.448,0,0,1,.366-.905,3.961,3.961,0,0,1,.607-1.629,1.8,1.8,0,0,0,.256-1.632c-.19-.481.093-.962.867-1.45,1.353-3.86,2.576-6.521,3.691-7.968.387-.239.679-.421.87-.545a1.581,1.581,0,0,0,.5-.545l1.376-2.9-.143-.36q.933-2.18,4.993-6.524a22.139,22.139,0,0,1,7.313-6.164,9.071,9.071,0,0,1,2.609-.72,14.915,14.915,0,0,1,3.909.72c1.886.488,3.145.606,3.773.363-.195-.481.286-.481,1.449,0l5.51,2.9a19.66,19.66,0,0,1,2.974,1.992c1.064.848,1.763,1.393,2.1,1.632.58.242,1.1.488,1.557.723a3.762,3.762,0,0,0,1.776.363h.727q2.175,0,5.214,2.174l1.743.723a6.6,6.6,0,0,0,.615-2.537,2.212,2.212,0,0,1,1.846-2.17l-.294-.727a6.235,6.235,0,0,1,.581-5.8c.963-1.208,1.057-2.773.28-4.714a3.931,3.931,0,0,0,.653-1.992c0-.6.021-1.141.067-1.629l.947-.363a3.544,3.544,0,0,1,2.39,1.447,6.9,6.9,0,0,0,2.176,1.813h-1.812q3.039.368,6.67,3.987a2.515,2.515,0,0,1-.146-2.174,11.564,11.564,0,0,1,1.087.905,12.764,12.764,0,0,1,1.382,1.632l1.882-.727,3.121,3.263c.867.969,1.3,1.447,1.3,1.447s.336.545,1.013,1.632,1.333,2.119,1.964,3.079a9.342,9.342,0,0,0-.071,2.537,5.284,5.284,0,0,0,0,1.813,29.357,29.357,0,0,0-3.031,12.321,8.185,8.185,0,0,0-.864,4.165c0,1.813-.044,3.2-.143,4.165a3.413,3.413,0,0,1-.506,1.45,3.436,3.436,0,0,0-.5,1.447c.1.249.6.609,1.526,1.09l-2.03.36a21.648,21.648,0,0,1,.217,3.264l-.067,6.161a38.761,38.761,0,0,0,.262,6.521,40.2,40.2,0,0,1,.261,6.524,14.758,14.758,0,0,0,.182,3.624,15.111,15.111,0,0,1,.185,3.624,12.07,12.07,0,0,0,.945,3.257,1.475,1.475,0,0,1,.294,1.635,1.988,1.988,0,0,0-.218,1.265,16.95,16.95,0,0,0,1.089,3.624l.73,3.624a4.63,4.63,0,0,0,.432,2,4.467,4.467,0,0,1,.441,1.992,4.544,4.544,0,0,0,.441,2,4.682,4.682,0,0,1,.435,1.992,7.122,7.122,0,0,1,1.6,3.987l.868,2.17a54.522,54.522,0,0,0,4.864,9.421l.289.723a15.779,15.779,0,0,0,2.506,3.987q1.773,2.175,2.579,3.26a2.544,2.544,0,0,1-1.343.727C4927.625,274.173,4927.685,274.782,4928.559,275.742Zm-91.236-73.917s.192.484.578,1.45a2.43,2.43,0,0,1,.8-.727c.386-.239.363-.6-.073-1.087a1.374,1.374,0,0,0,.292-1.087.53.53,0,0,0-.51-.36c.291.723.361,1.208.217,1.447C4837.751,201.706,4837.323,201.824,4837.323,201.824Zm.362,1.81-.072.727h.365Zm-1.49,36.96-.144-.36-.577.36.654.723Zm.438-2.537-.443-6.524h.362s-.05-.118-.143-.36c.093.242.017.36-.219.36-.772.488-1.071,1.4-.9,2.722A9.612,9.612,0,0,0,4836.632,238.058Zm.347-10.868-.071-1.087a1.357,1.357,0,0,0-.291,1.087Zm.653-2.9c-.242,0-.291-.118-.15-.366l-.646,1.09h.363S4837.341,224.778,4837.632,224.293Zm1.37-6.524-.216-1.45h-.366l.222,1.45a1.7,1.7,0,0,0-.437,2.537Zm1.068-19.932.148.363.07-.723Zm.59,10.511q-1.086,1.817-.579,2.17Zm1.373-2.9c.532-.481.463-.962-.216-1.447l.216,1.447-1.156,2.537q1.667-.359,1.485-1.268A8.092,8.092,0,0,0,4842.033,205.448Zm1.077-12.684h-.362l-.65-.723-.077.723c-.291.488-.313.727-.07.727l.146.36.577-.36Zm47.769,17.032a9.572,9.572,0,0,0-3.33.723,4.42,4.42,0,0,0-.616-1.992,4.258,4.258,0,0,1-.616-1.992,5,5,0,0,0-2.682,1.45,2.343,2.343,0,0,0-.868,1.45,2.651,2.651,0,0,1-.291,1.084,1.592,1.592,0,0,0-.578,2.177l2.028-2.177q1.6-1.439,3.621,0l.076,2.9,2.97-2.537C4890.881,210.4,4890.98,210.041,4890.879,209.8Zm-4.631,2.9h-.36l1.013.727Zm.356-9.061-1.016,1.087.292.727c.723,0,1.158-.118,1.3-.363l-.577-1.45c.672-.723.361-1.2-.947-1.45A3.336,3.336,0,0,1,4886.6,203.635Zm4.132,3.987a7.548,7.548,0,0,0-.617-1.087,3.715,3.715,0,0,1-.548-1.813l-1.879.727c-.291.488-.1.966.579,1.45h.362Q4888.632,208.715,4890.736,207.622Zm-1.458-5.437.586,1.45c.334-.959.142-1.45-.586-1.45l-.284-.723S4889.087,201.706,4889.278,202.185Zm-2.246-1.087a.531.531,0,0,1,.512.363,1.293,1.293,0,0,1,.863-1.447l.293.723,1.445-3.627a1.824,1.824,0,0,0-1.053-.36,1.758,1.758,0,0,1-1.051-.363Zm-28.719,50.368a3.607,3.607,0,0,0-1.311-1.45q-2.24.731-.8,2.537a1.615,1.615,0,0,0,1.128-.36A6.983,6.983,0,0,1,4858.313,251.466Zm5.06-9.061c-1.25.491-1.375,1.09-.362,1.813a1.734,1.734,0,0,0,.255-.723C4863.292,243.256,4863.33,242.9,4863.373,242.405Zm5.514,2.9c-.341-.239-.439-.481-.292-.723q-.941.363-.654,1.087l.15.363.433-.727Zm3.828-11.234a3.411,3.411,0,0,1-1.156-1.087c-.684-.478-1.046-.478-1.092,0s-.2.727-.436.727c-1.106-.963-1.45-1.813-1.015-2.537l3.184-2.9.8,1.087a2.4,2.4,0,0,0-.8-1.087l.291-1.087,2.32,2.174-1.021-4.347c-.092-.239.02-.548.36-.908a5.494,5.494,0,0,1,1.09-.905l-.146-.36a2.329,2.329,0,0,0,.8,1.084,2.87,2.87,0,0,0-.541,1.813,2.8,2.8,0,0,0,.761,1.45l.5-1.45c.143-.239.459-.36.946-.36h-1.09l-.294-.727-.651-2.537v-1.81a26.532,26.532,0,0,1,2.962-6.161.717.717,0,0,0,.8-.723,2.475,2.475,0,0,0-.073-1.09,1.839,1.839,0,0,1,.763-1.272,3.982,3.982,0,0,0,.9-.9,9.714,9.714,0,0,0,.5-2.355,3.229,3.229,0,0,1,2.172-2.719l.578-.363a3.413,3.413,0,0,1-1.157-1.087l1.587-3.26,2.387-5.8a3.025,3.025,0,0,1-.218-1.447,4.027,4.027,0,0,0-.366-1.813l-2.83-7.968-2.983-6.524a63.665,63.665,0,0,0-6.375,2.177,20.349,20.349,0,0,0-5.794,3.624,56.492,56.492,0,0,0-5.934,6.881,29.391,29.391,0,0,0-2.894,4.532q-1.455,2.715-2.315,4.165-3.4,8.7-3.9,10.148a12.1,12.1,0,0,0-.691,2.352,3.948,3.948,0,0,0,1.345,3.805,26.865,26.865,0,0,0-.538,2.719,16.1,16.1,0,0,1-.973,3.442l-.873,1.45.294.727c.292.723-.026,1.45-.939,2.174l-.075.723a2.507,2.507,0,0,0,.473.723,1.391,1.391,0,0,1,.254,1.087,5.456,5.456,0,0,0-.579,2.174c-.1.969-.335,1.574-.721,1.81q-2.038,2.175-.431,4.35,1.3,3.26-2.023,3.984l-.073.727a1.826,1.826,0,0,1,1.013,1.635,1.79,1.79,0,0,0,1.022,1.625,10.314,10.314,0,0,0,0,1.813,12.386,12.386,0,0,1,0,1.81l.875,3.987,4.632-2.9-1.375-.727c.043-.481.187-.723.429-.723a.665.665,0,0,0,.586-.36l2.026,1.447-.583-1.447a1.261,1.261,0,0,0,.509-1.453,5.117,5.117,0,0,0,2.391-.363,1.538,1.538,0,0,0,.723-.9,3.5,3.5,0,0,1,.361-.908,5.2,5.2,0,0,0,1.195-1.087c.411-.481,1.144-.6,2.208-.363l2.031-2.174c-.829-1.45-.871-2.174-.151-2.174l.948,1.45,1.156-2.537,1.45,1.81c.095-.963.143-1.45.143-1.45l.58-.36A9.543,9.543,0,0,1,4872.715,234.071Zm7.521-17.389a2.532,2.532,0,0,0-1.415,1.447,6.589,6.589,0,0,0-.542,1.813l1.163,1.087a5.445,5.445,0,0,0,1.012-2.9Zm.593,14.131L4878.653,229l-4.2,7.608c.1.245.021.363-.216.363l-.435.727a4.077,4.077,0,0,0-1.952,3.26c.383-.239,1.027-.6,1.919-1.09a1.929,1.929,0,0,0,1.265-1.81l-.289-.723a1.93,1.93,0,0,0,1.956-1.45,10.78,10.78,0,0,0,.648-1.992,3.49,3.49,0,0,1,2.316-2.358Zm5.066-7.247a12.676,12.676,0,0,1-2.609-1.087c.1.245.02.363-.219.363l1.164,1.084-1.014,1.09a1.725,1.725,0,0,1-.654-.723.53.53,0,0,0-.509-.366,6.1,6.1,0,0,1-4.06-2.9q-1.809,1.817,1.166,2.9a6.04,6.04,0,0,0,1.916.727,9.435,9.435,0,0,0,2.142.363c-.293.484-.192,1.329.293,2.534h-1.091l-1.953-.36.436,1.087h-.366l1.666,1.447,1.308-2.174Zm1.953-5.074q2.825-1.085,2.167-5.437l-1.444,3.627c-.055-.727-.256-1.09-.618-1.09a2.126,2.126,0,0,0-1.122.363c-.583-.239-.9-.118-.943.363a2.487,2.487,0,0,0,.073,1.09l-1.015,1.084h1.45l.217-.363,1.307-.36-.073.723a1.585,1.585,0,0,0-.577,2.174Q4889.008,219.581,4887.848,218.493Zm3.774,2.174-.295-.723c.045-.481-.267-.962-.946-1.45l.946,1.45-3.187,2.9,1.744.723Zm2.521-14.495h-.361l.217,1.45h.36C4894.5,207.386,4894.431,206.9,4894.143,206.172Zm.478-32.247-.15-.363-.5-.363-.58.363Zm1.351,50.368-1.013,1.087A.9.9,0,0,0,4895.971,224.293Zm.947,5.071c.529-.484.8-.727.8-.727s-.51-.36-1.527-1.087l.73,1.813-.217.36C4896.937,229.724,4897.013,229.606,4896.918,229.364Zm1.746,7.971a45.723,45.723,0,0,1-.875-5.8h-.727l.733,5.437Zm-31.091-3.264h-.292q-.439.731.581,1.45h.359l-.143-.36A1.635,1.635,0,0,1,4867.573,234.071Zm130.708-19.925c-.144.242-.462.36-.94.36l.434,1.087Zm-61.558,45.294,1.308-.363-.871-2.174Q4936,257.63,4936.723,259.44Zm58.091-39.5h-.729C4994.376,220.666,4994.613,220.666,4994.814,219.943Zm-54.531-31.166h1.084l-.8-1.087Zm.667,93.849a1.979,1.979,0,0,0,0-1.81l-1.594-.36,1.6,5.8,1.01-1.09A2.1,2.1,0,0,1,4940.95,282.626Zm-4.547-61.959a5.845,5.845,0,0,1-.22,2.177l.8-.727-.216-1.45Zm65.532-11.416c-.074.124-.182.309-.322.545l.8-.723A.523.523,0,0,0,5001.935,209.25Zm-1.12,1.268.871.367-.073-1.09C5001.367,209.8,5001.106,210.041,5000.815,210.519Zm.766-33.333.433,1.087h.73A3.494,3.494,0,0,1,5001.581,177.185Zm-2.678,81.891-.287-.727-1.162.727Zm-41.731,12.5c-.1.36-.143.542-.143.542l.143.36a.521.521,0,0,0,.512.363l.361-1.813-.873-.363A1.448,1.448,0,0,1,4957.171,271.579Zm2.366-28.448.292.723h.361ZM5026.3,256.9h.361l-1.955,1.447c-.781-.723-1.451-.6-2.029.363l-.073.727q.209-.359-.289-.727l-1.159,2.537,1.3-.363h.728c.525.727.462,1.147-.217,1.268s-1.089.3-1.231.542a9.849,9.849,0,0,1-4.273,2.9,25.634,25.634,0,0,0-3.983,1.81c-.393.242-1.261.79-2.606,1.635a6,6,0,0,1-4.857.542l-.577.36a64.973,64.973,0,0,1-8.84,1.45,11.752,11.752,0,0,1-5-.727,8.712,8.712,0,0,0-4.42-1.084,1.808,1.808,0,0,1-2.175,0,9.189,9.189,0,0,0-4.062-1.992,22.733,22.733,0,0,1-3.261-.911c-2.559-.959-4.208-2.046-4.929-3.26-.194-.478-.873-.963-2.031-1.447a32.019,32.019,0,0,0-3.626-1.807,30.971,30.971,0,0,1-3.625-1.817,11.364,11.364,0,0,1-4.349-3.62l-.074.723c-.486,0-.582-.236-.289-.723a3.8,3.8,0,0,1-1.23-.363,14.894,14.894,0,0,0-.074,1.629c0,.606.023,1.268.074,2h-1.813l.294.723c1.207,0,1.709.363,1.521,1.087l.3,9.784h-.726l-.875-2.177.587,3.26h-1.451c1.156.491,1.718,1.578,1.667,3.264l1.171,10.144.946,5.074a7.269,7.269,0,0,1,.225,3.264l-1.743,1.087a3.188,3.188,0,0,0,1.6,2.174,14.144,14.144,0,0,1-1.158,1.629,3.2,3.2,0,0,0-.8,1.635,23.837,23.837,0,0,1,1.741,2.537q0,1.807-1.955,1.447a5.145,5.145,0,0,1,1.812,1.81l-1.518.727,2.829,9.781c-.53-.727-.918-1.087-1.155-1.087a1.226,1.226,0,0,0-.4-.542c-.173-.118-.428-.3-.763-.545l1.965,5.8-1.669-1.453a5.467,5.467,0,0,1-1.81,1.813c1.015,1.935,3.164,4.583,6.456,7.971a5.81,5.81,0,0,1-2.575-.545,8.4,8.4,0,0,1-2.431-1.992,3.629,3.629,0,0,0-1.12-.542,3.971,3.971,0,0,1-1.128-.545,1.546,1.546,0,0,1-.616-1.087,2.893,2.893,0,0,0-.758-1.45q-3.2-4.346-6.972-13.768a27.32,27.32,0,0,0-1.778-4.892,26.445,26.445,0,0,1-1.782-4.889l-.292-.727a4.012,4.012,0,0,1-.074-2.9c1.065,1.447,1.986,1.934,2.757,1.447a4.084,4.084,0,0,1-1.525-1.087,7.487,7.487,0,0,0-2.029-1.45l.433-2.537-.291-.72-1.526-1.09a5.119,5.119,0,0,1,1.195-1.087q.975-.722-.328-2.177a5.736,5.736,0,0,1,1.451-1.81l-2.25-4.71.071-.724a4.675,4.675,0,0,0,.181-1.81,2.89,2.89,0,0,0-.765-1.453c-.2.727-.844,1.211-1.957,1.453a37.037,37.037,0,0,1-1.018-7.974,40.219,40.219,0,0,0-.878-7.607h1.451l-.22-1.45-.291-2.537a3.059,3.059,0,0,1-.223-1.45,2.447,2.447,0,0,0-.07-1.087H4936l-1.03-13.408,1.888,1.087-1.092-1.813a8.355,8.355,0,0,1-.509-3.984,22.049,22.049,0,0,0,.143-3.26l1.451,1.81q1.007-1.085.9-1.81t-1.706-1.09c-.242-2.413-.392-3.984-.435-4.7a9.308,9.308,0,0,1,2.1.72,24.26,24.26,0,0,0-.73-5.434l.939-2.174a8.045,8.045,0,0,0-1.156-1.087,1.675,1.675,0,0,1-.652-.727,66.68,66.68,0,0,0,1.112-7.611,64.092,64.092,0,0,1,1.119-7.608,2.489,2.489,0,0,1,.83-1.992,8.828,8.828,0,0,0,1.34-1.632l.36-3.624-1.158.723a4.8,4.8,0,0,1-.148-3.079,8.945,8.945,0,0,0,.36-2.719l.868,2.174,2.469-1.087-1.53-2.9h-.365a.983.983,0,0,0,0-.9c-.143-.363-.1-.545.146-.545q-1.592-.359-1.235-2.174l1.743.727-.658-2.537,1.378-1.087-1.74-.723,1.662-2.177a.521.521,0,0,0-.506-.36l-.8.723-.652-.723c.483,0,.814-.363,1.015-1.09s.578-.963,1.158-.723c.234,0,.386-.239.436-.723a3.123,3.123,0,0,0-.219-1.45c.093.242,0,.606-.292,1.087a.506.506,0,0,1-.5-.363q.568-5.794.5-6.884l.505-3.26.8-2.537,1.3-9.424.721-1.813a44.467,44.467,0,0,0,1.01-6.518q.429-2.538.83-4.71a24.663,24.663,0,0,1,.9-3.624,19.821,19.821,0,0,1,1.661-7.611,11.8,11.8,0,0,0,.286-4.71,4.593,4.593,0,0,1,.394-2.177,6.422,6.422,0,0,0,.543-1.81q.209-3.982.646-4.71a6.451,6.451,0,0,0,2.1.723c-1.016-.723-1.5-1.323-1.451-1.81-.15-.963.312-2.537,1.376-4.71a2.94,2.94,0,0,0,0-1.813,1.241,1.241,0,0,1-.076-1.087q1.377-4.7,2.1-6.521c-.144.242-.1.36.148.36l-.148-.36L4956,99.641a42.119,42.119,0,0,0,1.2-4.71,31.821,31.821,0,0,1,1.407-5.074h.36a6.5,6.5,0,0,1-.651-2.537l2.818-6.521,3.479-.363a3.03,3.03,0,0,1,2.61,1.087l.726,1.813a28.678,28.678,0,0,1,7.329,6.521,7.969,7.969,0,0,1,1.089,3.627l.869,5.8h.73l.361,1.807h-.361a33.877,33.877,0,0,0-1.011,4.71,4.8,4.8,0,0,1,1.594-1.447,1.228,1.228,0,0,0,.078,1.087,1.267,1.267,0,0,1,.067,1.087,19.524,19.524,0,0,0-1.151,4.347l-1.01,6.524a10.515,10.515,0,0,1,0,3.624c-.389.245-.5.723-.326,1.447a1.1,1.1,0,0,1-.686,1.453,1.8,1.8,0,0,0-.69,1.45c-.068.723-.131,1.329-.18,1.81a22.468,22.468,0,0,0-.5,3.26,8.057,8.057,0,0,1-.867,3.264l-.646,1.087c.042.723.066,1.692.074,2.9a4.1,4.1,0,0,1-1.014,2.9c-.243,0-.289.182-.143.542a1.01,1.01,0,0,1,0,.908q-.294,6.516-.792,9.778l-1.657,7.611a2.129,2.129,0,0,0-.322,1.45,4.485,4.485,0,0,0,.255,1.087,2.974,2.974,0,0,0-.361,1.813,1.476,1.476,0,0,1-.509,1.45,9.47,9.47,0,0,0,.222,3.26l-1.669.363a6.692,6.692,0,0,1-.717,5.434c-.29.491-.383.851-.29,1.087l.143.363a2.725,2.725,0,0,1-.866,3.264l-.572,5.8q5.791-12.678,23.019-29.353a2.144,2.144,0,0,1,1.519,1.087,5.551,5.551,0,0,0,1.45-1.81c-.145.242-.7.36-1.667.36-.291-.727-.2-1.087.291-1.087a5.8,5.8,0,0,1,4.2-2.177l-1.308,2.177,2.32-1.45-1.089-1.81,3.042-1.45c.289-.481,1.429-.962,3.409-1.45,1.686,1.211,2.9,1.813,3.622,1.813h.362a3.726,3.726,0,0,1,2.61,1.087,18.864,18.864,0,0,0,1.665,1.45c.243,0,.337.242.293.723a10.278,10.278,0,0,1,3.262,1.813l3.915,2.537.148,3.987a27.2,27.2,0,0,1,.3,9.781,2.781,2.781,0,0,1,.111,1.632c-.118.6-.2,1.147-.251,1.629a15.086,15.086,0,0,0-1.011,4.714,2.144,2.144,0,0,1-.07,1.629c-.241.606-.771.79-1.593.542.865.969,1.108,1.578.722,1.813a4.357,4.357,0,0,0-.542,1.813,5.172,5.172,0,0,1-.761,2.17q-2.1,1.085-1.731,2.9c.1.242,0,.6-.291,1.087-.773.488-1.106.848-1.015,1.087a.913.913,0,0,1-.143,1.45,6.086,6.086,0,0,0-1.01,1.084,4.019,4.019,0,0,1-.906.911c-.463.36-.476.784-.039,1.265.1.242.022.36-.213.36.146.969-.488,1.813-1.885,2.537a1.965,1.965,0,0,0-.038,1.272,1.082,1.082,0,0,1-.4,1.265,6.4,6.4,0,0,1-2.46,1.09l.8,1.087c.678,1.692-.051,2.9-2.169,3.624-.488,0-.677.124-.583.363a5.339,5.339,0,0,1-1.368,2.9,18.488,18.488,0,0,0-1.669,2.177l.076,1.084q-.584.368.434,1.087a1.415,1.415,0,0,1,0,.905c-.1.363-.48.309-1.158-.178a1.023,1.023,0,0,0-.978-.185,2.24,2.24,0,0,1-.831.185l2.026,1.45a12.01,12.01,0,0,0-2.02,2.174l-.729-1.813v1.813l-2.464-.723.871,2.174h1.813a9.661,9.661,0,0,1-1.376,1.087,3.23,3.23,0,0,0-1.015,1.087l.435,1.087-1.375,1.087-3.187-.723.726,1.813a4.245,4.245,0,0,1-1.522.72h1.81c.335,1.45-.334,2.174-2.023,2.174a1.248,1.248,0,0,1-.074-1.087,10.989,10.989,0,0,0-2.247.727l2.321.36c-.15.242-.406.669-.761,1.268s-1.125.666-2.282.182c.966,1.211.822,2.052-.436,2.537-1.059.966-1.836,1.45-2.313,1.45l-.145-.363c-.292.488-.561.723-.8.723a3.625,3.625,0,0,0-2.1-.723l2.394,1.45-3.118.36q1.017,2.538-1.3,2.177l.5.36h-.721a15.264,15.264,0,0,0-4.239.723,6.851,6.851,0,0,1-3.66.366h-2.171a4.386,4.386,0,0,1,.9.905,6.2,6.2,0,0,0,1.415,1.265l-.937,2.177a5.01,5.01,0,0,0,1.955.36l-.578-1.447a17.706,17.706,0,0,1,3.842,2.355,6.246,6.246,0,0,0,3.19,1.629,3.57,3.57,0,0,0,2.751,3.264l-.142-.363h.728l-.074.727.73,1.81c.143-.236.577-.363,1.3-.363l.8,1.09a6.537,6.537,0,0,0,2.1.723,1.564,1.564,0,0,1,.144-1.45A4.8,4.8,0,0,0,4985.1,254a5.016,5.016,0,0,1,1.337,1.087l-2.03.363a9.077,9.077,0,0,0,1.413,1.268,2.555,2.555,0,0,1,.91.905l1.3-2.174a1.869,1.869,0,0,1,1.3.542,1.49,1.49,0,0,1,.51,1.268q-.653,1.09.58,1.45c.477,0,.678-.118.577-.363.774-.478,1.307-.663,1.594-.545a7.875,7.875,0,0,1,1.6,1.272c-.1.966.336,1.45,1.3,1.45l1.522,1.087a.405.405,0,0,1,.144-.545.394.394,0,0,0,.147-.542,4.854,4.854,0,0,1,1.341.178c.411.128.686.064.834-.178l2.679.36a3.209,3.209,0,0,0,3.116-2.174,10.065,10.065,0,0,0,2.318,2.174l5.218-1.447a5.284,5.284,0,0,1,1.955,2.174l.8-.727.147-1.447,2.467.727a1.583,1.583,0,0,1,.469-1.09.62.62,0,0,0,.249-.727c-.042-1.928.654-2.291,2.1-1.087a18.092,18.092,0,0,1,3.039-3.26l1.38.727-1.517,2.534A6.852,6.852,0,0,1,5026.3,256.9Zm-89.013-19.568-.294-.727-.94.363.654.727Zm6.759-51.815c.338.242.679.484,1.021.723s.6.306.8.182.31-.421.363-.905Zm-.585-10.508c.529-.484.458-.962-.218-1.45Zm1.106,19.929.358-1.813a1.187,1.187,0,0,0-.762.363c-.262.242-.543,0-.834-.727Q4942.462,194.217,4944.566,194.94Zm-2.122,59.789c-.725,1.208-.21,2.174,1.526,2.9Zm-.913-51.095,1.3-.36.291.727q1.37-1.09-.511-2.177c-.093-.236-.554-.481-1.376-.727Zm3.539,68.486-2.029-3.264a3.552,3.552,0,0,0,1.085-1.81c.042-.484-.461-1.45-1.525-2.9l.871-1.45-.8-2.9h-.723a13.5,13.5,0,0,1,.545,1.813,8.082,8.082,0,0,1,.111,2.534,15.685,15.685,0,0,0,.439,4.71,16.006,16.006,0,0,0,.872,5.8C4944.684,272.969,4945.07,272.121,4945.07,272.121Zm1.827,14.492-1.526-4.71a5.147,5.147,0,0,0,0,2.715A5.9,5.9,0,0,0,4946.9,286.613Zm.071-79.354a1.821,1.821,0,0,0-1.047-.36c-.365,0-.452.242-.256.723l1.16,1.087Zm.882,14.858-.357,1.81.289.727A5,5,0,0,0,4947.85,222.116Zm.271-21.019s-.654-.118-1.955-.36a4.136,4.136,0,0,0,.867,2.174C4947.76,201.706,4948.121,201.1,4948.121,201.1Zm2.122-52.542,1.017-1.087h-2.534Zm1.612,18.482a2.706,2.706,0,0,0-.287,1.09,3.468,3.468,0,0,1-.505,1.447C4952.175,169.339,4952.44,168.488,4951.855,167.038Zm3.115,147.841a8.574,8.574,0,0,0-2.254-4.714,22.418,22.418,0,0,1,.691,2.177A5.383,5.383,0,0,0,4954.97,314.878Zm.215,3.26,1.743-1.09-1.525-1.087C4955.263,317.412,4955.185,318.139,4955.185,318.139Zm17.837-70.3,1.012.727.223,1.447c.573-.963.506-1.447-.223-1.447l-.8-1.09h-.178C4972.931,247.479,4972.929,247.606,4973.022,247.842ZM4989,205.448h-1.087a1.439,1.439,0,0,1,0,.908c-.1.36-.386.542-.866.542l-.728-1.813-3.263,1.813,2.831.723-2.393.363c-.725,0-.89.488-.5,1.45a17.9,17.9,0,0,0-2.972.723,5.586,5.586,0,0,0-.65,2.9l1.958.367a1.976,1.976,0,0,0,0,1.81l-2.315-.363h-.729a3.5,3.5,0,0,0-1.482.363,1.186,1.186,0,0,1-1.268,0l.359,1.81,3.19-1.087a4.08,4.08,0,0,1,.363,1.813,2.362,2.362,0,0,0,.077,1.087h-2.541l.151.363-1.745-.727-2.969,2.537.292.727h1.813l.217,1.447-1.955-.36q-1.456,0-1.015,1.084c.386-.236.914-.118,1.593.366a9.651,9.651,0,0,0,1.886,1.087l.438-.727-.587-1.45,2.393-.36a1.177,1.177,0,0,1-.545-.911,3.1,3.1,0,0,0-.177-.9h1.081c.729,0,1.195-.182,1.415-.545a2.9,2.9,0,0,0,.256-1.629,19.051,19.051,0,0,0,2.855-3.264,19.671,19.671,0,0,1,2.859-3.26c.292-.481.046-1.087-.725-1.813a2.444,2.444,0,0,1,1.3-.36c.488,0,.8-.118.94-.363.292-.481.436-.723.436-.723s.336-.363,1.013-1.087A2.926,2.926,0,0,0,4989,205.448Zm11.585-9.061c-1.933,0-2.821,1.09-2.677,3.26Zm1.509-20.652-.511,1.45a2.724,2.724,0,0,1-1.3,2.174,31.681,31.681,0,0,0-3.835,7.607,1.561,1.561,0,0,0-.143,1.45l-.8.723a50.671,50.671,0,0,0-5.067,7.247l-3.907,6.524.147.363,2.75-.363.654,2.537a18.281,18.281,0,0,1,2.677-5.074,6.568,6.568,0,0,0-2.458,1.087.531.531,0,0,0-.511-.363,3.5,3.5,0,0,1,.5-1.45c.292-.478.578-.959.871-1.447a2.773,2.773,0,0,0,1.593.36c.483,0,.84-.3,1.085-.905a10.216,10.216,0,0,1,.583-1.268h-2.54a4.728,4.728,0,0,0,1.667-.36,8.765,8.765,0,0,0,1.52-.727l.15.363.939-2.174-1.886.723a3.222,3.222,0,0,1,2.459-2.9l.071-2.537,1.014-1.087.217-.36c1.256-.481,1.81-1.208,1.667-2.174a5.867,5.867,0,0,0,1.376-2.9,8.9,8.9,0,0,0,.938-2.174,6.831,6.831,0,0,1,.723-1.813c-.194-.481-.292-.723-.292-.723s.318-.118.942-.363Zm-30.624,40.221,1.887-.723,4.917-5.8a8.453,8.453,0,0,1,2.972-4.35,4.506,4.506,0,0,0,1.735-1.992,6.236,6.236,0,0,1,1.375-2l3.407-5.071,6.143-10.871,4.125-6.884,1.161-4.347a19.794,19.794,0,0,0,1.514-4.35l.223,1.45c.477,0,.7-.36.648-1.087l-.22-1.45c1.16-1.931,1.735-2.9,1.735-2.9s-.239-.6-.722-1.813l-2.176,1.813a15.517,15.517,0,0,1-2.933,3.079,16.048,16.048,0,0,0-3.149,3.442c-.921.723-1.594.848-2.024.363l-.583.36.654.727-5.572,6.884a126.639,126.639,0,0,1-7.235,12.681,10.136,10.136,0,0,1-1.882,4.35l-1.664,3.984a45.7,45.7,0,0,1-1.88,4.35l-.864,3.26a6.159,6.159,0,0,0-.867,3.26,1.67,1.67,0,0,1-.179,1.813c-.411.484-.566.851-.466,1.087Zm-4.227-28.626q1.09,0,1.411-.545a5.277,5.277,0,0,0,.472-1.989,8.028,8.028,0,0,1-.939,1.268A7.255,7.255,0,0,0,4967.241,187.33Zm-1.882,4.347c.633-.236.672-.723.141-1.45Zm-.541,38.41,1.74.727c.482,0,1.083-.6,1.808-1.813.964,0,1.357-.239,1.16-.723a5.227,5.227,0,0,1,4.348-1.813,8.448,8.448,0,0,0-3.193-.723,1.939,1.939,0,0,0-1.955,1.45l-1.156.723Zm-7.34-96.023,1.307,1.45.217-2.174a.527.527,0,0,0-.509-.363c-.43.727-.649,1.087-.649,1.087Zm5.982,115.228-4.355-3.624-.215.363a15.141,15.141,0,0,0,2.1,2.537A7.465,7.465,0,0,0,4963.46,249.292Zm6.376,1.45a12.161,12.161,0,0,1-1.417-1.268,4.976,4.976,0,0,0-2.134-1.268,7.372,7.372,0,0,0-.873-1.268,4.139,4.139,0,0,0-1.6-1.268q-1.668-3.26-6.381-5.074a4.85,4.85,0,0,1,.15,2.177l1.669,1.447.579-.363.5.363a1.956,1.956,0,0,0,1.852,1.45h1.627a3.309,3.309,0,0,0,2.1,2.537l.149.363C4966.647,250.016,4967.9,250.742,4969.837,250.742Zm.5-5.074h-.58a1.847,1.847,0,0,0,.367.363C4970.364,246.032,4970.436,245.914,4970.338,245.669Zm4.433,8.334c-1.165-.478-2-.478-2.54,0,.243-1.2-.365-1.81-1.814-1.81q.368,1.812,1.814,1.81c.478,0,.678.488.58,1.45Zm3.769,2.177-1.814-1.813-2.1,1.087,1.3,1.45Zm2.393,5.071-1.884-1.084-.651,1.084,1.232.363Zm5.289-.363a1.542,1.542,0,0,0-1.519-1.087,1.83,1.83,0,0,0-1.049-.36,1.754,1.754,0,0,1-1.051-.363l.142.363a1.949,1.949,0,0,0,1.849,1.447Zm10.872-1.81c-1.207,0-1.74.488-1.593,1.45h1.813Zm32.236-14.495-1.808,5.434c0,1.214-.359,1.813-1.086,1.813l-1.375,1.087,1.886,1.087-.144,1.45h.358a11.5,11.5,0,0,1,1.955-3.26l.434-2.537.869.36a1.676,1.676,0,0,1,.112-1.087,2,2,0,0,0-.042-1.45A3.8,3.8,0,0,0,5029.329,244.582Zm-48.916,7.247.15.363h1.45c-.292-.727-.6-1.029-.907-.911A1.393,1.393,0,0,0,4980.414,251.829Zm44.789-.363a2.082,2.082,0,0,1,1.232.363c-.678-.481-1.015-.723-1.015-.723C5025.517,251.348,5025.441,251.466,5025.2,251.466ZM5118,140.589h-.359c-.49,0-1.3-.545-2.47-1.635s-2.265-1.138-3.329-.175l1.736.723h.73c.091.242-.1.36-.583.36-3.088-.481-5.7-.959-7.828-1.45-.335-.236-.47-.418-.4-.542a.63.63,0,0,0-.037-.542h1.452a2.684,2.684,0,0,0-2.215-1.45,3.169,3.169,0,0,1-1.775-.363l-.725,1.813a35.065,35.065,0,0,1-5.361-.727,1.594,1.594,0,0,1,.14-1.45l-2.1-.723-.359,1.813a19.029,19.029,0,0,1-6.6-1.09,5.157,5.157,0,0,0,2.392-.36,3.2,3.2,0,0,0-1.737-.727c-.487,0-.7.363-.654,1.087a8.767,8.767,0,0,1-5.072,0,3.742,3.742,0,0,0-1.882-.182,5.042,5.042,0,0,1-1.38.182c-1.936,0-3.261-.6-3.985-1.81a4.249,4.249,0,0,0-.4,1.265c-.119.609-.4.672-.833.185s-.821-.545-1.16-.185a1.383,1.383,0,0,1-.871.545,9,9,0,0,0-3.044-.36,42.132,42.132,0,0,0-3.821,18.478l-2.682-.363.292.723,2.173,1.813-1.3,2.174-1.442,7.247-1.3,5.8-.435.723a3.907,3.907,0,0,1-.361,3.624c-.245,0-.361.306-.361.905a2.726,2.726,0,0,1-.213,1.268l-1.525.723a.514.514,0,0,0,.509.363c.1.242.382.363.867.363-.047.488-.144,1.147-.288,1.992s-.264,1.753-.359,2.719l.585,1.45-3.555,1.087a13.365,13.365,0,0,1,2.4,1.447l-.865,6.884a21.158,21.158,0,0,1-2.031,2.174l1.6.363.148,2.174c-.236,1.214-.479,3.025-.717,5.437s-.382,4.471-.428,6.157a1.291,1.291,0,0,1-.69.542,2.049,2.049,0,0,0-.9.908,1.3,1.3,0,0,1-.691.542c-.312.124-.449.545-.4,1.272h.36l.8-.727a12.869,12.869,0,0,1,.546,1.813,5.876,5.876,0,0,1,.184,1.813q-1.013,6.521-.5,8.7c.148.966-.529,1.689-2.021,2.17h1.08a6.866,6.866,0,0,1,.406,3.264c-.122,1.208-.491,1.935-1.119,2.17-1.119.242-1.326,1.214-.651,2.9l.717-1.813c-.143.245-.091.363.15.363l.508,2.174a11.568,11.568,0,0,1-3.115.363l2.683,2.174c.049.723.172,1.938.368,3.627a6.742,6.742,0,0,1-.8,4.347c-.242,0-.455-.236-.647-.727a3.625,3.625,0,0,1-.037-1.45,3.147,3.147,0,0,0-.692-2.17l.15,5.8c.479,0,.647.124.5.36l.723-1.81q1.022,2.539-.211,3.987l1.022,4.347h-.729a2.389,2.389,0,0,0-.8-1.087,2.811,2.811,0,0,0-.144,1.447c.052.727-.117,1.214-.5,1.45l.866.363a.791.791,0,0,1,.073-.723c.146-.239.457-.363.945-.363a16.11,16.11,0,0,1,.439,1.992,2.573,2.573,0,0,1-1.451,2.719c-.243,0-.286.182-.143.542a1,1,0,0,1,0,.905l.007,5.437a10.816,10.816,0,0,0,.291,6.157c.1.245-.042.491-.428.727s-.245.606.433,1.09a2.454,2.454,0,0,1,.078,1.084,3.924,3.924,0,0,0,.36,1.813l.437,2.9.8,2.9,1.158,2.9a36.248,36.248,0,0,0,1.388,6.164,27.958,27.958,0,0,1,1.23,5.8,5.739,5.739,0,0,1-.5,3.26,53.1,53.1,0,0,1-14.507-14.495,2.391,2.391,0,0,0-.8-1.087l-.654-.727a1.5,1.5,0,0,1-.613-1.084,1.593,1.593,0,0,0-.624-1.09,71.19,71.19,0,0,1-4.725-16.3q-.8-4.709-1.463-16.3l-1.029-15.221q.071-2.529-.041-5.976a30.286,30.286,0,0,1,.319-5.979,35.027,35.027,0,0,0,.646-7.429q-.01-4.527.067-7.066a23.652,23.652,0,0,0,.573-5.8,15.3,15.3,0,0,1,.721-5.437,30.231,30.231,0,0,0,.358-5.434,4.912,4.912,0,0,1,1.225-3.264,3.486,3.486,0,0,1-1.158-1.087l.866-1.45q-.587-3.256,1.542-16.487t3.793-15.4a3.2,3.2,0,0,1-.943-1.45,9.631,9.631,0,0,1-.146-3.984l2.457-4.71a11.835,11.835,0,0,0,0-1.813,6.5,6.5,0,0,1,.434-2.531l.723-3.627q-8.114,1.458-12.032,2.537l-6.443,2.9c-.627.239-1.632.6-3.007,1.087a26.2,26.2,0,0,1-4.1,1.087,17.727,17.727,0,0,0-5.578,1.447l-.94.363a14.046,14.046,0,0,1-5.8-1.81c-2.22-1.935-3.192-3.742-2.9-5.437-.1-1.45.677-1.928,2.319-1.45h2.172a95.88,95.88,0,0,0,9.854-2.534,11.088,11.088,0,0,0,4.058-.727,109.488,109.488,0,0,1,14.712-3.984,48.568,48.568,0,0,0,7.027-1.45,4.366,4.366,0,0,0,2.171-.908,3.709,3.709,0,0,0,.506-2.355,32.364,32.364,0,0,1,1.225-5.071q.867-3.265,1.441-6.342c.39-2.049.772-3.805,1.162-5.255l1.729-6.524a35.747,35.747,0,0,0,1.512-7.968c.1-.963.226-2.295.4-3.987a17,17,0,0,0,.03-3.987c.48-2.413,1.354-3.86,2.605-4.347a8.135,8.135,0,0,0-.762-1.45,3.746,3.746,0,0,1-.548-1.813c-.188-.478.076-.723.8-.723l-1.3-1.447.071-.727a6.965,6.965,0,0,0,2.9-.905,5.067,5.067,0,0,1,3.4-.545,3.858,3.858,0,0,1,1.881-.723q1.814,0,4.135,2.174a12.541,12.541,0,0,0,4.132,2.174,9.914,9.914,0,0,1,2,2.715,3.558,3.558,0,0,0,2.064,2l.582,1.453a1.515,1.515,0,0,1,.112.723c-.03.242.13.484.472.723l.578,1.45c.05.723.082,1.874.113,3.442a11.26,11.26,0,0,1-.466,3.805q.434,4.709-.646,6.521a1.659,1.659,0,0,0-.107,1.087,1.509,1.509,0,0,0,.616,1.087,1.266,1.266,0,0,1-.5,1.45,9.3,9.3,0,0,0,.219,2.355,4.332,4.332,0,0,1-.582,3.079q-.794.731-2.022,5.8c-.2.727-.422,1.517-.683,2.358s-.5,1.629-.686,2.355q-1.889,4.346-1.52,6.157a2.744,2.744,0,0,0,1.594.366,184.142,184.142,0,0,1,19.571,1.81q3.185.727,7.646,1.45t7.649,1.447l6.381,1.45,1.229.363s.406.424,1.234,1.268a4.982,4.982,0,0,1,1.449,2.715Zm-80.922,103.63,1.375-2.9Q5036.354,242.408,5037.08,244.218Zm2.465,2.54a3.639,3.639,0,0,0-1.955-.367l-.076.727.438,1.087C5039.6,248.693,5040.128,248.206,5039.545,246.759Zm.856-15.945s-.291-.727-.869-2.177l-.872,3.26.226,1.453.8,1.084Q5040.4,230.815,5040.4,230.814Zm.917-23.916-.076-4.714Q5039.8,205.813,5041.318,206.9Zm3.089-29.35-2.968.723a7.127,7.127,0,0,0,2.032,1.45l-.941,5.8Q5045.857,181.174,5044.407,177.549Zm.632-21.019h-1.081a5.571,5.571,0,0,0,.682,1.268c.268.363.332.666.188.905h.36Q5045.768,158.345,5045.039,156.53Zm1.676,8.7a3.513,3.513,0,0,0-.829,2.9,14.921,14.921,0,0,1,.111,2.537Q5047.447,168.853,5046.715,165.228Zm2.011-23.912-.15-.366-.22.366.152.36Zm2.4,6.881c-.058-.727-.292-1.026-.73-.905a3.883,3.883,0,0,1-1.013.178C5049.772,148.438,5050.347,148.68,5051.123,148.2Zm1.8,71.383-.144-.36-.216.36Zm1.658-91.672h-.363l-.074.723.217-.363C5054.272,128.032,5054.339,127.907,5054.584,127.907Zm22.174,2.9a6.264,6.264,0,0,0-2.319-.363,6.06,6.06,0,0,1-2.321-.363c-.964,0-1.594.245-1.879.727a3,3,0,0,0-.363,1.81q1.6-1.444,5.943-1.447c.332.242.6.3.8.178A.4.4,0,0,0,5076.758,130.8Zm8.841.363a49.3,49.3,0,0,1-7.174-.727l-.07.727,7.177.727Zm8.484,3.079a1.5,1.5,0,0,0-.006-.905c-.483,0-.772.178-.864.542a1.408,1.408,0,0,0,.507,1.268A3.582,3.582,0,0,0,5094.084,134.246Zm-40.166,133.888c-.1-.239-.393-.363-.875-.363a13.425,13.425,0,0,1,.293,2.537h.728a1.247,1.247,0,0,1-.078-1.09A1.254,1.254,0,0,0,5053.918,268.134Z" transform="translate(-4514.44 -74.639)"/></svg>